<?xml version="1.0" encoding="us-ascii" standalone="no"?><svg xmlns="http://www.w3.org/2000/svg" xmlns:xlink="http://www.w3.org/1999/xlink" contentStyleType="text/css" height="603px" preserveAspectRatio="none" style="width:1241px;height:603px;background:#FFFFFF;" version="1.1" viewBox="0 0 1241 603" width="1241px" zoomAndPan="magnify"><defs/><g><g id="cluster_##2"><rect fill="#36827F" height="246" rx="2.5" ry="2.5" style="stroke:#181818;stroke-width:1.0;" width="635" x="7" y="16.9172"/></g><g id="cluster_##9"><rect fill="#EDB182" height="246" rx="2.5" ry="2.5" style="stroke:#181818;stroke-width:1.0;" width="154" x="790" y="351.9172"/></g><g id="cluster_##13"><rect fill="#D499B9" height="238" rx="2.5" ry="2.5" style="stroke:#181818;stroke-width:1.0;" width="569" x="666" y="16.9172"/></g><!--class Building--><g id="elem_Building"><rect codeLine="7" fill="#F1F1F1" height="76.543" id="Building" rx="2.5" ry="2.5" style="stroke:#181818;stroke-width:0.5;" width="82" x="382" y="32.9172"/><ellipse cx="397" cy="63.1886" fill="#ADD1B2" rx="11" ry="11" style="stroke:#181818;stroke-width:1.0;"/><path d="M399.7656,59.0636 Q399.9219,58.8449 400.1094,58.7355 Q400.2969,58.6261 400.5156,58.6261 Q400.8906,58.6261 401.125,58.8918 Q401.3594,59.1418 401.3594,59.7511 L401.3594,61.2043 Q401.3594,61.8136 401.125,62.0793 Q400.8906,62.3449 400.5156,62.3449 Q400.1719,62.3449 399.9688,62.1418 Q399.7656,61.9543 399.6563,61.4386 Q399.6094,61.0793 399.4219,60.8918 Q399.0938,60.5168 398.4844,60.298 Q397.875,60.0793 397.25,60.0793 Q396.4844,60.0793 395.8438,60.4074 Q395.2188,60.7355 394.7188,61.4855 Q394.2344,62.2355 394.2344,63.2668 L394.2344,64.3605 Q394.2344,65.5949 395.125,66.423 Q396.0156,67.2355 397.6094,67.2355 Q398.5469,67.2355 399.2031,66.9855 Q399.5938,66.8293 400.0156,66.3918 Q400.2813,66.1261 400.4219,66.048 Q400.5781,65.9699 400.7813,65.9699 Q401.1094,65.9699 401.3594,66.2355 Q401.625,66.4855 401.625,66.8293 Q401.625,67.173 401.2813,67.5793 Q400.7813,68.1574 399.9844,68.4855 Q398.9063,68.9386 397.6094,68.9386 Q396.0938,68.9386 394.8906,68.3136 Q393.9063,67.8136 393.2188,66.7511 Q392.5313,65.673 392.5313,64.3918 L392.5313,63.2355 Q392.5313,61.9074 393.1406,60.7668 Q393.7656,59.6105 394.8594,59.0011 Q395.9531,58.3761 397.1875,58.3761 Q397.9219,58.3761 398.5625,58.548 Q399.2188,58.7043 399.7656,59.0636 Z " fill="#000000"/><text fill="#000000" font-family="sans-serif" font-size="12" font-style="italic" lengthAdjust="spacing" textLength="40" x="416" y="50.8664">&#171;Root&#187;</text><text fill="#000000" font-family="sans-serif" font-size="12" font-style="italic" lengthAdjust="spacing" textLength="44" x="414" y="66.8273">&#171;Entity&#187;</text><text fill="#000000" font-family="sans-serif" font-size="14" lengthAdjust="spacing" textLength="50" x="411" y="84.9465">Building</text><line style="stroke:#181818;stroke-width:0.5;" x1="383" x2="463" y1="93.4601" y2="93.4601"/><line style="stroke:#181818;stroke-width:0.5;" x1="383" x2="463" y1="101.4601" y2="101.4601"/></g><!--class BuildingDescription--><g id="elem_BuildingDescription"><rect codeLine="8" fill="#F1F1F1" height="60.582" id="BuildingDescription" rx="2.5" ry="2.5" style="stroke:#181818;stroke-width:0.5;" width="153" x="23.5" y="177.9172"/><ellipse cx="38.5" cy="200.2082" fill="#A4C2E5" rx="11" ry="11" style="stroke:#181818;stroke-width:1.0;"/><path d="M39.1094,203.1457 L40.9531,199.3801 Q40.2656,199.3801 40.0781,199.2551 Q39.6563,199.0051 39.6563,198.5207 Q39.6563,198.1457 39.9219,197.9113 Q40.1875,197.6769 40.7969,197.6769 L43.125,197.6769 Q43.75,197.6769 44,197.9113 Q44.2656,198.1457 44.2656,198.5207 Q44.2656,198.8957 44,199.1457 Q43.75,199.3801 43.125,199.3801 L42.8438,199.3801 L40,205.2082 L38.2188,205.2082 L35.375,199.3801 L35.1406,199.3801 Q34.5156,199.3801 34.25,199.1457 Q34,198.8957 34,198.5207 Q34,198.1457 34.25,197.9113 Q34.5156,197.6769 35.1406,197.6769 L37.4219,197.6769 Q38.0313,197.6769 38.2813,197.9113 Q38.5469,198.1457 38.5469,198.5207 Q38.5469,199.0051 38.1563,199.2551 Q37.9531,199.3801 37.2656,199.3801 L39.1094,203.1457 Z " fill="#000000"/><text fill="#000000" font-family="sans-serif" font-size="12" font-style="italic" lengthAdjust="spacing" textLength="82" x="72" y="195.8664">&#171;ValueObject&#187;</text><text fill="#000000" font-family="sans-serif" font-size="14" lengthAdjust="spacing" textLength="121" x="52.5" y="213.9855">BuildingDescription</text><line style="stroke:#181818;stroke-width:0.5;" x1="24.5" x2="175.5" y1="222.4992" y2="222.4992"/><line style="stroke:#181818;stroke-width:0.5;" x1="24.5" x2="175.5" y1="230.4992" y2="230.4992"/></g><!--class BuildingName--><g id="elem_BuildingName"><rect codeLine="9" fill="#F1F1F1" height="60.582" id="BuildingName" rx="2.5" ry="2.5" style="stroke:#181818;stroke-width:0.5;" width="118" x="212" y="177.9172"/><ellipse cx="227" cy="200.2082" fill="#A4C2E5" rx="11" ry="11" style="stroke:#181818;stroke-width:1.0;"/><path d="M227.6094,203.1457 L229.4531,199.3801 Q228.7656,199.3801 228.5781,199.2551 Q228.1563,199.0051 228.1563,198.5207 Q228.1563,198.1457 228.4219,197.9113 Q228.6875,197.6769 229.2969,197.6769 L231.625,197.6769 Q232.25,197.6769 232.5,197.9113 Q232.7656,198.1457 232.7656,198.5207 Q232.7656,198.8957 232.5,199.1457 Q232.25,199.3801 231.625,199.3801 L231.3438,199.3801 L228.5,205.2082 L226.7188,205.2082 L223.875,199.3801 L223.6406,199.3801 Q223.0156,199.3801 222.75,199.1457 Q222.5,198.8957 222.5,198.5207 Q222.5,198.1457 222.75,197.9113 Q223.0156,197.6769 223.6406,197.6769 L225.9219,197.6769 Q226.5313,197.6769 226.7813,197.9113 Q227.0469,198.1457 227.0469,198.5207 Q227.0469,199.0051 226.6563,199.2551 Q226.4531,199.3801 225.7656,199.3801 L227.6094,203.1457 Z " fill="#000000"/><text fill="#000000" font-family="sans-serif" font-size="12" font-style="italic" lengthAdjust="spacing" textLength="82" x="243" y="195.8664">&#171;ValueObject&#187;</text><text fill="#000000" font-family="sans-serif" font-size="14" lengthAdjust="spacing" textLength="86" x="241" y="213.9855">BuildingName</text><line style="stroke:#181818;stroke-width:0.5;" x1="213" x2="329" y1="222.4992" y2="222.4992"/><line style="stroke:#181818;stroke-width:0.5;" x1="213" x2="329" y1="230.4992" y2="230.4992"/></g><!--class BuildingCode--><g id="elem_BuildingCode"><rect codeLine="10" fill="#F1F1F1" height="76.543" id="BuildingCode" rx="2.5" ry="2.5" style="stroke:#181818;stroke-width:0.5;" width="116" x="365" y="169.9172"/><ellipse cx="380" cy="200.1886" fill="#FFA500" rx="11" ry="11" style="stroke:#181818;stroke-width:1.0;"/><path d="M380.6094,203.1261 L382.4531,199.3605 Q381.7656,199.3605 381.5781,199.2355 Q381.1563,198.9855 381.1563,198.5011 Q381.1563,198.1261 381.4219,197.8918 Q381.6875,197.6574 382.2969,197.6574 L384.625,197.6574 Q385.25,197.6574 385.5,197.8918 Q385.7656,198.1261 385.7656,198.5011 Q385.7656,198.8761 385.5,199.1261 Q385.25,199.3605 384.625,199.3605 L384.3438,199.3605 L381.5,205.1886 L379.7188,205.1886 L376.875,199.3605 L376.6406,199.3605 Q376.0156,199.3605 375.75,199.1261 Q375.5,198.8761 375.5,198.5011 Q375.5,198.1261 375.75,197.8918 Q376.0156,197.6574 376.6406,197.6574 L378.9219,197.6574 Q379.5313,197.6574 379.7813,197.8918 Q380.0469,198.1261 380.0469,198.5011 Q380.0469,198.9855 379.6563,199.2355 Q379.4531,199.3605 378.7656,199.3605 L380.6094,203.1261 Z " fill="#000000"/><text fill="#000000" font-family="sans-serif" font-size="12" font-style="italic" lengthAdjust="spacing" textLength="82" x="395" y="187.8664">&#171;ValueObject&#187;</text><text fill="#000000" font-family="sans-serif" font-size="12" font-style="italic" lengthAdjust="spacing" textLength="52" x="410" y="203.8273">&#171;unique&#187;</text><text fill="#000000" font-family="sans-serif" font-size="14" lengthAdjust="spacing" textLength="84" x="394" y="221.9465">BuildingCode</text><line style="stroke:#181818;stroke-width:0.5;" x1="366" x2="480" y1="230.4601" y2="230.4601"/><line style="stroke:#181818;stroke-width:0.5;" x1="366" x2="480" y1="238.4601" y2="238.4601"/></g><!--class BuildingSize--><g id="elem_BuildingSize"><rect codeLine="11" fill="#F1F1F1" height="60.582" id="BuildingSize" rx="2.5" ry="2.5" style="stroke:#181818;stroke-width:0.5;" width="110" x="516" y="177.9172"/><ellipse cx="531" cy="200.2082" fill="#A4C2E5" rx="11" ry="11" style="stroke:#181818;stroke-width:1.0;"/><path d="M531.6094,203.1457 L533.4531,199.3801 Q532.7656,199.3801 532.5781,199.2551 Q532.1563,199.0051 532.1563,198.5207 Q532.1563,198.1457 532.4219,197.9113 Q532.6875,197.6769 533.2969,197.6769 L535.625,197.6769 Q536.25,197.6769 536.5,197.9113 Q536.7656,198.1457 536.7656,198.5207 Q536.7656,198.8957 536.5,199.1457 Q536.25,199.3801 535.625,199.3801 L535.3438,199.3801 L532.5,205.2082 L530.7188,205.2082 L527.875,199.3801 L527.6406,199.3801 Q527.0156,199.3801 526.75,199.1457 Q526.5,198.8957 526.5,198.5207 Q526.5,198.1457 526.75,197.9113 Q527.0156,197.6769 527.6406,197.6769 L529.9219,197.6769 Q530.5313,197.6769 530.7813,197.9113 Q531.0469,198.1457 531.0469,198.5207 Q531.0469,199.0051 530.6563,199.2551 Q530.4531,199.3801 529.7656,199.3801 L531.6094,203.1457 Z " fill="#000000"/><text fill="#000000" font-family="sans-serif" font-size="12" font-style="italic" lengthAdjust="spacing" textLength="82" x="543" y="195.8664">&#171;ValueObject&#187;</text><text fill="#000000" font-family="sans-serif" font-size="14" lengthAdjust="spacing" textLength="76" x="546" y="213.9855">BuildingSize</text><line style="stroke:#181818;stroke-width:0.5;" x1="517" x2="625" y1="222.4992" y2="222.4992"/><line style="stroke:#181818;stroke-width:0.5;" x1="517" x2="625" y1="230.4992" y2="230.4992"/></g><!--class Passageway--><g id="elem_Passageway"><rect codeLine="15" fill="#F1F1F1" height="76.543" id="Passageway" rx="2.5" ry="2.5" style="stroke:#181818;stroke-width:0.5;" width="111" x="811.5" y="367.9172"/><ellipse cx="826.5" cy="398.1886" fill="#ADD1B2" rx="11" ry="11" style="stroke:#181818;stroke-width:1.0;"/><path d="M829.2656,394.0636 Q829.4219,393.8449 829.6094,393.7355 Q829.7969,393.6261 830.0156,393.6261 Q830.3906,393.6261 830.625,393.8918 Q830.8594,394.1418 830.8594,394.7511 L830.8594,396.2043 Q830.8594,396.8136 830.625,397.0793 Q830.3906,397.3449 830.0156,397.3449 Q829.6719,397.3449 829.4688,397.1418 Q829.2656,396.9543 829.1563,396.4386 Q829.1094,396.0793 828.9219,395.8918 Q828.5938,395.5168 827.9844,395.298 Q827.375,395.0793 826.75,395.0793 Q825.9844,395.0793 825.3438,395.4074 Q824.7188,395.7355 824.2188,396.4855 Q823.7344,397.2355 823.7344,398.2668 L823.7344,399.3605 Q823.7344,400.5949 824.625,401.423 Q825.5156,402.2355 827.1094,402.2355 Q828.0469,402.2355 828.7031,401.9855 Q829.0938,401.8293 829.5156,401.3918 Q829.7813,401.1261 829.9219,401.048 Q830.0781,400.9699 830.2813,400.9699 Q830.6094,400.9699 830.8594,401.2355 Q831.125,401.4855 831.125,401.8293 Q831.125,402.173 830.7813,402.5793 Q830.2813,403.1574 829.4844,403.4855 Q828.4063,403.9386 827.1094,403.9386 Q825.5938,403.9386 824.3906,403.3136 Q823.4063,402.8136 822.7188,401.7511 Q822.0313,400.673 822.0313,399.3918 L822.0313,398.2355 Q822.0313,396.9074 822.6406,395.7668 Q823.2656,394.6105 824.3594,394.0011 Q825.4531,393.3761 826.6875,393.3761 Q827.4219,393.3761 828.0625,393.548 Q828.7188,393.7043 829.2656,394.0636 Z " fill="#000000"/><text fill="#000000" font-family="sans-serif" font-size="12" font-style="italic" lengthAdjust="spacing" textLength="40" x="860" y="385.8664">&#171;Root&#187;</text><text fill="#000000" font-family="sans-serif" font-size="12" font-style="italic" lengthAdjust="spacing" textLength="44" x="858" y="401.8273">&#171;Entity&#187;</text><text fill="#000000" font-family="sans-serif" font-size="14" lengthAdjust="spacing" textLength="79" x="840.5" y="419.9465">Passageway</text><line style="stroke:#181818;stroke-width:0.5;" x1="812.5" x2="921.5" y1="428.4601" y2="428.4601"/><line style="stroke:#181818;stroke-width:0.5;" x1="812.5" x2="921.5" y1="436.4601" y2="436.4601"/></g><!--class PassagewayId--><g id="elem_PassagewayId"><rect codeLine="16" fill="#F1F1F1" height="76.543" id="PassagewayId" rx="2.5" ry="2.5" style="stroke:#181818;stroke-width:0.5;" width="122" x="806" y="504.9172"/><ellipse cx="821" cy="535.1886" fill="#FFA500" rx="11" ry="11" style="stroke:#181818;stroke-width:1.0;"/><path d="M821.6094,538.1261 L823.4531,534.3605 Q822.7656,534.3605 822.5781,534.2355 Q822.1563,533.9855 822.1563,533.5011 Q822.1563,533.1261 822.4219,532.8918 Q822.6875,532.6574 823.2969,532.6574 L825.625,532.6574 Q826.25,532.6574 826.5,532.8918 Q826.7656,533.1261 826.7656,533.5011 Q826.7656,533.8761 826.5,534.1261 Q826.25,534.3605 825.625,534.3605 L825.3438,534.3605 L822.5,540.1886 L820.7188,540.1886 L817.875,534.3605 L817.6406,534.3605 Q817.0156,534.3605 816.75,534.1261 Q816.5,533.8761 816.5,533.5011 Q816.5,533.1261 816.75,532.8918 Q817.0156,532.6574 817.6406,532.6574 L819.9219,532.6574 Q820.5313,532.6574 820.7813,532.8918 Q821.0469,533.1261 821.0469,533.5011 Q821.0469,533.9855 820.6563,534.2355 Q820.4531,534.3605 819.7656,534.3605 L821.6094,538.1261 Z " fill="#000000"/><text fill="#000000" font-family="sans-serif" font-size="12" font-style="italic" lengthAdjust="spacing" textLength="82" x="839" y="522.8664">&#171;ValueObject&#187;</text><text fill="#000000" font-family="sans-serif" font-size="12" font-style="italic" lengthAdjust="spacing" textLength="52" x="854" y="538.8273">&#171;unique&#187;</text><text fill="#000000" font-family="sans-serif" font-size="14" lengthAdjust="spacing" textLength="90" x="835" y="556.9465">PassagewayId</text><line style="stroke:#181818;stroke-width:0.5;" x1="807" x2="927" y1="565.4601" y2="565.4601"/><line style="stroke:#181818;stroke-width:0.5;" x1="807" x2="927" y1="573.4601" y2="573.4601"/></g><!--class Floor--><g id="elem_Floor"><rect codeLine="20" fill="#F1F1F1" height="76.543" id="Floor" rx="2.5" ry="2.5" style="stroke:#181818;stroke-width:0.5;" width="72" x="831" y="32.9172"/><ellipse cx="846" cy="63.1886" fill="#ADD1B2" rx="11" ry="11" style="stroke:#181818;stroke-width:1.0;"/><path d="M848.7656,59.0636 Q848.9219,58.8449 849.1094,58.7355 Q849.2969,58.6261 849.5156,58.6261 Q849.8906,58.6261 850.125,58.8918 Q850.3594,59.1418 850.3594,59.7511 L850.3594,61.2043 Q850.3594,61.8136 850.125,62.0793 Q849.8906,62.3449 849.5156,62.3449 Q849.1719,62.3449 848.9688,62.1418 Q848.7656,61.9543 848.6563,61.4386 Q848.6094,61.0793 848.4219,60.8918 Q848.0938,60.5168 847.4844,60.298 Q846.875,60.0793 846.25,60.0793 Q845.4844,60.0793 844.8438,60.4074 Q844.2188,60.7355 843.7188,61.4855 Q843.2344,62.2355 843.2344,63.2668 L843.2344,64.3605 Q843.2344,65.5949 844.125,66.423 Q845.0156,67.2355 846.6094,67.2355 Q847.5469,67.2355 848.2031,66.9855 Q848.5938,66.8293 849.0156,66.3918 Q849.2813,66.1261 849.4219,66.048 Q849.5781,65.9699 849.7813,65.9699 Q850.1094,65.9699 850.3594,66.2355 Q850.625,66.4855 850.625,66.8293 Q850.625,67.173 850.2813,67.5793 Q849.7813,68.1574 848.9844,68.4855 Q847.9063,68.9386 846.6094,68.9386 Q845.0938,68.9386 843.8906,68.3136 Q842.9063,67.8136 842.2188,66.7511 Q841.5313,65.673 841.5313,64.3918 L841.5313,63.2355 Q841.5313,61.9074 842.1406,60.7668 Q842.7656,59.6105 843.8594,59.0011 Q844.9531,58.3761 846.1875,58.3761 Q846.9219,58.3761 847.5625,58.548 Q848.2188,58.7043 848.7656,59.0636 Z " fill="#000000"/><text fill="#000000" font-family="sans-serif" font-size="12" font-style="italic" lengthAdjust="spacing" textLength="40" x="860" y="50.8664">&#171;Root&#187;</text><text fill="#000000" font-family="sans-serif" font-size="12" font-style="italic" lengthAdjust="spacing" textLength="44" x="858" y="66.8273">&#171;Entity&#187;</text><text fill="#000000" font-family="sans-serif" font-size="14" lengthAdjust="spacing" textLength="33" x="863.5" y="84.9465">Floor</text><line style="stroke:#181818;stroke-width:0.5;" x1="832" x2="902" y1="93.4601" y2="93.4601"/><line style="stroke:#181818;stroke-width:0.5;" x1="832" x2="902" y1="101.4601" y2="101.4601"/></g><!--class FloorId--><g id="elem_FloorId"><rect codeLine="21" fill="#F1F1F1" height="76.543" id="FloorId" rx="2.5" ry="2.5" style="stroke:#181818;stroke-width:0.5;" width="110" x="938" y="32.9172"/><ellipse cx="953" cy="63.1886" fill="#FFA500" rx="11" ry="11" style="stroke:#181818;stroke-width:1.0;"/><path d="M953.6094,66.1261 L955.4531,62.3605 Q954.7656,62.3605 954.5781,62.2355 Q954.1563,61.9855 954.1563,61.5011 Q954.1563,61.1261 954.4219,60.8918 Q954.6875,60.6574 955.2969,60.6574 L957.625,60.6574 Q958.25,60.6574 958.5,60.8918 Q958.7656,61.1261 958.7656,61.5011 Q958.7656,61.8761 958.5,62.1261 Q958.25,62.3605 957.625,62.3605 L957.3438,62.3605 L954.5,68.1886 L952.7188,68.1886 L949.875,62.3605 L949.6406,62.3605 Q949.0156,62.3605 948.75,62.1261 Q948.5,61.8761 948.5,61.5011 Q948.5,61.1261 948.75,60.8918 Q949.0156,60.6574 949.6406,60.6574 L951.9219,60.6574 Q952.5313,60.6574 952.7813,60.8918 Q953.0469,61.1261 953.0469,61.5011 Q953.0469,61.9855 952.6563,62.2355 Q952.4531,62.3605 951.7656,62.3605 L953.6094,66.1261 Z " fill="#000000"/><text fill="#000000" font-family="sans-serif" font-size="12" font-style="italic" lengthAdjust="spacing" textLength="82" x="965" y="50.8664">&#171;ValueObject&#187;</text><text fill="#000000" font-family="sans-serif" font-size="12" font-style="italic" lengthAdjust="spacing" textLength="52" x="980" y="66.8273">&#171;unique&#187;</text><text fill="#000000" font-family="sans-serif" font-size="14" lengthAdjust="spacing" textLength="44" x="984" y="84.9465">FloorId</text><line style="stroke:#181818;stroke-width:0.5;" x1="939" x2="1047" y1="93.4601" y2="93.4601"/><line style="stroke:#181818;stroke-width:0.5;" x1="939" x2="1047" y1="101.4601" y2="101.4601"/></g><!--class FloorDescription--><g id="elem_FloorDescription"><rect codeLine="22" fill="#F1F1F1" height="60.582" id="FloorDescription" rx="2.5" ry="2.5" style="stroke:#181818;stroke-width:0.5;" width="136" x="1083" y="40.9172"/><ellipse cx="1098" cy="63.2082" fill="#A4C2E5" rx="11" ry="11" style="stroke:#181818;stroke-width:1.0;"/><path d="M1098.6094,66.1457 L1100.4531,62.3801 Q1099.7656,62.3801 1099.5781,62.2551 Q1099.1563,62.0051 1099.1563,61.5207 Q1099.1563,61.1457 1099.4219,60.9113 Q1099.6875,60.6769 1100.2969,60.6769 L1102.625,60.6769 Q1103.25,60.6769 1103.5,60.9113 Q1103.7656,61.1457 1103.7656,61.5207 Q1103.7656,61.8957 1103.5,62.1457 Q1103.25,62.3801 1102.625,62.3801 L1102.3438,62.3801 L1099.5,68.2082 L1097.7188,68.2082 L1094.875,62.3801 L1094.6406,62.3801 Q1094.0156,62.3801 1093.75,62.1457 Q1093.5,61.8957 1093.5,61.5207 Q1093.5,61.1457 1093.75,60.9113 Q1094.0156,60.6769 1094.6406,60.6769 L1096.9219,60.6769 Q1097.5313,60.6769 1097.7813,60.9113 Q1098.0469,61.1457 1098.0469,61.5207 Q1098.0469,62.0051 1097.6563,62.2551 Q1097.4531,62.3801 1096.7656,62.3801 L1098.6094,66.1457 Z " fill="#000000"/><text fill="#000000" font-family="sans-serif" font-size="12" font-style="italic" lengthAdjust="spacing" textLength="82" x="1123" y="58.8664">&#171;ValueObject&#187;</text><text fill="#000000" font-family="sans-serif" font-size="14" lengthAdjust="spacing" textLength="104" x="1112" y="76.9855">FloorDescription</text><line style="stroke:#181818;stroke-width:0.5;" x1="1084" x2="1218" y1="85.4992" y2="85.4992"/><line style="stroke:#181818;stroke-width:0.5;" x1="1084" x2="1218" y1="93.4992" y2="93.4992"/></g><!--class FloorMap--><g id="elem_FloorMap"><rect codeLine="23" fill="#F1F1F1" height="60.582" id="FloorMap" rx="2.5" ry="2.5" style="stroke:#181818;stroke-width:0.5;" width="92" x="821" y="177.9172"/><ellipse cx="836" cy="200.2082" fill="#ADD1B2" rx="11" ry="11" style="stroke:#181818;stroke-width:1.0;"/><path d="M838.7656,196.0832 Q838.9219,195.8644 839.1094,195.7551 Q839.2969,195.6457 839.5156,195.6457 Q839.8906,195.6457 840.125,195.9113 Q840.3594,196.1613 840.3594,196.7707 L840.3594,198.2238 Q840.3594,198.8332 840.125,199.0988 Q839.8906,199.3644 839.5156,199.3644 Q839.1719,199.3644 838.9688,199.1613 Q838.7656,198.9738 838.6563,198.4582 Q838.6094,198.0988 838.4219,197.9113 Q838.0938,197.5363 837.4844,197.3176 Q836.875,197.0988 836.25,197.0988 Q835.4844,197.0988 834.8438,197.4269 Q834.2188,197.7551 833.7188,198.5051 Q833.2344,199.2551 833.2344,200.2863 L833.2344,201.3801 Q833.2344,202.6144 834.125,203.4426 Q835.0156,204.2551 836.6094,204.2551 Q837.5469,204.2551 838.2031,204.0051 Q838.5938,203.8488 839.0156,203.4113 Q839.2813,203.1457 839.4219,203.0676 Q839.5781,202.9894 839.7813,202.9894 Q840.1094,202.9894 840.3594,203.2551 Q840.625,203.5051 840.625,203.8488 Q840.625,204.1926 840.2813,204.5988 Q839.7813,205.1769 838.9844,205.5051 Q837.9063,205.9582 836.6094,205.9582 Q835.0938,205.9582 833.8906,205.3332 Q832.9063,204.8332 832.2188,203.7707 Q831.5313,202.6926 831.5313,201.4113 L831.5313,200.2551 Q831.5313,198.9269 832.1406,197.7863 Q832.7656,196.6301 833.8594,196.0207 Q834.9531,195.3957 836.1875,195.3957 Q836.9219,195.3957 837.5625,195.5676 Q838.2188,195.7238 838.7656,196.0832 Z " fill="#000000"/><text fill="#000000" font-family="sans-serif" font-size="12" font-style="italic" lengthAdjust="spacing" textLength="44" x="858" y="195.8664">&#171;Entity&#187;</text><text fill="#000000" font-family="sans-serif" font-size="14" lengthAdjust="spacing" textLength="60" x="850" y="213.9855">FloorMap</text><line style="stroke:#181818;stroke-width:0.5;" x1="822" x2="912" y1="222.4992" y2="222.4992"/><line style="stroke:#181818;stroke-width:0.5;" x1="822" x2="912" y1="230.4992" y2="230.4992"/></g><!--class FloorNumber--><g id="elem_FloorNumber"><rect codeLine="24" fill="#F1F1F1" height="60.582" id="FloorNumber" rx="2.5" ry="2.5" style="stroke:#181818;stroke-width:0.5;" width="114" x="682" y="40.9172"/><ellipse cx="697" cy="63.2082" fill="#A4C2E5" rx="11" ry="11" style="stroke:#181818;stroke-width:1.0;"/><path d="M697.6094,66.1457 L699.4531,62.3801 Q698.7656,62.3801 698.5781,62.2551 Q698.1563,62.0051 698.1563,61.5207 Q698.1563,61.1457 698.4219,60.9113 Q698.6875,60.6769 699.2969,60.6769 L701.625,60.6769 Q702.25,60.6769 702.5,60.9113 Q702.7656,61.1457 702.7656,61.5207 Q702.7656,61.8957 702.5,62.1457 Q702.25,62.3801 701.625,62.3801 L701.3438,62.3801 L698.5,68.2082 L696.7188,68.2082 L693.875,62.3801 L693.6406,62.3801 Q693.0156,62.3801 692.75,62.1457 Q692.5,61.8957 692.5,61.5207 Q692.5,61.1457 692.75,60.9113 Q693.0156,60.6769 693.6406,60.6769 L695.9219,60.6769 Q696.5313,60.6769 696.7813,60.9113 Q697.0469,61.1457 697.0469,61.5207 Q697.0469,62.0051 696.6563,62.2551 Q696.4531,62.3801 695.7656,62.3801 L697.6094,66.1457 Z " fill="#000000"/><text fill="#000000" font-family="sans-serif" font-size="12" font-style="italic" lengthAdjust="spacing" textLength="82" x="711" y="58.8664">&#171;ValueObject&#187;</text><text fill="#000000" font-family="sans-serif" font-size="14" lengthAdjust="spacing" textLength="82" x="711" y="76.9855">FloorNumber</text><line style="stroke:#181818;stroke-width:0.5;" x1="683" x2="795" y1="85.4992" y2="85.4992"/><line style="stroke:#181818;stroke-width:0.5;" x1="683" x2="795" y1="93.4992" y2="93.4992"/></g><!--link Building to Floor--><g id="link_Building_Floor"><path codeLine="29" d="M464.37,104.9172 C550.81,104.9172 743.27,104.9172 824.91,104.9172 " fill="none" id="Building-to-Floor" style="stroke:#181818;stroke-width:1.0;"/><polygon fill="#181818" points="830.91,104.9172,821.91,100.9172,825.91,104.9172,821.91,108.9172,830.91,104.9172" style="stroke:#181818;stroke-width:1.0;"/><text fill="#000000" font-family="sans-serif" font-size="13" lengthAdjust="spacing" textLength="7" x="472.082" y="106.3066">1</text><text fill="#000000" font-family="sans-serif" font-size="13" lengthAdjust="spacing" textLength="5" x="817.9508" y="107.1789">*</text></g><!--link Building to BuildingDescription--><g id="link_Building_BuildingDescription"><path codeLine="30" d="M381.76,58.9172 C294.69,58.9172 100,58.9172 100,58.9172 C100,58.9172 100,128.0672 100,171.8072 " fill="none" id="Building-to-BuildingDescription" style="stroke:#181818;stroke-width:1.0;"/><polygon fill="#181818" points="100,177.8072,104,168.8072,100,172.8072,96,168.8072,100,177.8072" style="stroke:#181818;stroke-width:1.0;"/><text fill="#000000" font-family="sans-serif" font-size="13" lengthAdjust="spacing" textLength="5" x="368.9688" y="52.2715">*</text><text fill="#000000" font-family="sans-serif" font-size="13" lengthAdjust="spacing" textLength="22" x="75.7313" y="166.8422">0..1</text></g><!--link Building to BuildingSize--><g id="link_Building_BuildingSize"><path codeLine="31" d="M464.23,107.9172 C508.02,107.9172 571,107.9172 571,107.9172 C571,107.9172 571,142.1672 571,171.7172 " fill="none" id="Building-to-BuildingSize" style="stroke:#181818;stroke-width:1.0;"/><polygon fill="#181818" points="571,177.7172,575,168.7172,571,172.7172,567,168.7172,571,177.7172" style="stroke:#181818;stroke-width:1.0;"/><text fill="#000000" font-family="sans-serif" font-size="13" lengthAdjust="spacing" textLength="5" x="472.0194" y="130.0277">*</text><text fill="#000000" font-family="sans-serif" font-size="13" lengthAdjust="spacing" textLength="7" x="563.2781" y="166.7336">1</text></g><!--link Building to BuildingName--><g id="link_Building_BuildingName"><path codeLine="32" d="M381.87,84.9172 C336.85,84.9172 271,84.9172 271,84.9172 C271,84.9172 271,135.3172 271,171.8872 " fill="none" id="Building-to-BuildingName" style="stroke:#181818;stroke-width:1.0;"/><polygon fill="#181818" points="271,177.8872,275,168.8872,271,172.8872,267,168.8872,271,177.8872" style="stroke:#181818;stroke-width:1.0;"/><text fill="#000000" font-family="sans-serif" font-size="13" lengthAdjust="spacing" textLength="7" x="366.9203" y="82.9027">1</text><text fill="#000000" font-family="sans-serif" font-size="13" lengthAdjust="spacing" textLength="22" x="246.5938" y="166.4552">0..1</text></g><!--link Building to BuildingCode--><g id="link_Building_BuildingCode"><path codeLine="33" d="M423,109.9472 C423,128.6172 423,145.0072 423,163.7072 " fill="none" id="Building-to-BuildingCode" style="stroke:#181818;stroke-width:1.0;"/><polygon fill="#181818" points="423,169.7072,427,160.7072,423,164.7072,419,160.7072,423,169.7072" style="stroke:#181818;stroke-width:1.0;"/><text fill="#000000" font-family="sans-serif" font-size="13" lengthAdjust="spacing" textLength="7" x="415.4422" y="131.5305">1</text><text fill="#000000" font-family="sans-serif" font-size="13" lengthAdjust="spacing" textLength="7" x="415.3984" y="158.6855">1</text></g><!--link Passageway to PassagewayId--><g id="link_Passageway_PassagewayId"><path codeLine="35" d="M867,444.9472 C867,463.6172 867,480.0072 867,498.7072 " fill="none" id="Passageway-to-PassagewayId" style="stroke:#181818;stroke-width:1.0;"/><polygon fill="#181818" points="867,504.7072,871,495.7072,867,499.7072,863,495.7072,867,504.7072" style="stroke:#181818;stroke-width:1.0;"/><text fill="#000000" font-family="sans-serif" font-size="13" lengthAdjust="spacing" textLength="7" x="859.4422" y="466.5305">1</text><text fill="#000000" font-family="sans-serif" font-size="13" lengthAdjust="spacing" textLength="7" x="859.3984" y="493.6855">1</text></g><!--link Floor to FloorMap--><g id="link_Floor_FloorMap"><path codeLine="37" d="M867,109.9472 C867,131.3172 867,151.5272 867,171.5372 " fill="none" id="Floor-to-FloorMap" style="stroke:#181818;stroke-width:1.0;"/><polygon fill="#181818" points="867,177.5372,871,168.5372,867,172.5372,863,168.5372,867,177.5372" style="stroke:#181818;stroke-width:1.0;"/><text fill="#000000" font-family="sans-serif" font-size="13" lengthAdjust="spacing" textLength="7" x="859.4422" y="131.5305">1</text><text fill="#000000" font-family="sans-serif" font-size="13" lengthAdjust="spacing" textLength="7" x="859.2781" y="166.5165">1</text></g><!--reverse link FloorNumber to Floor--><g id="link_FloorNumber_Floor"><path codeLine="38" d="M802.26,71.9172 C813.98,71.9172 820,71.9172 830.73,71.9172 " fill="none" id="FloorNumber-backto-Floor" style="stroke:#181818;stroke-width:1.0;"/><polygon fill="#181818" points="796.26,71.9172,805.26,75.9172,801.26,71.9172,805.26,67.9172,796.26,71.9172" style="stroke:#181818;stroke-width:1.0;"/><text fill="#000000" font-family="sans-serif" font-size="13" lengthAdjust="spacing" textLength="7" x="804.0449" y="67.9659">1</text><text fill="#000000" font-family="sans-serif" font-size="13" lengthAdjust="spacing" textLength="5" x="818.0972" y="67.4441">*</text></g><!--link Floor to FloorDescription--><g id="link_Floor_FloorDescription"><path codeLine="39" d="M867,32.7972 C867,22.8672 867,14.9172 867,14.9172 C867,14.9172 1151,14.9172 1151,14.9172 C1151,14.9172 1151,21.5372 1151,34.8472 " fill="none" id="Floor-to-FloorDescription" style="stroke:#181818;stroke-width:1.0;"/><polygon fill="#181818" points="1151,40.8472,1155,31.8472,1151,35.8472,1147,31.8472,1151,40.8472" style="stroke:#181818;stroke-width:1.0;"/><text fill="#000000" font-family="sans-serif" font-size="13" lengthAdjust="spacing" textLength="5" x="861.5703" y="21.791">*</text><text fill="#000000" font-family="sans-serif" font-size="13" lengthAdjust="spacing" textLength="7" x="1143.2781" y="29.8904">1</text></g><!--link Floor to FloorId--><g id="link_Floor_FloorId"><path codeLine="40" d="M903.11,71.9172 C913.87,71.9172 919.92,71.9172 931.62,71.9172 " fill="none" id="Floor-to-FloorId" style="stroke:#181818;stroke-width:1.0;"/><polygon fill="#181818" points="937.62,71.9172,928.62,67.9172,932.62,71.9172,928.62,75.9172,937.62,71.9172" style="stroke:#181818;stroke-width:1.0;"/><text fill="#000000" font-family="sans-serif" font-size="13" lengthAdjust="spacing" textLength="7" x="910.9082" y="67.4441">1</text><text fill="#000000" font-family="sans-serif" font-size="13" lengthAdjust="spacing" textLength="7" x="923.076" y="67.9684">1</text></g><!--link FloorMap to Passageway--><g id="link_FloorMap_Passageway"><path codeLine="42" d="M867,238.9172 C867,273.5272 867,324.0272 867,361.7072 " fill="none" id="FloorMap-to-Passageway" style="stroke:#181818;stroke-width:1.0;"/><polygon fill="#181818" points="867,367.7072,871,358.7072,867,362.7072,863,358.7072,867,367.7072" style="stroke:#181818;stroke-width:1.0;"/><text fill="#000000" font-family="sans-serif" font-size="13" lengthAdjust="spacing" textLength="7" x="859.3328" y="260.4474">2</text><text fill="#000000" font-family="sans-serif" font-size="13" lengthAdjust="spacing" textLength="20" x="845.2813" y="356.6855">0..*</text></g><!--SRC=[hLDRJuCm67tlhsYw1vMunU7KaKmITqjyS1fDVEz6WzMknT9gfjb_juK0TMW8EXu8vPpJxtotz8No14kyXenoeZO9WKAg9m40EBZyumCaMIdCOqPWv_Hyw5_CFy6AuJI5OqrPH7aCuMW4xuLGC0pjvumhgZRciCERadGbQQAeu9dayEsuSpMO-BEp8_Y8cIQtosSJgovSu3LffvY8g5G8QToJNO45DQUlcjJL3_IZCTvsFnMTJSVzeLzKzCwyS4pUyQQffXNpEcgJw9viJmT1C0uAstCcX6nod97QcNM4hMSdKztW1FxgPQ7NIo8Rs_oFWe5oGr0VTKFaeJooyzz3NGESz7fzzDEUr9WEpKxfzmYrc-pYr2WERjS406VgB2NAEUw40P2ts86B-XQ8iQSh8A-jWrMGcrrvA-o6i6IKyMpxa6zCvubvhYdm1G00]--></g></svg>