<?xml version="1.0" encoding="us-ascii" standalone="no"?><svg xmlns="http://www.w3.org/2000/svg" xmlns:xlink="http://www.w3.org/1999/xlink" contentStyleType="text/css" height="169px" preserveAspectRatio="none" style="width:568px;height:169px;background:#FFFFFF;" version="1.1" viewBox="0 0 568 169" width="568px" zoomAndPan="magnify"><defs/><g><!--entity CM--><g id="elem_CM"><ellipse cx="70" cy="14" fill="#F1F1F1" rx="8" ry="8" style="stroke:#181818;stroke-width:0.5;"/><text fill="#000000" font-family="sans-serif" font-size="14" lengthAdjust="spacing" textLength="128" x="6" y="43.6738">UI Campus Manager</text></g><!--entity FM--><g id="elem_FM"><ellipse cx="239" cy="14" fill="#F1F1F1" rx="8" ry="8" style="stroke:#181818;stroke-width:0.5;"/><text fill="#000000" font-family="sans-serif" font-size="14" lengthAdjust="spacing" textLength="108" x="185" y="43.6738">UI Fleet Manager</text></g><!--entity SM--><g id="elem_SM"><ellipse cx="405" cy="14" fill="#F1F1F1" rx="8" ry="8" style="stroke:#181818;stroke-width:0.5;"/><text fill="#000000" font-family="sans-serif" font-size="14" lengthAdjust="spacing" textLength="122" x="344" y="43.6738">UI System Manager</text></g><!--entity U--><g id="elem_U"><ellipse cx="539" cy="14" fill="#F1F1F1" rx="8" ry="8" style="stroke:#181818;stroke-width:0.5;"/><text fill="#000000" font-family="sans-serif" font-size="14" lengthAdjust="spacing" textLength="45" x="516.5" y="43.6738">UI User</text></g><!--entity RDG--><g id="elem_RDG"><rect fill="#F1F1F1" height="61.2813" rx="2.5" ry="2.5" style="stroke:#181818;stroke-width:0.5;" width="131" x="256.5" y="102"/><rect fill="#F1F1F1" height="10" style="stroke:#181818;stroke-width:0.5;" width="15" x="367.5" y="107"/><rect fill="#F1F1F1" height="2" style="stroke:#181818;stroke-width:0.5;" width="4" x="365.5" y="109"/><rect fill="#F1F1F1" height="2" style="stroke:#181818;stroke-width:0.5;" width="4" x="365.5" y="113"/><text fill="#000000" font-family="sans-serif" font-size="14" lengthAdjust="spacing" textLength="86" x="271.5" y="134.6738">&#171;component&#187;</text><text fill="#000000" font-family="sans-serif" font-size="14" font-weight="bold" lengthAdjust="spacing" textLength="91" x="271.5" y="150.3145">RobDroneGo</text></g><!--link CM to RDG--><g id="link_CM_RDG"><path codeLine="12" d="M79.27,19.28 C107.82,32.48 196.22,73.35 258.05,101.94 " fill="none" id="CM-RDG" style="stroke:#181818;stroke-width:1.0;"/></g><!--link FM to RDG--><g id="link_FM_RDG"><path codeLine="13" d="M244.7,23.01 C256.1,39 282.17,75.59 300.88,101.86 " fill="none" id="FM-RDG" style="stroke:#181818;stroke-width:1.0;"/></g><!--link SM to RDG--><g id="link_SM_RDG"><path codeLine="14" d="M399.3,23.01 C387.9,39 361.83,75.59 343.12,101.86 " fill="none" id="SM-RDG" style="stroke:#181818;stroke-width:1.0;"/></g><!--link U to RDG--><g id="link_U_RDG"><path codeLine="15" d="M529.69,20.48 C520.25,26.01 505.19,34.74 492,42 C454.74,62.5 412.43,84.78 379.34,101.98 " fill="none" id="U-RDG" style="stroke:#181818;stroke-width:1.0;"/></g><!--SRC=[qz1KK0hrL71Ep2qeBLRmJSnBJ4yjKb98B5PmzkNIW4YwvQIcbg38kS7bWYkBIr9pKII3uPAXnL2XK2wkvFpSWloyrBmIXI0NTuLeBWK56nkuc9qTaA-b5PIVv584573FrzBYYkNYSlPLq4tH1MdWSaCmWn7CK0Ku4m00]--></g></svg>