<?xml version="1.0" encoding="us-ascii" standalone="no"?><svg xmlns="http://www.w3.org/2000/svg" xmlns:xlink="http://www.w3.org/1999/xlink" contentStyleType="text/css" height="248.5px" preserveAspectRatio="none" style="width:1683px;height:248px;background:#FFFFFF;" version="1.1" viewBox="0 0 1683 248" width="1683.5px" zoomAndPan="magnify"><defs/><g><g id="cluster_##2"><rect fill="#F4EDED" height="114" rx="1.25" ry="1.25" style="stroke:#181818;stroke-width:0.5;" width="655" x="248" y="3.5"/></g><g id="cluster_##13"><rect fill="#464D77" height="171.5" rx="1.25" ry="1.25" style="stroke:#181818;stroke-width:0.5;" width="232.5" x="3.5" y="6.75"/></g><g id="cluster_##22"><rect fill="#96A377" height="114" rx="1.25" ry="1.25" style="stroke:#181818;stroke-width:0.5;" width="295.5" x="248" y="131.5"/></g><g id="cluster_##29"><rect fill="#36827F" height="114" rx="1.25" ry="1.25" style="stroke:#181818;stroke-width:0.5;" width="317.5" x="1363" y="3.5"/></g><g id="cluster_##36"><rect fill="#FF3B1B" height="174.75" rx="1.25" ry="1.25" style="stroke:#181818;stroke-width:0.5;" width="139.5" x="915" y="70.75"/></g><g id="cluster_##42"><rect fill="#D499B9" height="110.75" rx="1.25" ry="1.25" style="stroke:#181818;stroke-width:0.5;" width="284.5" x="1066.5" y="67.5"/></g><!--class Task--><g id="elem_Task"><rect codeLine="7" fill="#F1F1F1" height="34.2266" id="Task" rx="1.25" ry="1.25" style="stroke:#181818;stroke-width:0.25;" width="36" x="700.5" y="11.5"/><ellipse cx="708" cy="24.6133" fill="#ADD1B2" rx="5.5" ry="5.5" style="stroke:#181818;stroke-width:0.5;"/><path d="M709.3828,22.5508 Q709.4609,22.4414 709.5547,22.3867 Q709.6484,22.332 709.7578,22.332 Q709.9453,22.332 710.0625,22.4648 Q710.1797,22.5898 710.1797,22.8945 L710.1797,23.6211 Q710.1797,23.9258 710.0625,24.0586 Q709.9453,24.1914 709.7578,24.1914 Q709.5859,24.1914 709.4844,24.0898 Q709.3828,23.9961 709.3281,23.7383 Q709.3047,23.5586 709.2109,23.4648 Q709.0469,23.2773 708.7422,23.168 Q708.4375,23.0586 708.125,23.0586 Q707.7422,23.0586 707.4219,23.2227 Q707.1094,23.3867 706.8594,23.7617 Q706.6172,24.1367 706.6172,24.6523 L706.6172,25.1992 Q706.6172,25.8164 707.0625,26.2305 Q707.5078,26.6367 708.3047,26.6367 Q708.7734,26.6367 709.1016,26.5117 Q709.2969,26.4336 709.5078,26.2148 Q709.6406,26.082 709.7109,26.043 Q709.7891,26.0039 709.8906,26.0039 Q710.0547,26.0039 710.1797,26.1367 Q710.3125,26.2617 710.3125,26.4336 Q710.3125,26.6055 710.1406,26.8086 Q709.8906,27.0977 709.4922,27.2617 Q708.9531,27.4883 708.3047,27.4883 Q707.5469,27.4883 706.9453,27.1758 Q706.4531,26.9258 706.1094,26.3945 Q705.7656,25.8555 705.7656,25.2148 L705.7656,24.6367 Q705.7656,23.9727 706.0703,23.4023 Q706.3828,22.8242 706.9297,22.5195 Q707.4766,22.207 708.0938,22.207 Q708.4609,22.207 708.7813,22.293 Q709.1094,22.3711 709.3828,22.5508 Z " fill="#000000"/><text fill="#000000" font-family="sans-serif" font-size="6" font-style="italic" lengthAdjust="spacing" textLength="20" x="715" y="19.4316">&#171;Root&#187;</text><text fill="#000000" font-family="sans-serif" font-size="6" font-style="italic" lengthAdjust="spacing" textLength="22" x="714" y="26.1348">&#171;Entity&#187;</text><text fill="#000000" font-family="sans-serif" font-size="7" lengthAdjust="spacing" textLength="15.5" x="717.25" y="33.7432">Task</text><line style="stroke:#181818;stroke-width:0.25;" x1="701" x2="736" y1="37.7266" y2="37.7266"/><line style="stroke:#181818;stroke-width:0.25;" x1="701" x2="736" y1="41.7266" y2="41.7266"/></g><!--class TaskType--><g id="elem_TaskType"><rect codeLine="8" fill="#F1F1F1" height="27.5234" id="TaskType" rx="1.25" ry="1.25" style="stroke:#181818;stroke-width:0.25;" width="55" x="256" y="78.75"/><ellipse cx="263.5" cy="88.5117" fill="#A4C2E5" rx="5.5" ry="5.5" style="stroke:#181818;stroke-width:0.5;"/><path d="M263.8047,89.9805 L264.7266,88.0977 Q264.3828,88.0977 264.2891,88.0352 Q264.0781,87.9102 264.0781,87.668 Q264.0781,87.4805 264.2109,87.3633 Q264.3438,87.2461 264.6484,87.2461 L265.8125,87.2461 Q266.125,87.2461 266.25,87.3633 Q266.3828,87.4805 266.3828,87.668 Q266.3828,87.8555 266.25,87.9805 Q266.125,88.0977 265.8125,88.0977 L265.6719,88.0977 L264.25,91.0117 L263.3594,91.0117 L261.9375,88.0977 L261.8203,88.0977 Q261.5078,88.0977 261.375,87.9805 Q261.25,87.8555 261.25,87.668 Q261.25,87.4805 261.375,87.3633 Q261.5078,87.2461 261.8203,87.2461 L262.9609,87.2461 Q263.2656,87.2461 263.3906,87.3633 Q263.5234,87.4805 263.5234,87.668 Q263.5234,87.9102 263.3281,88.0352 Q263.2266,88.0977 262.8828,88.0977 L263.8047,89.9805 Z " fill="#000000"/><text fill="#000000" font-family="sans-serif" font-size="6" font-style="italic" lengthAdjust="spacing" textLength="41" x="269.5" y="86.6816">&#171;ValueObject&#187;</text><text fill="#000000" font-family="sans-serif" font-size="7" lengthAdjust="spacing" textLength="31.5" x="274.25" y="94.29">TaskType</text><line style="stroke:#181818;stroke-width:0.25;" x1="256.5" x2="310.5" y1="98.2734" y2="98.2734"/><line style="stroke:#181818;stroke-width:0.25;" x1="256.5" x2="310.5" y1="102.2734" y2="102.2734"/></g><!--class TaskDescription--><g id="elem_TaskDescription"><rect codeLine="9" fill="#F1F1F1" height="27.5234" id="TaskDescription" rx="1.25" ry="1.25" style="stroke:#181818;stroke-width:0.25;" width="67" x="328.5" y="78.75"/><ellipse cx="336" cy="88.5117" fill="#A4C2E5" rx="5.5" ry="5.5" style="stroke:#181818;stroke-width:0.5;"/><path d="M336.3047,89.9805 L337.2266,88.0977 Q336.8828,88.0977 336.7891,88.0352 Q336.5781,87.9102 336.5781,87.668 Q336.5781,87.4805 336.7109,87.3633 Q336.8438,87.2461 337.1484,87.2461 L338.3125,87.2461 Q338.625,87.2461 338.75,87.3633 Q338.8828,87.4805 338.8828,87.668 Q338.8828,87.8555 338.75,87.9805 Q338.625,88.0977 338.3125,88.0977 L338.1719,88.0977 L336.75,91.0117 L335.8594,91.0117 L334.4375,88.0977 L334.3203,88.0977 Q334.0078,88.0977 333.875,87.9805 Q333.75,87.8555 333.75,87.668 Q333.75,87.4805 333.875,87.3633 Q334.0078,87.2461 334.3203,87.2461 L335.4609,87.2461 Q335.7656,87.2461 335.8906,87.3633 Q336.0234,87.4805 336.0234,87.668 Q336.0234,87.9102 335.8281,88.0352 Q335.7266,88.0977 335.3828,88.0977 L336.3047,89.9805 Z " fill="#000000"/><text fill="#000000" font-family="sans-serif" font-size="6" font-style="italic" lengthAdjust="spacing" textLength="41" x="348" y="86.6816">&#171;ValueObject&#187;</text><text fill="#000000" font-family="sans-serif" font-size="7" lengthAdjust="spacing" textLength="51" x="343" y="94.29">TaskDescription</text><line style="stroke:#181818;stroke-width:0.25;" x1="329" x2="395" y1="98.2734" y2="98.2734"/><line style="stroke:#181818;stroke-width:0.25;" x1="329" x2="395" y1="102.2734" y2="102.2734"/></g><!--class TaskId--><g id="elem_TaskId"><rect codeLine="10" fill="#F1F1F1" height="34.2266" id="TaskId" rx="1.25" ry="1.25" style="stroke:#181818;stroke-width:0.25;" width="55" x="413" y="75.5"/><ellipse cx="420.5" cy="88.6133" fill="#FFA500" rx="5.5" ry="5.5" style="stroke:#181818;stroke-width:0.5;"/><path d="M420.8047,90.082 L421.7266,88.1992 Q421.3828,88.1992 421.2891,88.1367 Q421.0781,88.0117 421.0781,87.7695 Q421.0781,87.582 421.2109,87.4648 Q421.3438,87.3477 421.6484,87.3477 L422.8125,87.3477 Q423.125,87.3477 423.25,87.4648 Q423.3828,87.582 423.3828,87.7695 Q423.3828,87.957 423.25,88.082 Q423.125,88.1992 422.8125,88.1992 L422.6719,88.1992 L421.25,91.1133 L420.3594,91.1133 L418.9375,88.1992 L418.8203,88.1992 Q418.5078,88.1992 418.375,88.082 Q418.25,87.957 418.25,87.7695 Q418.25,87.582 418.375,87.4648 Q418.5078,87.3477 418.8203,87.3477 L419.9609,87.3477 Q420.2656,87.3477 420.3906,87.4648 Q420.5234,87.582 420.5234,87.7695 Q420.5234,88.0117 420.3281,88.1367 Q420.2266,88.1992 419.8828,88.1992 L420.8047,90.082 Z " fill="#000000"/><text fill="#000000" font-family="sans-serif" font-size="6" font-style="italic" lengthAdjust="spacing" textLength="41" x="426.5" y="83.4316">&#171;ValueObject&#187;</text><text fill="#000000" font-family="sans-serif" font-size="6" font-style="italic" lengthAdjust="spacing" textLength="26" x="434" y="90.1348">&#171;unique&#187;</text><text fill="#000000" font-family="sans-serif" font-size="7" lengthAdjust="spacing" textLength="21" x="436.5" y="97.7432">TaskId</text><line style="stroke:#181818;stroke-width:0.25;" x1="413.5" x2="467.5" y1="101.7266" y2="101.7266"/><line style="stroke:#181818;stroke-width:0.25;" x1="413.5" x2="467.5" y1="105.7266" y2="105.7266"/></g><!--class TaskStatus--><g id="elem_TaskStatus"><rect codeLine="11" fill="#F1F1F1" height="27.5234" id="TaskStatus" rx="1.25" ry="1.25" style="stroke:#181818;stroke-width:0.25;" width="55" x="485.5" y="78.75"/><ellipse cx="493" cy="88.5117" fill="#A4C2E5" rx="5.5" ry="5.5" style="stroke:#181818;stroke-width:0.5;"/><path d="M493.3047,89.9805 L494.2266,88.0977 Q493.8828,88.0977 493.7891,88.0352 Q493.5781,87.9102 493.5781,87.668 Q493.5781,87.4805 493.7109,87.3633 Q493.8438,87.2461 494.1484,87.2461 L495.3125,87.2461 Q495.625,87.2461 495.75,87.3633 Q495.8828,87.4805 495.8828,87.668 Q495.8828,87.8555 495.75,87.9805 Q495.625,88.0977 495.3125,88.0977 L495.1719,88.0977 L493.75,91.0117 L492.8594,91.0117 L491.4375,88.0977 L491.3203,88.0977 Q491.0078,88.0977 490.875,87.9805 Q490.75,87.8555 490.75,87.668 Q490.75,87.4805 490.875,87.3633 Q491.0078,87.2461 491.3203,87.2461 L492.4609,87.2461 Q492.7656,87.2461 492.8906,87.3633 Q493.0234,87.4805 493.0234,87.668 Q493.0234,87.9102 492.8281,88.0352 Q492.7266,88.0977 492.3828,88.0977 L493.3047,89.9805 Z " fill="#000000"/><text fill="#000000" font-family="sans-serif" font-size="6" font-style="italic" lengthAdjust="spacing" textLength="41" x="499" y="86.6816">&#171;ValueObject&#187;</text><text fill="#000000" font-family="sans-serif" font-size="7" lengthAdjust="spacing" textLength="35.5" x="501.75" y="94.29">TaskStatus</text><line style="stroke:#181818;stroke-width:0.25;" x1="486" x2="540" y1="98.2734" y2="98.2734"/><line style="stroke:#181818;stroke-width:0.25;" x1="486" x2="540" y1="102.2734" y2="102.2734"/></g><!--class TaskContact--><g id="elem_TaskContact"><rect codeLine="12" fill="#F1F1F1" height="27.5234" id="TaskContact" rx="1.25" ry="1.25" style="stroke:#181818;stroke-width:0.25;" width="56" x="558" y="78.75"/><ellipse cx="565.5" cy="88.5117" fill="#A4C2E5" rx="5.5" ry="5.5" style="stroke:#181818;stroke-width:0.5;"/><path d="M565.8047,89.9805 L566.7266,88.0977 Q566.3828,88.0977 566.2891,88.0352 Q566.0781,87.9102 566.0781,87.668 Q566.0781,87.4805 566.2109,87.3633 Q566.3438,87.2461 566.6484,87.2461 L567.8125,87.2461 Q568.125,87.2461 568.25,87.3633 Q568.3828,87.4805 568.3828,87.668 Q568.3828,87.8555 568.25,87.9805 Q568.125,88.0977 567.8125,88.0977 L567.6719,88.0977 L566.25,91.0117 L565.3594,91.0117 L563.9375,88.0977 L563.8203,88.0977 Q563.5078,88.0977 563.375,87.9805 Q563.25,87.8555 563.25,87.668 Q563.25,87.4805 563.375,87.3633 Q563.5078,87.2461 563.8203,87.2461 L564.9609,87.2461 Q565.2656,87.2461 565.3906,87.3633 Q565.5234,87.4805 565.5234,87.668 Q565.5234,87.9102 565.3281,88.0352 Q565.2266,88.0977 564.8828,88.0977 L565.8047,89.9805 Z " fill="#000000"/><text fill="#000000" font-family="sans-serif" font-size="6" font-style="italic" lengthAdjust="spacing" textLength="41" x="572" y="86.6816">&#171;ValueObject&#187;</text><text fill="#000000" font-family="sans-serif" font-size="7" lengthAdjust="spacing" textLength="40" x="572.5" y="94.29">TaskContact</text><line style="stroke:#181818;stroke-width:0.25;" x1="558.5" x2="613.5" y1="98.2734" y2="98.2734"/><line style="stroke:#181818;stroke-width:0.25;" x1="558.5" x2="613.5" y1="102.2734" y2="102.2734"/></g><!--class TaskPickupContact--><g id="elem_TaskPickupContact"><rect codeLine="13" fill="#F1F1F1" height="27.5234" id="TaskPickupContact" rx="1.25" ry="1.25" style="stroke:#181818;stroke-width:0.25;" width="77" x="631.5" y="78.75"/><ellipse cx="639" cy="88.5117" fill="#A4C2E5" rx="5.5" ry="5.5" style="stroke:#181818;stroke-width:0.5;"/><path d="M639.3047,89.9805 L640.2266,88.0977 Q639.8828,88.0977 639.7891,88.0352 Q639.5781,87.9102 639.5781,87.668 Q639.5781,87.4805 639.7109,87.3633 Q639.8438,87.2461 640.1484,87.2461 L641.3125,87.2461 Q641.625,87.2461 641.75,87.3633 Q641.8828,87.4805 641.8828,87.668 Q641.8828,87.8555 641.75,87.9805 Q641.625,88.0977 641.3125,88.0977 L641.1719,88.0977 L639.75,91.0117 L638.8594,91.0117 L637.4375,88.0977 L637.3203,88.0977 Q637.0078,88.0977 636.875,87.9805 Q636.75,87.8555 636.75,87.668 Q636.75,87.4805 636.875,87.3633 Q637.0078,87.2461 637.3203,87.2461 L638.4609,87.2461 Q638.7656,87.2461 638.8906,87.3633 Q639.0234,87.4805 639.0234,87.668 Q639.0234,87.9102 638.8281,88.0352 Q638.7266,88.0977 638.3828,88.0977 L639.3047,89.9805 Z " fill="#000000"/><text fill="#000000" font-family="sans-serif" font-size="6" font-style="italic" lengthAdjust="spacing" textLength="41" x="656" y="86.6816">&#171;ValueObject&#187;</text><text fill="#000000" font-family="sans-serif" font-size="7" lengthAdjust="spacing" textLength="61" x="646" y="94.29">TaskPickupContact</text><line style="stroke:#181818;stroke-width:0.25;" x1="632" x2="708" y1="98.2734" y2="98.2734"/><line style="stroke:#181818;stroke-width:0.25;" x1="632" x2="708" y1="102.2734" y2="102.2734"/></g><!--class TaskDeliveryContact--><g id="elem_TaskDeliveryContact"><rect codeLine="14" fill="#F1F1F1" height="27.5234" id="TaskDeliveryContact" rx="1.25" ry="1.25" style="stroke:#181818;stroke-width:0.25;" width="81.5" x="726.25" y="78.75"/><ellipse cx="733.75" cy="88.5117" fill="#A4C2E5" rx="5.5" ry="5.5" style="stroke:#181818;stroke-width:0.5;"/><path d="M734.0547,89.9805 L734.9766,88.0977 Q734.6328,88.0977 734.5391,88.0352 Q734.3281,87.9102 734.3281,87.668 Q734.3281,87.4805 734.4609,87.3633 Q734.5938,87.2461 734.8984,87.2461 L736.0625,87.2461 Q736.375,87.2461 736.5,87.3633 Q736.6328,87.4805 736.6328,87.668 Q736.6328,87.8555 736.5,87.9805 Q736.375,88.0977 736.0625,88.0977 L735.9219,88.0977 L734.5,91.0117 L733.6094,91.0117 L732.1875,88.0977 L732.0703,88.0977 Q731.7578,88.0977 731.625,87.9805 Q731.5,87.8555 731.5,87.668 Q731.5,87.4805 731.625,87.3633 Q731.7578,87.2461 732.0703,87.2461 L733.2109,87.2461 Q733.5156,87.2461 733.6406,87.3633 Q733.7734,87.4805 733.7734,87.668 Q733.7734,87.9102 733.5781,88.0352 Q733.4766,88.0977 733.1328,88.0977 L734.0547,89.9805 Z " fill="#000000"/><text fill="#000000" font-family="sans-serif" font-size="6" font-style="italic" lengthAdjust="spacing" textLength="41" x="753" y="86.6816">&#171;ValueObject&#187;</text><text fill="#000000" font-family="sans-serif" font-size="7" lengthAdjust="spacing" textLength="65.5" x="740.75" y="94.29">TaskDeliveryContact</text><line style="stroke:#181818;stroke-width:0.25;" x1="726.75" x2="807.25" y1="98.2734" y2="98.2734"/><line style="stroke:#181818;stroke-width:0.25;" x1="726.75" x2="807.25" y1="102.2734" y2="102.2734"/></g><!--class TaskPickupCode--><g id="elem_TaskPickupCode"><rect codeLine="15" fill="#F1F1F1" height="27.5234" id="TaskPickupCode" rx="1.25" ry="1.25" style="stroke:#181818;stroke-width:0.25;" width="69.5" x="825.25" y="78.75"/><ellipse cx="832.75" cy="88.5117" fill="#A4C2E5" rx="5.5" ry="5.5" style="stroke:#181818;stroke-width:0.5;"/><path d="M833.0547,89.9805 L833.9766,88.0977 Q833.6328,88.0977 833.5391,88.0352 Q833.3281,87.9102 833.3281,87.668 Q833.3281,87.4805 833.4609,87.3633 Q833.5938,87.2461 833.8984,87.2461 L835.0625,87.2461 Q835.375,87.2461 835.5,87.3633 Q835.6328,87.4805 835.6328,87.668 Q835.6328,87.8555 835.5,87.9805 Q835.375,88.0977 835.0625,88.0977 L834.9219,88.0977 L833.5,91.0117 L832.6094,91.0117 L831.1875,88.0977 L831.0703,88.0977 Q830.7578,88.0977 830.625,87.9805 Q830.5,87.8555 830.5,87.668 Q830.5,87.4805 830.625,87.3633 Q830.7578,87.2461 831.0703,87.2461 L832.2109,87.2461 Q832.5156,87.2461 832.6406,87.3633 Q832.7734,87.4805 832.7734,87.668 Q832.7734,87.9102 832.5781,88.0352 Q832.4766,88.0977 832.1328,88.0977 L833.0547,89.9805 Z " fill="#000000"/><text fill="#000000" font-family="sans-serif" font-size="6" font-style="italic" lengthAdjust="spacing" textLength="41" x="846" y="86.6816">&#171;ValueObject&#187;</text><text fill="#000000" font-family="sans-serif" font-size="7" lengthAdjust="spacing" textLength="53.5" x="839.75" y="94.29">TaskPickupCode</text><line style="stroke:#181818;stroke-width:0.25;" x1="825.75" x2="894.25" y1="98.2734" y2="98.2734"/><line style="stroke:#181818;stroke-width:0.25;" x1="825.75" x2="894.25" y1="102.2734" y2="102.2734"/></g><!--class Robot--><g id="elem_Robot"><rect codeLine="20" fill="#F1F1F1" height="34.2266" id="Robot" rx="1.25" ry="1.25" style="stroke:#181818;stroke-width:0.25;" width="36" x="130" y="75.5"/><ellipse cx="137.5" cy="88.6133" fill="#ADD1B2" rx="5.5" ry="5.5" style="stroke:#181818;stroke-width:0.5;"/><path d="M138.8828,86.5508 Q138.9609,86.4414 139.0547,86.3867 Q139.1484,86.332 139.2578,86.332 Q139.4453,86.332 139.5625,86.4648 Q139.6797,86.5898 139.6797,86.8945 L139.6797,87.6211 Q139.6797,87.9258 139.5625,88.0586 Q139.4453,88.1914 139.2578,88.1914 Q139.0859,88.1914 138.9844,88.0898 Q138.8828,87.9961 138.8281,87.7383 Q138.8047,87.5586 138.7109,87.4648 Q138.5469,87.2773 138.2422,87.168 Q137.9375,87.0586 137.625,87.0586 Q137.2422,87.0586 136.9219,87.2227 Q136.6094,87.3867 136.3594,87.7617 Q136.1172,88.1367 136.1172,88.6523 L136.1172,89.1992 Q136.1172,89.8164 136.5625,90.2305 Q137.0078,90.6367 137.8047,90.6367 Q138.2734,90.6367 138.6016,90.5117 Q138.7969,90.4336 139.0078,90.2148 Q139.1406,90.082 139.2109,90.043 Q139.2891,90.0039 139.3906,90.0039 Q139.5547,90.0039 139.6797,90.1367 Q139.8125,90.2617 139.8125,90.4336 Q139.8125,90.6055 139.6406,90.8086 Q139.3906,91.0977 138.9922,91.2617 Q138.4531,91.4883 137.8047,91.4883 Q137.0469,91.4883 136.4453,91.1758 Q135.9531,90.9258 135.6094,90.3945 Q135.2656,89.8555 135.2656,89.2148 L135.2656,88.6367 Q135.2656,87.9727 135.5703,87.4023 Q135.8828,86.8242 136.4297,86.5195 Q136.9766,86.207 137.5938,86.207 Q137.9609,86.207 138.2813,86.293 Q138.6094,86.3711 138.8828,86.5508 Z " fill="#000000"/><text fill="#000000" font-family="sans-serif" font-size="6" font-style="italic" lengthAdjust="spacing" textLength="20" x="144.5" y="83.4316">&#171;Root&#187;</text><text fill="#000000" font-family="sans-serif" font-size="6" font-style="italic" lengthAdjust="spacing" textLength="22" x="143.5" y="90.1348">&#171;Entity&#187;</text><text fill="#000000" font-family="sans-serif" font-size="7" lengthAdjust="spacing" textLength="19" x="145" y="97.7432">Robot</text><line style="stroke:#181818;stroke-width:0.25;" x1="130.5" x2="165.5" y1="101.7266" y2="101.7266"/><line style="stroke:#181818;stroke-width:0.25;" x1="130.5" x2="165.5" y1="105.7266" y2="105.7266"/></g><!--class Drone--><g id="elem_Drone"><rect codeLine="21" fill="#F1F1F1" height="27.5234" id="Drone" rx="1.25" ry="1.25" style="stroke:#181818;stroke-width:0.25;" width="36" x="161.5" y="14.75"/><ellipse cx="169" cy="24.5117" fill="#ADD1B2" rx="5.5" ry="5.5" style="stroke:#181818;stroke-width:0.5;"/><path d="M170.3828,22.4492 Q170.4609,22.3398 170.5547,22.2852 Q170.6484,22.2305 170.7578,22.2305 Q170.9453,22.2305 171.0625,22.3633 Q171.1797,22.4883 171.1797,22.793 L171.1797,23.5195 Q171.1797,23.8242 171.0625,23.957 Q170.9453,24.0898 170.7578,24.0898 Q170.5859,24.0898 170.4844,23.9883 Q170.3828,23.8945 170.3281,23.6367 Q170.3047,23.457 170.2109,23.3633 Q170.0469,23.1758 169.7422,23.0664 Q169.4375,22.957 169.125,22.957 Q168.7422,22.957 168.4219,23.1211 Q168.1094,23.2852 167.8594,23.6602 Q167.6172,24.0352 167.6172,24.5508 L167.6172,25.0977 Q167.6172,25.7148 168.0625,26.1289 Q168.5078,26.5352 169.3047,26.5352 Q169.7734,26.5352 170.1016,26.4102 Q170.2969,26.332 170.5078,26.1133 Q170.6406,25.9805 170.7109,25.9414 Q170.7891,25.9023 170.8906,25.9023 Q171.0547,25.9023 171.1797,26.0352 Q171.3125,26.1602 171.3125,26.332 Q171.3125,26.5039 171.1406,26.707 Q170.8906,26.9961 170.4922,27.1602 Q169.9531,27.3867 169.3047,27.3867 Q168.5469,27.3867 167.9453,27.0742 Q167.4531,26.8242 167.1094,26.293 Q166.7656,25.7539 166.7656,25.1133 L166.7656,24.5352 Q166.7656,23.8711 167.0703,23.3008 Q167.3828,22.7227 167.9297,22.418 Q168.4766,22.1055 169.0938,22.1055 Q169.4609,22.1055 169.7813,22.1914 Q170.1094,22.2695 170.3828,22.4492 Z " fill="#000000"/><text fill="#000000" font-family="sans-serif" font-size="6" font-style="italic" lengthAdjust="spacing" textLength="22" x="175" y="22.6816">&#171;Entity&#187;</text><text fill="#000000" font-family="sans-serif" font-size="7" lengthAdjust="spacing" textLength="19.5" x="176.25" y="30.29">Drone</text><line style="stroke:#181818;stroke-width:0.25;" x1="162" x2="197" y1="34.2734" y2="34.2734"/><line style="stroke:#181818;stroke-width:0.25;" x1="162" x2="197" y1="38.2734" y2="38.2734"/></g><!--class MobileRobot--><g id="elem_MobileRobot"><rect codeLine="22" fill="#F1F1F1" height="27.5234" id="MobileRobot" rx="1.25" ry="1.25" style="stroke:#181818;stroke-width:0.25;" width="55.5" x="88.25" y="14.75"/><ellipse cx="95.75" cy="24.5117" fill="#ADD1B2" rx="5.5" ry="5.5" style="stroke:#181818;stroke-width:0.5;"/><path d="M97.1328,22.4492 Q97.2109,22.3398 97.3047,22.2852 Q97.3984,22.2305 97.5078,22.2305 Q97.6953,22.2305 97.8125,22.3633 Q97.9297,22.4883 97.9297,22.793 L97.9297,23.5195 Q97.9297,23.8242 97.8125,23.957 Q97.6953,24.0898 97.5078,24.0898 Q97.3359,24.0898 97.2344,23.9883 Q97.1328,23.8945 97.0781,23.6367 Q97.0547,23.457 96.9609,23.3633 Q96.7969,23.1758 96.4922,23.0664 Q96.1875,22.957 95.875,22.957 Q95.4922,22.957 95.1719,23.1211 Q94.8594,23.2852 94.6094,23.6602 Q94.3672,24.0352 94.3672,24.5508 L94.3672,25.0977 Q94.3672,25.7148 94.8125,26.1289 Q95.2578,26.5352 96.0547,26.5352 Q96.5234,26.5352 96.8516,26.4102 Q97.0469,26.332 97.2578,26.1133 Q97.3906,25.9805 97.4609,25.9414 Q97.5391,25.9023 97.6406,25.9023 Q97.8047,25.9023 97.9297,26.0352 Q98.0625,26.1602 98.0625,26.332 Q98.0625,26.5039 97.8906,26.707 Q97.6406,26.9961 97.2422,27.1602 Q96.7031,27.3867 96.0547,27.3867 Q95.2969,27.3867 94.6953,27.0742 Q94.2031,26.8242 93.8594,26.293 Q93.5156,25.7539 93.5156,25.1133 L93.5156,24.5352 Q93.5156,23.8711 93.8203,23.3008 Q94.1328,22.7227 94.6797,22.418 Q95.2266,22.1055 95.8438,22.1055 Q96.2109,22.1055 96.5313,22.1914 Q96.8594,22.2695 97.1328,22.4492 Z " fill="#000000"/><text fill="#000000" font-family="sans-serif" font-size="6" font-style="italic" lengthAdjust="spacing" textLength="22" x="111.5" y="22.6816">&#171;Entity&#187;</text><text fill="#000000" font-family="sans-serif" font-size="7" lengthAdjust="spacing" textLength="39.5" x="102.75" y="30.29">MobileRobot</text><line style="stroke:#181818;stroke-width:0.25;" x1="88.75" x2="143.25" y1="34.2734" y2="34.2734"/><line style="stroke:#181818;stroke-width:0.25;" x1="88.75" x2="143.25" y1="38.2734" y2="38.2734"/></g><!--class Code--><g id="elem_Code"><rect codeLine="24" fill="#F1F1F1" height="34.2266" id="Code" rx="1.25" ry="1.25" style="stroke:#181818;stroke-width:0.25;" width="55" x="57.5" y="75.5"/><ellipse cx="65" cy="88.6133" fill="#FFA500" rx="5.5" ry="5.5" style="stroke:#181818;stroke-width:0.5;"/><path d="M65.3047,90.082 L66.2266,88.1992 Q65.8828,88.1992 65.7891,88.1367 Q65.5781,88.0117 65.5781,87.7695 Q65.5781,87.582 65.7109,87.4648 Q65.8438,87.3477 66.1484,87.3477 L67.3125,87.3477 Q67.625,87.3477 67.75,87.4648 Q67.8828,87.582 67.8828,87.7695 Q67.8828,87.957 67.75,88.082 Q67.625,88.1992 67.3125,88.1992 L67.1719,88.1992 L65.75,91.1133 L64.8594,91.1133 L63.4375,88.1992 L63.3203,88.1992 Q63.0078,88.1992 62.875,88.082 Q62.75,87.957 62.75,87.7695 Q62.75,87.582 62.875,87.4648 Q63.0078,87.3477 63.3203,87.3477 L64.4609,87.3477 Q64.7656,87.3477 64.8906,87.4648 Q65.0234,87.582 65.0234,87.7695 Q65.0234,88.0117 64.8281,88.1367 Q64.7266,88.1992 64.3828,88.1992 L65.3047,90.082 Z " fill="#000000"/><text fill="#000000" font-family="sans-serif" font-size="6" font-style="italic" lengthAdjust="spacing" textLength="41" x="71" y="83.4316">&#171;ValueObject&#187;</text><text fill="#000000" font-family="sans-serif" font-size="6" font-style="italic" lengthAdjust="spacing" textLength="26" x="78.5" y="90.1348">&#171;unique&#187;</text><text fill="#000000" font-family="sans-serif" font-size="7" lengthAdjust="spacing" textLength="17" x="83" y="97.7432">Code</text><line style="stroke:#181818;stroke-width:0.25;" x1="58" x2="112" y1="101.7266" y2="101.7266"/><line style="stroke:#181818;stroke-width:0.25;" x1="58" x2="112" y1="105.7266" y2="105.7266"/></g><!--class Nickname--><g id="elem_Nickname"><rect codeLine="25" fill="#F1F1F1" height="27.5234" id="Nickname" rx="1.25" ry="1.25" style="stroke:#181818;stroke-width:0.25;" width="55" x="11.5" y="142.75"/><ellipse cx="19" cy="152.5117" fill="#A4C2E5" rx="5.5" ry="5.5" style="stroke:#181818;stroke-width:0.5;"/><path d="M19.3047,153.9805 L20.2266,152.0977 Q19.8828,152.0977 19.7891,152.0352 Q19.5781,151.9102 19.5781,151.668 Q19.5781,151.4805 19.7109,151.3633 Q19.8438,151.2461 20.1484,151.2461 L21.3125,151.2461 Q21.625,151.2461 21.75,151.3633 Q21.8828,151.4805 21.8828,151.668 Q21.8828,151.8555 21.75,151.9805 Q21.625,152.0977 21.3125,152.0977 L21.1719,152.0977 L19.75,155.0117 L18.8594,155.0117 L17.4375,152.0977 L17.3203,152.0977 Q17.0078,152.0977 16.875,151.9805 Q16.75,151.8555 16.75,151.668 Q16.75,151.4805 16.875,151.3633 Q17.0078,151.2461 17.3203,151.2461 L18.4609,151.2461 Q18.7656,151.2461 18.8906,151.3633 Q19.0234,151.4805 19.0234,151.668 Q19.0234,151.9102 18.8281,152.0352 Q18.7266,152.0977 18.3828,152.0977 L19.3047,153.9805 Z " fill="#000000"/><text fill="#000000" font-family="sans-serif" font-size="6" font-style="italic" lengthAdjust="spacing" textLength="41" x="25" y="150.6816">&#171;ValueObject&#187;</text><text fill="#000000" font-family="sans-serif" font-size="7" lengthAdjust="spacing" textLength="30.5" x="30.25" y="158.29">Nickname</text><line style="stroke:#181818;stroke-width:0.25;" x1="12" x2="66" y1="162.2734" y2="162.2734"/><line style="stroke:#181818;stroke-width:0.25;" x1="12" x2="66" y1="166.2734" y2="166.2734"/></g><!--class OperationStatus--><g id="elem_OperationStatus"><rect codeLine="26" fill="#F1F1F1" height="27.5234" id="OperationStatus" rx="1.25" ry="1.25" style="stroke:#181818;stroke-width:0.25;" width="67.5" x="84.25" y="142.75"/><ellipse cx="91.75" cy="152.5117" fill="#A4C2E5" rx="5.5" ry="5.5" style="stroke:#181818;stroke-width:0.5;"/><path d="M92.0547,153.9805 L92.9766,152.0977 Q92.6328,152.0977 92.5391,152.0352 Q92.3281,151.9102 92.3281,151.668 Q92.3281,151.4805 92.4609,151.3633 Q92.5938,151.2461 92.8984,151.2461 L94.0625,151.2461 Q94.375,151.2461 94.5,151.3633 Q94.6328,151.4805 94.6328,151.668 Q94.6328,151.8555 94.5,151.9805 Q94.375,152.0977 94.0625,152.0977 L93.9219,152.0977 L92.5,155.0117 L91.6094,155.0117 L90.1875,152.0977 L90.0703,152.0977 Q89.7578,152.0977 89.625,151.9805 Q89.5,151.8555 89.5,151.668 Q89.5,151.4805 89.625,151.3633 Q89.7578,151.2461 90.0703,151.2461 L91.2109,151.2461 Q91.5156,151.2461 91.6406,151.3633 Q91.7734,151.4805 91.7734,151.668 Q91.7734,151.9102 91.5781,152.0352 Q91.4766,152.0977 91.1328,152.0977 L92.0547,153.9805 Z " fill="#000000"/><text fill="#000000" font-family="sans-serif" font-size="6" font-style="italic" lengthAdjust="spacing" textLength="41" x="104" y="150.6816">&#171;ValueObject&#187;</text><text fill="#000000" font-family="sans-serif" font-size="7" lengthAdjust="spacing" textLength="51.5" x="98.75" y="158.29">OperationStatus</text><line style="stroke:#181818;stroke-width:0.25;" x1="84.75" x2="151.25" y1="162.2734" y2="162.2734"/><line style="stroke:#181818;stroke-width:0.25;" x1="84.75" x2="151.25" y1="166.2734" y2="166.2734"/></g><!--class SerialNumber--><g id="elem_SerialNumber"><rect codeLine="27" fill="#F1F1F1" height="27.5234" id="SerialNumber" rx="1.25" ry="1.25" style="stroke:#181818;stroke-width:0.25;" width="58.5" x="169.25" y="142.75"/><ellipse cx="176.75" cy="152.5117" fill="#A4C2E5" rx="5.5" ry="5.5" style="stroke:#181818;stroke-width:0.5;"/><path d="M177.0547,153.9805 L177.9766,152.0977 Q177.6328,152.0977 177.5391,152.0352 Q177.3281,151.9102 177.3281,151.668 Q177.3281,151.4805 177.4609,151.3633 Q177.5938,151.2461 177.8984,151.2461 L179.0625,151.2461 Q179.375,151.2461 179.5,151.3633 Q179.6328,151.4805 179.6328,151.668 Q179.6328,151.8555 179.5,151.9805 Q179.375,152.0977 179.0625,152.0977 L178.9219,152.0977 L177.5,155.0117 L176.6094,155.0117 L175.1875,152.0977 L175.0703,152.0977 Q174.7578,152.0977 174.625,151.9805 Q174.5,151.8555 174.5,151.668 Q174.5,151.4805 174.625,151.3633 Q174.7578,151.2461 175.0703,151.2461 L176.2109,151.2461 Q176.5156,151.2461 176.6406,151.3633 Q176.7734,151.4805 176.7734,151.668 Q176.7734,151.9102 176.5781,152.0352 Q176.4766,152.0977 176.1328,152.0977 L177.0547,153.9805 Z " fill="#000000"/><text fill="#000000" font-family="sans-serif" font-size="6" font-style="italic" lengthAdjust="spacing" textLength="41" x="184.5" y="150.6816">&#171;ValueObject&#187;</text><text fill="#000000" font-family="sans-serif" font-size="7" lengthAdjust="spacing" textLength="42.5" x="183.75" y="158.29">SerialNumber</text><line style="stroke:#181818;stroke-width:0.25;" x1="169.75" x2="227.25" y1="162.2734" y2="162.2734"/><line style="stroke:#181818;stroke-width:0.25;" x1="169.75" x2="227.25" y1="166.2734" y2="166.2734"/></g><!--class RobotType--><g id="elem_RobotType"><rect codeLine="31" fill="#F1F1F1" height="34.2266" id="RobotType" rx="1.25" ry="1.25" style="stroke:#181818;stroke-width:0.25;" width="51" x="335.5" y="139.5"/><ellipse cx="343" cy="152.6133" fill="#ADD1B2" rx="5.5" ry="5.5" style="stroke:#181818;stroke-width:0.5;"/><path d="M344.3828,150.5508 Q344.4609,150.4414 344.5547,150.3867 Q344.6484,150.332 344.7578,150.332 Q344.9453,150.332 345.0625,150.4648 Q345.1797,150.5898 345.1797,150.8945 L345.1797,151.6211 Q345.1797,151.9258 345.0625,152.0586 Q344.9453,152.1914 344.7578,152.1914 Q344.5859,152.1914 344.4844,152.0898 Q344.3828,151.9961 344.3281,151.7383 Q344.3047,151.5586 344.2109,151.4648 Q344.0469,151.2773 343.7422,151.168 Q343.4375,151.0586 343.125,151.0586 Q342.7422,151.0586 342.4219,151.2227 Q342.1094,151.3867 341.8594,151.7617 Q341.6172,152.1367 341.6172,152.6523 L341.6172,153.1992 Q341.6172,153.8164 342.0625,154.2305 Q342.5078,154.6367 343.3047,154.6367 Q343.7734,154.6367 344.1016,154.5117 Q344.2969,154.4336 344.5078,154.2148 Q344.6406,154.082 344.7109,154.043 Q344.7891,154.0039 344.8906,154.0039 Q345.0547,154.0039 345.1797,154.1367 Q345.3125,154.2617 345.3125,154.4336 Q345.3125,154.6055 345.1406,154.8086 Q344.8906,155.0977 344.4922,155.2617 Q343.9531,155.4883 343.3047,155.4883 Q342.5469,155.4883 341.9453,155.1758 Q341.4531,154.9258 341.1094,154.3945 Q340.7656,153.8555 340.7656,153.2148 L340.7656,152.6367 Q340.7656,151.9727 341.0703,151.4023 Q341.3828,150.8242 341.9297,150.5195 Q342.4766,150.207 343.0938,150.207 Q343.4609,150.207 343.7813,150.293 Q344.1094,150.3711 344.3828,150.5508 Z " fill="#000000"/><text fill="#000000" font-family="sans-serif" font-size="6" font-style="italic" lengthAdjust="spacing" textLength="20" x="357.5" y="147.4316">&#171;Root&#187;</text><text fill="#000000" font-family="sans-serif" font-size="6" font-style="italic" lengthAdjust="spacing" textLength="22" x="356.5" y="154.1348">&#171;Entity&#187;</text><text fill="#000000" font-family="sans-serif" font-size="7" lengthAdjust="spacing" textLength="35" x="350" y="161.7432">RobotType</text><line style="stroke:#181818;stroke-width:0.25;" x1="336" x2="386" y1="165.7266" y2="165.7266"/><line style="stroke:#181818;stroke-width:0.25;" x1="336" x2="386" y1="169.7266" y2="169.7266"/></g><!--class AvailableTask--><g id="elem_AvailableTask"><rect codeLine="32" fill="#F1F1F1" height="27.5234" id="AvailableTask" rx="1.25" ry="1.25" style="stroke:#181818;stroke-width:0.25;" width="60" x="256" y="206.75"/><ellipse cx="263.5" cy="216.5117" fill="#A4C2E5" rx="5.5" ry="5.5" style="stroke:#181818;stroke-width:0.5;"/><path d="M263.8047,217.9805 L264.7266,216.0977 Q264.3828,216.0977 264.2891,216.0352 Q264.0781,215.9102 264.0781,215.668 Q264.0781,215.4805 264.2109,215.3633 Q264.3438,215.2461 264.6484,215.2461 L265.8125,215.2461 Q266.125,215.2461 266.25,215.3633 Q266.3828,215.4805 266.3828,215.668 Q266.3828,215.8555 266.25,215.9805 Q266.125,216.0977 265.8125,216.0977 L265.6719,216.0977 L264.25,219.0117 L263.3594,219.0117 L261.9375,216.0977 L261.8203,216.0977 Q261.5078,216.0977 261.375,215.9805 Q261.25,215.8555 261.25,215.668 Q261.25,215.4805 261.375,215.3633 Q261.5078,215.2461 261.8203,215.2461 L262.9609,215.2461 Q263.2656,215.2461 263.3906,215.3633 Q263.5234,215.4805 263.5234,215.668 Q263.5234,215.9102 263.3281,216.0352 Q263.2266,216.0977 262.8828,216.0977 L263.8047,217.9805 Z " fill="#000000"/><text fill="#000000" font-family="sans-serif" font-size="6" font-style="italic" lengthAdjust="spacing" textLength="41" x="272" y="214.6816">&#171;ValueObject&#187;</text><text fill="#000000" font-family="sans-serif" font-size="7" lengthAdjust="spacing" textLength="44" x="270.5" y="222.29">AvailableTask</text><line style="stroke:#181818;stroke-width:0.25;" x1="256.5" x2="315.5" y1="226.2734" y2="226.2734"/><line style="stroke:#181818;stroke-width:0.25;" x1="256.5" x2="315.5" y1="230.2734" y2="230.2734"/></g><!--class RobotModel--><g id="elem_RobotModel"><rect codeLine="33" fill="#F1F1F1" height="27.5234" id="RobotModel" rx="1.25" ry="1.25" style="stroke:#181818;stroke-width:0.25;" width="55" x="333.5" y="206.75"/><ellipse cx="341" cy="216.5117" fill="#A4C2E5" rx="5.5" ry="5.5" style="stroke:#181818;stroke-width:0.5;"/><path d="M341.3047,217.9805 L342.2266,216.0977 Q341.8828,216.0977 341.7891,216.0352 Q341.5781,215.9102 341.5781,215.668 Q341.5781,215.4805 341.7109,215.3633 Q341.8438,215.2461 342.1484,215.2461 L343.3125,215.2461 Q343.625,215.2461 343.75,215.3633 Q343.8828,215.4805 343.8828,215.668 Q343.8828,215.8555 343.75,215.9805 Q343.625,216.0977 343.3125,216.0977 L343.1719,216.0977 L341.75,219.0117 L340.8594,219.0117 L339.4375,216.0977 L339.3203,216.0977 Q339.0078,216.0977 338.875,215.9805 Q338.75,215.8555 338.75,215.668 Q338.75,215.4805 338.875,215.3633 Q339.0078,215.2461 339.3203,215.2461 L340.4609,215.2461 Q340.7656,215.2461 340.8906,215.3633 Q341.0234,215.4805 341.0234,215.668 Q341.0234,215.9102 340.8281,216.0352 Q340.7266,216.0977 340.3828,216.0977 L341.3047,217.9805 Z " fill="#000000"/><text fill="#000000" font-family="sans-serif" font-size="6" font-style="italic" lengthAdjust="spacing" textLength="41" x="347" y="214.6816">&#171;ValueObject&#187;</text><text fill="#000000" font-family="sans-serif" font-size="7" lengthAdjust="spacing" textLength="38" x="348.5" y="222.29">RobotModel</text><line style="stroke:#181818;stroke-width:0.25;" x1="334" x2="388" y1="226.2734" y2="226.2734"/><line style="stroke:#181818;stroke-width:0.25;" x1="334" x2="388" y1="230.2734" y2="230.2734"/></g><!--class RobotBrand--><g id="elem_RobotBrand"><rect codeLine="34" fill="#F1F1F1" height="27.5234" id="RobotBrand" rx="1.25" ry="1.25" style="stroke:#181818;stroke-width:0.25;" width="55" x="406" y="206.75"/><ellipse cx="413.5" cy="216.5117" fill="#A4C2E5" rx="5.5" ry="5.5" style="stroke:#181818;stroke-width:0.5;"/><path d="M413.8047,217.9805 L414.7266,216.0977 Q414.3828,216.0977 414.2891,216.0352 Q414.0781,215.9102 414.0781,215.668 Q414.0781,215.4805 414.2109,215.3633 Q414.3438,215.2461 414.6484,215.2461 L415.8125,215.2461 Q416.125,215.2461 416.25,215.3633 Q416.3828,215.4805 416.3828,215.668 Q416.3828,215.8555 416.25,215.9805 Q416.125,216.0977 415.8125,216.0977 L415.6719,216.0977 L414.25,219.0117 L413.3594,219.0117 L411.9375,216.0977 L411.8203,216.0977 Q411.5078,216.0977 411.375,215.9805 Q411.25,215.8555 411.25,215.668 Q411.25,215.4805 411.375,215.3633 Q411.5078,215.2461 411.8203,215.2461 L412.9609,215.2461 Q413.2656,215.2461 413.3906,215.3633 Q413.5234,215.4805 413.5234,215.668 Q413.5234,215.9102 413.3281,216.0352 Q413.2266,216.0977 412.8828,216.0977 L413.8047,217.9805 Z " fill="#000000"/><text fill="#000000" font-family="sans-serif" font-size="6" font-style="italic" lengthAdjust="spacing" textLength="41" x="419.5" y="214.6816">&#171;ValueObject&#187;</text><text fill="#000000" font-family="sans-serif" font-size="7" lengthAdjust="spacing" textLength="38" x="421" y="222.29">RobotBrand</text><line style="stroke:#181818;stroke-width:0.25;" x1="406.5" x2="460.5" y1="226.2734" y2="226.2734"/><line style="stroke:#181818;stroke-width:0.25;" x1="406.5" x2="460.5" y1="230.2734" y2="230.2734"/></g><!--class RobotTypeId--><g id="elem_RobotTypeId"><rect codeLine="35" fill="#F1F1F1" height="34.2266" id="RobotTypeId" rx="1.25" ry="1.25" style="stroke:#181818;stroke-width:0.25;" width="56.5" x="478.75" y="203.5"/><ellipse cx="486.25" cy="216.6133" fill="#FFA500" rx="5.5" ry="5.5" style="stroke:#181818;stroke-width:0.5;"/><path d="M486.5547,218.082 L487.4766,216.1992 Q487.1328,216.1992 487.0391,216.1367 Q486.8281,216.0117 486.8281,215.7695 Q486.8281,215.582 486.9609,215.4648 Q487.0938,215.3477 487.3984,215.3477 L488.5625,215.3477 Q488.875,215.3477 489,215.4648 Q489.1328,215.582 489.1328,215.7695 Q489.1328,215.957 489,216.082 Q488.875,216.1992 488.5625,216.1992 L488.4219,216.1992 L487,219.1133 L486.1094,219.1133 L484.6875,216.1992 L484.5703,216.1992 Q484.2578,216.1992 484.125,216.082 Q484,215.957 484,215.7695 Q484,215.582 484.125,215.4648 Q484.2578,215.3477 484.5703,215.3477 L485.7109,215.3477 Q486.0156,215.3477 486.1406,215.4648 Q486.2734,215.582 486.2734,215.7695 Q486.2734,216.0117 486.0781,216.1367 Q485.9766,216.1992 485.6328,216.1992 L486.5547,218.082 Z " fill="#000000"/><text fill="#000000" font-family="sans-serif" font-size="6" font-style="italic" lengthAdjust="spacing" textLength="41" x="493" y="211.4316">&#171;ValueObject&#187;</text><text fill="#000000" font-family="sans-serif" font-size="6" font-style="italic" lengthAdjust="spacing" textLength="26" x="500.5" y="218.1348">&#171;unique&#187;</text><text fill="#000000" font-family="sans-serif" font-size="7" lengthAdjust="spacing" textLength="40.5" x="493.25" y="225.7432">RobotTypeId</text><line style="stroke:#181818;stroke-width:0.25;" x1="479.25" x2="534.75" y1="229.7266" y2="229.7266"/><line style="stroke:#181818;stroke-width:0.25;" x1="479.25" x2="534.75" y1="233.7266" y2="233.7266"/></g><!--class Building--><g id="elem_Building"><rect codeLine="40" fill="#F1F1F1" height="34.2266" id="Building" rx="1.25" ry="1.25" style="stroke:#181818;stroke-width:0.25;" width="41" x="1389" y="11.5"/><ellipse cx="1396.5" cy="24.6133" fill="#ADD1B2" rx="5.5" ry="5.5" style="stroke:#181818;stroke-width:0.5;"/><path d="M1397.8828,22.5508 Q1397.9609,22.4414 1398.0547,22.3867 Q1398.1484,22.332 1398.2578,22.332 Q1398.4453,22.332 1398.5625,22.4648 Q1398.6797,22.5898 1398.6797,22.8945 L1398.6797,23.6211 Q1398.6797,23.9258 1398.5625,24.0586 Q1398.4453,24.1914 1398.2578,24.1914 Q1398.0859,24.1914 1397.9844,24.0898 Q1397.8828,23.9961 1397.8281,23.7383 Q1397.8047,23.5586 1397.7109,23.4648 Q1397.5469,23.2773 1397.2422,23.168 Q1396.9375,23.0586 1396.625,23.0586 Q1396.2422,23.0586 1395.9219,23.2227 Q1395.6094,23.3867 1395.3594,23.7617 Q1395.1172,24.1367 1395.1172,24.6523 L1395.1172,25.1992 Q1395.1172,25.8164 1395.5625,26.2305 Q1396.0078,26.6367 1396.8047,26.6367 Q1397.2734,26.6367 1397.6016,26.5117 Q1397.7969,26.4336 1398.0078,26.2148 Q1398.1406,26.082 1398.2109,26.043 Q1398.2891,26.0039 1398.3906,26.0039 Q1398.5547,26.0039 1398.6797,26.1367 Q1398.8125,26.2617 1398.8125,26.4336 Q1398.8125,26.6055 1398.6406,26.8086 Q1398.3906,27.0977 1397.9922,27.2617 Q1397.4531,27.4883 1396.8047,27.4883 Q1396.0469,27.4883 1395.4453,27.1758 Q1394.9531,26.9258 1394.6094,26.3945 Q1394.2656,25.8555 1394.2656,25.2148 L1394.2656,24.6367 Q1394.2656,23.9727 1394.5703,23.4023 Q1394.8828,22.8242 1395.4297,22.5195 Q1395.9766,22.207 1396.5938,22.207 Q1396.9609,22.207 1397.2813,22.293 Q1397.6094,22.3711 1397.8828,22.5508 Z " fill="#000000"/><text fill="#000000" font-family="sans-serif" font-size="6" font-style="italic" lengthAdjust="spacing" textLength="20" x="1406" y="19.4316">&#171;Root&#187;</text><text fill="#000000" font-family="sans-serif" font-size="6" font-style="italic" lengthAdjust="spacing" textLength="22" x="1405" y="26.1348">&#171;Entity&#187;</text><text fill="#000000" font-family="sans-serif" font-size="7" lengthAdjust="spacing" textLength="25" x="1403.5" y="33.7432">Building</text><line style="stroke:#181818;stroke-width:0.25;" x1="1389.5" x2="1429.5" y1="37.7266" y2="37.7266"/><line style="stroke:#181818;stroke-width:0.25;" x1="1389.5" x2="1429.5" y1="41.7266" y2="41.7266"/></g><!--class BuildingDescription--><g id="elem_BuildingDescription"><rect codeLine="41" fill="#F1F1F1" height="27.5234" id="BuildingDescription" rx="1.25" ry="1.25" style="stroke:#181818;stroke-width:0.25;" width="76.5" x="1371.25" y="78.75"/><ellipse cx="1378.75" cy="88.5117" fill="#A4C2E5" rx="5.5" ry="5.5" style="stroke:#181818;stroke-width:0.5;"/><path d="M1379.0547,89.9805 L1379.9766,88.0977 Q1379.6328,88.0977 1379.5391,88.0352 Q1379.3281,87.9102 1379.3281,87.668 Q1379.3281,87.4805 1379.4609,87.3633 Q1379.5938,87.2461 1379.8984,87.2461 L1381.0625,87.2461 Q1381.375,87.2461 1381.5,87.3633 Q1381.6328,87.4805 1381.6328,87.668 Q1381.6328,87.8555 1381.5,87.9805 Q1381.375,88.0977 1381.0625,88.0977 L1380.9219,88.0977 L1379.5,91.0117 L1378.6094,91.0117 L1377.1875,88.0977 L1377.0703,88.0977 Q1376.7578,88.0977 1376.625,87.9805 Q1376.5,87.8555 1376.5,87.668 Q1376.5,87.4805 1376.625,87.3633 Q1376.7578,87.2461 1377.0703,87.2461 L1378.2109,87.2461 Q1378.5156,87.2461 1378.6406,87.3633 Q1378.7734,87.4805 1378.7734,87.668 Q1378.7734,87.9102 1378.5781,88.0352 Q1378.4766,88.0977 1378.1328,88.0977 L1379.0547,89.9805 Z " fill="#000000"/><text fill="#000000" font-family="sans-serif" font-size="6" font-style="italic" lengthAdjust="spacing" textLength="41" x="1395.5" y="86.6816">&#171;ValueObject&#187;</text><text fill="#000000" font-family="sans-serif" font-size="7" lengthAdjust="spacing" textLength="60.5" x="1385.75" y="94.29">BuildingDescription</text><line style="stroke:#181818;stroke-width:0.25;" x1="1371.75" x2="1447.25" y1="98.2734" y2="98.2734"/><line style="stroke:#181818;stroke-width:0.25;" x1="1371.75" x2="1447.25" y1="102.2734" y2="102.2734"/></g><!--class BuildingName--><g id="elem_BuildingName"><rect codeLine="42" fill="#F1F1F1" height="27.5234" id="BuildingName" rx="1.25" ry="1.25" style="stroke:#181818;stroke-width:0.25;" width="59" x="1465.5" y="78.75"/><ellipse cx="1473" cy="88.5117" fill="#A4C2E5" rx="5.5" ry="5.5" style="stroke:#181818;stroke-width:0.5;"/><path d="M1473.3047,89.9805 L1474.2266,88.0977 Q1473.8828,88.0977 1473.7891,88.0352 Q1473.5781,87.9102 1473.5781,87.668 Q1473.5781,87.4805 1473.7109,87.3633 Q1473.8438,87.2461 1474.1484,87.2461 L1475.3125,87.2461 Q1475.625,87.2461 1475.75,87.3633 Q1475.8828,87.4805 1475.8828,87.668 Q1475.8828,87.8555 1475.75,87.9805 Q1475.625,88.0977 1475.3125,88.0977 L1475.1719,88.0977 L1473.75,91.0117 L1472.8594,91.0117 L1471.4375,88.0977 L1471.3203,88.0977 Q1471.0078,88.0977 1470.875,87.9805 Q1470.75,87.8555 1470.75,87.668 Q1470.75,87.4805 1470.875,87.3633 Q1471.0078,87.2461 1471.3203,87.2461 L1472.4609,87.2461 Q1472.7656,87.2461 1472.8906,87.3633 Q1473.0234,87.4805 1473.0234,87.668 Q1473.0234,87.9102 1472.8281,88.0352 Q1472.7266,88.0977 1472.3828,88.0977 L1473.3047,89.9805 Z " fill="#000000"/><text fill="#000000" font-family="sans-serif" font-size="6" font-style="italic" lengthAdjust="spacing" textLength="41" x="1481" y="86.6816">&#171;ValueObject&#187;</text><text fill="#000000" font-family="sans-serif" font-size="7" lengthAdjust="spacing" textLength="43" x="1480" y="94.29">BuildingName</text><line style="stroke:#181818;stroke-width:0.25;" x1="1466" x2="1524" y1="98.2734" y2="98.2734"/><line style="stroke:#181818;stroke-width:0.25;" x1="1466" x2="1524" y1="102.2734" y2="102.2734"/></g><!--class BuildingCode--><g id="elem_BuildingCode"><rect codeLine="43" fill="#F1F1F1" height="34.2266" id="BuildingCode" rx="1.25" ry="1.25" style="stroke:#181818;stroke-width:0.25;" width="58" x="1542" y="75.5"/><ellipse cx="1549.5" cy="88.6133" fill="#FFA500" rx="5.5" ry="5.5" style="stroke:#181818;stroke-width:0.5;"/><path d="M1549.8047,90.082 L1550.7266,88.1992 Q1550.3828,88.1992 1550.2891,88.1367 Q1550.0781,88.0117 1550.0781,87.7695 Q1550.0781,87.582 1550.2109,87.4648 Q1550.3438,87.3477 1550.6484,87.3477 L1551.8125,87.3477 Q1552.125,87.3477 1552.25,87.4648 Q1552.3828,87.582 1552.3828,87.7695 Q1552.3828,87.957 1552.25,88.082 Q1552.125,88.1992 1551.8125,88.1992 L1551.6719,88.1992 L1550.25,91.1133 L1549.3594,91.1133 L1547.9375,88.1992 L1547.8203,88.1992 Q1547.5078,88.1992 1547.375,88.082 Q1547.25,87.957 1547.25,87.7695 Q1547.25,87.582 1547.375,87.4648 Q1547.5078,87.3477 1547.8203,87.3477 L1548.9609,87.3477 Q1549.2656,87.3477 1549.3906,87.4648 Q1549.5234,87.582 1549.5234,87.7695 Q1549.5234,88.0117 1549.3281,88.1367 Q1549.2266,88.1992 1548.8828,88.1992 L1549.8047,90.082 Z " fill="#000000"/><text fill="#000000" font-family="sans-serif" font-size="6" font-style="italic" lengthAdjust="spacing" textLength="41" x="1557" y="83.4316">&#171;ValueObject&#187;</text><text fill="#000000" font-family="sans-serif" font-size="6" font-style="italic" lengthAdjust="spacing" textLength="26" x="1564.5" y="90.1348">&#171;unique&#187;</text><text fill="#000000" font-family="sans-serif" font-size="7" lengthAdjust="spacing" textLength="42" x="1556.5" y="97.7432">BuildingCode</text><line style="stroke:#181818;stroke-width:0.25;" x1="1542.5" x2="1599.5" y1="101.7266" y2="101.7266"/><line style="stroke:#181818;stroke-width:0.25;" x1="1542.5" x2="1599.5" y1="105.7266" y2="105.7266"/></g><!--class BuildingSize--><g id="elem_BuildingSize"><rect codeLine="44" fill="#F1F1F1" height="27.5234" id="BuildingSize" rx="1.25" ry="1.25" style="stroke:#181818;stroke-width:0.25;" width="55" x="1617.5" y="78.75"/><ellipse cx="1625" cy="88.5117" fill="#A4C2E5" rx="5.5" ry="5.5" style="stroke:#181818;stroke-width:0.5;"/><path d="M1625.3047,89.9805 L1626.2266,88.0977 Q1625.8828,88.0977 1625.7891,88.0352 Q1625.5781,87.9102 1625.5781,87.668 Q1625.5781,87.4805 1625.7109,87.3633 Q1625.8438,87.2461 1626.1484,87.2461 L1627.3125,87.2461 Q1627.625,87.2461 1627.75,87.3633 Q1627.8828,87.4805 1627.8828,87.668 Q1627.8828,87.8555 1627.75,87.9805 Q1627.625,88.0977 1627.3125,88.0977 L1627.1719,88.0977 L1625.75,91.0117 L1624.8594,91.0117 L1623.4375,88.0977 L1623.3203,88.0977 Q1623.0078,88.0977 1622.875,87.9805 Q1622.75,87.8555 1622.75,87.668 Q1622.75,87.4805 1622.875,87.3633 Q1623.0078,87.2461 1623.3203,87.2461 L1624.4609,87.2461 Q1624.7656,87.2461 1624.8906,87.3633 Q1625.0234,87.4805 1625.0234,87.668 Q1625.0234,87.9102 1624.8281,88.0352 Q1624.7266,88.0977 1624.3828,88.0977 L1625.3047,89.9805 Z " fill="#000000"/><text fill="#000000" font-family="sans-serif" font-size="6" font-style="italic" lengthAdjust="spacing" textLength="41" x="1631" y="86.6816">&#171;ValueObject&#187;</text><text fill="#000000" font-family="sans-serif" font-size="7" lengthAdjust="spacing" textLength="38" x="1632.5" y="94.29">BuildingSize</text><line style="stroke:#181818;stroke-width:0.25;" x1="1618" x2="1672" y1="98.2734" y2="98.2734"/><line style="stroke:#181818;stroke-width:0.25;" x1="1618" x2="1672" y1="102.2734" y2="102.2734"/></g><!--class Room--><g id="elem_Room"><rect codeLine="48" fill="#F1F1F1" height="34.2266" id="Room" rx="1.25" ry="1.25" style="stroke:#181818;stroke-width:0.25;" width="36" x="923" y="139.5"/><ellipse cx="930.5" cy="152.6133" fill="#ADD1B2" rx="5.5" ry="5.5" style="stroke:#181818;stroke-width:0.5;"/><path d="M931.8828,150.5508 Q931.9609,150.4414 932.0547,150.3867 Q932.1484,150.332 932.2578,150.332 Q932.4453,150.332 932.5625,150.4648 Q932.6797,150.5898 932.6797,150.8945 L932.6797,151.6211 Q932.6797,151.9258 932.5625,152.0586 Q932.4453,152.1914 932.2578,152.1914 Q932.0859,152.1914 931.9844,152.0898 Q931.8828,151.9961 931.8281,151.7383 Q931.8047,151.5586 931.7109,151.4648 Q931.5469,151.2773 931.2422,151.168 Q930.9375,151.0586 930.625,151.0586 Q930.2422,151.0586 929.9219,151.2227 Q929.6094,151.3867 929.3594,151.7617 Q929.1172,152.1367 929.1172,152.6523 L929.1172,153.1992 Q929.1172,153.8164 929.5625,154.2305 Q930.0078,154.6367 930.8047,154.6367 Q931.2734,154.6367 931.6016,154.5117 Q931.7969,154.4336 932.0078,154.2148 Q932.1406,154.082 932.2109,154.043 Q932.2891,154.0039 932.3906,154.0039 Q932.5547,154.0039 932.6797,154.1367 Q932.8125,154.2617 932.8125,154.4336 Q932.8125,154.6055 932.6406,154.8086 Q932.3906,155.0977 931.9922,155.2617 Q931.4531,155.4883 930.8047,155.4883 Q930.0469,155.4883 929.4453,155.1758 Q928.9531,154.9258 928.6094,154.3945 Q928.2656,153.8555 928.2656,153.2148 L928.2656,152.6367 Q928.2656,151.9727 928.5703,151.4023 Q928.8828,150.8242 929.4297,150.5195 Q929.9766,150.207 930.5938,150.207 Q930.9609,150.207 931.2813,150.293 Q931.6094,150.3711 931.8828,150.5508 Z " fill="#000000"/><text fill="#000000" font-family="sans-serif" font-size="6" font-style="italic" lengthAdjust="spacing" textLength="20" x="937.5" y="147.4316">&#171;Root&#187;</text><text fill="#000000" font-family="sans-serif" font-size="6" font-style="italic" lengthAdjust="spacing" textLength="22" x="936.5" y="154.1348">&#171;Entity&#187;</text><text fill="#000000" font-family="sans-serif" font-size="7" lengthAdjust="spacing" textLength="18.5" x="938.25" y="161.7432">Room</text><line style="stroke:#181818;stroke-width:0.25;" x1="923.5" x2="958.5" y1="165.7266" y2="165.7266"/><line style="stroke:#181818;stroke-width:0.25;" x1="923.5" x2="958.5" y1="169.7266" y2="169.7266"/></g><!--class RoomName--><g id="elem_RoomName"><rect codeLine="49" fill="#F1F1F1" height="34.2266" id="RoomName" rx="1.25" ry="1.25" style="stroke:#181818;stroke-width:0.25;" width="55" x="923" y="203.5"/><ellipse cx="930.5" cy="216.6133" fill="#FFA500" rx="5.5" ry="5.5" style="stroke:#181818;stroke-width:0.5;"/><path d="M930.8047,218.082 L931.7266,216.1992 Q931.3828,216.1992 931.2891,216.1367 Q931.0781,216.0117 931.0781,215.7695 Q931.0781,215.582 931.2109,215.4648 Q931.3438,215.3477 931.6484,215.3477 L932.8125,215.3477 Q933.125,215.3477 933.25,215.4648 Q933.3828,215.582 933.3828,215.7695 Q933.3828,215.957 933.25,216.082 Q933.125,216.1992 932.8125,216.1992 L932.6719,216.1992 L931.25,219.1133 L930.3594,219.1133 L928.9375,216.1992 L928.8203,216.1992 Q928.5078,216.1992 928.375,216.082 Q928.25,215.957 928.25,215.7695 Q928.25,215.582 928.375,215.4648 Q928.5078,215.3477 928.8203,215.3477 L929.9609,215.3477 Q930.2656,215.3477 930.3906,215.4648 Q930.5234,215.582 930.5234,215.7695 Q930.5234,216.0117 930.3281,216.1367 Q930.2266,216.1992 929.8828,216.1992 L930.8047,218.082 Z " fill="#000000"/><text fill="#000000" font-family="sans-serif" font-size="6" font-style="italic" lengthAdjust="spacing" textLength="41" x="936.5" y="211.4316">&#171;ValueObject&#187;</text><text fill="#000000" font-family="sans-serif" font-size="6" font-style="italic" lengthAdjust="spacing" textLength="26" x="944" y="218.1348">&#171;unique&#187;</text><text fill="#000000" font-family="sans-serif" font-size="7" lengthAdjust="spacing" textLength="36.5" x="938.75" y="225.7432">RoomName</text><line style="stroke:#181818;stroke-width:0.25;" x1="923.5" x2="977.5" y1="229.7266" y2="229.7266"/><line style="stroke:#181818;stroke-width:0.25;" x1="923.5" x2="977.5" y1="233.7266" y2="233.7266"/></g><!--class RoomCategory--><g id="elem_RoomCategory"><rect codeLine="50" fill="#F1F1F1" height="27.5234" id="RoomCategory" rx="1.25" ry="1.25" style="stroke:#181818;stroke-width:0.25;" width="63.5" x="948.25" y="78.75"/><ellipse cx="955.75" cy="88.5117" fill="#A4C2E5" rx="5.5" ry="5.5" style="stroke:#181818;stroke-width:0.5;"/><path d="M956.0547,89.9805 L956.9766,88.0977 Q956.6328,88.0977 956.5391,88.0352 Q956.3281,87.9102 956.3281,87.668 Q956.3281,87.4805 956.4609,87.3633 Q956.5938,87.2461 956.8984,87.2461 L958.0625,87.2461 Q958.375,87.2461 958.5,87.3633 Q958.6328,87.4805 958.6328,87.668 Q958.6328,87.8555 958.5,87.9805 Q958.375,88.0977 958.0625,88.0977 L957.9219,88.0977 L956.5,91.0117 L955.6094,91.0117 L954.1875,88.0977 L954.0703,88.0977 Q953.7578,88.0977 953.625,87.9805 Q953.5,87.8555 953.5,87.668 Q953.5,87.4805 953.625,87.3633 Q953.7578,87.2461 954.0703,87.2461 L955.2109,87.2461 Q955.5156,87.2461 955.6406,87.3633 Q955.7734,87.4805 955.7734,87.668 Q955.7734,87.9102 955.5781,88.0352 Q955.4766,88.0977 955.1328,88.0977 L956.0547,89.9805 Z " fill="#000000"/><text fill="#000000" font-family="sans-serif" font-size="6" font-style="italic" lengthAdjust="spacing" textLength="41" x="966" y="86.6816">&#171;ValueObject&#187;</text><text fill="#000000" font-family="sans-serif" font-size="7" lengthAdjust="spacing" textLength="47.5" x="962.75" y="94.29">RoomCategory</text><line style="stroke:#181818;stroke-width:0.25;" x1="948.75" x2="1011.25" y1="98.2734" y2="98.2734"/><line style="stroke:#181818;stroke-width:0.25;" x1="948.75" x2="1011.25" y1="102.2734" y2="102.2734"/></g><!--class RoomDescription--><g id="elem_RoomDescription"><rect codeLine="51" fill="#F1F1F1" height="27.5234" id="RoomDescription" rx="1.25" ry="1.25" style="stroke:#181818;stroke-width:0.25;" width="70" x="976.5" y="142.75"/><ellipse cx="984" cy="152.5117" fill="#A4C2E5" rx="5.5" ry="5.5" style="stroke:#181818;stroke-width:0.5;"/><path d="M984.3047,153.9805 L985.2266,152.0977 Q984.8828,152.0977 984.7891,152.0352 Q984.5781,151.9102 984.5781,151.668 Q984.5781,151.4805 984.7109,151.3633 Q984.8438,151.2461 985.1484,151.2461 L986.3125,151.2461 Q986.625,151.2461 986.75,151.3633 Q986.8828,151.4805 986.8828,151.668 Q986.8828,151.8555 986.75,151.9805 Q986.625,152.0977 986.3125,152.0977 L986.1719,152.0977 L984.75,155.0117 L983.8594,155.0117 L982.4375,152.0977 L982.3203,152.0977 Q982.0078,152.0977 981.875,151.9805 Q981.75,151.8555 981.75,151.668 Q981.75,151.4805 981.875,151.3633 Q982.0078,151.2461 982.3203,151.2461 L983.4609,151.2461 Q983.7656,151.2461 983.8906,151.3633 Q984.0234,151.4805 984.0234,151.668 Q984.0234,151.9102 983.8281,152.0352 Q983.7266,152.0977 983.3828,152.0977 L984.3047,153.9805 Z " fill="#000000"/><text fill="#000000" font-family="sans-serif" font-size="6" font-style="italic" lengthAdjust="spacing" textLength="41" x="997.5" y="150.6816">&#171;ValueObject&#187;</text><text fill="#000000" font-family="sans-serif" font-size="7" lengthAdjust="spacing" textLength="54" x="991" y="158.29">RoomDescription</text><line style="stroke:#181818;stroke-width:0.25;" x1="977" x2="1046" y1="162.2734" y2="162.2734"/><line style="stroke:#181818;stroke-width:0.25;" x1="977" x2="1046" y1="166.2734" y2="166.2734"/></g><!--class Floor--><g id="elem_Floor"><rect codeLine="55" fill="#F1F1F1" height="34.2266" id="Floor" rx="1.25" ry="1.25" style="stroke:#181818;stroke-width:0.25;" width="36" x="1149" y="75.5"/><ellipse cx="1156.5" cy="88.6133" fill="#ADD1B2" rx="5.5" ry="5.5" style="stroke:#181818;stroke-width:0.5;"/><path d="M1157.8828,86.5508 Q1157.9609,86.4414 1158.0547,86.3867 Q1158.1484,86.332 1158.2578,86.332 Q1158.4453,86.332 1158.5625,86.4648 Q1158.6797,86.5898 1158.6797,86.8945 L1158.6797,87.6211 Q1158.6797,87.9258 1158.5625,88.0586 Q1158.4453,88.1914 1158.2578,88.1914 Q1158.0859,88.1914 1157.9844,88.0898 Q1157.8828,87.9961 1157.8281,87.7383 Q1157.8047,87.5586 1157.7109,87.4648 Q1157.5469,87.2773 1157.2422,87.168 Q1156.9375,87.0586 1156.625,87.0586 Q1156.2422,87.0586 1155.9219,87.2227 Q1155.6094,87.3867 1155.3594,87.7617 Q1155.1172,88.1367 1155.1172,88.6523 L1155.1172,89.1992 Q1155.1172,89.8164 1155.5625,90.2305 Q1156.0078,90.6367 1156.8047,90.6367 Q1157.2734,90.6367 1157.6016,90.5117 Q1157.7969,90.4336 1158.0078,90.2148 Q1158.1406,90.082 1158.2109,90.043 Q1158.2891,90.0039 1158.3906,90.0039 Q1158.5547,90.0039 1158.6797,90.1367 Q1158.8125,90.2617 1158.8125,90.4336 Q1158.8125,90.6055 1158.6406,90.8086 Q1158.3906,91.0977 1157.9922,91.2617 Q1157.4531,91.4883 1156.8047,91.4883 Q1156.0469,91.4883 1155.4453,91.1758 Q1154.9531,90.9258 1154.6094,90.3945 Q1154.2656,89.8555 1154.2656,89.2148 L1154.2656,88.6367 Q1154.2656,87.9727 1154.5703,87.4023 Q1154.8828,86.8242 1155.4297,86.5195 Q1155.9766,86.207 1156.5938,86.207 Q1156.9609,86.207 1157.2813,86.293 Q1157.6094,86.3711 1157.8828,86.5508 Z " fill="#000000"/><text fill="#000000" font-family="sans-serif" font-size="6" font-style="italic" lengthAdjust="spacing" textLength="20" x="1163.5" y="83.4316">&#171;Root&#187;</text><text fill="#000000" font-family="sans-serif" font-size="6" font-style="italic" lengthAdjust="spacing" textLength="22" x="1162.5" y="90.1348">&#171;Entity&#187;</text><text fill="#000000" font-family="sans-serif" font-size="7" lengthAdjust="spacing" textLength="16.5" x="1165.25" y="97.7432">Floor</text><line style="stroke:#181818;stroke-width:0.25;" x1="1149.5" x2="1184.5" y1="101.7266" y2="101.7266"/><line style="stroke:#181818;stroke-width:0.25;" x1="1149.5" x2="1184.5" y1="105.7266" y2="105.7266"/></g><!--class FloorId--><g id="elem_FloorId"><rect codeLine="56" fill="#F1F1F1" height="34.2266" id="FloorId" rx="1.25" ry="1.25" style="stroke:#181818;stroke-width:0.25;" width="55" x="1202.5" y="75.5"/><ellipse cx="1210" cy="88.6133" fill="#FFA500" rx="5.5" ry="5.5" style="stroke:#181818;stroke-width:0.5;"/><path d="M1210.3047,90.082 L1211.2266,88.1992 Q1210.8828,88.1992 1210.7891,88.1367 Q1210.5781,88.0117 1210.5781,87.7695 Q1210.5781,87.582 1210.7109,87.4648 Q1210.8438,87.3477 1211.1484,87.3477 L1212.3125,87.3477 Q1212.625,87.3477 1212.75,87.4648 Q1212.8828,87.582 1212.8828,87.7695 Q1212.8828,87.957 1212.75,88.082 Q1212.625,88.1992 1212.3125,88.1992 L1212.1719,88.1992 L1210.75,91.1133 L1209.8594,91.1133 L1208.4375,88.1992 L1208.3203,88.1992 Q1208.0078,88.1992 1207.875,88.082 Q1207.75,87.957 1207.75,87.7695 Q1207.75,87.582 1207.875,87.4648 Q1208.0078,87.3477 1208.3203,87.3477 L1209.4609,87.3477 Q1209.7656,87.3477 1209.8906,87.4648 Q1210.0234,87.582 1210.0234,87.7695 Q1210.0234,88.0117 1209.8281,88.1367 Q1209.7266,88.1992 1209.3828,88.1992 L1210.3047,90.082 Z " fill="#000000"/><text fill="#000000" font-family="sans-serif" font-size="6" font-style="italic" lengthAdjust="spacing" textLength="41" x="1216" y="83.4316">&#171;ValueObject&#187;</text><text fill="#000000" font-family="sans-serif" font-size="6" font-style="italic" lengthAdjust="spacing" textLength="26" x="1223.5" y="90.1348">&#171;unique&#187;</text><text fill="#000000" font-family="sans-serif" font-size="7" lengthAdjust="spacing" textLength="22" x="1225.5" y="97.7432">FloorId</text><line style="stroke:#181818;stroke-width:0.25;" x1="1203" x2="1257" y1="101.7266" y2="101.7266"/><line style="stroke:#181818;stroke-width:0.25;" x1="1203" x2="1257" y1="105.7266" y2="105.7266"/></g><!--class FloorDescription--><g id="elem_FloorDescription"><rect codeLine="57" fill="#F1F1F1" height="27.5234" id="FloorDescription" rx="1.25" ry="1.25" style="stroke:#181818;stroke-width:0.25;" width="68" x="1275" y="78.75"/><ellipse cx="1282.5" cy="88.5117" fill="#A4C2E5" rx="5.5" ry="5.5" style="stroke:#181818;stroke-width:0.5;"/><path d="M1282.8047,89.9805 L1283.7266,88.0977 Q1283.3828,88.0977 1283.2891,88.0352 Q1283.0781,87.9102 1283.0781,87.668 Q1283.0781,87.4805 1283.2109,87.3633 Q1283.3438,87.2461 1283.6484,87.2461 L1284.8125,87.2461 Q1285.125,87.2461 1285.25,87.3633 Q1285.3828,87.4805 1285.3828,87.668 Q1285.3828,87.8555 1285.25,87.9805 Q1285.125,88.0977 1284.8125,88.0977 L1284.6719,88.0977 L1283.25,91.0117 L1282.3594,91.0117 L1280.9375,88.0977 L1280.8203,88.0977 Q1280.5078,88.0977 1280.375,87.9805 Q1280.25,87.8555 1280.25,87.668 Q1280.25,87.4805 1280.375,87.3633 Q1280.5078,87.2461 1280.8203,87.2461 L1281.9609,87.2461 Q1282.2656,87.2461 1282.3906,87.3633 Q1282.5234,87.4805 1282.5234,87.668 Q1282.5234,87.9102 1282.3281,88.0352 Q1282.2266,88.0977 1281.8828,88.0977 L1282.8047,89.9805 Z " fill="#000000"/><text fill="#000000" font-family="sans-serif" font-size="6" font-style="italic" lengthAdjust="spacing" textLength="41" x="1295" y="86.6816">&#171;ValueObject&#187;</text><text fill="#000000" font-family="sans-serif" font-size="7" lengthAdjust="spacing" textLength="52" x="1289.5" y="94.29">FloorDescription</text><line style="stroke:#181818;stroke-width:0.25;" x1="1275.5" x2="1342.5" y1="98.2734" y2="98.2734"/><line style="stroke:#181818;stroke-width:0.25;" x1="1275.5" x2="1342.5" y1="102.2734" y2="102.2734"/></g><!--class FloorMap--><g id="elem_FloorMap"><rect codeLine="58" fill="#F1F1F1" height="27.5234" id="FloorMap" rx="1.25" ry="1.25" style="stroke:#181818;stroke-width:0.25;" width="46" x="1109" y="142.75"/><ellipse cx="1116.5" cy="152.5117" fill="#ADD1B2" rx="5.5" ry="5.5" style="stroke:#181818;stroke-width:0.5;"/><path d="M1117.8828,150.4492 Q1117.9609,150.3398 1118.0547,150.2852 Q1118.1484,150.2305 1118.2578,150.2305 Q1118.4453,150.2305 1118.5625,150.3633 Q1118.6797,150.4883 1118.6797,150.793 L1118.6797,151.5195 Q1118.6797,151.8242 1118.5625,151.957 Q1118.4453,152.0898 1118.2578,152.0898 Q1118.0859,152.0898 1117.9844,151.9883 Q1117.8828,151.8945 1117.8281,151.6367 Q1117.8047,151.457 1117.7109,151.3633 Q1117.5469,151.1758 1117.2422,151.0664 Q1116.9375,150.957 1116.625,150.957 Q1116.2422,150.957 1115.9219,151.1211 Q1115.6094,151.2852 1115.3594,151.6602 Q1115.1172,152.0352 1115.1172,152.5508 L1115.1172,153.0977 Q1115.1172,153.7148 1115.5625,154.1289 Q1116.0078,154.5352 1116.8047,154.5352 Q1117.2734,154.5352 1117.6016,154.4102 Q1117.7969,154.332 1118.0078,154.1133 Q1118.1406,153.9805 1118.2109,153.9414 Q1118.2891,153.9023 1118.3906,153.9023 Q1118.5547,153.9023 1118.6797,154.0352 Q1118.8125,154.1602 1118.8125,154.332 Q1118.8125,154.5039 1118.6406,154.707 Q1118.3906,154.9961 1117.9922,155.1602 Q1117.4531,155.3867 1116.8047,155.3867 Q1116.0469,155.3867 1115.4453,155.0742 Q1114.9531,154.8242 1114.6094,154.293 Q1114.2656,153.7539 1114.2656,153.1133 L1114.2656,152.5352 Q1114.2656,151.8711 1114.5703,151.3008 Q1114.8828,150.7227 1115.4297,150.418 Q1115.9766,150.1055 1116.5938,150.1055 Q1116.9609,150.1055 1117.2813,150.1914 Q1117.6094,150.2695 1117.8828,150.4492 Z " fill="#000000"/><text fill="#000000" font-family="sans-serif" font-size="6" font-style="italic" lengthAdjust="spacing" textLength="22" x="1127.5" y="150.6816">&#171;Entity&#187;</text><text fill="#000000" font-family="sans-serif" font-size="7" lengthAdjust="spacing" textLength="30" x="1123.5" y="158.29">FloorMap</text><line style="stroke:#181818;stroke-width:0.25;" x1="1109.5" x2="1154.5" y1="162.2734" y2="162.2734"/><line style="stroke:#181818;stroke-width:0.25;" x1="1109.5" x2="1154.5" y1="166.2734" y2="166.2734"/></g><!--class FloorNumber--><g id="elem_FloorNumber"><rect codeLine="59" fill="#F1F1F1" height="27.5234" id="FloorNumber" rx="1.25" ry="1.25" style="stroke:#181818;stroke-width:0.25;" width="57" x="1074.5" y="78.75"/><ellipse cx="1082" cy="88.5117" fill="#A4C2E5" rx="5.5" ry="5.5" style="stroke:#181818;stroke-width:0.5;"/><path d="M1082.3047,89.9805 L1083.2266,88.0977 Q1082.8828,88.0977 1082.7891,88.0352 Q1082.5781,87.9102 1082.5781,87.668 Q1082.5781,87.4805 1082.7109,87.3633 Q1082.8438,87.2461 1083.1484,87.2461 L1084.3125,87.2461 Q1084.625,87.2461 1084.75,87.3633 Q1084.8828,87.4805 1084.8828,87.668 Q1084.8828,87.8555 1084.75,87.9805 Q1084.625,88.0977 1084.3125,88.0977 L1084.1719,88.0977 L1082.75,91.0117 L1081.8594,91.0117 L1080.4375,88.0977 L1080.3203,88.0977 Q1080.0078,88.0977 1079.875,87.9805 Q1079.75,87.8555 1079.75,87.668 Q1079.75,87.4805 1079.875,87.3633 Q1080.0078,87.2461 1080.3203,87.2461 L1081.4609,87.2461 Q1081.7656,87.2461 1081.8906,87.3633 Q1082.0234,87.4805 1082.0234,87.668 Q1082.0234,87.9102 1081.8281,88.0352 Q1081.7266,88.0977 1081.3828,88.0977 L1082.3047,89.9805 Z " fill="#000000"/><text fill="#000000" font-family="sans-serif" font-size="6" font-style="italic" lengthAdjust="spacing" textLength="41" x="1089" y="86.6816">&#171;ValueObject&#187;</text><text fill="#000000" font-family="sans-serif" font-size="7" lengthAdjust="spacing" textLength="41" x="1089" y="94.29">FloorNumber</text><line style="stroke:#181818;stroke-width:0.25;" x1="1075" x2="1131" y1="98.2734" y2="98.2734"/><line style="stroke:#181818;stroke-width:0.25;" x1="1075" x2="1131" y1="102.2734" y2="102.2734"/></g><!--link MobileRobot to Robot--><g id="link_MobileRobot_Robot"><path codeLine="65" d="M136.875,42.385 C136.875,42.385 136.875,65.45 136.875,65.45 " fill="none" id="MobileRobot-to-Robot" style="stroke:#181818;stroke-width:0.5;"/><polygon fill="none" points="140.375,65.45,136.875,75.45,133.375,65.45,140.375,65.45" style="stroke:#181818;stroke-width:0.5;"/></g><!--link Drone to Robot--><g id="link_Drone_Robot"><path codeLine="66" d="M163.75,42.385 C163.75,42.385 163.75,65.45 163.75,65.45 " fill="none" id="Drone-to-Robot" style="stroke:#181818;stroke-width:0.5;"/><polygon fill="none" points="167.25,65.45,163.75,75.45,160.25,65.45,167.25,65.45" style="stroke:#181818;stroke-width:0.5;"/></g><!--reverse link Code to Robot--><g id="link_Code_Robot"><path codeLine="67" d="M115.135,92.5 C115.135,92.5 129.995,92.5 129.995,92.5 " fill="none" id="Code-backto-Robot" style="stroke:#181818;stroke-width:0.5;"/><polygon fill="#181818" points="112.635,92.5,117.135,94.5,115.135,92.5,117.135,90.5,112.635,92.5" style="stroke:#181818;stroke-width:0.5;"/><text fill="#000000" font-family="sans-serif" font-size="6.5" lengthAdjust="spacing" textLength="3.5" x="116.5836" y="90.9163">1</text><text fill="#000000" font-family="sans-serif" font-size="6.5" lengthAdjust="spacing" textLength="3.5" x="122.4205" y="90.666">1</text></g><!--link Robot to RobotType--><g id="link_Robot_RobotType"><path codeLine="68" d="M156.5,109.695 C156.5,113.025 156.5,115.5 156.5,115.5 C156.5,115.5 361,115.5 361,115.5 C361,115.5 361,136.85 361,136.85 " fill="none" id="Robot-to-RobotType" style="stroke:#181818;stroke-width:0.5;"/><polygon fill="#181818" points="361,139.35,363,134.85,361,136.85,359,134.85,361,139.35" style="stroke:#181818;stroke-width:0.5;"/><text fill="#000000" font-family="sans-serif" font-size="6.5" lengthAdjust="spacing" textLength="2.5" x="155.4273" y="119.6571">*</text><text fill="#000000" font-family="sans-serif" font-size="6.5" lengthAdjust="spacing" textLength="3.5" x="357.1555" y="134.1723">1</text></g><!--link Robot to OperationStatus--><g id="link_Robot_OperationStatus"><path codeLine="69" d="M144.5,109.65 C144.5,109.65 144.5,140.245 144.5,140.245 " fill="none" id="Robot-to-OperationStatus" style="stroke:#181818;stroke-width:0.5;"/><polygon fill="#181818" points="144.5,142.745,146.5,138.245,144.5,140.245,142.5,138.245,144.5,142.745" style="stroke:#181818;stroke-width:0.5;"/><text fill="#000000" font-family="sans-serif" font-size="6.5" lengthAdjust="spacing" textLength="2.5" x="141.0648" y="119.6032">*</text><text fill="#000000" font-family="sans-serif" font-size="6.5" lengthAdjust="spacing" textLength="3.5" x="147.0328" y="137.4524">1</text></g><!--link Robot to Nickname--><g id="link_Robot_Nickname"><path codeLine="70" d="M137.25,109.65 C137.25,120.885 137.25,133.5 137.25,133.5 C137.25,133.5 62,133.5 62,133.5 C62,133.5 62,140.22 62,140.22 " fill="none" id="Robot-to-Nickname" style="stroke:#181818;stroke-width:0.5;"/><polygon fill="#181818" points="62,142.72,64,138.22,62,140.22,60,138.22,62,142.72" style="stroke:#181818;stroke-width:0.5;"/><text fill="#000000" font-family="sans-serif" font-size="6.5" lengthAdjust="spacing" textLength="3.5" x="131.2891" y="119.6032">1</text><text fill="#000000" font-family="sans-serif" font-size="6.5" lengthAdjust="spacing" textLength="3.5" x="63.6797" y="137.4213">1</text></g><!--link Robot to SerialNumber--><g id="link_Robot_SerialNumber"><path codeLine="71" d="M161.25,109.65 C161.25,128.61 161.25,156.5 161.25,156.5 C161.25,156.5 166.65,156.5 166.65,156.5 " fill="none" id="Robot-to-SerialNumber" style="stroke:#181818;stroke-width:0.5;"/><polygon fill="#181818" points="169.15,156.5,164.65,154.5,166.65,156.5,164.65,158.5,169.15,156.5" style="stroke:#181818;stroke-width:0.5;"/><text fill="#000000" font-family="sans-serif" font-size="6.5" lengthAdjust="spacing" textLength="3.5" x="160.0141" y="119.6032">1</text><text fill="#000000" font-family="sans-serif" font-size="6.5" lengthAdjust="spacing" textLength="3.5" x="161.6653" y="154.9511">1</text></g><!--link RobotType to RobotModel--><g id="link_RobotType_RobotModel"><path codeLine="73" d="M361,173.65 C361,173.65 361,204.245 361,204.245 " fill="none" id="RobotType-to-RobotModel" style="stroke:#181818;stroke-width:0.5;"/><polygon fill="#181818" points="361,206.745,363,202.245,361,204.245,359,202.245,361,206.745" style="stroke:#181818;stroke-width:0.5;"/><text fill="#000000" font-family="sans-serif" font-size="6.5" lengthAdjust="spacing" textLength="2.5" x="358.2539" y="183.6032">*</text><text fill="#000000" font-family="sans-serif" font-size="6.5" lengthAdjust="spacing" textLength="3.5" x="357.0734" y="201.4524">1</text></g><!--link RobotType to RobotBrand--><g id="link_RobotType_RobotBrand"><path codeLine="74" d="M386.53,162.5 C398.215,162.5 409.5,162.5 409.5,162.5 C409.5,162.5 409.5,204.11 409.5,204.11 " fill="none" id="RobotType-to-RobotBrand" style="stroke:#181818;stroke-width:0.5;"/><polygon fill="#181818" points="409.5,206.61,411.5,202.11,409.5,204.11,407.5,202.11,409.5,206.61" style="stroke:#181818;stroke-width:0.5;"/><text fill="#000000" font-family="sans-serif" font-size="6.5" lengthAdjust="spacing" textLength="2.5" x="390.4633" y="161.754">*</text><text fill="#000000" font-family="sans-serif" font-size="6.5" lengthAdjust="spacing" textLength="3.5" x="399.7234" y="201.2845">1</text></g><!--link RobotType to AvailableTask--><g id="link_RobotType_AvailableTask"><path codeLine="75" d="M335.44,156.5 C324.2,156.5 313.5,156.5 313.5,156.5 C313.5,156.5 313.5,204.115 313.5,204.115 " fill="none" id="RobotType-to-AvailableTask" style="stroke:#181818;stroke-width:0.5;"/><polygon fill="#181818" points="313.5,206.615,315.5,202.115,313.5,204.115,311.5,202.115,313.5,206.615" style="stroke:#181818;stroke-width:0.5;"/><text fill="#000000" font-family="sans-serif" font-size="6.5" lengthAdjust="spacing" textLength="2.5" x="329.0023" y="154.8728">*</text><text fill="#000000" font-family="sans-serif" font-size="6.5" lengthAdjust="spacing" textLength="2.5" x="317.3984" y="201.2907">*</text></g><!--link RobotType to RobotTypeId--><g id="link_RobotType_RobotTypeId"><path codeLine="76" d="M386.54,151 C422.075,151 482.125,151 482.125,151 C482.125,151 482.125,201 482.125,201 " fill="none" id="RobotType-to-RobotTypeId" style="stroke:#181818;stroke-width:0.5;"/><polygon fill="#181818" points="482.125,203.5,484.125,199,482.125,201,480.125,199,482.125,203.5" style="stroke:#181818;stroke-width:0.5;"/><text fill="#000000" font-family="sans-serif" font-size="6.5" lengthAdjust="spacing" textLength="3.5" x="390.5482" y="148.565">1</text><text fill="#000000" font-family="sans-serif" font-size="6.5" lengthAdjust="spacing" textLength="3.5" x="473.1336" y="198.1598">1</text></g><!--link Task to TaskType--><g id="link_Task_TaskType"><path codeLine="80" d="M700.5,19.5 C618.41,19.5 283.5,19.5 283.5,19.5 C283.5,19.5 283.5,76.095 283.5,76.095 " fill="none" id="Task-to-TaskType" style="stroke:#181818;stroke-width:0.5;"/><polygon fill="#181818" points="283.5,78.595,285.5,74.095,283.5,76.095,281.5,74.095,283.5,78.595" style="stroke:#181818;stroke-width:0.5;"/><text fill="#000000" font-family="sans-serif" font-size="6.5" lengthAdjust="spacing" textLength="2.5" x="694.0297" y="15.8098">*</text><text fill="#000000" font-family="sans-serif" font-size="6.5" lengthAdjust="spacing" textLength="3.5" x="279.5734" y="73.2658">1</text></g><!--link Task to TaskDescription--><g id="link_Task_TaskDescription"><path codeLine="81" d="M700.33,24 C627.685,24 362,24 362,24 C362,24 362,76.14 362,76.14 " fill="none" id="Task-to-TaskDescription" style="stroke:#181818;stroke-width:0.5;"/><polygon fill="#181818" points="362,78.64,364,74.14,362,76.14,360,74.14,362,78.64" style="stroke:#181818;stroke-width:0.5;"/><text fill="#000000" font-family="sans-serif" font-size="6.5" lengthAdjust="spacing" textLength="2.5" x="694.0067" y="29.6909">*</text><text fill="#000000" font-family="sans-serif" font-size="6.5" lengthAdjust="spacing" textLength="3.5" x="358.0734" y="73.3218">1</text></g><!--link Task to Building--><g id="link_Task_Building"><path codeLine="82" d="M736.625,16.5 C736.625,16.5 1386.435,16.5 1386.435,16.5 " fill="none" id="Task-to-Building" style="stroke:#181818;stroke-width:0.5;"/><polygon fill="#181818" points="1388.935,16.5,1384.435,14.5,1386.435,16.5,1384.435,18.5,1388.935,16.5" style="stroke:#181818;stroke-width:0.5;"/></g><!--link Task to Building--><g id="link_Task_Building"><path codeLine="89" d="M736.625,21.5 C736.625,21.5 1386.435,21.5 1386.435,21.5 " fill="none" id="Task-to-Building-1" style="stroke:#181818;stroke-width:0.5;"/><polygon fill="#181818" points="1388.935,21.5,1384.435,19.5,1386.435,21.5,1384.435,23.5,1388.935,21.5" style="stroke:#181818;stroke-width:0.5;"/><text fill="#000000" font-family="sans-serif" font-size="6.5" lengthAdjust="spacing" textLength="2.5" x="740.4395" y="18.3206">*</text><text fill="#000000" font-family="sans-serif" font-size="6.5" lengthAdjust="spacing" textLength="11" x="1373.9438" y="18.7792">0..1</text></g><!--link Task to TaskId--><g id="link_Task_TaskId"><path codeLine="83" d="M700.475,28.5 C638.87,28.5 440.5,28.5 440.5,28.5 C440.5,28.5 440.5,72.85 440.5,72.85 " fill="none" id="Task-to-TaskId" style="stroke:#181818;stroke-width:0.5;"/><polygon fill="#181818" points="440.5,75.35,442.5,70.85,440.5,72.85,438.5,70.85,440.5,75.35" style="stroke:#181818;stroke-width:0.5;"/><text fill="#000000" font-family="sans-serif" font-size="6.5" lengthAdjust="spacing" textLength="3.5" x="692.8964" y="35.1098">1</text><text fill="#000000" font-family="sans-serif" font-size="6.5" lengthAdjust="spacing" textLength="3.5" x="436.6555" y="70.1723">1</text></g><!--link Task to TaskStatus--><g id="link_Task_TaskStatus"><path codeLine="84" d="M700.445,33.5 C650.3,33.5 513,33.5 513,33.5 C513,33.5 513,76.165 513,76.165 " fill="none" id="Task-to-TaskStatus" style="stroke:#181818;stroke-width:0.5;"/><polygon fill="#181818" points="513,78.665,515,74.165,513,76.165,511,74.165,513,78.665" style="stroke:#181818;stroke-width:0.5;"/><text fill="#000000" font-family="sans-serif" font-size="6.5" lengthAdjust="spacing" textLength="2.5" x="693.9633" y="41.141">*</text><text fill="#000000" font-family="sans-serif" font-size="6.5" lengthAdjust="spacing" textLength="3.5" x="509.0734" y="73.3529">1</text></g><!--link Task to TaskContact--><g id="link_Task_TaskContact"><path codeLine="85" d="M700.495,38 C664.265,38 586,38 586,38 C586,38 586,76.245 586,76.245 " fill="none" id="Task-to-TaskContact" style="stroke:#181818;stroke-width:0.5;"/><polygon fill="#181818" points="586,78.745,588,74.245,586,76.245,584,74.245,586,78.745" style="stroke:#181818;stroke-width:0.5;"/><text fill="#000000" font-family="sans-serif" font-size="6.5" lengthAdjust="spacing" textLength="2.5" x="694.0237" y="46.5692">*</text><text fill="#000000" font-family="sans-serif" font-size="6.5" lengthAdjust="spacing" textLength="11" x="573.6594" y="73.4524">0..1</text></g><!--link Task to TaskPickupContact--><g id="link_Task_TaskPickupContact"><path codeLine="86" d="M704.5,45.65 C704.5,45.65 704.5,76.245 704.5,76.245 " fill="none" id="Task-to-TaskPickupContact" style="stroke:#181818;stroke-width:0.5;"/><polygon fill="#181818" points="704.5,78.745,706.5,74.245,704.5,76.245,702.5,74.245,704.5,78.745" style="stroke:#181818;stroke-width:0.5;"/><text fill="#000000" font-family="sans-serif" font-size="6.5" lengthAdjust="spacing" textLength="2.5" x="698.9977" y="55.6032">*</text><text fill="#000000" font-family="sans-serif" font-size="6.5" lengthAdjust="spacing" textLength="11" x="700.5688" y="73.4524">0..1</text></g><!--link Task to TaskDeliveryContact--><g id="link_Task_TaskDeliveryContact"><path codeLine="87" d="M731.375,45.65 C731.375,45.65 731.375,76.245 731.375,76.245 " fill="none" id="Task-to-TaskDeliveryContact" style="stroke:#181818;stroke-width:0.5;"/><polygon fill="#181818" points="731.375,78.745,733.375,74.245,731.375,76.245,729.375,74.245,731.375,78.745" style="stroke:#181818;stroke-width:0.5;"/><text fill="#000000" font-family="sans-serif" font-size="6.5" lengthAdjust="spacing" textLength="2.5" x="731.1637" y="55.6032">*</text><text fill="#000000" font-family="sans-serif" font-size="6.5" lengthAdjust="spacing" textLength="11" x="711.3789" y="73.8808">0..1</text></g><!--link Task to TaskPickupCode--><g id="link_Task_TaskPickupCode"><path codeLine="88" d="M736.565,41 C774.71,41 860,41 860,41 C860,41 860,76.2 860,76.2 " fill="none" id="Task-to-TaskPickupCode" style="stroke:#181818;stroke-width:0.5;"/><polygon fill="#181818" points="860,78.7,862,74.2,860,76.2,858,74.2,860,78.7" style="stroke:#181818;stroke-width:0.5;"/><text fill="#000000" font-family="sans-serif" font-size="6.5" lengthAdjust="spacing" textLength="2.5" x="740.5487" y="50.1879">*</text><text fill="#000000" font-family="sans-serif" font-size="6.5" lengthAdjust="spacing" textLength="11" x="847.6594" y="73.3964">0..1</text></g><!--link Task to Floor--><g id="link_Task_Floor"><path codeLine="90" d="M736.535,26.5 C819.56,26.5 1161,26.5 1161,26.5 C1161,26.5 1161,72.83 1161,72.83 " fill="none" id="Task-to-Floor" style="stroke:#181818;stroke-width:0.5;"/><polygon fill="#181818" points="1161,75.33,1163,70.83,1161,72.83,1159,70.83,1161,75.33" style="stroke:#181818;stroke-width:0.5;"/><text fill="#000000" font-family="sans-serif" font-size="6.5" lengthAdjust="spacing" textLength="2.5" x="740.5125" y="32.6973">*</text><text fill="#000000" font-family="sans-serif" font-size="6.5" lengthAdjust="spacing" textLength="11" x="1147.7359" y="70.1483">0..1</text></g><!--link Task to Room--><g id="link_Task_Room"><path codeLine="91" d="M736.64,31 C788.82,31 935.625,31 935.625,31 C935.625,31 935.625,136.945 935.625,136.945 " fill="none" id="Task-to-Room" style="stroke:#181818;stroke-width:0.5;"/><polygon fill="#181818" points="935.625,139.445,937.625,134.945,935.625,136.945,933.625,134.945,935.625,139.445" style="stroke:#181818;stroke-width:0.5;"/><text fill="#000000" font-family="sans-serif" font-size="6.5" lengthAdjust="spacing" textLength="2.5" x="740.589" y="38.3511">*</text><text fill="#000000" font-family="sans-serif" font-size="6.5" lengthAdjust="spacing" textLength="11" x="922.382" y="134.0934">0..2</text></g><!--link Building to Floor--><g id="link_Building_Floor"><path codeLine="96" d="M1388.925,36 C1331.385,36 1173,36 1173,36 C1173,36 1173,72.895 1173,72.895 " fill="none" id="Building-to-Floor" style="stroke:#181818;stroke-width:0.5;"/><polygon fill="#181818" points="1173,75.395,1175,70.895,1173,72.895,1171,70.895,1173,75.395" style="stroke:#181818;stroke-width:0.5;"/><text fill="#000000" font-family="sans-serif" font-size="6.5" lengthAdjust="spacing" textLength="3.5" x="1381.4484" y="35.5999">1</text><text fill="#000000" font-family="sans-serif" font-size="6.5" lengthAdjust="spacing" textLength="2.5" x="1171.4797" y="70.0331">*</text></g><!--link Building to BuildingDescription--><g id="link_Building_BuildingDescription"><path codeLine="97" d="M1409.5,45.65 C1409.5,45.65 1409.5,76.245 1409.5,76.245 " fill="none" id="Building-to-BuildingDescription" style="stroke:#181818;stroke-width:0.5;"/><polygon fill="#181818" points="1409.5,78.745,1411.5,74.245,1409.5,76.245,1407.5,74.245,1409.5,78.745" style="stroke:#181818;stroke-width:0.5;"/><text fill="#000000" font-family="sans-serif" font-size="6.5" lengthAdjust="spacing" textLength="2.5" x="1406.7539" y="55.6032">*</text><text fill="#000000" font-family="sans-serif" font-size="6.5" lengthAdjust="spacing" textLength="11" x="1397.1594" y="73.4524">0..1</text></g><!--link Building to BuildingName--><g id="link_Building_BuildingName"><path codeLine="98" d="M1430.195,37 C1455.5,37 1495,37 1495,37 C1495,37 1495,76.14 1495,76.14 " fill="none" id="Building-to-BuildingName" style="stroke:#181818;stroke-width:0.5;"/><polygon fill="#181818" points="1495,78.64,1497,74.14,1495,76.14,1493,74.14,1495,78.64" style="stroke:#181818;stroke-width:0.5;"/><text fill="#000000" font-family="sans-serif" font-size="6.5" lengthAdjust="spacing" textLength="3.5" x="1434.0527" y="36.7467">1</text><text fill="#000000" font-family="sans-serif" font-size="6.5" lengthAdjust="spacing" textLength="11" x="1482.6594" y="73.3218">0..1</text></g><!--link Building to BuildingSize--><g id="link_Building_BuildingSize"><path codeLine="99" d="M1430.195,20 C1487.66,20 1645,20 1645,20 C1645,20 1645,76.195 1645,76.195 " fill="none" id="Building-to-BuildingSize" style="stroke:#181818;stroke-width:0.5;"/><polygon fill="#181818" points="1645,78.695,1647,74.195,1645,76.195,1643,74.195,1645,78.695" style="stroke:#181818;stroke-width:0.5;"/><text fill="#000000" font-family="sans-serif" font-size="6.5" lengthAdjust="spacing" textLength="2.5" x="1433.9668" y="16.8248">*</text><text fill="#000000" font-family="sans-serif" font-size="6.5" lengthAdjust="spacing" textLength="3.5" x="1641.0734" y="73.3902">1</text></g><!--link Building to BuildingCode--><g id="link_Building_BuildingCode"><path codeLine="100" d="M1430.12,28.5 C1473.655,28.5 1571,28.5 1571,28.5 C1571,28.5 1571,72.85 1571,72.85 " fill="none" id="Building-to-BuildingCode" style="stroke:#181818;stroke-width:0.5;"/><polygon fill="#181818" points="1571,75.35,1573,70.85,1571,72.85,1569,70.85,1571,75.35" style="stroke:#181818;stroke-width:0.5;"/><text fill="#000000" font-family="sans-serif" font-size="6.5" lengthAdjust="spacing" textLength="3.5" x="1433.9648" y="26.7857">1</text><text fill="#000000" font-family="sans-serif" font-size="6.5" lengthAdjust="spacing" textLength="3.5" x="1567.1555" y="70.1723">1</text></g><!--link Room to RoomName--><g id="link_Room_RoomName"><path codeLine="102" d="M941,173.65 C941,173.65 941,200.8 941,200.8 " fill="none" id="Room-to-RoomName" style="stroke:#181818;stroke-width:0.5;"/><polygon fill="#181818" points="941,203.3,943,198.8,941,200.8,939,198.8,941,203.3" style="stroke:#181818;stroke-width:0.5;"/><text fill="#000000" font-family="sans-serif" font-size="6.5" lengthAdjust="spacing" textLength="3.5" x="937.1555" y="183.6032">1</text><text fill="#000000" font-family="sans-serif" font-size="6.5" lengthAdjust="spacing" textLength="3.5" x="935.2852" y="198.1124">1</text></g><!--reverse link RoomCategory to Room--><g id="link_RoomCategory_Room"><path codeLine="103" d="M951.835,108.885 C951.835,108.885 951.835,139.45 951.835,139.45 " fill="none" id="RoomCategory-backto-Room" style="stroke:#181818;stroke-width:0.5;"/><polygon fill="#181818" points="951.835,106.385,949.835,110.885,951.835,108.885,953.835,110.885,951.835,106.385" style="stroke:#181818;stroke-width:0.5;"/><text fill="#000000" font-family="sans-serif" font-size="6.5" lengthAdjust="spacing" textLength="3.5" x="941.7911" y="116.0983">1</text><text fill="#000000" font-family="sans-serif" font-size="6.5" lengthAdjust="spacing" textLength="3.5" x="950.2088" y="134.0995">1</text></g><!--link Room to RoomDescription--><g id="link_Room_RoomDescription"><path codeLine="104" d="M959.155,156.5 C959.155,156.5 973.925,156.5 973.925,156.5 " fill="none" id="Room-to-RoomDescription" style="stroke:#181818;stroke-width:0.5;"/><polygon fill="#181818" points="976.425,156.5,971.925,154.5,973.925,156.5,971.925,158.5,976.425,156.5" style="stroke:#181818;stroke-width:0.5;"/><text fill="#000000" font-family="sans-serif" font-size="6.5" lengthAdjust="spacing" textLength="3.5" x="962.9494" y="154.7204">1</text><text fill="#000000" font-family="sans-serif" font-size="6.5" lengthAdjust="spacing" textLength="3.5" x="968.8973" y="155.0145">1</text></g><!--link Floor to FloorMap--><g id="link_Floor_FloorMap"><path codeLine="109" d="M1152,109.65 C1152,109.65 1152,140.245 1152,140.245 " fill="none" id="Floor-to-FloorMap" style="stroke:#181818;stroke-width:0.5;"/><polygon fill="#181818" points="1152,142.745,1154,138.245,1152,140.245,1150,138.245,1152,142.745" style="stroke:#181818;stroke-width:0.5;"/><text fill="#000000" font-family="sans-serif" font-size="6.5" lengthAdjust="spacing" textLength="3.5" x="1145.2023" y="119.6032">1</text><text fill="#000000" font-family="sans-serif" font-size="6.5" lengthAdjust="spacing" textLength="3.5" x="1152.9484" y="137.4524">1</text></g><!--reverse link FloorNumber to Floor--><g id="link_FloorNumber_Floor"><path codeLine="110" d="M1134.13,92.5 C1134.13,92.5 1148.865,92.5 1148.865,92.5 " fill="none" id="FloorNumber-backto-Floor" style="stroke:#181818;stroke-width:0.5;"/><polygon fill="#181818" points="1131.63,92.5,1136.13,94.5,1134.13,92.5,1136.13,90.5,1131.63,92.5" style="stroke:#181818;stroke-width:0.5;"/><text fill="#000000" font-family="sans-serif" font-size="6.5" lengthAdjust="spacing" textLength="3.5" x="1135.5224" y="90.9511">1</text><text fill="#000000" font-family="sans-serif" font-size="6.5" lengthAdjust="spacing" textLength="2.5" x="1142.5486" y="90.6987">*</text></g><!--link Floor to FloorDescription--><g id="link_Floor_FloorDescription"><path codeLine="111" d="M1170,109.59 C1170,118.475 1170,127.5 1170,127.5 C1170,127.5 1309,127.5 1309,127.5 C1309,127.5 1309,108.835 1309,108.835 " fill="none" id="Floor-to-FloorDescription" style="stroke:#181818;stroke-width:0.5;"/><polygon fill="#181818" points="1309,106.335,1307,110.835,1309,108.835,1311,110.835,1309,106.335" style="stroke:#181818;stroke-width:0.5;"/><text fill="#000000" font-family="sans-serif" font-size="6.5" lengthAdjust="spacing" textLength="2.5" x="1167.8609" y="119.7246">*</text><text fill="#000000" font-family="sans-serif" font-size="6.5" lengthAdjust="spacing" textLength="3.5" x="1305.0953" y="116.2555">1</text></g><!--link Floor to FloorId--><g id="link_Floor_FloorId"><path codeLine="112" d="M1185.055,92.5 C1185.055,92.5 1199.81,92.5 1199.81,92.5 " fill="none" id="Floor-to-FloorId" style="stroke:#181818;stroke-width:0.5;"/><polygon fill="#181818" points="1202.31,92.5,1197.81,90.5,1199.81,92.5,1197.81,94.5,1202.31,92.5" style="stroke:#181818;stroke-width:0.5;"/><text fill="#000000" font-family="sans-serif" font-size="6.5" lengthAdjust="spacing" textLength="3.5" x="1188.9541" y="90.6987">1</text><text fill="#000000" font-family="sans-serif" font-size="6.5" lengthAdjust="spacing" textLength="3.5" x="1195.038" y="90.9381">1</text></g><!--link FloorMap to Room--><g id="link_FloorMap_Room"><path codeLine="115" d="M1120.25,142.665 C1120.25,132.885 1120.25,121.5 1120.25,121.5 C1120.25,121.5 955.415,121.5 955.415,121.5 C955.415,121.5 955.415,136.91 955.415,136.91 " fill="none" id="FloorMap-to-Room" style="stroke:#181818;stroke-width:0.5;"/><polygon fill="#181818" points="955.415,139.41,957.415,134.91,955.415,136.91,953.415,134.91,955.415,139.41" style="stroke:#181818;stroke-width:0.5;"/><text fill="#000000" font-family="sans-serif" font-size="6.5" lengthAdjust="spacing" textLength="3.5" x="1113.4594" y="137.3529">1</text><text fill="#000000" font-family="sans-serif" font-size="6.5" lengthAdjust="spacing" textLength="2.5" x="955.6303" y="134.0512">*</text></g><!--SRC=[lLPBZzem6BpdLrZieUsgMPL7eKXR920WSO2jbbNlXbZKnSIfuo3Hnt-lxTY9ay0cGRHS0Czyd-tnP9neZuCGCdW010U8dq84AEFVgECuRpvV-N4Osd8Ox0W2T_FUp9jvlvmjWL44Nc2q1u-Fu9bI3aOZ-NCMSCnFuez5UP7B4DZRu_kxSM_QcNry1xv24gEdpNVHEa_sKBHbEEIO1hLh5hwcKYRMYOfC2SO1_X6ZVDcQGnv7jMUPqe13CLYN_mLlzt7OjCf311yHErqxcrybzPyRMQ7Nxtc3WR72CzrGNk45Zz40WNF8acumGKcFFAu9Qb-D3tabD0dW8QryNSMd434eVQTzKQjeZHY6P1KVDeY1IkLl8lomF-uMX3TFs2lYZuyG4xWXI3sqjVQcMY-5ygG1Vo9Ens_0bqjlzFpUIiPk_rDdC3SoJc9CV1piG8MCXcV7LAtDci9LRJ-QYkkyRwhN-2VwJyQSpxkJzYGp9ZrKY2afIe-ccvE5KyZHZh9JJQlHG_sRvKPwUBtXS38qUim9fQpANegqy9iVjofiR4fLjOGXkBWMdMp_y4fn77rt_7PZrxu9SkFgxj0ZhNRB9Uv8VAbxmOpUjznaCCqL2_4Jg93nLiC4DpT62R1pNgzOXMvXLfMMbs4LZcNulfMFPvlHBkrguGlD71NZMNlpddLktB950hkZD1uqlstpnGHdkcZ5REJ3muC6zTlA1JJt9dI1KtZlgUZaepE4mfviI7cvEDvfgLoGQZff_aifr8aa9TdukPbiPNCTIamPSwLc5YvZkjJ2mjMM7PMf4lID9v80pO0u0qn0Pc0AsUkMdoIRhCOc60mYrXjdW7uCCYo3xCvfLscubA7icmPFAhSwYRy0]--></g></svg>