<?xml version="1.0" encoding="us-ascii" standalone="no"?><svg xmlns="http://www.w3.org/2000/svg" xmlns:xlink="http://www.w3.org/1999/xlink" contentStyleType="text/css" height="98px" preserveAspectRatio="none" style="width:327px;height:98px;background:#FFFFFF;" version="1.1" viewBox="0 0 327 98" width="327px" zoomAndPan="magnify"><defs/><g><!--cluster RobDroneGo--><g id="cluster_RobDroneGo"><path d="M180.5,6 L272.5,6 A3.75,3.75 0 0 1 275,8.5 L282,27.6406 L317.5,27.6406 A2.5,2.5 0 0 1 320,30.1406 L320,81.5 A2.5,2.5 0 0 1 317.5,84 L180.5,84 A2.5,2.5 0 0 1 178,81.5 L178,8.5 A2.5,2.5 0 0 1 180.5,6 " fill="none" style="stroke:#000000;stroke-width:1.5;"/><line style="stroke:#000000;stroke-width:1.5;" x1="178" x2="282" y1="27.6406" y2="27.6406"/><text fill="#000000" font-family="sans-serif" font-size="14" font-weight="bold" lengthAdjust="spacing" textLength="91" x="182" y="20.6738">RobDroneGo</text></g><g id="elem_UC2"><ellipse cx="249.1162" cy="54.1662" fill="#F1F1F1" rx="55.1162" ry="14.1662" style="stroke:#181818;stroke-width:0.5;"/><text fill="#000000" font-family="sans-serif" font-size="14" lengthAdjust="spacing" textLength="61" x="215.6162" y="57.7531">Edit Floor</text></g><!--entity CM--><g id="elem_CM"><ellipse cx="70" cy="32" fill="#F1F1F1" rx="16" ry="16" style="stroke:#181818;stroke-width:1.5;"/><path d="M70,52 C74,52 77,52 81,48 C89,48 97,56 97,64 L97,68 C97,72 93,76 89,76 L51,76 C47,76 43,72 43,68 L43,64 C43,56 51,48 59,48 C63,52 66,52 70,52 " fill="#F1F1F1" style="stroke:#181818;stroke-width:1.5;"/><text fill="#000000" font-family="sans-serif" font-size="14" lengthAdjust="spacing" textLength="128" x="6" y="90.1738">UI Campus Manager</text></g><!--link CM to UC2--><g id="link_CM_UC2"><path d="M134.4,54 C152.02,54 171.09,54 188.48,54 " fill="none" id="CM-to-UC2" style="stroke:#181818;stroke-width:1.0;"/><polygon fill="#181818" points="193.82,54,184.82,50,188.82,54,184.82,58,193.82,54" style="stroke:#181818;stroke-width:1.0;"/></g><!--SRC=[9Six3i8m44NHVbRnb3uD2w1n056u0MK1WpC4AuudiYT22B5tVkKzqaroDPYYnF5c66AHO54pKPrYNhZm30wcvMoF9E2xL9s5w6Te-YCSpyjQuJdpAAK1LpXFj72OFW2SzD8LpN9Gu4d0MYLm5JIx8HhsIVK_zMv3Bt8URRlznXi0]--></g></svg>