<?xml version="1.0" encoding="us-ascii" standalone="no"?><svg xmlns="http://www.w3.org/2000/svg" xmlns:xlink="http://www.w3.org/1999/xlink" contentStyleType="text/css" height="377px" preserveAspectRatio="none" style="width:564px;height:377px;background:#FFFFFF;" version="1.1" viewBox="0 0 564 377" width="564px" zoomAndPan="magnify"><defs/><g><rect fill="#FFFFFF" height="250.3281" style="stroke:#181818;stroke-width:1.0;" width="10" x="76" y="71.9121"/><rect fill="#FFFFFF" height="187.7461" style="stroke:#181818;stroke-width:1.0;" width="10" x="255" y="103.2031"/><rect fill="#FFFFFF" height="125.1641" style="stroke:#181818;stroke-width:1.0;" width="10" x="402" y="134.4941"/><rect fill="#FFFFFF" height="62.582" style="stroke:#181818;stroke-width:1.0;" width="10" x="492.5" y="165.7852"/><line style="stroke:#181818;stroke-width:0.5;stroke-dasharray:5.0,5.0;" x1="80.5" x2="80.5" y1="38.6211" y2="340.2402"/><line style="stroke:#181818;stroke-width:0.5;stroke-dasharray:5.0,5.0;" x1="259.5" x2="259.5" y1="38.6211" y2="340.2402"/><line style="stroke:#181818;stroke-width:0.5;stroke-dasharray:5.0,5.0;" x1="406.5" x2="406.5" y1="38.6211" y2="340.2402"/><line style="stroke:#181818;stroke-width:0.5;stroke-dasharray:5.0,5.0;" x1="497.5" x2="497.5" y1="38.6211" y2="340.2402"/><rect fill="#E2E2F0" height="32.6211" rx="2.5" ry="2.5" style="stroke:#181818;stroke-width:0.5;" width="77" x="42.5" y="5"/><text fill="#000000" font-family="sans-serif" font-size="14" lengthAdjust="spacing" textLength="63" x="49.5" y="27.1074">:Template</text><rect fill="#E2E2F0" height="32.6211" rx="2.5" ry="2.5" style="stroke:#181818;stroke-width:0.5;" width="77" x="42.5" y="339.2402"/><text fill="#000000" font-family="sans-serif" font-size="14" lengthAdjust="spacing" textLength="63" x="49.5" y="361.3477">:Template</text><rect fill="#E2E2F0" height="32.6211" rx="2.5" ry="2.5" style="stroke:#181818;stroke-width:0.5;" width="87" x="216.5" y="5"/><text fill="#000000" font-family="sans-serif" font-size="14" lengthAdjust="spacing" textLength="73" x="223.5" y="27.1074">Component</text><rect fill="#E2E2F0" height="32.6211" rx="2.5" ry="2.5" style="stroke:#181818;stroke-width:0.5;" width="87" x="216.5" y="339.2402"/><text fill="#000000" font-family="sans-serif" font-size="14" lengthAdjust="spacing" textLength="73" x="223.5" y="361.3477">Component</text><rect fill="#E2E2F0" height="32.6211" rx="2.5" ry="2.5" style="stroke:#181818;stroke-width:0.5;" width="65" x="374.5" y="5"/><text fill="#000000" font-family="sans-serif" font-size="14" lengthAdjust="spacing" textLength="51" x="381.5" y="27.1074">:Service</text><rect fill="#E2E2F0" height="32.6211" rx="2.5" ry="2.5" style="stroke:#181818;stroke-width:0.5;" width="65" x="374.5" y="339.2402"/><text fill="#000000" font-family="sans-serif" font-size="14" lengthAdjust="spacing" textLength="51" x="381.5" y="361.3477">:Service</text><rect fill="#E2E2F0" height="32.6211" rx="2.5" ry="2.5" style="stroke:#181818;stroke-width:0.5;" width="96" x="449.5" y="5"/><text fill="#000000" font-family="sans-serif" font-size="14" lengthAdjust="spacing" textLength="82" x="456.5" y="27.1074">:HTTP Driver</text><rect fill="#E2E2F0" height="32.6211" rx="2.5" ry="2.5" style="stroke:#181818;stroke-width:0.5;" width="96" x="449.5" y="339.2402"/><text fill="#000000" font-family="sans-serif" font-size="14" lengthAdjust="spacing" textLength="82" x="456.5" y="361.3477">:HTTP Driver</text><rect fill="#FFFFFF" height="250.3281" style="stroke:#181818;stroke-width:1.0;" width="10" x="76" y="71.9121"/><rect fill="#FFFFFF" height="187.7461" style="stroke:#181818;stroke-width:1.0;" width="10" x="255" y="103.2031"/><rect fill="#FFFFFF" height="125.1641" style="stroke:#181818;stroke-width:1.0;" width="10" x="402" y="134.4941"/><rect fill="#FFFFFF" height="62.582" style="stroke:#181818;stroke-width:1.0;" width="10" x="492.5" y="165.7852"/><ellipse cx="6.5" cy="71.1621" fill="none" rx="4" ry="4" style="stroke:#181818;stroke-width:1.5;"/><polygon fill="#181818" points="64,67.9121,74,71.9121,64,75.9121,68,71.9121" style="stroke:#181818;stroke-width:1.0;"/><line style="stroke:#181818;stroke-width:1.0;" x1="11" x2="70" y1="71.9121" y2="71.9121"/><text fill="#000000" font-family="sans-serif" font-size="13" font-weight="bold" lengthAdjust="spacing" textLength="7" x="14" y="66.6494">1</text><text fill="#000000" font-family="sans-serif" font-size="13" lengthAdjust="spacing" textLength="36" x="25" y="66.6494">/tasks</text><polygon fill="#181818" points="243,99.2031,253,103.2031,243,107.2031,247,103.2031" style="stroke:#181818;stroke-width:1.0;"/><line style="stroke:#181818;stroke-width:1.0;" x1="86" x2="249" y1="103.2031" y2="103.2031"/><text fill="#000000" font-family="sans-serif" font-size="13" font-weight="bold" lengthAdjust="spacing" textLength="7" x="93" y="97.9404">2</text><text fill="#000000" font-family="sans-serif" font-size="13" lengthAdjust="spacing" textLength="139" x="104" y="97.9404">/tasks/listPendingTasks</text><polygon fill="#181818" points="390,130.4941,400,134.4941,390,138.4941,394,134.4941" style="stroke:#181818;stroke-width:1.0;"/><line style="stroke:#181818;stroke-width:1.0;" x1="265" x2="396" y1="134.4941" y2="134.4941"/><text fill="#000000" font-family="sans-serif" font-size="13" font-weight="bold" lengthAdjust="spacing" textLength="7" x="272" y="129.2314">3</text><text fill="#000000" font-family="sans-serif" font-size="13" lengthAdjust="spacing" textLength="107" x="283" y="129.2314">listPendingTasks()</text><polygon fill="#181818" points="480.5,161.7852,490.5,165.7852,480.5,169.7852,484.5,165.7852" style="stroke:#181818;stroke-width:1.0;"/><line style="stroke:#181818;stroke-width:1.0;" x1="412" x2="486.5" y1="165.7852" y2="165.7852"/><text fill="#000000" font-family="sans-serif" font-size="13" font-weight="bold" lengthAdjust="spacing" textLength="7" x="419" y="160.5225">4</text><text fill="#000000" font-family="sans-serif" font-size="13" lengthAdjust="spacing" textLength="44" x="430" y="160.5225">http get</text><polygon fill="#181818" points="551.5,193.0762,561.5,197.0762,551.5,201.0762,555.5,197.0762" style="stroke:#181818;stroke-width:1.0;"/><line style="stroke:#181818;stroke-width:1.0;" x1="502.5" x2="557.5" y1="197.0762" y2="197.0762"/><text fill="#000000" font-family="sans-serif" font-size="13" font-weight="bold" lengthAdjust="spacing" textLength="7" x="509.5" y="191.8135">5</text><text fill="#000000" font-family="sans-serif" font-size="13" lengthAdjust="spacing" textLength="26" x="520.5" y="191.8135">GET</text><polygon fill="#181818" points="423,224.3672,413,228.3672,423,232.3672,419,228.3672" style="stroke:#181818;stroke-width:1.0;"/><line style="stroke:#181818;stroke-width:1.0;stroke-dasharray:2.0,2.0;" x1="417" x2="496.5" y1="228.3672" y2="228.3672"/><text fill="#000000" font-family="sans-serif" font-size="13" font-weight="bold" lengthAdjust="spacing" textLength="7" x="429" y="223.1045">6</text><text fill="#000000" font-family="sans-serif" font-size="13" lengthAdjust="spacing" textLength="34" x="440" y="223.1045">JSON</text><polygon fill="#181818" points="276,255.6582,266,259.6582,276,263.6582,272,259.6582" style="stroke:#181818;stroke-width:1.0;"/><line style="stroke:#181818;stroke-width:1.0;stroke-dasharray:2.0,2.0;" x1="270" x2="406" y1="259.6582" y2="259.6582"/><text fill="#000000" font-family="sans-serif" font-size="13" font-weight="bold" lengthAdjust="spacing" textLength="7" x="282" y="254.3955">7</text><text fill="#000000" font-family="sans-serif" font-size="13" lengthAdjust="spacing" textLength="46" x="293" y="254.3955">task list</text><polygon fill="#181818" points="97,286.9492,87,290.9492,97,294.9492,93,290.9492" style="stroke:#181818;stroke-width:1.0;"/><line style="stroke:#181818;stroke-width:1.0;stroke-dasharray:2.0,2.0;" x1="91" x2="259" y1="290.9492" y2="290.9492"/><text fill="#000000" font-family="sans-serif" font-size="13" font-weight="bold" lengthAdjust="spacing" textLength="7" x="103" y="285.6865">8</text><text fill="#000000" font-family="sans-serif" font-size="13" lengthAdjust="spacing" textLength="46" x="114" y="285.6865">task list</text><polygon fill="#181818" points="11,318.2402,1,322.2402,11,326.2402,7,322.2402" style="stroke:#181818;stroke-width:1.0;"/><line style="stroke:#181818;stroke-width:1.0;stroke-dasharray:2.0,2.0;" x1="5" x2="80" y1="322.2402" y2="322.2402"/><text fill="#000000" font-family="sans-serif" font-size="13" font-weight="bold" lengthAdjust="spacing" textLength="7" x="17" y="316.9775">9</text><text fill="#000000" font-family="sans-serif" font-size="13" lengthAdjust="spacing" textLength="46" x="28" y="316.9775">task list</text><!--SRC=[RL0n3i8m4Dll5ISc62hs2C402CG0IEG3ePmWeasZzEZxIKlJf1NRER8Ts-h3bVcKTt80O9LZdMkh3EDCI2fjePXcg6eCOCJPLgMj3FdBCmOmiRcHQtJ-S-dl2UCevHLtJZVaEbQB0JPLjWw_2boogjyrg9nrunzY7WWNPkkO8GYMXQxvIkQXpLEE7M9UY3syHvzHu5GwNqHnA0BzqGhRs09Vp1QVn97RrUawUfB0mrxsAFtiTBkSuK5ZKM8_AjTMw-AbYY5IqiQhXWd_Yf8HLbaMv_vBZfj_0G00]--></g></svg>