<?xml version="1.0" encoding="UTF-8" standalone="no"?><svg xmlns="http://www.w3.org/2000/svg" xmlns:xlink="http://www.w3.org/1999/xlink" contentStyleType="text/css" height="104px" preserveAspectRatio="none" style="width:359px;height:104px;background:#FFFFFF;" version="1.1" viewBox="0 0 359 104" width="359px" zoomAndPan="magnify"><defs/><g><!--MD5=[1478444cbd0d707d5292787239839939]
cluster RobDroneGo--><g id="cluster_RobDroneGo"><path d="M180.5,6 L272.5,6 A3.75,3.75 0 0 1 275,8.5 L282,29.6094 L349.5,29.6094 A2.5,2.5 0 0 1 352,32.1094 L352,89.5 A2.5,2.5 0 0 1 349.5,92 L180.5,92 A2.5,2.5 0 0 1 178,89.5 L178,8.5 A2.5,2.5 0 0 1 180.5,6 " fill="none" style="stroke:#000000;stroke-width:1.5;"/><line style="stroke:#000000;stroke-width:1.5;" x1="178" x2="282" y1="29.6094" y2="29.6094"/><text fill="#000000" font-family="sans-serif" font-size="14" font-weight="bold" lengthAdjust="spacing" textLength="91" x="182" y="22.5332">RobDroneGo</text></g><g id="elem_UC2"><ellipse cx="264.8567" cy="59.0713" fill="#F1F1F1" rx="70.8567" ry="16.5713" style="stroke:#181818;stroke-width:0.5;"/><text fill="#000000" font-family="sans-serif" font-size="14" lengthAdjust="spacing" textLength="90" x="216.8567" y="63.5879">Edit a Building</text></g><!--MD5=[99f3cfe8ce18ee9cb444babb539f6fb5]
entity CM--><g id="elem_CM"><ellipse cx="70" cy="36" fill="#F1F1F1" rx="16" ry="16" style="stroke:#181818;stroke-width:1.5;"/><path d="M70,56 C74,56 77,56 81,52 C89,52 97,60 97,68 L97,72 C97,76 93,80 89,80 L51,80 C47,80 43,76 43,72 L43,68 C43,60 51,52 59,52 C63,56 66,56 70,56 " fill="#F1F1F1" style="stroke:#181818;stroke-width:1.5;"/><text fill="#000000" font-family="sans-serif" font-size="14" lengthAdjust="spacing" textLength="128" x="6" y="96.0332">UI Campus Manager</text></g><!--MD5=[5725362fb9128b29e7275e925cbddfee]
link CM to UC2--><g id="link_CM_UC2"><path d="M134.2,59 C151.68,59 170.83,59 188.92,59 " fill="none" id="CM-to-UC2" style="stroke:#181818;stroke-width:1.0;"/><polygon fill="#181818" points="193.99,59,184.99,55,188.99,59,184.99,63,193.99,59" style="stroke:#181818;stroke-width:1.0;"/></g><!--MD5=[d4065f8e1db01fc1255e0afb576e8d8a]
@startuml scenaryLevel1
left to right direction

skinparam actorStyle awesome

actor "UI Campus Manager" as CM

package  RobDroneGo  {
  usecase "Edit a Building" as UC2
}
CM - -> UC2
@enduml

PlantUML version 1.2022.7(Mon Aug 22 18:01:30 WEST 2022)
(GPL source distribution)
Java Runtime: Java(TM) SE Runtime Environment
JVM: Java HotSpot(TM) 64-Bit Server VM
Default Encoding: UTF-8
Language: en
Country: US
--></g></svg>