<?xml version="1.0" encoding="UTF-8" standalone="no"?>
<!DOCTYPE svg PUBLIC "-//W3C//DTD SVG 1.1//EN" "http://www.w3.org/Graphics/SVG/1.1/DTD/svg11.dtd">
<svg xmlns="http://www.w3.org/2000/svg" version="1.1" viewBox="0.00 0.00 256.00 256.00">
<path fill="#181818" d="
  M 97.99 88.78
  L 98.01 119.03
  A 0.95 0.94 -3.9 0 1 97.19 119.96
  C 94.29 120.34 91.40 119.28 89.11 118.87
  Q 83.85 117.91 78.60 116.96
  Q 78.28 116.91 78.18 116.73
  Q 78.11 116.61 78.11 116.48
  Q 78.10 116.17 78.40 116.11
  C 81.80 115.44 86.56 115.30 88.90 112.47
  A 1.43 1.43 0.0 0 0 88.53 110.33
  C 84.67 108.03 80.32 107.07 73.51 105.86
  A 0.62 0.62 0.0 0 1 73.00 105.25
  L 73.00 65.50
  A 0.50 0.50 0.0 0 1 73.50 65.00
  Q 102.63 64.99 131.79 65.00
  C 134.73 65.00 139.02 65.85 141.92 66.73
  C 155.69 70.94 166.37 81.27 170.28 95.20
  C 171.32 98.92 171.06 102.78 170.99 106.66
  A 1.59 1.58 -9.4 0 1 169.94 108.12
  L 165.12 109.85
  A 1.78 1.76 -5.8 0 0 163.95 111.27
  C 163.56 113.95 167.57 114.21 168.96 114.75
  Q 173.83 116.64 168.93 118.46
  Q 166.71 119.28 163.00 119.94
  Q 153.39 121.66 143.90 123.95
  Q 143.35 124.08 142.86 124.39
  Q 141.96 124.94 141.88 124.95
  Q 138.49 125.49 141.09 123.25
  C 145.19 119.70 146.76 115.06 147.05 109.41
  C 147.40 102.72 146.66 99.45 142.44 94.03
  C 138.49 88.94 134.39 88.00 127.66 88.00
  Q 113.26 88.02 98.79 87.98
  A 0.80 0.80 0.0 0 0 97.99 88.78
  Z"
/>
<path fill="#181818" d="
  M 62.58 112.74
  L 64.74 113.32
  A 1.35 1.31 -6.0 0 1 65.58 113.98
  C 69.06 120.40 58.87 119.07 56.33 119.03
  A 1.16 1.15 72.2 0 1 55.42 118.56
  L 54.58 117.43
  Q 54.24 116.98 53.67 116.99
  C 50.90 117.01 47.20 117.41 44.57 116.67
  C 43.54 116.39 42.52 115.95 41.42 116.01
  Q 35.04 116.39 28.90 114.50
  A 0.90 0.86 82.8 0 1 28.37 114.07
  Q 27.89 113.16 28.88 112.65
  C 30.53 111.81 32.06 112.07 33.68 111.59
  Q 36.29 110.82 39.04 110.95
  C 41.25 111.06 42.53 109.97 44.56 109.98
  Q 49.36 110.02 54.14 110.01
  Q 54.73 110.01 54.87 109.45
  C 55.17 108.32 54.81 107.18 55.39 106.20
  Q 56.46 104.39 58.95 105.16
  C 62.87 106.39 61.75 108.95 62.01 112.07
  A 0.77 0.76 -85.7 0 0 62.58 112.74
  Z"
/>
<path fill="#181818" d="
  M 198.85 109.96
  Q 203.80 110.11 208.75 109.97
  C 211.44 109.89 213.76 110.85 216.35 110.92
  Q 219.64 111.01 222.79 111.98
  A 2.05 2.00 48.0 0 0 223.76 112.04
  Q 225.32 111.77 226.50 112.79
  A 0.81 0.81 0.0 0 1 226.23 114.17
  Q 220.44 116.09 214.71 116.05
  C 212.28 116.04 210.35 116.92 208.03 116.96
  C 205.11 117.01 199.48 116.11 197.49 118.55
  A 1.09 1.06 -71.1 0 1 196.70 118.95
  Q 193.19 119.10 189.73 118.95
  C 186.42 118.81 186.82 115.95 187.05 113.66
  A 0.73 0.72 -86.9 0 1 187.77 113.01
  L 189.78 113.00
  A 1.23 1.22 -0.5 0 0 191.01 111.76
  C 190.95 108.72 189.95 104.55 194.99 104.98
  Q 196.79 105.13 197.60 106.13
  C 198.31 107.02 197.84 108.21 198.12 109.37
  Q 198.26 109.94 198.85 109.96
  Z"
/>
<path fill="#181818" d="
  M 136.51 143.77
  C 138.45 146.51 140.53 149.45 137.75 152.82
  C 136.66 154.13 135.79 155.50 134.14 156.15
  C 130.89 157.44 127.18 157.04 123.75 156.96
  Q 119.25 156.86 116.31 153.89
  C 114.52 152.07 114.87 149.65 114.98 147.29
  Q 115.01 146.73 115.37 146.28
  L 116.74 144.59
  A 1.38 1.38 0.0 0 0 116.45 142.59
  Q 111.62 139.27 106.82 138.02
  C 98.15 135.76 88.76 133.57 79.82 132.96
  C 77.77 132.82 75.99 132.03 74.04 132.01
  Q 70.01 131.98 66.00 132.03
  A 2.01 2.00 -89.7 0 0 64.02 134.00
  C 63.94 138.05 63.75 141.87 64.73 145.93
  Q 66.25 152.21 67.88 158.47
  Q 68.02 159.00 67.77 159.48
  Q 66.86 161.24 65.00 162.02
  A 1.95 1.93 64.7 0 1 62.54 161.13
  C 57.54 151.62 54.66 140.59 53.01 130.50
  C 52.48 127.29 49.77 122.00 55.51 122.00
  Q 60.45 121.99 65.35 122.02
  C 67.25 122.04 68.70 123.07 70.50 122.98
  C 73.27 122.83 75.63 123.84 78.24 123.97
  C 80.61 124.10 83.27 124.80 85.14 125.08
  C 92.55 126.17 99.80 127.98 107.16 129.11
  C 110.68 129.65 112.30 131.40 115.38 128.16
  Q 118.25 125.15 121.23 122.29
  Q 121.56 121.98 122.02 121.98
  L 130.97 121.99
  Q 131.39 121.99 131.69 122.27
  Q 135.23 125.57 138.44 129.09
  Q 139.79 130.58 142.96 129.79
  Q 149.77 128.10 156.71 127.04
  C 161.80 126.26 167.11 125.24 172.23 124.22
  C 174.32 123.80 176.39 124.23 178.42 123.67
  C 179.78 123.31 180.72 122.93 182.22 123.02
  C 185.39 123.22 188.09 121.98 190.93 121.98
  Q 194.47 121.97 197.75 122.04
  A 3.22 3.21 -79.8 0 1 200.71 126.30
  C 199.99 128.42 199.17 130.46 199.03 132.98
  C 198.92 134.97 198.17 136.67 198.03 138.57
  C 197.94 139.83 197.91 140.89 197.37 142.09
  C 195.20 146.92 194.45 152.98 192.58 156.54
  Q 191.49 158.61 190.95 159.81
  C 188.75 164.61 184.49 160.55 185.27 157.83
  Q 187.02 151.72 187.93 145.45
  C 188.37 142.42 190.73 134.63 187.19 132.55
  C 183.89 130.61 176.87 132.89 173.06 133.04
  Q 170.77 133.13 168.99 133.48
  C 166.18 134.02 163.38 133.99 160.72 134.66
  C 152.70 136.69 143.89 137.70 136.78 142.36
  A 1.00 0.99 56.0 0 0 136.51 143.77
  Z"
/>
<path fill="#181818" d="
  M 98.00 145.44
  L 98.01 200.69
  A 0.31 0.31 0.0 0 1 97.70 201.00
  L 73.31 201.00
  A 0.31 0.31 0.0 0 1 73.00 200.69
  L 73.00 140.74
  A 0.31 0.31 0.0 0 1 73.37 140.43
  L 97.75 145.13
  A 0.31 0.31 0.0 0 1 98.00 145.44
  Z"
/>
<path fill="#181818" d="
  M 136.66 161.55
  Q 145.53 158.44 145.02 149.12
  A 1.17 1.17 0.0 0 1 145.78 147.97
  L 150.79 146.11
  Q 151.30 145.92 151.72 146.27
  Q 153.57 147.81 154.63 149.12
  Q 175.07 174.40 195.87 199.68
  A 0.81 0.81 0.0 0 1 195.25 201.00
  L 164.02 201.00
  A 1.20 1.17 -24.3 0 1 163.25 200.72
  C 161.95 199.63 160.92 197.82 160.11 196.88
  C 150.36 185.69 141.23 174.31 130.91 163.26
  A 0.60 0.59 49.1 0 1 130.97 162.39
  C 131.83 161.70 135.10 162.10 136.66 161.55
  Z"
/>
</svg>
