<?xml version="1.0" encoding="us-ascii" standalone="no"?><svg xmlns="http://www.w3.org/2000/svg" xmlns:xlink="http://www.w3.org/1999/xlink" contentStyleType="text/css" height="363.6px" preserveAspectRatio="none" style="width:803px;height:363px;background:#FFFFFF;" version="1.1" viewBox="0 0 803 363" width="803.7px" zoomAndPan="magnify"><defs/><g><rect fill="#FFFFFF" height="256.7109" style="stroke:#181818;stroke-width:0.9;" width="9" x="128.7" y="59.5477"/><rect fill="#FFFFFF" height="205.3688" style="stroke:#181818;stroke-width:0.9;" width="9" x="270.9" y="85.2188"/><rect fill="#FFFFFF" height="128.3555" style="stroke:#181818;stroke-width:0.9;" width="9" x="418.5" y="136.5609"/><rect fill="#FFFFFF" height="51.3422" style="stroke:#181818;stroke-width:0.9;" width="9" x="731.25" y="162.232"/><line style="stroke:#181818;stroke-width:0.45;stroke-dasharray:5.0,5.0;" x1="132.75" x2="132.75" y1="32.0766" y2="332.4586"/><line style="stroke:#181818;stroke-width:0.45;stroke-dasharray:5.0,5.0;" x1="274.95" x2="274.95" y1="32.0766" y2="332.4586"/><line style="stroke:#181818;stroke-width:0.45;stroke-dasharray:5.0,5.0;" x1="422.55" x2="422.55" y1="32.0766" y2="332.4586"/><line style="stroke:#181818;stroke-width:0.45;stroke-dasharray:5.0,5.0;" x1="566.55" x2="566.55" y1="32.0766" y2="332.4586"/><line style="stroke:#181818;stroke-width:0.45;stroke-dasharray:5.0,5.0;" x1="641.25" x2="641.25" y1="32.0766" y2="332.4586"/><line style="stroke:#181818;stroke-width:0.45;stroke-dasharray:5.0,5.0;" x1="735.75" x2="735.75" y1="32.0766" y2="332.4586"/><rect fill="#E2E2F0" height="26.6766" rx="2.25" ry="2.25" style="stroke:#181818;stroke-width:0.45;" width="69.3" x="98.55" y="4.5"/><text fill="#000000" font-family="sans-serif" font-size="12.6" lengthAdjust="spacing" textLength="56.7" x="104.85" y="22.2064">:Template</text><rect fill="#E2E2F0" height="26.6766" rx="2.25" ry="2.25" style="stroke:#181818;stroke-width:0.45;" width="69.3" x="98.55" y="331.5586"/><text fill="#000000" font-family="sans-serif" font-size="12.6" lengthAdjust="spacing" textLength="56.7" x="104.85" y="349.265">:Template</text><rect fill="#E2E2F0" height="26.6766" rx="2.25" ry="2.25" style="stroke:#181818;stroke-width:0.45;" width="78.3" x="236.25" y="4.5"/><text fill="#000000" font-family="sans-serif" font-size="12.6" lengthAdjust="spacing" textLength="65.7" x="242.55" y="22.2064">Component</text><rect fill="#E2E2F0" height="26.6766" rx="2.25" ry="2.25" style="stroke:#181818;stroke-width:0.45;" width="78.3" x="236.25" y="331.5586"/><text fill="#000000" font-family="sans-serif" font-size="12.6" lengthAdjust="spacing" textLength="65.7" x="242.55" y="349.265">Component</text><rect fill="#E2E2F0" height="26.6766" rx="2.25" ry="2.25" style="stroke:#181818;stroke-width:0.45;" width="58.5" x="393.75" y="4.5"/><text fill="#000000" font-family="sans-serif" font-size="12.6" lengthAdjust="spacing" textLength="45.9" x="400.05" y="22.2064">:Service</text><rect fill="#E2E2F0" height="26.6766" rx="2.25" ry="2.25" style="stroke:#181818;stroke-width:0.45;" width="58.5" x="393.75" y="331.5586"/><text fill="#000000" font-family="sans-serif" font-size="12.6" lengthAdjust="spacing" textLength="45.9" x="400.05" y="349.265">:Service</text><rect fill="#E2E2F0" height="26.6766" rx="2.25" ry="2.25" style="stroke:#181818;stroke-width:0.45;" width="45.9" x="544.05" y="4.5"/><text fill="#000000" font-family="sans-serif" font-size="12.6" lengthAdjust="spacing" textLength="33.3" x="550.35" y="22.2064">:Floor</text><rect fill="#E2E2F0" height="26.6766" rx="2.25" ry="2.25" style="stroke:#181818;stroke-width:0.45;" width="45.9" x="544.05" y="331.5586"/><text fill="#000000" font-family="sans-serif" font-size="12.6" lengthAdjust="spacing" textLength="33.3" x="550.35" y="349.265">:Floor</text><rect fill="#E2E2F0" height="26.6766" rx="2.25" ry="2.25" style="stroke:#181818;stroke-width:0.45;" width="84.6" x="598.95" y="4.5"/><text fill="#000000" font-family="sans-serif" font-size="12.6" lengthAdjust="spacing" textLength="72" x="605.25" y="22.2064">:FloorCreate</text><rect fill="#E2E2F0" height="26.6766" rx="2.25" ry="2.25" style="stroke:#181818;stroke-width:0.45;" width="84.6" x="598.95" y="331.5586"/><text fill="#000000" font-family="sans-serif" font-size="12.6" lengthAdjust="spacing" textLength="72" x="605.25" y="349.265">:FloorCreate</text><rect fill="#E2E2F0" height="26.6766" rx="2.25" ry="2.25" style="stroke:#181818;stroke-width:0.45;" width="86.4" x="692.55" y="4.5"/><text fill="#000000" font-family="sans-serif" font-size="12.6" lengthAdjust="spacing" textLength="73.8" x="698.85" y="22.2064">:HTTP Driver</text><rect fill="#E2E2F0" height="26.6766" rx="2.25" ry="2.25" style="stroke:#181818;stroke-width:0.45;" width="86.4" x="692.55" y="331.5586"/><text fill="#000000" font-family="sans-serif" font-size="12.6" lengthAdjust="spacing" textLength="73.8" x="698.85" y="349.265">:HTTP Driver</text><rect fill="#FFFFFF" height="256.7109" style="stroke:#181818;stroke-width:0.9;" width="9" x="128.7" y="59.5477"/><rect fill="#FFFFFF" height="205.3688" style="stroke:#181818;stroke-width:0.9;" width="9" x="270.9" y="85.2188"/><rect fill="#FFFFFF" height="128.3555" style="stroke:#181818;stroke-width:0.9;" width="9" x="418.5" y="136.5609"/><rect fill="#FFFFFF" height="51.3422" style="stroke:#181818;stroke-width:0.9;" width="9" x="731.25" y="162.232"/><ellipse cx="67.05" cy="58.8727" fill="none" rx="3.6" ry="3.6" style="stroke:#181818;stroke-width:1.35;"/><polygon fill="#181818" points="117.9,55.9477,126.9,59.5477,117.9,63.1477,121.5,59.5477" style="stroke:#181818;stroke-width:0.9;"/><line style="stroke:#181818;stroke-width:0.9;" x1="71.1" x2="123.3" y1="59.5477" y2="59.5477"/><text fill="#000000" font-family="sans-serif" font-size="11.7" font-weight="bold" lengthAdjust="spacing" textLength="6.3" x="73.8" y="55.2683">1</text><text fill="#000000" font-family="sans-serif" font-size="11.7" lengthAdjust="spacing" textLength="31.5" x="83.7" y="55.2683">/floors</text><polygon fill="#181818" points="260.1,81.6188,269.1,85.2188,260.1,88.8188,263.7,85.2188" style="stroke:#181818;stroke-width:0.9;"/><line style="stroke:#181818;stroke-width:0.9;" x1="137.7" x2="265.5" y1="85.2188" y2="85.2188"/><text fill="#000000" font-family="sans-serif" font-size="11.7" font-weight="bold" lengthAdjust="spacing" textLength="6.3" x="144" y="80.9394">2</text><text fill="#000000" font-family="sans-serif" font-size="11.7" lengthAdjust="spacing" textLength="93.6" x="153.9" y="80.9394">/floors/createFloor</text><polygon fill="#181818" points="630.45,107.2898,639.45,110.8898,630.45,114.4898,634.05,110.8898" style="stroke:#181818;stroke-width:0.9;"/><line style="stroke:#181818;stroke-width:0.9;" x1="279.9" x2="635.85" y1="110.8898" y2="110.8898"/><text fill="#000000" font-family="sans-serif" font-size="11.7" font-weight="bold" lengthAdjust="spacing" textLength="6.3" x="286.2" y="106.6104">3</text><text fill="#000000" font-family="sans-serif" font-size="11.7" lengthAdjust="spacing" textLength="135.9" x="296.1" y="106.6104">Parse Data to FloorCreate</text><polygon fill="#181818" points="407.7,132.9609,416.7,136.5609,407.7,140.1609,411.3,136.5609" style="stroke:#181818;stroke-width:0.9;"/><line style="stroke:#181818;stroke-width:0.9;" x1="279.9" x2="413.1" y1="136.5609" y2="136.5609"/><text fill="#000000" font-family="sans-serif" font-size="11.7" font-weight="bold" lengthAdjust="spacing" textLength="6.3" x="286.2" y="132.2815">4</text><text fill="#000000" font-family="sans-serif" font-size="11.7" lengthAdjust="spacing" textLength="111.6" x="296.1" y="132.2815">createFloor(floorData)</text><polygon fill="#181818" points="720.45,158.632,729.45,162.232,720.45,165.832,724.05,162.232" style="stroke:#181818;stroke-width:0.9;"/><line style="stroke:#181818;stroke-width:0.9;" x1="427.5" x2="725.85" y1="162.232" y2="162.232"/><text fill="#000000" font-family="sans-serif" font-size="11.7" font-weight="bold" lengthAdjust="spacing" textLength="6.3" x="433.8" y="157.9526">5</text><text fill="#000000" font-family="sans-serif" font-size="11.7" lengthAdjust="spacing" textLength="45.9" x="443.7" y="157.9526">http post</text><polygon fill="#181818" points="792.45,184.3031,801.45,187.9031,792.45,191.5031,796.05,187.9031" style="stroke:#181818;stroke-width:0.9;"/><line style="stroke:#181818;stroke-width:0.9;" x1="740.25" x2="797.85" y1="187.9031" y2="187.9031"/><text fill="#000000" font-family="sans-serif" font-size="11.7" font-weight="bold" lengthAdjust="spacing" textLength="6.3" x="746.55" y="183.6237">6</text><text fill="#000000" font-family="sans-serif" font-size="11.7" lengthAdjust="spacing" textLength="31.5" x="756.45" y="183.6237">POST</text><polygon fill="#181818" points="437.4,209.9742,428.4,213.5742,437.4,217.1742,433.8,213.5742" style="stroke:#181818;stroke-width:0.9;"/><line style="stroke:#181818;stroke-width:0.9;stroke-dasharray:2.0,2.0;" x1="432" x2="734.85" y1="213.5742" y2="213.5742"/><text fill="#000000" font-family="sans-serif" font-size="11.7" font-weight="bold" lengthAdjust="spacing" textLength="6.3" x="442.8" y="209.2948">7</text><text fill="#000000" font-family="sans-serif" font-size="11.7" lengthAdjust="spacing" textLength="30.6" x="452.7" y="209.2948">JSON</text><polygon fill="#181818" points="556.2,235.6453,565.2,239.2453,556.2,242.8453,559.8,239.2453" style="stroke:#181818;stroke-width:0.9;"/><line style="stroke:#181818;stroke-width:0.9;" x1="427.5" x2="561.6" y1="239.2453" y2="239.2453"/><text fill="#000000" font-family="sans-serif" font-size="11.7" font-weight="bold" lengthAdjust="spacing" textLength="6.3" x="433.8" y="234.9659">8</text><text fill="#000000" font-family="sans-serif" font-size="11.7" lengthAdjust="spacing" textLength="108" x="443.7" y="234.9659">Parse JSON to Floor</text><polygon fill="#181818" points="289.8,261.3164,280.8,264.9164,289.8,268.5164,286.2,264.9164" style="stroke:#181818;stroke-width:0.9;"/><line style="stroke:#181818;stroke-width:0.9;stroke-dasharray:2.0,2.0;" x1="284.4" x2="422.1" y1="264.9164" y2="264.9164"/><text fill="#000000" font-family="sans-serif" font-size="11.7" font-weight="bold" lengthAdjust="spacing" textLength="6.3" x="295.2" y="260.637">9</text><text fill="#000000" font-family="sans-serif" font-size="11.7" lengthAdjust="spacing" textLength="21.6" x="305.1" y="260.637">floor</text><polygon fill="#181818" points="147.6,286.9875,138.6,290.5875,147.6,294.1875,144,290.5875" style="stroke:#181818;stroke-width:0.9;"/><line style="stroke:#181818;stroke-width:0.9;stroke-dasharray:2.0,2.0;" x1="142.2" x2="274.5" y1="290.5875" y2="290.5875"/><text fill="#000000" font-family="sans-serif" font-size="11.7" font-weight="bold" lengthAdjust="spacing" textLength="12.6" x="153" y="286.3081">10</text><text fill="#000000" font-family="sans-serif" font-size="11.7" lengthAdjust="spacing" textLength="95.4" x="169.2" y="286.3081">operation success</text><polygon fill="#181818" points="9.9,312.6586,0.9,316.2586,9.9,319.8586,6.3,316.2586" style="stroke:#181818;stroke-width:0.9;"/><line style="stroke:#181818;stroke-width:0.9;stroke-dasharray:2.0,2.0;" x1="4.5" x2="132.3" y1="316.2586" y2="316.2586"/><text fill="#000000" font-family="sans-serif" font-size="11.7" font-weight="bold" lengthAdjust="spacing" textLength="12.6" x="15.3" y="311.9792">11</text><text fill="#000000" font-family="sans-serif" font-size="11.7" lengthAdjust="spacing" textLength="95.4" x="31.5" y="311.9792">operation success</text><!--SRC=[ZL51QiCm4Bph5KjExS44UZGbFIIKKcWJi3-WAbigiBr2MllzbMJBaaqFlUrQCxCpOpao3MF_XLO8OQHbhRIH0yEXRh4tdMGyW7IGbWtcJBsX0Vta4UkoasdGJbhDAikyGxnsH3Q-Vz0TkxzUpnQJauXvse7UslO65widd8N2BiGBLQTal8RZTr1oGYhMa_-ICuaqGNNAELR6KSNhqKXcvxmYz-3vixyQRj8wX8ja2KnGfDZXbqvgAAuynCE1-vWFflB4CWHoo5d33xC1GuupE1OGM_4eR-RQjCjQddnlhf_YZbjMgH_3f2m1lMOfODlIelLITFLTnFQK_6F8e9MiQG0tAeNEbUoYvkUg-YSf_zbV]--></g></svg>