<?xml version="1.0" encoding="us-ascii" standalone="no"?><svg xmlns="http://www.w3.org/2000/svg" xmlns:xlink="http://www.w3.org/1999/xlink" contentStyleType="text/css" height="297px" preserveAspectRatio="none" style="width:629px;height:297px;background:#FFFFFF;" version="1.1" viewBox="0 0 629 297" width="629px" zoomAndPan="magnify"><defs/><g><!--cluster Server1--><g id="cluster_Server1"><polygon fill="none" points="33,16,43,6,234,6,234,113,224,123,33,123,33,16" style="stroke:#181818;stroke-width:1.0;"/><line style="stroke:#181818;stroke-width:1.0;" x1="224" x2="234" y1="16" y2="6"/><line style="stroke:#181818;stroke-width:1.0;" x1="33" x2="224" y1="16" y2="16"/><line style="stroke:#181818;stroke-width:1.0;" x1="224" x2="224" y1="16" y2="123"/><text fill="#000000" font-family="sans-serif" font-size="14" font-weight="bold" lengthAdjust="spacing" textLength="56" x="101.5" y="31.6738">Server1</text></g><!--cluster Server2--><g id="cluster_Server2"><polygon fill="none" points="153,173,163,163,612,163,612,270,602,280,153,280,153,173" style="stroke:#181818;stroke-width:1.0;"/><line style="stroke:#181818;stroke-width:1.0;" x1="602" x2="612" y1="173" y2="163"/><line style="stroke:#181818;stroke-width:1.0;" x1="153" x2="602" y1="173" y2="173"/><line style="stroke:#181818;stroke-width:1.0;" x1="602" x2="602" y1="173" y2="280"/><text fill="#000000" font-family="sans-serif" font-size="14" font-weight="bold" lengthAdjust="spacing" textLength="56" x="350.5" y="188.6738">Server2</text></g><!--cluster Server3--><g id="cluster_Server3"><polygon fill="none" points="274,16,284,6,481,6,481,113,471,123,274,123,274,16" style="stroke:#181818;stroke-width:1.0;"/><line style="stroke:#181818;stroke-width:1.0;" x1="471" x2="481" y1="16" y2="6"/><line style="stroke:#181818;stroke-width:1.0;" x1="274" x2="471" y1="16" y2="16"/><line style="stroke:#181818;stroke-width:1.0;" x1="471" x2="471" y1="16" y2="123"/><text fill="#000000" font-family="sans-serif" font-size="14" font-weight="bold" lengthAdjust="spacing" textLength="56" x="345.5" y="31.6738">Server3</text></g><!--entity V--><g id="elem_V"><rect fill="#F1F1F1" height="45.6406" rx="2.5" ry="2.5" style="stroke:#181818;stroke-width:0.5;" width="134" x="76" y="53"/><rect fill="#F1F1F1" height="10" style="stroke:#181818;stroke-width:0.5;" width="15" x="190" y="58"/><rect fill="#F1F1F1" height="2" style="stroke:#181818;stroke-width:0.5;" width="4" x="188" y="60"/><rect fill="#F1F1F1" height="2" style="stroke:#181818;stroke-width:0.5;" width="4" x="188" y="64"/><text fill="#000000" font-family="sans-serif" font-size="14" lengthAdjust="spacing" textLength="94" x="91" y="85.6738">&#171;Visualiza&#231;&#227;o&#187;</text></g><!--entity MDL--><g id="elem_MDL"><rect fill="#F1F1F1" height="45.6406" rx="2.5" ry="2.5" style="stroke:#181818;stroke-width:0.5;" width="177" x="410.5" y="210"/><rect fill="#F1F1F1" height="10" style="stroke:#181818;stroke-width:0.5;" width="15" x="567.5" y="215"/><rect fill="#F1F1F1" height="2" style="stroke:#181818;stroke-width:0.5;" width="4" x="565.5" y="217"/><rect fill="#F1F1F1" height="2" style="stroke:#181818;stroke-width:0.5;" width="4" x="565.5" y="221"/><text fill="#000000" font-family="sans-serif" font-size="14" lengthAdjust="spacing" textLength="137" x="425.5" y="242.6738">&#171;MasterDataLogistic&#187;</text></g><!--entity MDB--><g id="elem_MDB"><rect fill="#F1F1F1" height="45.6406" rx="2.5" ry="2.5" style="stroke:#181818;stroke-width:0.5;" width="179" x="196.5" y="210"/><rect fill="#F1F1F1" height="10" style="stroke:#181818;stroke-width:0.5;" width="15" x="355.5" y="215"/><rect fill="#F1F1F1" height="2" style="stroke:#181818;stroke-width:0.5;" width="4" x="353.5" y="217"/><rect fill="#F1F1F1" height="2" style="stroke:#181818;stroke-width:0.5;" width="4" x="353.5" y="221"/><text fill="#000000" font-family="sans-serif" font-size="14" lengthAdjust="spacing" textLength="139" x="211.5" y="242.6738">&#171;MasterDataBuilding&#187;</text></g><!--entity P--><g id="elem_P"><rect fill="#F1F1F1" height="45.6406" rx="2.5" ry="2.5" style="stroke:#181818;stroke-width:0.5;" width="139" x="317.5" y="53"/><rect fill="#F1F1F1" height="10" style="stroke:#181818;stroke-width:0.5;" width="15" x="436.5" y="58"/><rect fill="#F1F1F1" height="2" style="stroke:#181818;stroke-width:0.5;" width="4" x="434.5" y="60"/><rect fill="#F1F1F1" height="2" style="stroke:#181818;stroke-width:0.5;" width="4" x="434.5" y="64"/><text fill="#000000" font-family="sans-serif" font-size="14" lengthAdjust="spacing" textLength="99" x="332.5" y="85.6738">&#171;Planeamento&#187;</text></g><!--link Server1 to Server2--><g id="link_Server1_Server2"><path codeLine="24" d="M41,123.3183 C41,125.5197 41,127.76 41,130.0308 C41,139.1137 41,148.6822 41,158.1787 C41,196.165 41,233 41,233 C41,233 68.2525,233 96.7825,233 C111.0475,233 125.6319,233 137.2888,233 C143.1172,233 148.2138,233 152.1726,233 C152.42,233 152.663,233 152.9014,233 " fill="none" id="Server1-Server2" style="stroke:#181818;stroke-width:1.0;"/><text fill="#000000" font-family="sans-serif" font-size="13" lengthAdjust="spacing" textLength="33" x="7" y="211.1086">http/s</text></g><!--link Server3 to Server2--><g id="link_Server3_Server2"><path codeLine="25" d="M282,123.0869 C282,123.2316 282,123.3761 282,123.5204 C282,124.0978 282,124.6728 282,125.2448 C282,127.5331 282,129.7748 282,131.9366 C282,136.2602 282,140.264 282,143.6808 C282,150.5144 282,155 282,155 C282,155 161,155 161,155 C161,155 161,156.1072 161,158.0577 C161,159.033 161,160.2191 161,161.5831 C161,161.9241 161,162.2762 161,162.6389 C161,162.7296 161,162.8209 161,162.9129 " fill="none" id="Server3-Server2" style="stroke:#181818;stroke-width:1.0;"/><text fill="#000000" font-family="sans-serif" font-size="13" lengthAdjust="spacing" textLength="33" x="188" y="151.7686">http/s</text></g><!--SRC=[TOz12eCm44NtESNWNafrLyI5k5GG2ku73HeQav2CXRPucYvw42zMRLMGqkNC_s_-7tSHog353gHGd6w6WxRKQiQKhZcSkRroUtmm0AXqPxJYYi2BebAu7gMuu_WQdpgEFK079NoCCB1XnmVpUeVdw8ZR50aptGX7ebfEv6ascoV-Bv7qGjP2DHkHV8bzPlYJMKXK7BjfMliMi96CBQ-2N_jhxHEqHERW5Yq0lr-rSDFU]--></g></svg>