<?xml version="1.0" encoding="us-ascii" standalone="no"?><svg xmlns="http://www.w3.org/2000/svg" xmlns:xlink="http://www.w3.org/1999/xlink" contentStyleType="text/css" height="363px" preserveAspectRatio="none" style="width:522px;height:363px;background:#FFFFFF;" version="1.1" viewBox="0 0 522 363" width="522px" zoomAndPan="magnify"><defs/><g><!--cluster Server1--><g id="cluster_Server1"><polygon fill="none" points="20,16,30,6,258,6,258,179,248,189,20,189,20,16" style="stroke:#181818;stroke-width:1.0;"/><line style="stroke:#181818;stroke-width:1.0;" x1="248" x2="258" y1="16" y2="6"/><line style="stroke:#181818;stroke-width:1.0;" x1="20" x2="248" y1="16" y2="16"/><line style="stroke:#181818;stroke-width:1.0;" x1="248" x2="248" y1="16" y2="189"/><text fill="#000000" font-family="sans-serif" font-size="14" font-weight="bold" lengthAdjust="spacing" textLength="56" x="107" y="31.6738">Server1</text></g><!--cluster BRW--><g id="cluster_BRW"><rect fill="none" height="96" rx="2.5" ry="2.5" style="stroke:#181818;stroke-width:1.0;" width="166" x="60" y="61"/><rect fill="none" height="10" style="stroke:#181818;stroke-width:1.0;" width="15" x="206" y="66"/><rect fill="none" height="2" style="stroke:#181818;stroke-width:1.0;" width="4" x="204" y="68"/><rect fill="none" height="2" style="stroke:#181818;stroke-width:1.0;" width="4" x="204" y="72"/><text fill="#000000" font-family="sans-serif" font-size="14" font-weight="bold" lengthAdjust="spacing" textLength="75" x="105.5" y="86.6738">&#171;Browser&#187;</text></g><!--cluster Server2--><g id="cluster_Server2"><polygon fill="none" points="33,239,43,229,492,229,492,336,482,346,33,346,33,239" style="stroke:#181818;stroke-width:1.0;"/><line style="stroke:#181818;stroke-width:1.0;" x1="482" x2="492" y1="239" y2="229"/><line style="stroke:#181818;stroke-width:1.0;" x1="33" x2="482" y1="239" y2="239"/><line style="stroke:#181818;stroke-width:1.0;" x1="482" x2="482" y1="239" y2="346"/><text fill="#000000" font-family="sans-serif" font-size="14" font-weight="bold" lengthAdjust="spacing" textLength="56" x="230.5" y="254.6738">Server2</text></g><!--cluster Server3--><g id="cluster_Server3"><polygon fill="none" points="298,58,308,48,505,48,505,155,495,165,298,165,298,58" style="stroke:#181818;stroke-width:1.0;"/><line style="stroke:#181818;stroke-width:1.0;" x1="495" x2="505" y1="58" y2="48"/><line style="stroke:#181818;stroke-width:1.0;" x1="298" x2="495" y1="58" y2="58"/><line style="stroke:#181818;stroke-width:1.0;" x1="495" x2="495" y1="58" y2="165"/><text fill="#000000" font-family="sans-serif" font-size="14" font-weight="bold" lengthAdjust="spacing" textLength="56" x="369.5" y="73.6738">Server3</text></g><!--entity V--><g id="elem_V"><rect fill="#F1F1F1" height="45.6406" rx="2.5" ry="2.5" style="stroke:#181818;stroke-width:0.5;" width="134" x="76" y="95"/><rect fill="#F1F1F1" height="10" style="stroke:#181818;stroke-width:0.5;" width="15" x="190" y="100"/><rect fill="#F1F1F1" height="2" style="stroke:#181818;stroke-width:0.5;" width="4" x="188" y="102"/><rect fill="#F1F1F1" height="2" style="stroke:#181818;stroke-width:0.5;" width="4" x="188" y="106"/><text fill="#000000" font-family="sans-serif" font-size="14" lengthAdjust="spacing" textLength="94" x="91" y="127.6738">&#171;Visualiza&#231;&#227;o&#187;</text></g><!--entity MDL--><g id="elem_MDL"><rect fill="#F1F1F1" height="45.6406" rx="2.5" ry="2.5" style="stroke:#181818;stroke-width:0.5;" width="177" x="290.5" y="276"/><rect fill="#F1F1F1" height="10" style="stroke:#181818;stroke-width:0.5;" width="15" x="447.5" y="281"/><rect fill="#F1F1F1" height="2" style="stroke:#181818;stroke-width:0.5;" width="4" x="445.5" y="283"/><rect fill="#F1F1F1" height="2" style="stroke:#181818;stroke-width:0.5;" width="4" x="445.5" y="287"/><text fill="#000000" font-family="sans-serif" font-size="14" lengthAdjust="spacing" textLength="137" x="305.5" y="308.6738">&#171;MasterDataLogistic&#187;</text></g><!--entity MDB--><g id="elem_MDB"><rect fill="#F1F1F1" height="45.6406" rx="2.5" ry="2.5" style="stroke:#181818;stroke-width:0.5;" width="179" x="76.5" y="276"/><rect fill="#F1F1F1" height="10" style="stroke:#181818;stroke-width:0.5;" width="15" x="235.5" y="281"/><rect fill="#F1F1F1" height="2" style="stroke:#181818;stroke-width:0.5;" width="4" x="233.5" y="283"/><rect fill="#F1F1F1" height="2" style="stroke:#181818;stroke-width:0.5;" width="4" x="233.5" y="287"/><text fill="#000000" font-family="sans-serif" font-size="14" lengthAdjust="spacing" textLength="139" x="91.5" y="308.6738">&#171;MasterDataBuilding&#187;</text></g><!--entity P--><g id="elem_P"><rect fill="#F1F1F1" height="45.6406" rx="2.5" ry="2.5" style="stroke:#181818;stroke-width:0.5;" width="139" x="341.5" y="95"/><rect fill="#F1F1F1" height="10" style="stroke:#181818;stroke-width:0.5;" width="15" x="460.5" y="100"/><rect fill="#F1F1F1" height="2" style="stroke:#181818;stroke-width:0.5;" width="4" x="458.5" y="102"/><rect fill="#F1F1F1" height="2" style="stroke:#181818;stroke-width:0.5;" width="4" x="458.5" y="106"/><text fill="#000000" font-family="sans-serif" font-size="14" lengthAdjust="spacing" textLength="99" x="356.5" y="127.6738">&#171;Planeamento&#187;</text></g><!--link Server1 to Server2--><g id="link_Server1_Server2"><path codeLine="26" d="M41,189.9896 C41,190.6616 41,191.335 41,192.0098 C41,193.3592 41,194.7137 41,196.072 C41,198.7886 41,201.5205 41,204.2575 C41,209.7316 41,215.2264 41,220.6616 C41,223.3792 41,226.0819 41,228.7596 " fill="none" id="Server1-Server2" style="stroke:#181818;stroke-width:1.0;"/><text fill="#000000" font-family="sans-serif" font-size="13" lengthAdjust="spacing" textLength="33" x="7" y="198.7886">http/s</text></g><!--link Server3 to Server2--><g id="link_Server3_Server2"><path codeLine="27" d="M306,165.1736 C306,165.3429 306,165.5122 306,165.6814 C306,166.0199 306,166.3582 306,166.6963 C306,188.3325 306,209 306,209 C306,209 59,209 59,209 C59,209 59,214.625 59,223.0625 C59,224.1172 59,225.2158 59,226.3529 C59,226.9214 59,227.4996 59,228.0867 C59,228.3802 59,228.676 59,228.9739 " fill="none" id="Server3-Server2" style="stroke:#181818;stroke-width:1.0;"/><text fill="#000000" font-family="sans-serif" font-size="13" lengthAdjust="spacing" textLength="33" x="139.93" y="205.7686">http/s</text></g><!--SRC=[TP0n2eD044NxFSLWBo7Q1R4GImEIWAa77NI9xihkcf28fqcHWtYnH551J8efXl__lC_eAnSrAgoWv8BCeoQGoXIICI4pWZEf6wbzom1IMTLIa31WULwWv5sJydqBK4DmkWoEjINXki6IFx5_zoyvEHCOZT2nOReLnTbGZgWDgH0DHZBdsl1qEdCCetQyy3yHDBpCkCYNHD3-OBeRPboY8Ao-szmvXYN9sFGGi3Dxhds0mfXwfoVD0RkPDNVHFW00]--></g></svg>