<?xml version="1.0" encoding="us-ascii" standalone="no"?><svg xmlns="http://www.w3.org/2000/svg" xmlns:xlink="http://www.w3.org/1999/xlink" contentStyleType="text/css" height="297px" preserveAspectRatio="none" style="width:733px;height:297px;background:#FFFFFF;" version="1.1" viewBox="0 0 733 297" width="733px" zoomAndPan="magnify"><defs/><g><!--cluster Server1--><g id="cluster_Server1"><polygon fill="none" points="16,16,26,6,217,6,217,113,207,123,16,123,16,16" style="stroke:#181818;stroke-width:1.0;"/><line style="stroke:#181818;stroke-width:1.0;" x1="207" x2="217" y1="16" y2="6"/><line style="stroke:#181818;stroke-width:1.0;" x1="16" x2="207" y1="16" y2="16"/><line style="stroke:#181818;stroke-width:1.0;" x1="207" x2="207" y1="16" y2="123"/><text fill="#000000" font-family="sans-serif" font-size="14" font-weight="bold" lengthAdjust="spacing" textLength="56" x="84.5" y="31.6738">Server1</text></g><!--cluster Server2--><g id="cluster_Server2"><polygon fill="none" points="257,173,267,163,716,163,716,270,706,280,257,280,257,173" style="stroke:#181818;stroke-width:1.0;"/><line style="stroke:#181818;stroke-width:1.0;" x1="706" x2="716" y1="173" y2="163"/><line style="stroke:#181818;stroke-width:1.0;" x1="257" x2="706" y1="173" y2="173"/><line style="stroke:#181818;stroke-width:1.0;" x1="706" x2="706" y1="173" y2="280"/><text fill="#000000" font-family="sans-serif" font-size="14" font-weight="bold" lengthAdjust="spacing" textLength="56" x="454.5" y="188.6738">Server2</text></g><!--cluster Server3--><g id="cluster_Server3"><polygon fill="none" points="257,16,267,6,464,6,464,113,454,123,257,123,257,16" style="stroke:#181818;stroke-width:1.0;"/><line style="stroke:#181818;stroke-width:1.0;" x1="454" x2="464" y1="16" y2="6"/><line style="stroke:#181818;stroke-width:1.0;" x1="257" x2="454" y1="16" y2="16"/><line style="stroke:#181818;stroke-width:1.0;" x1="454" x2="454" y1="16" y2="123"/><text fill="#000000" font-family="sans-serif" font-size="14" font-weight="bold" lengthAdjust="spacing" textLength="56" x="328.5" y="31.6738">Server3</text></g><!--cluster Server4--><g id="cluster_Server4"><polygon fill="none" points="504,16.5,514,6.5,653,6.5,653,112.5,643,122.5,504,122.5,504,16.5" style="stroke:#181818;stroke-width:1.0;"/><line style="stroke:#181818;stroke-width:1.0;" x1="643" x2="653" y1="16.5" y2="6.5"/><line style="stroke:#181818;stroke-width:1.0;" x1="504" x2="643" y1="16.5" y2="16.5"/><line style="stroke:#181818;stroke-width:1.0;" x1="643" x2="643" y1="16.5" y2="122.5"/><text fill="#000000" font-family="sans-serif" font-size="14" font-weight="bold" lengthAdjust="spacing" textLength="56" x="546.5" y="32.1738">Server4</text></g><!--entity V--><g id="elem_V"><rect fill="#F1F1F1" height="45.6406" rx="2.5" ry="2.5" style="stroke:#181818;stroke-width:0.5;" width="134" x="59" y="53"/><rect fill="#F1F1F1" height="10" style="stroke:#181818;stroke-width:0.5;" width="15" x="173" y="58"/><rect fill="#F1F1F1" height="2" style="stroke:#181818;stroke-width:0.5;" width="4" x="171" y="60"/><rect fill="#F1F1F1" height="2" style="stroke:#181818;stroke-width:0.5;" width="4" x="171" y="64"/><text fill="#000000" font-family="sans-serif" font-size="14" lengthAdjust="spacing" textLength="94" x="74" y="85.6738">&#171;Visualiza&#231;&#227;o&#187;</text></g><!--entity MDL--><g id="elem_MDL"><rect fill="#F1F1F1" height="45.6406" rx="2.5" ry="2.5" style="stroke:#181818;stroke-width:0.5;" width="177" x="514.5" y="210"/><rect fill="#F1F1F1" height="10" style="stroke:#181818;stroke-width:0.5;" width="15" x="671.5" y="215"/><rect fill="#F1F1F1" height="2" style="stroke:#181818;stroke-width:0.5;" width="4" x="669.5" y="217"/><rect fill="#F1F1F1" height="2" style="stroke:#181818;stroke-width:0.5;" width="4" x="669.5" y="221"/><text fill="#000000" font-family="sans-serif" font-size="14" lengthAdjust="spacing" textLength="137" x="529.5" y="242.6738">&#171;MasterDataLogistic&#187;</text></g><!--entity MDB--><g id="elem_MDB"><rect fill="#F1F1F1" height="45.6406" rx="2.5" ry="2.5" style="stroke:#181818;stroke-width:0.5;" width="179" x="300.5" y="210"/><rect fill="#F1F1F1" height="10" style="stroke:#181818;stroke-width:0.5;" width="15" x="459.5" y="215"/><rect fill="#F1F1F1" height="2" style="stroke:#181818;stroke-width:0.5;" width="4" x="457.5" y="217"/><rect fill="#F1F1F1" height="2" style="stroke:#181818;stroke-width:0.5;" width="4" x="457.5" y="221"/><text fill="#000000" font-family="sans-serif" font-size="14" lengthAdjust="spacing" textLength="139" x="315.5" y="242.6738">&#171;MasterDataBuilding&#187;</text></g><!--entity P--><g id="elem_P"><rect fill="#F1F1F1" height="45.6406" rx="2.5" ry="2.5" style="stroke:#181818;stroke-width:0.5;" width="139" x="300.5" y="53"/><rect fill="#F1F1F1" height="10" style="stroke:#181818;stroke-width:0.5;" width="15" x="419.5" y="58"/><rect fill="#F1F1F1" height="2" style="stroke:#181818;stroke-width:0.5;" width="4" x="417.5" y="60"/><rect fill="#F1F1F1" height="2" style="stroke:#181818;stroke-width:0.5;" width="4" x="417.5" y="64"/><text fill="#000000" font-family="sans-serif" font-size="14" lengthAdjust="spacing" textLength="99" x="315.5" y="85.6738">&#171;Planeamento&#187;</text></g><!--entity MongoDB--><g id="elem_MongoDB"><path d="M547,63.5 C547,53.5 588,53.5 588,53.5 C588,53.5 629,53.5 629,63.5 L629,88.1406 C629,98.1406 588,98.1406 588,98.1406 C588,98.1406 547,98.1406 547,88.1406 L547,63.5 " fill="#F1F1F1" style="stroke:#181818;stroke-width:0.5;"/><path d="M547,63.5 C547,73.5 588,73.5 588,73.5 C588,73.5 629,73.5 629,63.5 " fill="none" style="stroke:#181818;stroke-width:0.5;"/><text fill="#000000" font-family="sans-serif" font-size="14" lengthAdjust="spacing" textLength="62" x="557" y="90.1738">MongoDB</text></g><!--link Server1 to Server2--><g id="link_Server1_Server2"><path d="M24,123.3183 C24,125.5197 24,127.76 24,130.0308 C24,139.1137 24,148.6822 24,158.1787 C24,196.165 24,233 24,233 C24,233 81.46,233 140.2662,233 C169.6694,233 199.4091,233 222.4711,233 C234.0021,233 243.8637,233 251.1791,233 C253.008,233 254.6777,233 256.1746,233 C256.3617,233 256.5461,233 256.7278,233 " fill="none" id="Server1-Server2" style="stroke:#181818;stroke-width:1.0;"/><text fill="#000000" font-family="sans-serif" font-size="13" lengthAdjust="spacing" textLength="33" x="32.03" y="229.7686">http/s</text></g><!--link Server3 to Server2--><g id="link_Server3_Server2"><path d="M265,123.4475 C265,123.7142 265,123.9816 265,124.2494 C265,125.321 265,126.4014 265,127.4897 C265,136.196 265,145.4072 265,154.6162 C265,156.9185 265,159.2206 265,161.5147 C265,161.8015 265,162.0881 265,162.3746 C265,162.5179 265,162.6611 265,162.8042 " fill="none" id="Server3-Server2" style="stroke:#181818;stroke-width:1.0;"/><text fill="#000000" font-family="sans-serif" font-size="13" lengthAdjust="spacing" textLength="33" x="231" y="151.2786">http/s</text></g><!--link Server4 to Server2--><g id="link_Server4_Server2"><path d="M512,122.5786 C512,122.902 512,123.2264 512,123.5518 C512,124.8537 512,126.1719 512,127.5052 C512,132.8385 512,138.4127 512,144.1401 C512,149.8675 512,155.748 512,161.6938 C512,162.0654 512,162.4372 512,162.8093 C512,162.8559 512,162.9024 512,162.9489 " fill="none" id="Server4-Server2" style="stroke:#181818;stroke-width:1.0;"/></g><!--SRC=[VP1D2i9038NtSug7-oB-h4HSb2uj50JtqOOws4xAp5HGyJGkF8WNizLMAFuia_U-l2Hkhqr9bWhash0_bWonVYTA6KaPAxO7jgEp0h2LeXJ3ncCmdw-rgoZN9xhVxbTPB0OWXpMUHbpKfSUFctOFZybvjX5vMagcdTVRTaGSBHjppVyamahdgJRPcmXVH3zpyf6Pv6IOYhhgzatmZPmspRGEsf1Zn68oYSB6erJx3WHfq9qsmyxxSkXQROoWwhJ97ssA1m00]--></g></svg>