<?xml version="1.0" encoding="us-ascii" standalone="no"?><svg xmlns="http://www.w3.org/2000/svg" xmlns:xlink="http://www.w3.org/1999/xlink" contentStyleType="text/css" height="107px" preserveAspectRatio="none" style="width:309px;height:107px;background:#FFFFFF;" version="1.1" viewBox="0 0 309 107" width="309px" zoomAndPan="magnify"><defs/><g><!--cluster RobDroneGo--><g id="cluster_RobDroneGo"><path d="M108,6.0137 L200,6.0137 A3.75,3.75 0 0 1 202.5,8.5137 L209.5,30.6348 L300,30.6348 A2.5,2.5 0 0 1 302.5,33.1348 L302.5,94.5137 A2.5,2.5 0 0 1 300,97.0137 L108,97.0137 A2.5,2.5 0 0 1 105.5,94.5137 L105.5,8.5137 A2.5,2.5 0 0 1 108,6.0137 " fill="none" style="stroke:#000000;stroke-width:1.5;"/><line style="stroke:#000000;stroke-width:1.5;" x1="105.5" x2="209.5" y1="30.6348" y2="30.6348"/><text fill="#000000" font-family="sans-serif" font-size="14" font-weight="bold" lengthAdjust="spacing" textLength="91" x="109.5" y="23.1211">RobDroneGo</text></g><g id="elem_UC18"><ellipse cx="204.0076" cy="61.9152" fill="#F1F1F1" rx="82.5076" ry="18.9015" style="stroke:#181818;stroke-width:0.5;"/><text fill="#000000" font-family="sans-serif" font-size="14" lengthAdjust="spacing" textLength="115" x="143.5076" y="66.7189">Edit personal data</text></g><!--entity FM--><g id="elem_FM"><ellipse cx="33" cy="38.5137" fill="#F1F1F1" rx="16" ry="16" style="stroke:#181818;stroke-width:1.5;"/><path d="M33,58.5137 C37,58.5137 40,58.5137 44,54.5137 C52,54.5137 60,62.5137 60,70.5137 L60,74.5137 C60,78.5137 56,82.5137 52,82.5137 L14,82.5137 C10,82.5137 6,78.5137 6,74.5137 L6,70.5137 C6,62.5137 14,54.5137 22,54.5137 C26,58.5137 29,58.5137 33,58.5137 " fill="#F1F1F1" style="stroke:#181818;stroke-width:1.5;"/><text fill="#000000" font-family="sans-serif" font-size="14" lengthAdjust="spacing" textLength="45" x="10.5" y="99.1211">UI User</text></g><!--link FM to UC18--><g id="link_FM_UC18"><path d="M61.53,62.0137 C77.99,62.0137 93.85,62.0137 115.45,62.0137 " fill="none" id="FM-to-UC18" style="stroke:#181818;stroke-width:1.0;"/><polygon fill="#181818" points="121.45,62.0137,112.45,58.0137,116.45,62.0137,112.45,66.0137,121.45,62.0137" style="stroke:#181818;stroke-width:1.0;"/></g><!--SRC=[9Skn2i9G34RXFK_nqxs3cvEBMd7eelG1ucsibxOt9Oc8YEykrF5yS2Qv1q9XUNW4-coI8ciXyZ6NXOrdS0grQxmd0R_4THQYrL1rPtGkLe4TJKj42wUH1m4kUZkO5Zafy242dYw9NL0T-nnOn5mBJ-WvUDsx_MPBz2LgMjJrxjy_]--></g></svg>