<?xml version="1.0" encoding="us-ascii" standalone="no"?><svg xmlns="http://www.w3.org/2000/svg" xmlns:xlink="http://www.w3.org/1999/xlink" contentStyleType="text/css" height="300px" preserveAspectRatio="none" style="width:749px;height:300px;background:#FFFFFF;" version="1.1" viewBox="0 0 749 300" width="749.6px" zoomAndPan="magnify"><defs/><g><rect fill="#FFFFFF" height="205.3688" style="stroke:#181818;stroke-width:0.8000000000000002;" width="8" x="81.6" y="52.9313"/><rect fill="#FFFFFF" height="159.7313" style="stroke:#181818;stroke-width:0.8000000000000002;" width="8" x="282.4" y="75.75"/><rect fill="#FFFFFF" height="114.0938" style="stroke:#181818;stroke-width:0.8000000000000002;" width="8" x="476.8" y="98.5688"/><rect fill="#FFFFFF" height="45.6375" style="stroke:#181818;stroke-width:0.8000000000000002;" width="8" x="692" y="121.3875"/><line style="stroke:#181818;stroke-width:0.4000000000000001;stroke-dasharray:5.0,5.0;" x1="85.2" x2="85.2" y1="28.5125" y2="272.7"/><line style="stroke:#181818;stroke-width:0.4000000000000001;stroke-dasharray:5.0,5.0;" x1="286" x2="286" y1="28.5125" y2="272.7"/><line style="stroke:#181818;stroke-width:0.4000000000000001;stroke-dasharray:5.0,5.0;" x1="480.4" x2="480.4" y1="28.5125" y2="272.7"/><line style="stroke:#181818;stroke-width:0.4000000000000001;stroke-dasharray:5.0,5.0;" x1="622.4" x2="622.4" y1="28.5125" y2="272.7"/><line style="stroke:#181818;stroke-width:0.4000000000000001;stroke-dasharray:5.0,5.0;" x1="696" x2="696" y1="28.5125" y2="272.7"/><rect fill="#E2E2F0" height="23.7125" rx="2" ry="2" style="stroke:#181818;stroke-width:0.4000000000000001;" width="61.6" x="54.8" y="4"/><text fill="#000000" font-family="sans-serif" font-size="11.2" lengthAdjust="spacing" textLength="50.4" x="60.4" y="19.7391">:Template</text><rect fill="#E2E2F0" height="23.7125" rx="2" ry="2" style="stroke:#181818;stroke-width:0.4000000000000001;" width="61.6" x="54.8" y="271.9"/><text fill="#000000" font-family="sans-serif" font-size="11.2" lengthAdjust="spacing" textLength="50.4" x="60.4" y="287.6391">:Template</text><rect fill="#E2E2F0" height="23.7125" rx="2" ry="2" style="stroke:#181818;stroke-width:0.4000000000000001;" width="69.6" x="251.6" y="4"/><text fill="#000000" font-family="sans-serif" font-size="11.2" lengthAdjust="spacing" textLength="58.4" x="257.2" y="19.7391">Component</text><rect fill="#E2E2F0" height="23.7125" rx="2" ry="2" style="stroke:#181818;stroke-width:0.4000000000000001;" width="69.6" x="251.6" y="271.9"/><text fill="#000000" font-family="sans-serif" font-size="11.2" lengthAdjust="spacing" textLength="58.4" x="257.2" y="287.6391">Component</text><rect fill="#E2E2F0" height="23.7125" rx="2" ry="2" style="stroke:#181818;stroke-width:0.4000000000000001;" width="52" x="454.8" y="4"/><text fill="#000000" font-family="sans-serif" font-size="11.2" lengthAdjust="spacing" textLength="40.8" x="460.4" y="19.7391">:Service</text><rect fill="#E2E2F0" height="23.7125" rx="2" ry="2" style="stroke:#181818;stroke-width:0.4000000000000001;" width="52" x="454.8" y="271.9"/><text fill="#000000" font-family="sans-serif" font-size="11.2" lengthAdjust="spacing" textLength="40.8" x="460.4" y="287.6391">:Service</text><rect fill="#E2E2F0" height="23.7125" rx="2" ry="2" style="stroke:#181818;stroke-width:0.4000000000000001;" width="54.4" x="595.2" y="4"/><text fill="#000000" font-family="sans-serif" font-size="11.2" lengthAdjust="spacing" textLength="43.2" x="600.8" y="19.7391">:Building</text><rect fill="#E2E2F0" height="23.7125" rx="2" ry="2" style="stroke:#181818;stroke-width:0.4000000000000001;" width="54.4" x="595.2" y="271.9"/><text fill="#000000" font-family="sans-serif" font-size="11.2" lengthAdjust="spacing" textLength="43.2" x="600.8" y="287.6391">:Building</text><rect fill="#E2E2F0" height="23.7125" rx="2" ry="2" style="stroke:#181818;stroke-width:0.4000000000000001;" width="76.8" x="657.6" y="4"/><text fill="#000000" font-family="sans-serif" font-size="11.2" lengthAdjust="spacing" textLength="65.6" x="663.2" y="19.7391">:HTTP Driver</text><rect fill="#E2E2F0" height="23.7125" rx="2" ry="2" style="stroke:#181818;stroke-width:0.4000000000000001;" width="76.8" x="657.6" y="271.9"/><text fill="#000000" font-family="sans-serif" font-size="11.2" lengthAdjust="spacing" textLength="65.6" x="663.2" y="287.6391">:HTTP Driver</text><rect fill="#FFFFFF" height="205.3688" style="stroke:#181818;stroke-width:0.8000000000000002;" width="8" x="81.6" y="52.9313"/><rect fill="#FFFFFF" height="159.7313" style="stroke:#181818;stroke-width:0.8000000000000002;" width="8" x="282.4" y="75.75"/><rect fill="#FFFFFF" height="114.0938" style="stroke:#181818;stroke-width:0.8000000000000002;" width="8" x="476.8" y="98.5688"/><rect fill="#FFFFFF" height="45.6375" style="stroke:#181818;stroke-width:0.8000000000000002;" width="8" x="692" y="121.3875"/><ellipse cx="10.8" cy="52.3313" fill="none" rx="3.2" ry="3.2" style="stroke:#181818;stroke-width:1.2000000000000002;"/><polygon fill="#181818" points="72,49.7313,80,52.9313,72,56.1313,75.2,52.9313" style="stroke:#181818;stroke-width:0.8000000000000002;"/><line style="stroke:#181818;stroke-width:0.8000000000000002;" x1="14.4" x2="76.8" y1="52.9313" y2="52.9313"/><text fill="#000000" font-family="sans-serif" font-size="10.4" font-weight="bold" lengthAdjust="spacing" textLength="5.6" x="16.8" y="49.1273">1</text><text fill="#000000" font-family="sans-serif" font-size="10.4" lengthAdjust="spacing" textLength="44" x="25.6" y="49.1273">/buildings</text><polygon fill="#181818" points="272.8,72.55,280.8,75.75,272.8,78.95,276,75.75" style="stroke:#181818;stroke-width:0.8000000000000002;"/><line style="stroke:#181818;stroke-width:0.8000000000000002;" x1="89.6" x2="277.6" y1="75.75" y2="75.75"/><text fill="#000000" font-family="sans-serif" font-size="10.4" font-weight="bold" lengthAdjust="spacing" textLength="5.6" x="95.2" y="71.9461">2</text><text fill="#000000" font-family="sans-serif" font-size="10.4" lengthAdjust="spacing" textLength="168.8" x="104" y="71.9461">/buildings/listBuildingsMaxMinFloors</text><polygon fill="#181818" points="467.2,95.3688,475.2,98.5688,467.2,101.7688,470.4,98.5688" style="stroke:#181818;stroke-width:0.8000000000000002;"/><line style="stroke:#181818;stroke-width:0.8000000000000002;" x1="290.4" x2="472" y1="98.5688" y2="98.5688"/><text fill="#000000" font-family="sans-serif" font-size="10.4" font-weight="bold" lengthAdjust="spacing" textLength="5.6" x="296" y="94.7648">3</text><text fill="#000000" font-family="sans-serif" font-size="10.4" lengthAdjust="spacing" textLength="162.4" x="304.8" y="94.7648">listBuildingMaxMinFloors(max,min)</text><polygon fill="#181818" points="682.4,118.1875,690.4,121.3875,682.4,124.5875,685.6,121.3875" style="stroke:#181818;stroke-width:0.8000000000000002;"/><line style="stroke:#181818;stroke-width:0.8000000000000002;" x1="484.8" x2="687.2" y1="121.3875" y2="121.3875"/><text fill="#000000" font-family="sans-serif" font-size="10.4" font-weight="bold" lengthAdjust="spacing" textLength="5.6" x="490.4" y="117.5836">4</text><text fill="#000000" font-family="sans-serif" font-size="10.4" lengthAdjust="spacing" textLength="35.2" x="499.2" y="117.5836">http get</text><polygon fill="#181818" points="739.2,141.0063,747.2,144.2063,739.2,147.4063,742.4,144.2063" style="stroke:#181818;stroke-width:0.8000000000000002;"/><line style="stroke:#181818;stroke-width:0.8000000000000002;" x1="700" x2="744" y1="144.2063" y2="144.2063"/><text fill="#000000" font-family="sans-serif" font-size="10.4" font-weight="bold" lengthAdjust="spacing" textLength="5.6" x="705.6" y="140.4023">5</text><text fill="#000000" font-family="sans-serif" font-size="10.4" lengthAdjust="spacing" textLength="20.8" x="714.4" y="140.4023">GET</text><polygon fill="#181818" points="493.6,163.825,485.6,167.025,493.6,170.225,490.4,167.025" style="stroke:#181818;stroke-width:0.8000000000000002;"/><line style="stroke:#181818;stroke-width:0.8000000000000002;stroke-dasharray:2.0,2.0;" x1="488.8" x2="695.2" y1="167.025" y2="167.025"/><text fill="#000000" font-family="sans-serif" font-size="10.4" font-weight="bold" lengthAdjust="spacing" textLength="5.6" x="498.4" y="163.2211">6</text><text fill="#000000" font-family="sans-serif" font-size="10.4" lengthAdjust="spacing" textLength="52" x="507.2" y="163.2211">building list</text><polygon fill="#181818" points="612.8,186.6438,620.8,189.8438,612.8,193.0438,616,189.8438" style="stroke:#181818;stroke-width:0.8000000000000002;"/><line style="stroke:#181818;stroke-width:0.8000000000000002;" x1="484.8" x2="617.6" y1="189.8438" y2="189.8438"/><text fill="#000000" font-family="sans-serif" font-size="10.4" font-weight="bold" lengthAdjust="spacing" textLength="5.6" x="490.4" y="186.0398">7</text><text fill="#000000" font-family="sans-serif" font-size="10.4" lengthAdjust="spacing" textLength="109.6" x="499.2" y="186.0398">Parse JSON to Building</text><polygon fill="#181818" points="299.2,209.4625,291.2,212.6625,299.2,215.8625,296,212.6625" style="stroke:#181818;stroke-width:0.8000000000000002;"/><line style="stroke:#181818;stroke-width:0.8000000000000002;stroke-dasharray:2.0,2.0;" x1="294.4" x2="480" y1="212.6625" y2="212.6625"/><text fill="#000000" font-family="sans-serif" font-size="10.4" font-weight="bold" lengthAdjust="spacing" textLength="5.6" x="304" y="208.8586">8</text><text fill="#000000" font-family="sans-serif" font-size="10.4" lengthAdjust="spacing" textLength="52" x="312.8" y="208.8586">building list</text><polygon fill="#181818" points="98.4,232.2813,90.4,235.4813,98.4,238.6813,95.2,235.4813" style="stroke:#181818;stroke-width:0.8000000000000002;"/><line style="stroke:#181818;stroke-width:0.8000000000000002;stroke-dasharray:2.0,2.0;" x1="93.6" x2="285.6" y1="235.4813" y2="235.4813"/><text fill="#000000" font-family="sans-serif" font-size="10.4" font-weight="bold" lengthAdjust="spacing" textLength="5.6" x="103.2" y="231.6773">9</text><text fill="#000000" font-family="sans-serif" font-size="10.4" lengthAdjust="spacing" textLength="52" x="112" y="231.6773">building list</text><polygon fill="#181818" points="8.8,255.1,0.8,258.3,8.8,261.5,5.6,258.3" style="stroke:#181818;stroke-width:0.8000000000000002;"/><line style="stroke:#181818;stroke-width:0.8000000000000002;stroke-dasharray:2.0,2.0;" x1="4" x2="84.8" y1="258.3" y2="258.3"/><text fill="#000000" font-family="sans-serif" font-size="10.4" font-weight="bold" lengthAdjust="spacing" textLength="11.2" x="13.6" y="254.4961">10</text><text fill="#000000" font-family="sans-serif" font-size="10.4" lengthAdjust="spacing" textLength="52" x="28" y="254.4961">building list</text><!--SRC=[TLBBQiCm4BphAvQSKgZ9NPGK-Wm5ju7u1nHxIGNM0qas-VpAgcJ91jzsnUpipApOu9GSn1KD8KGputZBDPCEThH1eNlcS0VCGceMc5Sbj9BeAu-OcnND1St8st-MMAyGBmFlEovl0LAh3liLuDGqPtWpV4GJC5DFoBEgZaaMXSCribZ2MiT7_vX5arH1TSn2ow53pwrBGcpDxZMN7xrIfg3B3absxWcZAmebHqcn5-p-ABXyo5mf2HABYMUoHU7NEGqtT1aRx8OCF8Z2vtiJkt9tSX94a0wNq-MQa325CpCMuUloymrEGPBjVq76BiBQN31RAKBna_DfDWUBF9-gAfzoSo3Vymy0]--></g></svg>