<?xml version="1.0" encoding="UTF-8" standalone="no"?><svg xmlns="http://www.w3.org/2000/svg" xmlns:xlink="http://www.w3.org/1999/xlink" contentStyleType="text/css" height="697px" preserveAspectRatio="none" style="width:1158px;height:697px;background:#FFFFFF;" version="1.1" viewBox="0 0 1158 697" width="1158px" zoomAndPan="magnify"><defs/><g><g id="cluster_##2"><rect fill="#36827F" height="240" rx="2.5" ry="2.5" style="stroke:#181818;stroke-width:1.0;" width="635" x="517" y="15.6643"/></g><g id="cluster_##9"><rect fill="#9055A2" height="225" rx="2.5" ry="2.5" style="stroke:#181818;stroke-width:1.0;" width="749" x="7" y="466.6643"/></g><g id="cluster_##18"><rect fill="#D499B9" height="232.5" rx="2.5" ry="2.5" style="stroke:#181818;stroke-width:1.0;" width="398" x="95" y="15.6643"/></g><!--MD5=[8560f289a30852a9f75d64e53f926853]
class Building--><g id="elem_Building"><rect codeLine="6" fill="#F1F1F1" height="73.7969" id="Building" rx="2.5" ry="2.5" style="stroke:#181818;stroke-width:0.5;" width="82" x="740" y="31.6643"/><ellipse cx="755" cy="60.5628" fill="#ADD1B2" rx="11" ry="11" style="stroke:#181818;stroke-width:1.0;"/><path d="M757.7656,56.4378 Q757.9219,56.219 758.1094,56.1096 Q758.2969,56.0003 758.5156,56.0003 Q758.8906,56.0003 759.125,56.2659 Q759.3594,56.5159 759.3594,57.1253 L759.3594,58.5784 Q759.3594,59.1878 759.125,59.4534 Q758.8906,59.719 758.5156,59.719 Q758.1719,59.719 757.9688,59.5159 Q757.7656,59.3284 757.6563,58.8128 Q757.6094,58.4534 757.4219,58.2659 Q757.0938,57.8909 756.4844,57.6721 Q755.875,57.4534 755.25,57.4534 Q754.4844,57.4534 753.8438,57.7815 Q753.2188,58.1096 752.7188,58.8596 Q752.2344,59.6096 752.2344,60.6409 L752.2344,61.7346 Q752.2344,62.969 753.125,63.7971 Q754.0156,64.6096 755.6094,64.6096 Q756.5469,64.6096 757.2031,64.3596 Q757.5938,64.2034 758.0156,63.7659 Q758.2813,63.5003 758.4219,63.4221 Q758.5781,63.344 758.7813,63.344 Q759.1094,63.344 759.3594,63.6096 Q759.625,63.8596 759.625,64.2034 Q759.625,64.5471 759.2813,64.9534 Q758.7813,65.5315 757.9844,65.8596 Q756.9063,66.3128 755.6094,66.3128 Q754.0938,66.3128 752.8906,65.6878 Q751.9063,65.1878 751.2188,64.1253 Q750.5313,63.0471 750.5313,61.7659 L750.5313,60.6096 Q750.5313,59.2815 751.1406,58.1409 Q751.7656,56.9846 752.8594,56.3753 Q753.9531,55.7503 755.1875,55.7503 Q755.9219,55.7503 756.5625,55.9221 Q757.2188,56.0784 757.7656,56.4378 Z " fill="#000000"/><text fill="#000000" font-family="sans-serif" font-size="12" font-style="italic" lengthAdjust="spacing" textLength="40" x="774" y="49.1214">«Root»</text><text fill="#000000" font-family="sans-serif" font-size="12" font-style="italic" lengthAdjust="spacing" textLength="44" x="772" y="64.2151">«Entity»</text><text fill="#000000" font-family="sans-serif" font-size="14" lengthAdjust="spacing" textLength="50" x="769" y="81.385">Building</text><line style="stroke:#181818;stroke-width:0.5;" x1="741" x2="821" y1="89.4612" y2="89.4612"/><line style="stroke:#181818;stroke-width:0.5;" x1="741" x2="821" y1="97.4612" y2="97.4612"/></g><!--MD5=[c0b459e78c8de4b6fd0153dde2bd0f96]
class BuildingDescription--><g id="elem_BuildingDescription"><rect codeLine="7" fill="#F1F1F1" height="58.7031" id="BuildingDescription" rx="2.5" ry="2.5" style="stroke:#181818;stroke-width:0.5;" width="153" x="533.5" y="173.1643"/><ellipse cx="548.5" cy="194.5159" fill="#A4C2E5" rx="11" ry="11" style="stroke:#181818;stroke-width:1.0;"/><path d="M549.1094,197.4534 L550.9531,193.6878 Q550.2656,193.6878 550.0781,193.5628 Q549.6563,193.3128 549.6563,192.8284 Q549.6563,192.4534 549.9219,192.219 Q550.1875,191.9846 550.7969,191.9846 L553.125,191.9846 Q553.75,191.9846 554,192.219 Q554.2656,192.4534 554.2656,192.8284 Q554.2656,193.2034 554,193.4534 Q553.75,193.6878 553.125,193.6878 L552.8438,193.6878 L550,199.5159 L548.2188,199.5159 L545.375,193.6878 L545.1406,193.6878 Q544.5156,193.6878 544.25,193.4534 Q544,193.2034 544,192.8284 Q544,192.4534 544.25,192.219 Q544.5156,191.9846 545.1406,191.9846 L547.4219,191.9846 Q548.0313,191.9846 548.2813,192.219 Q548.5469,192.4534 548.5469,192.8284 Q548.5469,193.3128 548.1563,193.5628 Q547.9531,193.6878 547.2656,193.6878 L549.1094,197.4534 Z " fill="#000000"/><text fill="#000000" font-family="sans-serif" font-size="12" font-style="italic" lengthAdjust="spacing" textLength="82" x="582" y="190.6214">«ValueObject»</text><text fill="#000000" font-family="sans-serif" font-size="14" lengthAdjust="spacing" textLength="121" x="562.5" y="207.7913">BuildingDescription</text><line style="stroke:#181818;stroke-width:0.5;" x1="534.5" x2="685.5" y1="215.8674" y2="215.8674"/><line style="stroke:#181818;stroke-width:0.5;" x1="534.5" x2="685.5" y1="223.8674" y2="223.8674"/></g><!--MD5=[454d980de7ec19c426bfaad009ef01a6]
class BuildingName--><g id="elem_BuildingName"><rect codeLine="8" fill="#F1F1F1" height="58.7031" id="BuildingName" rx="2.5" ry="2.5" style="stroke:#181818;stroke-width:0.5;" width="118" x="722" y="173.1643"/><ellipse cx="737" cy="194.5159" fill="#A4C2E5" rx="11" ry="11" style="stroke:#181818;stroke-width:1.0;"/><path d="M737.6094,197.4534 L739.4531,193.6878 Q738.7656,193.6878 738.5781,193.5628 Q738.1563,193.3128 738.1563,192.8284 Q738.1563,192.4534 738.4219,192.219 Q738.6875,191.9846 739.2969,191.9846 L741.625,191.9846 Q742.25,191.9846 742.5,192.219 Q742.7656,192.4534 742.7656,192.8284 Q742.7656,193.2034 742.5,193.4534 Q742.25,193.6878 741.625,193.6878 L741.3438,193.6878 L738.5,199.5159 L736.7188,199.5159 L733.875,193.6878 L733.6406,193.6878 Q733.0156,193.6878 732.75,193.4534 Q732.5,193.2034 732.5,192.8284 Q732.5,192.4534 732.75,192.219 Q733.0156,191.9846 733.6406,191.9846 L735.9219,191.9846 Q736.5313,191.9846 736.7813,192.219 Q737.0469,192.4534 737.0469,192.8284 Q737.0469,193.3128 736.6563,193.5628 Q736.4531,193.6878 735.7656,193.6878 L737.6094,197.4534 Z " fill="#000000"/><text fill="#000000" font-family="sans-serif" font-size="12" font-style="italic" lengthAdjust="spacing" textLength="82" x="753" y="190.6214">«ValueObject»</text><text fill="#000000" font-family="sans-serif" font-size="14" lengthAdjust="spacing" textLength="86" x="751" y="207.7913">BuildingName</text><line style="stroke:#181818;stroke-width:0.5;" x1="723" x2="839" y1="215.8674" y2="215.8674"/><line style="stroke:#181818;stroke-width:0.5;" x1="723" x2="839" y1="223.8674" y2="223.8674"/></g><!--MD5=[0887aee07bf8783a414287ff6a6b8165]
class BuildingCode--><g id="elem_BuildingCode"><rect codeLine="9" fill="#F1F1F1" height="73.7969" id="BuildingCode" rx="2.5" ry="2.5" style="stroke:#181818;stroke-width:0.5;" width="116" x="875" y="165.6643"/><ellipse cx="890" cy="194.5628" fill="#FFA500" rx="11" ry="11" style="stroke:#181818;stroke-width:1.0;"/><path d="M890.6094,197.5003 L892.4531,193.7346 Q891.7656,193.7346 891.5781,193.6096 Q891.1563,193.3596 891.1563,192.8753 Q891.1563,192.5003 891.4219,192.2659 Q891.6875,192.0315 892.2969,192.0315 L894.625,192.0315 Q895.25,192.0315 895.5,192.2659 Q895.7656,192.5003 895.7656,192.8753 Q895.7656,193.2503 895.5,193.5003 Q895.25,193.7346 894.625,193.7346 L894.3438,193.7346 L891.5,199.5628 L889.7188,199.5628 L886.875,193.7346 L886.6406,193.7346 Q886.0156,193.7346 885.75,193.5003 Q885.5,193.2503 885.5,192.8753 Q885.5,192.5003 885.75,192.2659 Q886.0156,192.0315 886.6406,192.0315 L888.9219,192.0315 Q889.5313,192.0315 889.7813,192.2659 Q890.0469,192.5003 890.0469,192.8753 Q890.0469,193.3596 889.6563,193.6096 Q889.4531,193.7346 888.7656,193.7346 L890.6094,197.5003 Z " fill="#000000"/><text fill="#000000" font-family="sans-serif" font-size="12" font-style="italic" lengthAdjust="spacing" textLength="82" x="905" y="183.1214">«ValueObject»</text><text fill="#000000" font-family="sans-serif" font-size="12" font-style="italic" lengthAdjust="spacing" textLength="52" x="920" y="198.2151">«unique»</text><text fill="#000000" font-family="sans-serif" font-size="14" lengthAdjust="spacing" textLength="84" x="904" y="215.385">BuildingCode</text><line style="stroke:#181818;stroke-width:0.5;" x1="876" x2="990" y1="223.4612" y2="223.4612"/><line style="stroke:#181818;stroke-width:0.5;" x1="876" x2="990" y1="231.4612" y2="231.4612"/></g><!--MD5=[41117c0a9b32e7155a3e04d41b096064]
class BuildingSize--><g id="elem_BuildingSize"><rect codeLine="10" fill="#F1F1F1" height="58.7031" id="BuildingSize" rx="2.5" ry="2.5" style="stroke:#181818;stroke-width:0.5;" width="110" x="1026" y="173.1643"/><ellipse cx="1041" cy="194.5159" fill="#A4C2E5" rx="11" ry="11" style="stroke:#181818;stroke-width:1.0;"/><path d="M1041.6094,197.4534 L1043.4531,193.6878 Q1042.7656,193.6878 1042.5781,193.5628 Q1042.1563,193.3128 1042.1563,192.8284 Q1042.1563,192.4534 1042.4219,192.219 Q1042.6875,191.9846 1043.2969,191.9846 L1045.625,191.9846 Q1046.25,191.9846 1046.5,192.219 Q1046.7656,192.4534 1046.7656,192.8284 Q1046.7656,193.2034 1046.5,193.4534 Q1046.25,193.6878 1045.625,193.6878 L1045.3438,193.6878 L1042.5,199.5159 L1040.7188,199.5159 L1037.875,193.6878 L1037.6406,193.6878 Q1037.0156,193.6878 1036.75,193.4534 Q1036.5,193.2034 1036.5,192.8284 Q1036.5,192.4534 1036.75,192.219 Q1037.0156,191.9846 1037.6406,191.9846 L1039.9219,191.9846 Q1040.5313,191.9846 1040.7813,192.219 Q1041.0469,192.4534 1041.0469,192.8284 Q1041.0469,193.3128 1040.6563,193.5628 Q1040.4531,193.6878 1039.7656,193.6878 L1041.6094,197.4534 Z " fill="#000000"/><text fill="#000000" font-family="sans-serif" font-size="12" font-style="italic" lengthAdjust="spacing" textLength="82" x="1053" y="190.6214">«ValueObject»</text><text fill="#000000" font-family="sans-serif" font-size="14" lengthAdjust="spacing" textLength="76" x="1056" y="207.7913">BuildingSize</text><line style="stroke:#181818;stroke-width:0.5;" x1="1027" x2="1135" y1="215.8674" y2="215.8674"/><line style="stroke:#181818;stroke-width:0.5;" x1="1027" x2="1135" y1="223.8674" y2="223.8674"/></g><!--MD5=[93e485d66e62470c0e68a81214641dfb]
class Elevator--><g id="elem_Elevator"><rect codeLine="15" fill="#F1F1F1" height="73.7969" id="Elevator" rx="2.5" ry="2.5" style="stroke:#181818;stroke-width:0.5;" width="84" x="286" y="482.6643"/><ellipse cx="301" cy="511.5628" fill="#ADD1B2" rx="11" ry="11" style="stroke:#181818;stroke-width:1.0;"/><path d="M303.7656,507.4378 Q303.9219,507.219 304.1094,507.1096 Q304.2969,507.0003 304.5156,507.0003 Q304.8906,507.0003 305.125,507.2659 Q305.3594,507.5159 305.3594,508.1253 L305.3594,509.5784 Q305.3594,510.1878 305.125,510.4534 Q304.8906,510.719 304.5156,510.719 Q304.1719,510.719 303.9688,510.5159 Q303.7656,510.3284 303.6563,509.8128 Q303.6094,509.4534 303.4219,509.2659 Q303.0938,508.8909 302.4844,508.6721 Q301.875,508.4534 301.25,508.4534 Q300.4844,508.4534 299.8438,508.7815 Q299.2188,509.1096 298.7188,509.8596 Q298.2344,510.6096 298.2344,511.6409 L298.2344,512.7346 Q298.2344,513.969 299.125,514.7971 Q300.0156,515.6096 301.6094,515.6096 Q302.5469,515.6096 303.2031,515.3596 Q303.5938,515.2034 304.0156,514.7659 Q304.2813,514.5003 304.4219,514.4221 Q304.5781,514.344 304.7813,514.344 Q305.1094,514.344 305.3594,514.6096 Q305.625,514.8596 305.625,515.2034 Q305.625,515.5471 305.2813,515.9534 Q304.7813,516.5315 303.9844,516.8596 Q302.9063,517.3128 301.6094,517.3128 Q300.0938,517.3128 298.8906,516.6878 Q297.9063,516.1878 297.2188,515.1253 Q296.5313,514.0471 296.5313,512.7659 L296.5313,511.6096 Q296.5313,510.2815 297.1406,509.1409 Q297.7656,507.9846 298.8594,507.3753 Q299.9531,506.7503 301.1875,506.7503 Q301.9219,506.7503 302.5625,506.9221 Q303.2188,507.0784 303.7656,507.4378 Z " fill="#000000"/><text fill="#000000" font-family="sans-serif" font-size="12" font-style="italic" lengthAdjust="spacing" textLength="40" x="321" y="500.1214">«Root»</text><text fill="#000000" font-family="sans-serif" font-size="12" font-style="italic" lengthAdjust="spacing" textLength="44" x="319" y="515.2151">«Entity»</text><text fill="#000000" font-family="sans-serif" font-size="14" lengthAdjust="spacing" textLength="52" x="315" y="532.385">Elevator</text><line style="stroke:#181818;stroke-width:0.5;" x1="287" x2="369" y1="540.4612" y2="540.4612"/><line style="stroke:#181818;stroke-width:0.5;" x1="287" x2="369" y1="548.4612" y2="548.4612"/></g><!--MD5=[56b594fb27fe9603a97c0849bdd81f4e]
class ElevatorId--><g id="elem_ElevatorId"><rect codeLine="16" fill="#F1F1F1" height="73.7969" id="ElevatorId" rx="2.5" ry="2.5" style="stroke:#181818;stroke-width:0.5;" width="110" x="141" y="482.6643"/><ellipse cx="156" cy="511.5628" fill="#FFA500" rx="11" ry="11" style="stroke:#181818;stroke-width:1.0;"/><path d="M156.6094,514.5003 L158.4531,510.7346 Q157.7656,510.7346 157.5781,510.6096 Q157.1563,510.3596 157.1563,509.8753 Q157.1563,509.5003 157.4219,509.2659 Q157.6875,509.0315 158.2969,509.0315 L160.625,509.0315 Q161.25,509.0315 161.5,509.2659 Q161.7656,509.5003 161.7656,509.8753 Q161.7656,510.2503 161.5,510.5003 Q161.25,510.7346 160.625,510.7346 L160.3438,510.7346 L157.5,516.5628 L155.7188,516.5628 L152.875,510.7346 L152.6406,510.7346 Q152.0156,510.7346 151.75,510.5003 Q151.5,510.2503 151.5,509.8753 Q151.5,509.5003 151.75,509.2659 Q152.0156,509.0315 152.6406,509.0315 L154.9219,509.0315 Q155.5313,509.0315 155.7813,509.2659 Q156.0469,509.5003 156.0469,509.8753 Q156.0469,510.3596 155.6563,510.6096 Q155.4531,510.7346 154.7656,510.7346 L156.6094,514.5003 Z " fill="#000000"/><text fill="#000000" font-family="sans-serif" font-size="12" font-style="italic" lengthAdjust="spacing" textLength="82" x="168" y="500.1214">«ValueObject»</text><text fill="#000000" font-family="sans-serif" font-size="12" font-style="italic" lengthAdjust="spacing" textLength="52" x="183" y="515.2151">«unique»</text><text fill="#000000" font-family="sans-serif" font-size="14" lengthAdjust="spacing" textLength="63" x="177.5" y="532.385">ElevatorId</text><line style="stroke:#181818;stroke-width:0.5;" x1="142" x2="250" y1="540.4612" y2="540.4612"/><line style="stroke:#181818;stroke-width:0.5;" x1="142" x2="250" y1="548.4612" y2="548.4612"/></g><!--MD5=[a262cbb4d718406cf1d8fcf1b6951b2a]
class ElevatorBrand--><g id="elem_ElevatorBrand"><rect codeLine="17" fill="#F1F1F1" height="58.7031" id="ElevatorBrand" rx="2.5" ry="2.5" style="stroke:#181818;stroke-width:0.5;" width="122" x="23" y="616.6643"/><ellipse cx="38" cy="638.0159" fill="#A4C2E5" rx="11" ry="11" style="stroke:#181818;stroke-width:1.0;"/><path d="M38.6094,640.9534 L40.4531,637.1878 Q39.7656,637.1878 39.5781,637.0628 Q39.1563,636.8128 39.1563,636.3284 Q39.1563,635.9534 39.4219,635.719 Q39.6875,635.4846 40.2969,635.4846 L42.625,635.4846 Q43.25,635.4846 43.5,635.719 Q43.7656,635.9534 43.7656,636.3284 Q43.7656,636.7034 43.5,636.9534 Q43.25,637.1878 42.625,637.1878 L42.3438,637.1878 L39.5,643.0159 L37.7188,643.0159 L34.875,637.1878 L34.6406,637.1878 Q34.0156,637.1878 33.75,636.9534 Q33.5,636.7034 33.5,636.3284 Q33.5,635.9534 33.75,635.719 Q34.0156,635.4846 34.6406,635.4846 L36.9219,635.4846 Q37.5313,635.4846 37.7813,635.719 Q38.0469,635.9534 38.0469,636.3284 Q38.0469,636.8128 37.6563,637.0628 Q37.4531,637.1878 36.7656,637.1878 L38.6094,640.9534 Z " fill="#000000"/><text fill="#000000" font-family="sans-serif" font-size="12" font-style="italic" lengthAdjust="spacing" textLength="82" x="56" y="634.1214">«ValueObject»</text><text fill="#000000" font-family="sans-serif" font-size="14" lengthAdjust="spacing" textLength="90" x="52" y="651.2913">ElevatorBrand</text><line style="stroke:#181818;stroke-width:0.5;" x1="24" x2="144" y1="659.3674" y2="659.3674"/><line style="stroke:#181818;stroke-width:0.5;" x1="24" x2="144" y1="667.3674" y2="667.3674"/></g><!--MD5=[6320bfdac33a8f9a01d3c7078dc2b450]
class ElevatorModel--><g id="elem_ElevatorModel"><rect codeLine="18" fill="#F1F1F1" height="58.7031" id="ElevatorModel" rx="2.5" ry="2.5" style="stroke:#181818;stroke-width:0.5;" width="122" x="180" y="616.6643"/><ellipse cx="195" cy="638.0159" fill="#A4C2E5" rx="11" ry="11" style="stroke:#181818;stroke-width:1.0;"/><path d="M195.6094,640.9534 L197.4531,637.1878 Q196.7656,637.1878 196.5781,637.0628 Q196.1563,636.8128 196.1563,636.3284 Q196.1563,635.9534 196.4219,635.719 Q196.6875,635.4846 197.2969,635.4846 L199.625,635.4846 Q200.25,635.4846 200.5,635.719 Q200.7656,635.9534 200.7656,636.3284 Q200.7656,636.7034 200.5,636.9534 Q200.25,637.1878 199.625,637.1878 L199.3438,637.1878 L196.5,643.0159 L194.7188,643.0159 L191.875,637.1878 L191.6406,637.1878 Q191.0156,637.1878 190.75,636.9534 Q190.5,636.7034 190.5,636.3284 Q190.5,635.9534 190.75,635.719 Q191.0156,635.4846 191.6406,635.4846 L193.9219,635.4846 Q194.5313,635.4846 194.7813,635.719 Q195.0469,635.9534 195.0469,636.3284 Q195.0469,636.8128 194.6563,637.0628 Q194.4531,637.1878 193.7656,637.1878 L195.6094,640.9534 Z " fill="#000000"/><text fill="#000000" font-family="sans-serif" font-size="12" font-style="italic" lengthAdjust="spacing" textLength="82" x="213" y="634.1214">«ValueObject»</text><text fill="#000000" font-family="sans-serif" font-size="14" lengthAdjust="spacing" textLength="90" x="209" y="651.2913">ElevatorModel</text><line style="stroke:#181818;stroke-width:0.5;" x1="181" x2="301" y1="659.3674" y2="659.3674"/><line style="stroke:#181818;stroke-width:0.5;" x1="181" x2="301" y1="667.3674" y2="667.3674"/></g><!--MD5=[247ab78a93ad9f8af77089acb149609f]
class ElevatorDescription--><g id="elem_ElevatorDescription"><rect codeLine="19" fill="#F1F1F1" height="58.7031" id="ElevatorDescription" rx="2.5" ry="2.5" style="stroke:#181818;stroke-width:0.5;" width="155" x="337.5" y="616.6643"/><ellipse cx="352.5" cy="638.0159" fill="#A4C2E5" rx="11" ry="11" style="stroke:#181818;stroke-width:1.0;"/><path d="M353.1094,640.9534 L354.9531,637.1878 Q354.2656,637.1878 354.0781,637.0628 Q353.6563,636.8128 353.6563,636.3284 Q353.6563,635.9534 353.9219,635.719 Q354.1875,635.4846 354.7969,635.4846 L357.125,635.4846 Q357.75,635.4846 358,635.719 Q358.2656,635.9534 358.2656,636.3284 Q358.2656,636.7034 358,636.9534 Q357.75,637.1878 357.125,637.1878 L356.8438,637.1878 L354,643.0159 L352.2188,643.0159 L349.375,637.1878 L349.1406,637.1878 Q348.5156,637.1878 348.25,636.9534 Q348,636.7034 348,636.3284 Q348,635.9534 348.25,635.719 Q348.5156,635.4846 349.1406,635.4846 L351.4219,635.4846 Q352.0313,635.4846 352.2813,635.719 Q352.5469,635.9534 352.5469,636.3284 Q352.5469,636.8128 352.1563,637.0628 Q351.9531,637.1878 351.2656,637.1878 L353.1094,640.9534 Z " fill="#000000"/><text fill="#000000" font-family="sans-serif" font-size="12" font-style="italic" lengthAdjust="spacing" textLength="82" x="387" y="634.1214">«ValueObject»</text><text fill="#000000" font-family="sans-serif" font-size="14" lengthAdjust="spacing" textLength="123" x="366.5" y="651.2913">ElevatorDescription</text><line style="stroke:#181818;stroke-width:0.5;" x1="338.5" x2="491.5" y1="659.3674" y2="659.3674"/><line style="stroke:#181818;stroke-width:0.5;" x1="338.5" x2="491.5" y1="667.3674" y2="667.3674"/></g><!--MD5=[3eddac29bf39cb1fca48dddc38d62a32]
class ElevatorIdentificationNumber--><g id="elem_ElevatorIdentificationNumber"><rect codeLine="20" fill="#F1F1F1" height="58.7031" id="ElevatorIdentificationNumber" rx="2.5" ry="2.5" style="stroke:#181818;stroke-width:0.5;" width="212" x="528" y="616.6643"/><ellipse cx="543" cy="638.0159" fill="#A4C2E5" rx="11" ry="11" style="stroke:#181818;stroke-width:1.0;"/><path d="M543.6094,640.9534 L545.4531,637.1878 Q544.7656,637.1878 544.5781,637.0628 Q544.1563,636.8128 544.1563,636.3284 Q544.1563,635.9534 544.4219,635.719 Q544.6875,635.4846 545.2969,635.4846 L547.625,635.4846 Q548.25,635.4846 548.5,635.719 Q548.7656,635.9534 548.7656,636.3284 Q548.7656,636.7034 548.5,636.9534 Q548.25,637.1878 547.625,637.1878 L547.3438,637.1878 L544.5,643.0159 L542.7188,643.0159 L539.875,637.1878 L539.6406,637.1878 Q539.0156,637.1878 538.75,636.9534 Q538.5,636.7034 538.5,636.3284 Q538.5,635.9534 538.75,635.719 Q539.0156,635.4846 539.6406,635.4846 L541.9219,635.4846 Q542.5313,635.4846 542.7813,635.719 Q543.0469,635.9534 543.0469,636.3284 Q543.0469,636.8128 542.6563,637.0628 Q542.4531,637.1878 541.7656,637.1878 L543.6094,640.9534 Z " fill="#000000"/><text fill="#000000" font-family="sans-serif" font-size="12" font-style="italic" lengthAdjust="spacing" textLength="82" x="606" y="634.1214">«ValueObject»</text><text fill="#000000" font-family="sans-serif" font-size="14" lengthAdjust="spacing" textLength="180" x="557" y="651.2913">ElevatorIdentificationNumber</text><line style="stroke:#181818;stroke-width:0.5;" x1="529" x2="739" y1="659.3674" y2="659.3674"/><line style="stroke:#181818;stroke-width:0.5;" x1="529" x2="739" y1="667.3674" y2="667.3674"/></g><!--MD5=[96437848d5894db6560482223b0d6a95]
class ElevatorSerialNumber--><g id="elem_ElevatorSerialNumber"><rect codeLine="21" fill="#F1F1F1" height="58.7031" id="ElevatorSerialNumber" rx="2.5" ry="2.5" style="stroke:#181818;stroke-width:0.5;" width="169" x="405.5" y="490.1643"/><ellipse cx="420.5" cy="511.5159" fill="#A4C2E5" rx="11" ry="11" style="stroke:#181818;stroke-width:1.0;"/><path d="M421.1094,514.4534 L422.9531,510.6878 Q422.2656,510.6878 422.0781,510.5628 Q421.6563,510.3128 421.6563,509.8284 Q421.6563,509.4534 421.9219,509.219 Q422.1875,508.9846 422.7969,508.9846 L425.125,508.9846 Q425.75,508.9846 426,509.219 Q426.2656,509.4534 426.2656,509.8284 Q426.2656,510.2034 426,510.4534 Q425.75,510.6878 425.125,510.6878 L424.8438,510.6878 L422,516.5159 L420.2188,516.5159 L417.375,510.6878 L417.1406,510.6878 Q416.5156,510.6878 416.25,510.4534 Q416,510.2034 416,509.8284 Q416,509.4534 416.25,509.219 Q416.5156,508.9846 417.1406,508.9846 L419.4219,508.9846 Q420.0313,508.9846 420.2813,509.219 Q420.5469,509.4534 420.5469,509.8284 Q420.5469,510.3128 420.1563,510.5628 Q419.9531,510.6878 419.2656,510.6878 L421.1094,514.4534 Z " fill="#000000"/><text fill="#000000" font-family="sans-serif" font-size="12" font-style="italic" lengthAdjust="spacing" textLength="82" x="462" y="507.6214">«ValueObject»</text><text fill="#000000" font-family="sans-serif" font-size="14" lengthAdjust="spacing" textLength="137" x="434.5" y="524.7913">ElevatorSerialNumber</text><line style="stroke:#181818;stroke-width:0.5;" x1="406.5" x2="573.5" y1="532.8674" y2="532.8674"/><line style="stroke:#181818;stroke-width:0.5;" x1="406.5" x2="573.5" y1="540.8674" y2="540.8674"/></g><!--MD5=[b098efa4dd65edfeebe973e4edec7c36]
class Floor--><g id="elem_Floor"><rect codeLine="27" fill="#F1F1F1" height="73.7969" id="Floor" rx="2.5" ry="2.5" style="stroke:#181818;stroke-width:0.5;" width="72" x="260" y="31.6643"/><ellipse cx="275" cy="60.5628" fill="#ADD1B2" rx="11" ry="11" style="stroke:#181818;stroke-width:1.0;"/><path d="M277.7656,56.4378 Q277.9219,56.219 278.1094,56.1096 Q278.2969,56.0003 278.5156,56.0003 Q278.8906,56.0003 279.125,56.2659 Q279.3594,56.5159 279.3594,57.1253 L279.3594,58.5784 Q279.3594,59.1878 279.125,59.4534 Q278.8906,59.719 278.5156,59.719 Q278.1719,59.719 277.9688,59.5159 Q277.7656,59.3284 277.6563,58.8128 Q277.6094,58.4534 277.4219,58.2659 Q277.0938,57.8909 276.4844,57.6721 Q275.875,57.4534 275.25,57.4534 Q274.4844,57.4534 273.8438,57.7815 Q273.2188,58.1096 272.7188,58.8596 Q272.2344,59.6096 272.2344,60.6409 L272.2344,61.7346 Q272.2344,62.969 273.125,63.7971 Q274.0156,64.6096 275.6094,64.6096 Q276.5469,64.6096 277.2031,64.3596 Q277.5938,64.2034 278.0156,63.7659 Q278.2813,63.5003 278.4219,63.4221 Q278.5781,63.344 278.7813,63.344 Q279.1094,63.344 279.3594,63.6096 Q279.625,63.8596 279.625,64.2034 Q279.625,64.5471 279.2813,64.9534 Q278.7813,65.5315 277.9844,65.8596 Q276.9063,66.3128 275.6094,66.3128 Q274.0938,66.3128 272.8906,65.6878 Q271.9063,65.1878 271.2188,64.1253 Q270.5313,63.0471 270.5313,61.7659 L270.5313,60.6096 Q270.5313,59.2815 271.1406,58.1409 Q271.7656,56.9846 272.8594,56.3753 Q273.9531,55.7503 275.1875,55.7503 Q275.9219,55.7503 276.5625,55.9221 Q277.2188,56.0784 277.7656,56.4378 Z " fill="#000000"/><text fill="#000000" font-family="sans-serif" font-size="12" font-style="italic" lengthAdjust="spacing" textLength="40" x="289" y="49.1214">«Root»</text><text fill="#000000" font-family="sans-serif" font-size="12" font-style="italic" lengthAdjust="spacing" textLength="44" x="287" y="64.2151">«Entity»</text><text fill="#000000" font-family="sans-serif" font-size="14" lengthAdjust="spacing" textLength="33" x="292.5" y="81.385">Floor</text><line style="stroke:#181818;stroke-width:0.5;" x1="261" x2="331" y1="89.4612" y2="89.4612"/><line style="stroke:#181818;stroke-width:0.5;" x1="261" x2="331" y1="97.4612" y2="97.4612"/></g><!--MD5=[5edebea568145119ba5fc7a2a48342e5]
class FloorId--><g id="elem_FloorId"><rect codeLine="28" fill="#F1F1F1" height="73.7969" id="FloorId" rx="2.5" ry="2.5" style="stroke:#181818;stroke-width:0.5;" width="110" x="367" y="31.6643"/><ellipse cx="382" cy="60.5628" fill="#FFA500" rx="11" ry="11" style="stroke:#181818;stroke-width:1.0;"/><path d="M382.6094,63.5003 L384.4531,59.7346 Q383.7656,59.7346 383.5781,59.6096 Q383.1563,59.3596 383.1563,58.8753 Q383.1563,58.5003 383.4219,58.2659 Q383.6875,58.0315 384.2969,58.0315 L386.625,58.0315 Q387.25,58.0315 387.5,58.2659 Q387.7656,58.5003 387.7656,58.8753 Q387.7656,59.2503 387.5,59.5003 Q387.25,59.7346 386.625,59.7346 L386.3438,59.7346 L383.5,65.5628 L381.7188,65.5628 L378.875,59.7346 L378.6406,59.7346 Q378.0156,59.7346 377.75,59.5003 Q377.5,59.2503 377.5,58.8753 Q377.5,58.5003 377.75,58.2659 Q378.0156,58.0315 378.6406,58.0315 L380.9219,58.0315 Q381.5313,58.0315 381.7813,58.2659 Q382.0469,58.5003 382.0469,58.8753 Q382.0469,59.3596 381.6563,59.6096 Q381.4531,59.7346 380.7656,59.7346 L382.6094,63.5003 Z " fill="#000000"/><text fill="#000000" font-family="sans-serif" font-size="12" font-style="italic" lengthAdjust="spacing" textLength="82" x="394" y="49.1214">«ValueObject»</text><text fill="#000000" font-family="sans-serif" font-size="12" font-style="italic" lengthAdjust="spacing" textLength="52" x="409" y="64.2151">«unique»</text><text fill="#000000" font-family="sans-serif" font-size="14" lengthAdjust="spacing" textLength="44" x="413" y="81.385">FloorId</text><line style="stroke:#181818;stroke-width:0.5;" x1="368" x2="476" y1="89.4612" y2="89.4612"/><line style="stroke:#181818;stroke-width:0.5;" x1="368" x2="476" y1="97.4612" y2="97.4612"/></g><!--MD5=[29dff31a8712e2b8af2d5bbde5d24905]
class FloorDescription--><g id="elem_FloorDescription"><rect codeLine="29" fill="#F1F1F1" height="58.7031" id="FloorDescription" rx="2.5" ry="2.5" style="stroke:#181818;stroke-width:0.5;" width="136" x="111" y="173.1643"/><ellipse cx="126" cy="194.5159" fill="#A4C2E5" rx="11" ry="11" style="stroke:#181818;stroke-width:1.0;"/><path d="M126.6094,197.4534 L128.4531,193.6878 Q127.7656,193.6878 127.5781,193.5628 Q127.1563,193.3128 127.1563,192.8284 Q127.1563,192.4534 127.4219,192.219 Q127.6875,191.9846 128.2969,191.9846 L130.625,191.9846 Q131.25,191.9846 131.5,192.219 Q131.7656,192.4534 131.7656,192.8284 Q131.7656,193.2034 131.5,193.4534 Q131.25,193.6878 130.625,193.6878 L130.3438,193.6878 L127.5,199.5159 L125.7188,199.5159 L122.875,193.6878 L122.6406,193.6878 Q122.0156,193.6878 121.75,193.4534 Q121.5,193.2034 121.5,192.8284 Q121.5,192.4534 121.75,192.219 Q122.0156,191.9846 122.6406,191.9846 L124.9219,191.9846 Q125.5313,191.9846 125.7813,192.219 Q126.0469,192.4534 126.0469,192.8284 Q126.0469,193.3128 125.6563,193.5628 Q125.4531,193.6878 124.7656,193.6878 L126.6094,197.4534 Z " fill="#000000"/><text fill="#000000" font-family="sans-serif" font-size="12" font-style="italic" lengthAdjust="spacing" textLength="82" x="151" y="190.6214">«ValueObject»</text><text fill="#000000" font-family="sans-serif" font-size="14" lengthAdjust="spacing" textLength="104" x="140" y="207.7913">FloorDescription</text><line style="stroke:#181818;stroke-width:0.5;" x1="112" x2="246" y1="215.8674" y2="215.8674"/><line style="stroke:#181818;stroke-width:0.5;" x1="112" x2="246" y1="223.8674" y2="223.8674"/></g><!--MD5=[f0b6ff306d626678ada6234da29b66ba]
class FloorMap--><g id="elem_FloorMap"><rect codeLine="30" fill="#F1F1F1" height="58.7031" id="FloorMap" rx="2.5" ry="2.5" style="stroke:#181818;stroke-width:0.5;" width="92" x="282" y="173.1643"/><ellipse cx="297" cy="194.5159" fill="#ADD1B2" rx="11" ry="11" style="stroke:#181818;stroke-width:1.0;"/><path d="M299.7656,190.3909 Q299.9219,190.1721 300.1094,190.0628 Q300.2969,189.9534 300.5156,189.9534 Q300.8906,189.9534 301.125,190.219 Q301.3594,190.469 301.3594,191.0784 L301.3594,192.5315 Q301.3594,193.1409 301.125,193.4065 Q300.8906,193.6721 300.5156,193.6721 Q300.1719,193.6721 299.9688,193.469 Q299.7656,193.2815 299.6563,192.7659 Q299.6094,192.4065 299.4219,192.219 Q299.0938,191.844 298.4844,191.6253 Q297.875,191.4065 297.25,191.4065 Q296.4844,191.4065 295.8438,191.7346 Q295.2188,192.0628 294.7188,192.8128 Q294.2344,193.5628 294.2344,194.594 L294.2344,195.6878 Q294.2344,196.9221 295.125,197.7503 Q296.0156,198.5628 297.6094,198.5628 Q298.5469,198.5628 299.2031,198.3128 Q299.5938,198.1565 300.0156,197.719 Q300.2813,197.4534 300.4219,197.3753 Q300.5781,197.2971 300.7813,197.2971 Q301.1094,197.2971 301.3594,197.5628 Q301.625,197.8128 301.625,198.1565 Q301.625,198.5003 301.2813,198.9065 Q300.7813,199.4846 299.9844,199.8128 Q298.9063,200.2659 297.6094,200.2659 Q296.0938,200.2659 294.8906,199.6409 Q293.9063,199.1409 293.2188,198.0784 Q292.5313,197.0003 292.5313,195.719 L292.5313,194.5628 Q292.5313,193.2346 293.1406,192.094 Q293.7656,190.9378 294.8594,190.3284 Q295.9531,189.7034 297.1875,189.7034 Q297.9219,189.7034 298.5625,189.8753 Q299.2188,190.0315 299.7656,190.3909 Z " fill="#000000"/><text fill="#000000" font-family="sans-serif" font-size="12" font-style="italic" lengthAdjust="spacing" textLength="44" x="319" y="190.6214">«Entity»</text><text fill="#000000" font-family="sans-serif" font-size="14" lengthAdjust="spacing" textLength="60" x="311" y="207.7913">FloorMap</text><line style="stroke:#181818;stroke-width:0.5;" x1="283" x2="373" y1="215.8674" y2="215.8674"/><line style="stroke:#181818;stroke-width:0.5;" x1="283" x2="373" y1="223.8674" y2="223.8674"/></g><!--MD5=[940c1653322ced0a3252fe0b7ecc9473]
class FloorNumber--><g id="elem_FloorNumber"><rect codeLine="31" fill="#F1F1F1" height="58.7031" id="FloorNumber" rx="2.5" ry="2.5" style="stroke:#181818;stroke-width:0.5;" width="114" x="111" y="39.1643"/><ellipse cx="126" cy="60.5159" fill="#A4C2E5" rx="11" ry="11" style="stroke:#181818;stroke-width:1.0;"/><path d="M126.6094,63.4534 L128.4531,59.6878 Q127.7656,59.6878 127.5781,59.5628 Q127.1563,59.3128 127.1563,58.8284 Q127.1563,58.4534 127.4219,58.219 Q127.6875,57.9846 128.2969,57.9846 L130.625,57.9846 Q131.25,57.9846 131.5,58.219 Q131.7656,58.4534 131.7656,58.8284 Q131.7656,59.2034 131.5,59.4534 Q131.25,59.6878 130.625,59.6878 L130.3438,59.6878 L127.5,65.5159 L125.7188,65.5159 L122.875,59.6878 L122.6406,59.6878 Q122.0156,59.6878 121.75,59.4534 Q121.5,59.2034 121.5,58.8284 Q121.5,58.4534 121.75,58.219 Q122.0156,57.9846 122.6406,57.9846 L124.9219,57.9846 Q125.5313,57.9846 125.7813,58.219 Q126.0469,58.4534 126.0469,58.8284 Q126.0469,59.3128 125.6563,59.5628 Q125.4531,59.6878 124.7656,59.6878 L126.6094,63.4534 Z " fill="#000000"/><text fill="#000000" font-family="sans-serif" font-size="12" font-style="italic" lengthAdjust="spacing" textLength="82" x="140" y="56.6214">«ValueObject»</text><text fill="#000000" font-family="sans-serif" font-size="14" lengthAdjust="spacing" textLength="82" x="140" y="73.7913">FloorNumber</text><line style="stroke:#181818;stroke-width:0.5;" x1="112" x2="224" y1="81.8674" y2="81.8674"/><line style="stroke:#181818;stroke-width:0.5;" x1="112" x2="224" y1="89.8674" y2="89.8674"/></g><!--MD5=[67e9509d6cce278f71f6e2b2eb854c8a]
reverse link ElevatorId to Elevator--><g id="link_ElevatorId_Elevator"><path codeLine="36" d="M256.22,519.6643 C256.22,519.6643 285.86,519.6643 285.86,519.6643 " fill="none" id="ElevatorId-backto-Elevator" style="stroke:#181818;stroke-width:1.0;"/><polygon fill="#181818" points="251.22,519.6643,260.22,523.6643,256.22,519.6643,260.22,515.6643,251.22,519.6643" style="stroke:#181818;stroke-width:1.0;"/><text fill="#000000" font-family="sans-serif" font-size="13" lengthAdjust="spacing" textLength="7" x="259.1105" y="516.1217">1</text><text fill="#000000" font-family="sans-serif" font-size="13" lengthAdjust="spacing" textLength="7" x="271.0156" y="515.8321">1</text></g><!--MD5=[93067e8aa59fca3465d1c353e86de2de]
link Elevator to ElevatorBrand--><g id="link_Elevator_ElevatorBrand"><path codeLine="37" d="M291.33,556.6943 C291.33,572.1843 291.33,586.6643 291.33,586.6643 C291.33,586.6643 126,586.6643 126,586.6643 C126,586.6643 126,611.4143 126,611.4143 " fill="none" id="Elevator-to-ElevatorBrand" style="stroke:#181818;stroke-width:1.0;"/><polygon fill="#181818" points="126,616.4143,130,607.4143,126,611.4143,122,607.4143,126,616.4143" style="stroke:#181818;stroke-width:1.0;"/><text fill="#000000" font-family="sans-serif" font-size="13" lengthAdjust="spacing" textLength="7" x="277.4258" y="577.9766">1</text><text fill="#000000" font-family="sans-serif" font-size="13" lengthAdjust="spacing" textLength="7" x="127.4219" y="605.7226">1</text></g><!--MD5=[b668c73f73671ef361d6bc1b803fe07c]
link Elevator to ElevatorModel--><g id="link_Elevator_ElevatorModel"><path codeLine="38" d="M296.67,556.9343 C296.67,556.9343 296.67,611.3643 296.67,611.3643 " fill="none" id="Elevator-to-ElevatorModel" style="stroke:#181818;stroke-width:1.0;"/><polygon fill="#181818" points="296.67,616.3643,300.67,607.3643,296.67,611.3643,292.67,607.3643,296.67,616.3643" style="stroke:#181818;stroke-width:1.0;"/><text fill="#000000" font-family="sans-serif" font-size="13" lengthAdjust="spacing" textLength="7" x="292.0607" y="577.9732">1</text><text fill="#000000" font-family="sans-serif" font-size="13" lengthAdjust="spacing" textLength="7" x="301.0822" y="605.6616">1</text></g><!--MD5=[47d6672092e085cbbf35f59ad081cb63]
link Elevator to ElevatorIdentificationNumber--><g id="link_Elevator_ElevatorIdentificationNumber"><path codeLine="39" d="M370.25,553.6643 C434.98,553.6643 551.25,553.6643 551.25,553.6643 C551.25,553.6643 551.25,611.6443 551.25,611.6443 " fill="none" id="Elevator-to-ElevatorIdentificationNumber" style="stroke:#181818;stroke-width:1.0;"/><polygon fill="#181818" points="551.25,616.6443,555.25,607.6443,551.25,611.6443,547.25,607.6443,551.25,616.6443" style="stroke:#181818;stroke-width:1.0;"/><text fill="#000000" font-family="sans-serif" font-size="13" lengthAdjust="spacing" textLength="7" x="378.1133" y="555.6759">1</text><text fill="#000000" font-family="sans-serif" font-size="13" lengthAdjust="spacing" textLength="7" x="525.3828" y="606.0029">1</text></g><!--MD5=[d89932c66fcd1e3d11280721902ab638]
link Elevator to ElevatorDescription--><g id="link_Elevator_ElevatorDescription"><path codeLine="40" d="M353.75,556.9343 C353.75,556.9343 353.75,611.3643 353.75,611.3643 " fill="none" id="Elevator-to-ElevatorDescription" style="stroke:#181818;stroke-width:1.0;"/><polygon fill="#181818" points="353.75,616.3643,357.75,607.3643,353.75,611.3643,349.75,607.3643,353.75,616.3643" style="stroke:#181818;stroke-width:1.0;"/><text fill="#000000" font-family="sans-serif" font-size="13" lengthAdjust="spacing" textLength="7" x="350.4352" y="577.9732">1</text><text fill="#000000" font-family="sans-serif" font-size="13" lengthAdjust="spacing" textLength="7" x="332.5859" y="605.6616">1</text></g><!--MD5=[0d11cc7ba703f2ec1649e9b6bfc0e662]
link Elevator to ElevatorSerialNumber--><g id="link_Elevator_ElevatorSerialNumber"><path codeLine="41" d="M370.14,519.6643 C370.14,519.6643 400.33,519.6643 400.33,519.6643 " fill="none" id="Elevator-to-ElevatorSerialNumber" style="stroke:#181818;stroke-width:1.0;"/><polygon fill="#181818" points="405.33,519.6643,396.33,515.6643,400.33,519.6643,396.33,523.6643,405.33,519.6643" style="stroke:#181818;stroke-width:1.0;"/><text fill="#000000" font-family="sans-serif" font-size="13" lengthAdjust="spacing" textLength="7" x="377.9844" y="515.8321">1</text><text fill="#000000" font-family="sans-serif" font-size="13" lengthAdjust="spacing" textLength="7" x="390.4774" y="516.4758">1</text></g><!--MD5=[c5fead04db50ad272312b70da3db85d3]
link Building to Floor--><g id="link_Building_Floor"><path codeLine="43" d="M781,31.3743 C781,21.5643 781,13.6643 781,13.6643 C781,13.6643 296,13.6643 296,13.6643 C296,13.6643 296,26.3743 296,26.3743 " fill="none" id="Building-to-Floor" style="stroke:#181818;stroke-width:1.0;"/><polygon fill="#181818" points="296,31.3743,300,22.3743,296,26.3743,292,22.3743,296,31.3743" style="stroke:#181818;stroke-width:1.0;"/><text fill="#000000" font-family="sans-serif" font-size="13" lengthAdjust="spacing" textLength="7" x="773.3766" y="20.8516">1</text><text fill="#000000" font-family="sans-serif" font-size="13" lengthAdjust="spacing" textLength="5" x="290.5547" y="20.8516">*</text></g><!--MD5=[c7c2c2b6fa1af21c048badd80363f7c7]
link Building to BuildingDescription--><g id="link_Building_BuildingDescription"><path codeLine="44" d="M739.61,68.6643 C689,68.6643 610,68.6643 610,68.6643 C610,68.6643 610,167.9243 610,167.9243 " fill="none" id="Building-to-BuildingDescription" style="stroke:#181818;stroke-width:1.0;"/><polygon fill="#181818" points="610,172.9243,614,163.9243,610,167.9243,606,163.9243,610,172.9243" style="stroke:#181818;stroke-width:1.0;"/><text fill="#000000" font-family="sans-serif" font-size="13" lengthAdjust="spacing" textLength="5" x="727.0664" y="64.8321">*</text><text fill="#000000" font-family="sans-serif" font-size="13" lengthAdjust="spacing" textLength="22" x="585.5938" y="162.2347">0..1</text></g><!--MD5=[53e22fe04d307f496c435aecb681f20c]
link Building to BuildingName--><g id="link_Building_BuildingName"><path codeLine="45" d="M767.33,105.9943 C767.33,105.9943 767.33,167.7343 767.33,167.7343 " fill="none" id="Building-to-BuildingName" style="stroke:#181818;stroke-width:1.0;"/><polygon fill="#181818" points="767.33,172.7343,771.33,163.7343,767.33,167.7343,763.33,163.7343,767.33,172.7343" style="stroke:#181818;stroke-width:1.0;"/><text fill="#000000" font-family="sans-serif" font-size="13" lengthAdjust="spacing" textLength="7" x="757.4862" y="127.0432">1</text><text fill="#000000" font-family="sans-serif" font-size="13" lengthAdjust="spacing" textLength="22" x="740.2418" y="162.4732">0..1</text></g><!--MD5=[8fdfc15c9e5b52285bc3674604186e5e]
link Building to BuildingSize--><g id="link_Building_BuildingSize"><path codeLine="46" d="M822.08,68.6643 C904.25,68.6643 1081,68.6643 1081,68.6643 C1081,68.6643 1081,167.9243 1081,167.9243 " fill="none" id="Building-to-BuildingSize" style="stroke:#181818;stroke-width:1.0;"/><polygon fill="#181818" points="1081,172.9243,1085,163.9243,1081,167.9243,1077,163.9243,1081,172.9243" style="stroke:#181818;stroke-width:1.0;"/><text fill="#000000" font-family="sans-serif" font-size="13" lengthAdjust="spacing" textLength="5" x="830.1151" y="64.7356">*</text><text fill="#000000" font-family="sans-serif" font-size="13" lengthAdjust="spacing" textLength="7" x="1073.2344" y="162.2347">1</text></g><!--MD5=[30449874c6533aadb21e9eca7fdc56e9]
link Building to BuildingCode--><g id="link_Building_BuildingCode"><path codeLine="47" d="M794.67,105.7043 C794.67,134.5243 794.67,169.6643 794.67,169.6643 C794.67,169.6643 869.74,169.6643 869.74,169.6643 " fill="none" id="Building-to-BuildingCode" style="stroke:#181818;stroke-width:1.0;"/><polygon fill="#181818" points="874.74,169.6643,865.74,165.6643,869.74,169.6643,865.74,173.6643,874.74,169.6643" style="stroke:#181818;stroke-width:1.0;"/><text fill="#000000" font-family="sans-serif" font-size="13" lengthAdjust="spacing" textLength="7" x="789.418" y="126.9884">1</text><text fill="#000000" font-family="sans-serif" font-size="13" lengthAdjust="spacing" textLength="7" x="859.827" y="161.9419">1</text></g><!--MD5=[10f73107f1f7bf18c199813bcaa6ad20]
link Floor to FloorMap--><g id="link_Floor_FloorMap"><path codeLine="49" d="M307,105.9943 C307,105.9943 307,167.7343 307,167.7343 " fill="none" id="Floor-to-FloorMap" style="stroke:#181818;stroke-width:1.0;"/><polygon fill="#181818" points="307,172.7343,311,163.7343,307,167.7343,303,163.7343,307,172.7343" style="stroke:#181818;stroke-width:1.0;"/><text fill="#000000" font-family="sans-serif" font-size="13" lengthAdjust="spacing" textLength="7" x="301.2422" y="127.0432">1</text><text fill="#000000" font-family="sans-serif" font-size="13" lengthAdjust="spacing" textLength="7" x="294.9469" y="162.4732">1</text></g><!--MD5=[d9140494396273f224bd9761dcadbb1f]
reverse link FloorNumber to Floor--><g id="link_FloorNumber_Floor"><path codeLine="50" d="M230.26,68.6643 C230.26,68.6643 259.73,68.6643 259.73,68.6643 " fill="none" id="FloorNumber-backto-Floor" style="stroke:#181818;stroke-width:1.0;"/><polygon fill="#181818" points="225.26,68.6643,234.26,72.6643,230.26,68.6643,234.26,64.6643,225.26,68.6643" style="stroke:#181818;stroke-width:1.0;"/><text fill="#000000" font-family="sans-serif" font-size="13" lengthAdjust="spacing" textLength="7" x="233.0449" y="65.176">1</text><text fill="#000000" font-family="sans-serif" font-size="13" lengthAdjust="spacing" textLength="5" x="247.0972" y="64.639">*</text></g><!--MD5=[b1ba0c0dc7633d77dfabb987b50a6cb3]
link Floor to FloorDescription--><g id="link_Floor_FloorDescription"><path codeLine="51" d="M259.71,102.6643 C247.08,102.6643 236,102.6643 236,102.6643 C236,102.6643 236,167.9343 236,167.9343 " fill="none" id="Floor-to-FloorDescription" style="stroke:#181818;stroke-width:1.0;"/><polygon fill="#181818" points="236,172.9343,240,163.9343,236,167.9343,232,163.9343,236,172.9343" style="stroke:#181818;stroke-width:1.0;"/><text fill="#000000" font-family="sans-serif" font-size="13" lengthAdjust="spacing" textLength="5" x="247.0732" y="105.3328">*</text><text fill="#000000" font-family="sans-serif" font-size="13" lengthAdjust="spacing" textLength="7" x="240.7031" y="162.2469">1</text></g><!--MD5=[60adfa322f31affb196616297bb3ccd7]
link Floor to FloorId--><g id="link_Floor_FloorId"><path codeLine="52" d="M332.11,68.6643 C332.11,68.6643 361.62,68.6643 361.62,68.6643 " fill="none" id="Floor-to-FloorId" style="stroke:#181818;stroke-width:1.0;"/><polygon fill="#181818" points="366.62,68.6643,357.62,64.6643,361.62,68.6643,357.62,72.6643,366.62,68.6643" style="stroke:#181818;stroke-width:1.0;"/><text fill="#000000" font-family="sans-serif" font-size="13" lengthAdjust="spacing" textLength="7" x="339.9082" y="64.639">1</text><text fill="#000000" font-family="sans-serif" font-size="13" lengthAdjust="spacing" textLength="7" x="352.076" y="65.17">1</text></g><!--MD5=[9c54caedea38a8e7518e040a805471e2]
link FloorMap to Elevator--><g id="link_FloorMap_Elevator"><path codeLine="54" d="M328,232.2043 C328,232.2043 328,477.5843 328,477.5843 " fill="none" id="FloorMap-to-Elevator" style="stroke:#181818;stroke-width:1.0;"/><polygon fill="#181818" points="328,482.5843,332,473.5843,328,477.5843,324,473.5843,328,482.5843" style="stroke:#181818;stroke-width:1.0;"/><text fill="#000000" font-family="sans-serif" font-size="13" lengthAdjust="spacing" textLength="7" x="320.2781" y="253.5089">1</text><text fill="#000000" font-family="sans-serif" font-size="13" lengthAdjust="spacing" textLength="22" x="303.9719" y="471.819">0..1</text></g><!--MD5=[27d7df165abf7ae9963aeb09f2bff47d]
@startuml DomainModelExcerpt

skinparam linetype ortho

'========================================================
rectangle #36827F{
class Building  << Root >> << Entity >>
class BuildingDescription  << (v,#A4C2E5) ValueObject >>
class BuildingName  << (v,#A4C2E5) ValueObject >>
class BuildingCode  << (v,orange) ValueObject >> << unique >>
class BuildingSize  << (v,#A4C2E5) ValueObject >>
}

'========================================================
rectangle #9055A2{
class Elevator  << Root >> << Entity >>
class ElevatorId  << (v,orange) ValueObject >> << unique >>
class ElevatorBrand << (v,#A4C2E5) ValueObject >>
class ElevatorModel << (v,#A4C2E5) ValueObject >>
class ElevatorDescription << (v,#A4C2E5) ValueObject >>
class ElevatorIdentificationNumber << (v,#A4C2E5) ValueObject >>
class ElevatorSerialNumber << (v,#A4C2E5) ValueObject >>

}

'========================================================
rectangle #D499B9{
class Floor  << Root >> << Entity >>
class FloorId  << (v,orange) ValueObject >> << unique >>
class FloorDescription  << (v,#A4C2E5) ValueObject >>
class FloorMap  << Entity >>
class FloorNumber << (v,#A4C2E5) ValueObject >>
}

'========================================================

Elevator "1"- -l>"1" ElevatorId
Elevator "1"- ->"1" ElevatorBrand
Elevator "1"- ->"1" ElevatorModel
Elevator "1"- ->"1" ElevatorIdentificationNumber
Elevator "1"- ->"1" ElevatorDescription
Elevator "1"- -r>"1" ElevatorSerialNumber

Building "1"->"*" Floor
Building "*"- ->"0..1" BuildingDescription
Building "1"- ->"0..1" BuildingName
Building "*"- ->"1" BuildingSize
Building "1"- ->"1" BuildingCode

Floor "1"-d->"1" FloorMap
Floor "*"-u>"1" FloorNumber
Floor "*"- ->"1" FloorDescription
Floor "1" -> "1" FloorId

FloorMap "1"-d- - - ->"0..1" Elevator

@enduml

@startuml DomainModelExcerpt

skinparam linetype ortho

rectangle #36827F{
class Building  << Root >> << Entity >>
class BuildingDescription  << (v,#A4C2E5) ValueObject >>
class BuildingName  << (v,#A4C2E5) ValueObject >>
class BuildingCode  << (v,orange) ValueObject >> << unique >>
class BuildingSize  << (v,#A4C2E5) ValueObject >>
}

rectangle #9055A2{
class Elevator  << Root >> << Entity >>
class ElevatorId  << (v,orange) ValueObject >> << unique >>
class ElevatorBrand << (v,#A4C2E5) ValueObject >>
class ElevatorModel << (v,#A4C2E5) ValueObject >>
class ElevatorDescription << (v,#A4C2E5) ValueObject >>
class ElevatorIdentificationNumber << (v,#A4C2E5) ValueObject >>
class ElevatorSerialNumber << (v,#A4C2E5) ValueObject >>

}

rectangle #D499B9{
class Floor  << Root >> << Entity >>
class FloorId  << (v,orange) ValueObject >> << unique >>
class FloorDescription  << (v,#A4C2E5) ValueObject >>
class FloorMap  << Entity >>
class FloorNumber << (v,#A4C2E5) ValueObject >>
}


Elevator "1"- -l>"1" ElevatorId
Elevator "1"- ->"1" ElevatorBrand
Elevator "1"- ->"1" ElevatorModel
Elevator "1"- ->"1" ElevatorIdentificationNumber
Elevator "1"- ->"1" ElevatorDescription
Elevator "1"- -r>"1" ElevatorSerialNumber

Building "1"->"*" Floor
Building "*"- ->"0..1" BuildingDescription
Building "1"- ->"0..1" BuildingName
Building "*"- ->"1" BuildingSize
Building "1"- ->"1" BuildingCode

Floor "1"-d->"1" FloorMap
Floor "*"-u>"1" FloorNumber
Floor "*"- ->"1" FloorDescription
Floor "1" -> "1" FloorId

FloorMap "1"-d- - - ->"0..1" Elevator

@enduml

PlantUML version 1.2022.7(Mon Aug 22 18:01:30 WEST 2022)
(GPL source distribution)
Java Runtime: Java(TM) SE Runtime Environment
JVM: Java HotSpot(TM) 64-Bit Server VM
Default Encoding: UTF-8
Language: pt
Country: PT
--></g></svg>