<?xml version="1.0" encoding="us-ascii" standalone="no"?><svg xmlns="http://www.w3.org/2000/svg" xmlns:xlink="http://www.w3.org/1999/xlink" contentStyleType="text/css" height="105px" preserveAspectRatio="none" style="width:382px;height:105px;background:#FFFFFF;" version="1.1" viewBox="0 0 382 105" width="382px" zoomAndPan="magnify"><defs/><g><!--cluster RobDroneGo--><g id="cluster_RobDroneGo"><path d="M160.5,6 L252.5,6 A3.75,3.75 0 0 1 255,8.5 L262,27.6406 L372.5,27.6406 A2.5,2.5 0 0 1 375,30.1406 L375,95.5 A2.5,2.5 0 0 1 372.5,98 L160.5,98 A2.5,2.5 0 0 1 158,95.5 L158,8.5 A2.5,2.5 0 0 1 160.5,6 " fill="none" style="stroke:#000000;stroke-width:1.5;"/><line style="stroke:#000000;stroke-width:1.5;" x1="158" x2="262" y1="27.6406" y2="27.6406"/><text fill="#000000" font-family="sans-serif" font-size="14" font-weight="bold" lengthAdjust="spacing" textLength="91" x="162" y="20.6738">RobDroneGo</text></g><g id="elem_UC18"><ellipse cx="266.494" cy="60.8988" fill="#F1F1F1" rx="92.494" ry="20.8988" style="stroke:#181818;stroke-width:0.5;"/><text fill="#000000" font-family="sans-serif" font-size="14" lengthAdjust="spacing" textLength="149" x="191.994" y="63.7523">Add New Robot to Fleet</text></g><!--entity FM--><g id="elem_FM"><ellipse cx="60" cy="39" fill="#F1F1F1" rx="16" ry="16" style="stroke:#181818;stroke-width:1.5;"/><path d="M60,59 C64,59 67,59 71,55 C79,55 87,63 87,71 L87,75 C87,79 83,83 79,83 L41,83 C37,83 33,79 33,75 L33,71 C33,63 41,55 49,55 C53,59 56,59 60,59 " fill="#F1F1F1" style="stroke:#181818;stroke-width:1.5;"/><text fill="#000000" font-family="sans-serif" font-size="14" lengthAdjust="spacing" textLength="108" x="6" y="97.1738">UI Fleet Manager</text></g><!--link FM to UC18--><g id="link_FM_UC18"><path d="M114.2,61 C130.85,61 149.79,61 168.49,61 " fill="none" id="FM-to-UC18" style="stroke:#181818;stroke-width:1.0;"/><polygon fill="#181818" points="173.76,61,164.76,57,168.76,61,164.76,65,173.76,61" style="stroke:#181818;stroke-width:1.0;"/></g><!--SRC=[9Oun2i9044NxESKdVGexAq6KY4Kib1nWt1tZacGdx8u44U-khkL_V1vlb9l152dqTuCFIPm5ZKHv277cn1FOcQQBFKS1Bv9r4gB2K7L7DAE8eUN8lQGAdD6qH3Ip6xu4EEjrdpJAGO4N4V38uZWBggttECdoUsXfAAgYw7QhDT6Rg6bHrvl__W00]--></g></svg>