<?xml version="1.0" encoding="us-ascii" standalone="no"?><svg xmlns="http://www.w3.org/2000/svg" xmlns:xlink="http://www.w3.org/1999/xlink" contentStyleType="text/css" height="627.2px" preserveAspectRatio="none" style="width:1133px;height:627px;background:#FFFFFF;" version="1.1" viewBox="0 0 1133 627" width="1133.6px" zoomAndPan="magnify"><defs/><g><rect fill="#FFFFFF" height="532.8891" style="stroke:#181818;stroke-width:0.8000000000000002;" width="8" x="54" y="57.5297"/><rect fill="#FFFFFF" height="475.6234" style="stroke:#181818;stroke-width:0.8000000000000002;" width="8" x="230" y="82.5625"/><rect fill="#FFFFFF" height="425.5578" style="stroke:#181818;stroke-width:0.8000000000000002;" width="8" x="422.8" y="107.5953"/><rect fill="#FFFFFF" height="25.0328" style="stroke:#181818;stroke-width:0.8000000000000002;" width="8" x="563.6" y="132.6281"/><rect fill="#FFFFFF" height="25.0328" style="stroke:#181818;stroke-width:0.8000000000000002;" width="8" x="673.6" y="483.0875"/><rect fill="#FFFFFF" height="75.0984" style="stroke:#181818;stroke-width:0.8000000000000002;" width="8" x="915.6" y="182.6938"/><rect fill="#FFFFFF" height="25.0328" style="stroke:#181818;stroke-width:0.8000000000000002;" width="8" x="915.6" y="282.825"/><rect fill="#FFFFFF" height="25.0328" style="stroke:#181818;stroke-width:0.8000000000000002;" width="8" x="915.6" y="332.8906"/><rect fill="#FFFFFF" height="25.0328" style="stroke:#181818;stroke-width:0.8000000000000002;" width="8" x="915.6" y="433.0219"/><rect fill="#FFFFFF" height="25.0328" style="stroke:#181818;stroke-width:0.8000000000000002;" width="8" x="1035.6" y="207.7266"/><line style="stroke:#181818;stroke-width:0.4000000000000001;stroke-dasharray:5.0,5.0;" x1="57.6" x2="57.6" y1="30.8969" y2="597.6188"/><line style="stroke:#181818;stroke-width:0.4000000000000001;stroke-dasharray:5.0,5.0;" x1="233.6" x2="233.6" y1="30.8969" y2="597.6188"/><line style="stroke:#181818;stroke-width:0.4000000000000001;stroke-dasharray:5.0,5.0;" x1="426.8" x2="426.8" y1="30.8969" y2="597.6188"/><line style="stroke:#181818;stroke-width:0.4000000000000001;stroke-dasharray:5.0,5.0;" x1="567.2" x2="567.2" y1="30.8969" y2="597.6188"/><line style="stroke:#181818;stroke-width:0.4000000000000001;stroke-dasharray:5.0,5.0;" x1="677.6" x2="677.6" y1="30.8969" y2="597.6188"/><line style="stroke:#181818;stroke-width:0.4000000000000001;stroke-dasharray:5.0,5.0;" x1="775.2" x2="775.2" y1="30.8969" y2="597.6188"/><line style="stroke:#181818;stroke-width:0.4000000000000001;stroke-dasharray:5.0,5.0;" x1="850.4" x2="850.4" y1="30.8969" y2="597.6188"/><line style="stroke:#181818;stroke-width:0.4000000000000001;stroke-dasharray:5.0,5.0;" x1="919.2" x2="919.2" y1="30.8969" y2="597.6188"/><line style="stroke:#181818;stroke-width:0.4000000000000001;stroke-dasharray:5.0,5.0;" x1="1039.6" x2="1039.6" y1="30.8969" y2="597.6188"/><line style="stroke:#181818;stroke-width:0.4000000000000001;stroke-dasharray:5.0,5.0;" x1="1108.4" x2="1108.4" y1="30.8969" y2="597.6188"/><rect fill="#E2E2F0" height="26.0969" rx="2" ry="2" style="stroke:#181818;stroke-width:0.4000000000000001;" width="108" x="4" y="4"/><text fill="#000000" font-family="sans-serif" font-size="11.2" lengthAdjust="spacing" textLength="96.8" x="9.6" y="21.6859">:PassagewayRoute</text><rect fill="#E2E2F0" height="26.0969" rx="2" ry="2" style="stroke:#181818;stroke-width:0.4000000000000001;" width="108" x="4" y="596.8188"/><text fill="#000000" font-family="sans-serif" font-size="11.2" lengthAdjust="spacing" textLength="96.8" x="9.6" y="614.5047">:PassagewayRoute</text><rect fill="#E2E2F0" height="26.0969" rx="2" ry="2" style="stroke:#181818;stroke-width:0.4000000000000001;" width="146.4" x="160.8" y="4"/><text fill="#000000" font-family="sans-serif" font-size="11.2" lengthAdjust="spacing" textLength="135.2" x="166.4" y="21.6859">:EditPassagewayController</text><rect fill="#E2E2F0" height="26.0969" rx="2" ry="2" style="stroke:#181818;stroke-width:0.4000000000000001;" width="146.4" x="160.8" y="596.8188"/><text fill="#000000" font-family="sans-serif" font-size="11.2" lengthAdjust="spacing" textLength="135.2" x="166.4" y="614.5047">:EditPassagewayController</text><rect fill="#E2E2F0" height="26.0969" rx="2" ry="2" style="stroke:#181818;stroke-width:0.4000000000000001;" width="134.4" x="359.6" y="4"/><text fill="#000000" font-family="sans-serif" font-size="11.2" lengthAdjust="spacing" textLength="123.2" x="365.2" y="21.6859">:EditPassagewayService</text><rect fill="#E2E2F0" height="26.0969" rx="2" ry="2" style="stroke:#181818;stroke-width:0.4000000000000001;" width="134.4" x="359.6" y="596.8188"/><text fill="#000000" font-family="sans-serif" font-size="11.2" lengthAdjust="spacing" textLength="123.2" x="365.2" y="614.5047">:EditPassagewayService</text><rect fill="#E2E2F0" height="26.0969" rx="2" ry="2" style="stroke:#181818;stroke-width:0.4000000000000001;" width="104.8" x="515.2" y="4"/><text fill="#000000" font-family="sans-serif" font-size="11.2" lengthAdjust="spacing" textLength="93.6" x="520.8" y="21.6859">:PassagewayRepo</text><rect fill="#E2E2F0" height="26.0969" rx="2" ry="2" style="stroke:#181818;stroke-width:0.4000000000000001;" width="104.8" x="515.2" y="596.8188"/><text fill="#000000" font-family="sans-serif" font-size="11.2" lengthAdjust="spacing" textLength="93.6" x="520.8" y="614.5047">:PassagewayRepo</text><rect fill="#E2E2F0" height="26.0969" rx="2" ry="2" style="stroke:#181818;stroke-width:0.4000000000000001;" width="99.2" x="628" y="4"/><text fill="#000000" font-family="sans-serif" font-size="11.2" lengthAdjust="spacing" textLength="88" x="633.6" y="21.6859">:PassagewayMap</text><rect fill="#E2E2F0" height="26.0969" rx="2" ry="2" style="stroke:#181818;stroke-width:0.4000000000000001;" width="99.2" x="628" y="596.8188"/><text fill="#000000" font-family="sans-serif" font-size="11.2" lengthAdjust="spacing" textLength="88" x="633.6" y="614.5047">:PassagewayMap</text><rect fill="#E2E2F0" height="26.0969" rx="2" ry="2" style="stroke:#181818;stroke-width:0.4000000000000001;" width="80" x="735.2" y="4"/><text fill="#000000" font-family="sans-serif" font-size="11.2" lengthAdjust="spacing" textLength="68.8" x="740.8" y="21.6859">:ElevatorDTO</text><rect fill="#E2E2F0" height="26.0969" rx="2" ry="2" style="stroke:#181818;stroke-width:0.4000000000000001;" width="80" x="735.2" y="596.8188"/><text fill="#000000" font-family="sans-serif" font-size="11.2" lengthAdjust="spacing" textLength="68.8" x="740.8" y="614.5047">:ElevatorDTO</text><rect fill="#E2E2F0" height="26.0969" rx="2" ry="2" style="stroke:#181818;stroke-width:0.4000000000000001;" width="54.4" x="823.2" y="4"/><text fill="#000000" font-family="sans-serif" font-size="11.2" lengthAdjust="spacing" textLength="43.2" x="828.8" y="21.6859">:Building</text><rect fill="#E2E2F0" height="26.0969" rx="2" ry="2" style="stroke:#181818;stroke-width:0.4000000000000001;" width="54.4" x="823.2" y="596.8188"/><text fill="#000000" font-family="sans-serif" font-size="11.2" lengthAdjust="spacing" textLength="43.2" x="828.8" y="614.5047">:Building</text><rect fill="#E2E2F0" height="26.0969" rx="2" ry="2" style="stroke:#181818;stroke-width:0.4000000000000001;" width="68" x="885.6" y="4"/><text fill="#000000" font-family="sans-serif" font-size="11.2" lengthAdjust="spacing" textLength="56.8" x="891.2" y="21.6859">:FloorRepo</text><rect fill="#E2E2F0" height="26.0969" rx="2" ry="2" style="stroke:#181818;stroke-width:0.4000000000000001;" width="68" x="885.6" y="596.8188"/><text fill="#000000" font-family="sans-serif" font-size="11.2" lengthAdjust="spacing" textLength="56.8" x="891.2" y="614.5047">:FloorRepo</text><rect fill="#E2E2F0" height="26.0969" rx="2" ry="2" style="stroke:#181818;stroke-width:0.4000000000000001;" width="81.6" x="998.8" y="4"/><text fill="#000000" font-family="sans-serif" font-size="11.2" lengthAdjust="spacing" textLength="70.4" x="1004.4" y="21.6859">:FloorSchema</text><rect fill="#E2E2F0" height="26.0969" rx="2" ry="2" style="stroke:#181818;stroke-width:0.4000000000000001;" width="81.6" x="998.8" y="596.8188"/><text fill="#000000" font-family="sans-serif" font-size="11.2" lengthAdjust="spacing" textLength="70.4" x="1004.4" y="614.5047">:FloorSchema</text><rect fill="#E2E2F0" height="26.0969" rx="2" ry="2" style="stroke:#181818;stroke-width:0.4000000000000001;" width="40.8" x="1088.4" y="4"/><text fill="#000000" font-family="sans-serif" font-size="11.2" lengthAdjust="spacing" textLength="29.6" x="1094" y="21.6859">:Floor</text><rect fill="#E2E2F0" height="26.0969" rx="2" ry="2" style="stroke:#181818;stroke-width:0.4000000000000001;" width="40.8" x="1088.4" y="596.8188"/><text fill="#000000" font-family="sans-serif" font-size="11.2" lengthAdjust="spacing" textLength="29.6" x="1094" y="614.5047">:Floor</text><rect fill="#FFFFFF" height="532.8891" style="stroke:#181818;stroke-width:0.8000000000000002;" width="8" x="54" y="57.5297"/><rect fill="#FFFFFF" height="475.6234" style="stroke:#181818;stroke-width:0.8000000000000002;" width="8" x="230" y="82.5625"/><rect fill="#FFFFFF" height="425.5578" style="stroke:#181818;stroke-width:0.8000000000000002;" width="8" x="422.8" y="107.5953"/><rect fill="#FFFFFF" height="25.0328" style="stroke:#181818;stroke-width:0.8000000000000002;" width="8" x="563.6" y="132.6281"/><rect fill="#FFFFFF" height="25.0328" style="stroke:#181818;stroke-width:0.8000000000000002;" width="8" x="673.6" y="483.0875"/><rect fill="#FFFFFF" height="75.0984" style="stroke:#181818;stroke-width:0.8000000000000002;" width="8" x="915.6" y="182.6938"/><rect fill="#FFFFFF" height="25.0328" style="stroke:#181818;stroke-width:0.8000000000000002;" width="8" x="915.6" y="282.825"/><rect fill="#FFFFFF" height="25.0328" style="stroke:#181818;stroke-width:0.8000000000000002;" width="8" x="915.6" y="332.8906"/><rect fill="#FFFFFF" height="25.0328" style="stroke:#181818;stroke-width:0.8000000000000002;" width="8" x="915.6" y="433.0219"/><rect fill="#FFFFFF" height="25.0328" style="stroke:#181818;stroke-width:0.8000000000000002;" width="8" x="1035.6" y="207.7266"/><ellipse cx="7.2" cy="56.9297" fill="none" rx="3.2" ry="3.2" style="stroke:#181818;stroke-width:1.2000000000000002;"/><polygon fill="#181818" points="44.4,54.3297,52.4,57.5297,44.4,60.7297,47.6,57.5297" style="stroke:#181818;stroke-width:0.8000000000000002;"/><line style="stroke:#181818;stroke-width:0.8000000000000002;" x1="10.8" x2="49.2" y1="57.5297" y2="57.5297"/><text fill="#000000" font-family="sans-serif" font-size="10.4" font-weight="bold" lengthAdjust="spacing" textLength="5.6" x="13.2" y="53.3195">1</text><text fill="#000000" font-family="sans-serif" font-size="10.4" lengthAdjust="spacing" textLength="20" x="22" y="53.3195">PUT</text><polygon fill="#181818" points="220.4,79.3625,228.4,82.5625,220.4,85.7625,223.6,82.5625" style="stroke:#181818;stroke-width:0.8000000000000002;"/><line style="stroke:#181818;stroke-width:0.8000000000000002;" x1="62" x2="225.2" y1="82.5625" y2="82.5625"/><text fill="#000000" font-family="sans-serif" font-size="10.4" font-weight="bold" lengthAdjust="spacing" textLength="5.6" x="67.6" y="78.3523">2</text><text fill="#000000" font-family="sans-serif" font-size="10.4" lengthAdjust="spacing" textLength="144" x="76.4" y="78.3523">editPassageway(req, res, next)</text><polygon fill="#181818" points="413.2,104.3953,421.2,107.5953,413.2,110.7953,416.4,107.5953" style="stroke:#181818;stroke-width:0.8000000000000002;"/><line style="stroke:#181818;stroke-width:0.8000000000000002;" x1="238" x2="418" y1="107.5953" y2="107.5953"/><text fill="#000000" font-family="sans-serif" font-size="10.4" font-weight="bold" lengthAdjust="spacing" textLength="5.6" x="243.6" y="103.3852">3</text><text fill="#000000" font-family="sans-serif" font-size="10.4" lengthAdjust="spacing" textLength="160.8" x="252.4" y="103.3852">editPassageway(passagewayDTO)</text><polygon fill="#181818" points="554,129.4281,562,132.6281,554,135.8281,557.2,132.6281" style="stroke:#181818;stroke-width:0.8000000000000002;"/><line style="stroke:#181818;stroke-width:0.8000000000000002;" x1="430.8" x2="558.8" y1="132.6281" y2="132.6281"/><text fill="#000000" font-family="sans-serif" font-size="10.4" font-weight="bold" lengthAdjust="spacing" textLength="5.6" x="436.4" y="128.418">4</text><text fill="#000000" font-family="sans-serif" font-size="10.4" lengthAdjust="spacing" textLength="108.8" x="445.2" y="128.418">findById(passagewayId)</text><polygon fill="#181818" points="439.6,154.4609,431.6,157.6609,439.6,160.8609,436.4,157.6609" style="stroke:#181818;stroke-width:0.8000000000000002;"/><line style="stroke:#181818;stroke-width:0.8000000000000002;stroke-dasharray:2.0,2.0;" x1="434.8" x2="566.8" y1="157.6609" y2="157.6609"/><text fill="#000000" font-family="sans-serif" font-size="10.4" font-weight="bold" lengthAdjust="spacing" textLength="5.6" x="444.4" y="153.4508">5</text><text fill="#000000" font-family="sans-serif" font-size="10.4" lengthAdjust="spacing" textLength="3.2" x="453.2" y="153.4508">&#160;</text><polygon fill="#181818" points="906,179.4938,914,182.6938,906,185.8938,909.2,182.6938" style="stroke:#181818;stroke-width:0.8000000000000002;"/><line style="stroke:#181818;stroke-width:0.8000000000000002;" x1="430.8" x2="910.8" y1="182.6938" y2="182.6938"/><text fill="#000000" font-family="sans-serif" font-size="10.4" font-weight="bold" lengthAdjust="spacing" textLength="5.6" x="436.4" y="178.4836">6</text><text fill="#000000" font-family="sans-serif" font-size="10.4" lengthAdjust="spacing" textLength="170.4" x="445.2" y="178.4836">findFloorPassageway(passagewayId)</text><polygon fill="#181818" points="1026,204.5266,1034,207.7266,1026,210.9266,1029.2,207.7266" style="stroke:#181818;stroke-width:0.8000000000000002;"/><line style="stroke:#181818;stroke-width:0.8000000000000002;" x1="923.6" x2="1030.8" y1="207.7266" y2="207.7266"/><text fill="#000000" font-family="sans-serif" font-size="10.4" font-weight="bold" lengthAdjust="spacing" textLength="5.6" x="929.2" y="203.5164">7</text><text fill="#000000" font-family="sans-serif" font-size="10.4" lengthAdjust="spacing" textLength="88" x="938" y="203.5164">find(passagewayId)</text><polygon fill="#181818" points="932.4,229.5594,924.4,232.7594,932.4,235.9594,929.2,232.7594" style="stroke:#181818;stroke-width:0.8000000000000002;"/><line style="stroke:#181818;stroke-width:0.8000000000000002;stroke-dasharray:2.0,2.0;" x1="927.6" x2="1038.8" y1="232.7594" y2="232.7594"/><text fill="#000000" font-family="sans-serif" font-size="10.4" font-weight="bold" lengthAdjust="spacing" textLength="5.6" x="937.2" y="228.5492">8</text><text fill="#000000" font-family="sans-serif" font-size="10.4" lengthAdjust="spacing" textLength="3.2" x="946" y="228.5492">&#160;</text><polygon fill="#181818" points="439.6,254.5922,431.6,257.7922,439.6,260.9922,436.4,257.7922" style="stroke:#181818;stroke-width:0.8000000000000002;"/><line style="stroke:#181818;stroke-width:0.8000000000000002;stroke-dasharray:2.0,2.0;" x1="434.8" x2="918.8" y1="257.7922" y2="257.7922"/><text fill="#000000" font-family="sans-serif" font-size="10.4" font-weight="bold" lengthAdjust="spacing" textLength="5.6" x="444.4" y="253.582">9</text><text fill="#000000" font-family="sans-serif" font-size="10.4" lengthAdjust="spacing" textLength="3.2" x="453.2" y="253.582">&#160;</text><polygon fill="#181818" points="906,279.625,914,282.825,906,286.025,909.2,282.825" style="stroke:#181818;stroke-width:0.8000000000000002;"/><line style="stroke:#181818;stroke-width:0.8000000000000002;" x1="430.8" x2="910.8" y1="282.825" y2="282.825"/><text fill="#000000" font-family="sans-serif" font-size="10.4" font-weight="bold" lengthAdjust="spacing" textLength="11.2" x="436.4" y="278.6148">10</text><text fill="#000000" font-family="sans-serif" font-size="10.4" lengthAdjust="spacing" textLength="70.4" x="450.8" y="278.6148">findById(floorId)</text><polygon fill="#181818" points="439.6,304.6578,431.6,307.8578,439.6,311.0578,436.4,307.8578" style="stroke:#181818;stroke-width:0.8000000000000002;"/><line style="stroke:#181818;stroke-width:0.8000000000000002;stroke-dasharray:2.0,2.0;" x1="434.8" x2="918.8" y1="307.8578" y2="307.8578"/><text fill="#000000" font-family="sans-serif" font-size="10.4" font-weight="bold" lengthAdjust="spacing" textLength="11.2" x="444.4" y="303.6477">11</text><text fill="#000000" font-family="sans-serif" font-size="10.4" lengthAdjust="spacing" textLength="3.2" x="458.8" y="303.6477">&#160;</text><polygon fill="#181818" points="906,329.6906,914,332.8906,906,336.0906,909.2,332.8906" style="stroke:#181818;stroke-width:0.8000000000000002;"/><line style="stroke:#181818;stroke-width:0.8000000000000002;" x1="430.8" x2="910.8" y1="332.8906" y2="332.8906"/><text fill="#000000" font-family="sans-serif" font-size="10.4" font-weight="bold" lengthAdjust="spacing" textLength="11.2" x="436.4" y="328.6805">12</text><text fill="#000000" font-family="sans-serif" font-size="10.4" lengthAdjust="spacing" textLength="70.4" x="450.8" y="328.6805">findById(floorId)</text><polygon fill="#181818" points="439.6,354.7234,431.6,357.9234,439.6,361.1234,436.4,357.9234" style="stroke:#181818;stroke-width:0.8000000000000002;"/><line style="stroke:#181818;stroke-width:0.8000000000000002;stroke-dasharray:2.0,2.0;" x1="434.8" x2="918.8" y1="357.9234" y2="357.9234"/><text fill="#000000" font-family="sans-serif" font-size="10.4" font-weight="bold" lengthAdjust="spacing" textLength="11.2" x="444.4" y="353.7133">13</text><text fill="#000000" font-family="sans-serif" font-size="10.4" lengthAdjust="spacing" textLength="3.2" x="458.8" y="353.7133">&#160;</text><polygon fill="#181818" points="1099.2,379.7563,1107.2,382.9563,1099.2,386.1563,1102.4,382.9563" style="stroke:#181818;stroke-width:0.8000000000000002;"/><line style="stroke:#181818;stroke-width:0.8000000000000002;" x1="430.8" x2="1104" y1="382.9563" y2="382.9563"/><text fill="#000000" font-family="sans-serif" font-size="10.4" font-weight="bold" lengthAdjust="spacing" textLength="11.2" x="436.4" y="378.7461">14</text><text fill="#000000" font-family="sans-serif" font-size="10.4" lengthAdjust="spacing" textLength="323.2" x="450.8" y="378.7461">removes old passageways in floor map when they are no longer in use</text><polygon fill="#181818" points="1099.2,404.7891,1107.2,407.9891,1099.2,411.1891,1102.4,407.9891" style="stroke:#181818;stroke-width:0.8000000000000002;"/><line style="stroke:#181818;stroke-width:0.8000000000000002;" x1="430.8" x2="1104" y1="407.9891" y2="407.9891"/><text fill="#000000" font-family="sans-serif" font-size="10.4" font-weight="bold" lengthAdjust="spacing" textLength="11.2" x="436.4" y="403.7789">15</text><text fill="#000000" font-family="sans-serif" font-size="10.4" lengthAdjust="spacing" textLength="309.6" x="450.8" y="403.7789">adds new passageways in floor map when they have been changed</text><polygon fill="#181818" points="906,429.8219,914,433.0219,906,436.2219,909.2,433.0219" style="stroke:#181818;stroke-width:0.8000000000000002;"/><line style="stroke:#181818;stroke-width:0.8000000000000002;" x1="430.8" x2="910.8" y1="433.0219" y2="433.0219"/><text fill="#000000" font-family="sans-serif" font-size="10.4" font-weight="bold" lengthAdjust="spacing" textLength="11.2" x="436.4" y="428.8117">16</text><text fill="#000000" font-family="sans-serif" font-size="10.4" lengthAdjust="spacing" textLength="65.6" x="450.8" y="428.8117">save(all floors)</text><polygon fill="#181818" points="1030,454.8547,1038,458.0547,1030,461.2547,1033.2,458.0547" style="stroke:#181818;stroke-width:0.8000000000000002;"/><line style="stroke:#181818;stroke-width:0.8000000000000002;" x1="919.6" x2="1034.8" y1="458.0547" y2="458.0547"/><text fill="#000000" font-family="sans-serif" font-size="10.4" font-weight="bold" lengthAdjust="spacing" textLength="11.2" x="925.2" y="453.8445">17</text><text fill="#000000" font-family="sans-serif" font-size="10.4" lengthAdjust="spacing" textLength="20.8" x="939.6" y="453.8445">save</text><polygon fill="#181818" points="664,479.8875,672,483.0875,664,486.2875,667.2,483.0875" style="stroke:#181818;stroke-width:0.8000000000000002;"/><line style="stroke:#181818;stroke-width:0.8000000000000002;" x1="430.8" x2="668.8" y1="483.0875" y2="483.0875"/><text fill="#000000" font-family="sans-serif" font-size="10.4" font-weight="bold" lengthAdjust="spacing" textLength="11.2" x="436.4" y="478.8773">18</text><text fill="#000000" font-family="sans-serif" font-size="10.4" lengthAdjust="spacing" textLength="88.8" x="450.8" y="478.8773">toDto(passageway)</text><polygon fill="#181818" points="765.6,504.9203,773.6,508.1203,765.6,511.3203,768.8,508.1203" style="stroke:#181818;stroke-width:0.8000000000000002;"/><line style="stroke:#181818;stroke-width:0.8000000000000002;" x1="677.6" x2="770.4" y1="508.1203" y2="508.1203"/><text fill="#000000" font-family="sans-serif" font-size="10.4" font-weight="bold" lengthAdjust="spacing" textLength="11.2" x="683.2" y="503.9102">19</text><text fill="#000000" font-family="sans-serif" font-size="10.4" lengthAdjust="spacing" textLength="28.8" x="697.6" y="503.9102">create</text><polygon fill="#181818" points="246.8,529.9531,238.8,533.1531,246.8,536.3531,243.6,533.1531" style="stroke:#181818;stroke-width:0.8000000000000002;"/><line style="stroke:#181818;stroke-width:0.8000000000000002;stroke-dasharray:2.0,2.0;" x1="242" x2="426" y1="533.1531" y2="533.1531"/><text fill="#000000" font-family="sans-serif" font-size="10.4" font-weight="bold" lengthAdjust="spacing" textLength="11.2" x="251.6" y="528.943">20</text><text fill="#000000" font-family="sans-serif" font-size="10.4" lengthAdjust="spacing" textLength="3.2" x="266" y="528.943">&#160;</text><polygon fill="#181818" points="70.8,554.9859,62.8,558.1859,70.8,561.3859,67.6,558.1859" style="stroke:#181818;stroke-width:0.8000000000000002;"/><line style="stroke:#181818;stroke-width:0.8000000000000002;stroke-dasharray:2.0,2.0;" x1="66" x2="233.2" y1="558.1859" y2="558.1859"/><text fill="#000000" font-family="sans-serif" font-size="10.4" font-weight="bold" lengthAdjust="spacing" textLength="11.2" x="75.6" y="553.9758">21</text><text fill="#000000" font-family="sans-serif" font-size="10.4" lengthAdjust="spacing" textLength="70.4" x="90" y="553.9758">inform success</text><polygon fill="#181818" points="8.8,580.0188,0.8,583.2188,8.8,586.4188,5.6,583.2188" style="stroke:#181818;stroke-width:0.8000000000000002;"/><line style="stroke:#181818;stroke-width:0.8000000000000002;stroke-dasharray:2.0,2.0;" x1="4" x2="53.2" y1="583.2188" y2="583.2188"/><text fill="#000000" font-family="sans-serif" font-size="10.4" font-weight="bold" lengthAdjust="spacing" textLength="11.2" x="13.6" y="579.0086">22</text><text fill="#000000" font-family="sans-serif" font-size="10.4" lengthAdjust="spacing" textLength="3.2" x="28" y="579.0086">&#160;</text><!--SRC=[rLJHJkim37tFLrWyWSH-e48WSG691mG2xWU4nbiZfKb9qetzFKxIDUbeWLVsqDZUyR5pueJttkY-VKFBMCUjbxNikFPmKZrnv_W6Ttp_R7gF9y0THEi8TokapzX_Hdjhb48R4xBxRTOBsgsiKut1Nku6EvEQ8MCHzS2x2ABrkBB2BVV6thm-HWIjHuZhNYeXzIR-VN2EC7VA63ksCdfpg9UwmPQdlKLp3fHf66DNPdKPfQxWwVyhuxMNr38EyhEumEgoKBS2d0XwQl7z72owSz3uuSyoHt4YzCjUu1ka_qBMZIQ9LN0TZeeDHk08AbImbbfSx-z5aNelYioerI7hOhLA0O5JGCaxIfp8eplRugHEFfZHYXkDvv2ObbA7iyfveSqXM3GwHCgzvA85BWU_sLMKR1rY2xlu0sKg6hlMRD61KGAok0waXbWKMjx1ha4Dli4zS8kW3IYZDpI61EeTpj5o8HnDy-utd0tV8hmXkNN3YLSioU48UCgLIYnkLetvsGcPFqj2xq_bpOqtnPWLHSBpnEWJe7ItAgWjKhpaZP2HSNhh9uDuk8pbdGuNCZqaKg-DRS7rTOtEbOd5Yq3ddU3qD7m2]--></g></svg>