<?xml version="1.0" encoding="us-ascii" standalone="no"?><svg xmlns="http://www.w3.org/2000/svg" xmlns:xlink="http://www.w3.org/1999/xlink" contentStyleType="text/css" height="103px" preserveAspectRatio="none" style="width:357px;height:103px;background:#FFFFFF;" version="1.1" viewBox="0 0 357 103" width="357px" zoomAndPan="magnify"><defs/><g><!--cluster RobDroneGo--><g id="cluster_RobDroneGo"><path d="M160.5,6 L252.5,6 A3.75,3.75 0 0 1 255,8.5 L262,27.6406 L347.5,27.6406 A2.5,2.5 0 0 1 350,30.1406 L350,91.5 A2.5,2.5 0 0 1 347.5,94 L160.5,94 A2.5,2.5 0 0 1 158,91.5 L158,8.5 A2.5,2.5 0 0 1 160.5,6 " fill="none" style="stroke:#000000;stroke-width:1.5;"/><line style="stroke:#000000;stroke-width:1.5;" x1="158" x2="262" y1="27.6406" y2="27.6406"/><text fill="#000000" font-family="sans-serif" font-size="14" font-weight="bold" lengthAdjust="spacing" textLength="91" x="162" y="20.6738">RobDroneGo</text></g><g id="elem_UC18"><ellipse cx="254.1439" cy="58.9288" fill="#F1F1F1" rx="80.1439" ry="18.4288" style="stroke:#181818;stroke-width:0.5;"/><text fill="#000000" font-family="sans-serif" font-size="14" lengthAdjust="spacing" textLength="121" x="193.6439" y="61.7823">Create Robot Type</text></g><!--entity FM--><g id="elem_FM"><ellipse cx="60" cy="37" fill="#F1F1F1" rx="16" ry="16" style="stroke:#181818;stroke-width:1.5;"/><path d="M60,57 C64,57 67,57 71,53 C79,53 87,61 87,69 L87,73 C87,77 83,81 79,81 L41,81 C37,81 33,77 33,73 L33,69 C33,61 41,53 49,53 C53,57 56,57 60,57 " fill="#F1F1F1" style="stroke:#181818;stroke-width:1.5;"/><text fill="#000000" font-family="sans-serif" font-size="14" lengthAdjust="spacing" textLength="108" x="6" y="95.1738">UI Fleet Manager</text></g><!--link FM to UC18--><g id="link_FM_UC18"><path d="M114.23,59 C131.07,59 150.11,59 168.58,59 " fill="none" id="FM-to-UC18" style="stroke:#181818;stroke-width:1.0;"/><polygon fill="#181818" points="173.77,59,164.77,55,168.77,59,164.77,63,173.77,59" style="stroke:#181818;stroke-width:1.0;"/></g><!--SRC=[9Okn3e9040Nx_OeNUWexAniCne96uGFMSyKBS4lsrXXY_7SLovdCZ79pkC9YVtTSeqdmg8ae3p7DR3o1WwkTVHa5_9Iian2j3aLtH3sAE1fEt8iLu8ow8QAPm_0rm4alUzCa1mLUHC0ZI-0iA2eJTla5wcYNMTQxgpPReZTHtQ0iTt_-0000]--></g></svg>