<?xml version="1.0" encoding="us-ascii" standalone="no"?><svg xmlns="http://www.w3.org/2000/svg" xmlns:xlink="http://www.w3.org/1999/xlink" contentStyleType="text/css" height="404px" preserveAspectRatio="none" style="width:849px;height:404px;background:#FFFFFF;" version="1.1" viewBox="0 0 849 404" width="849px" zoomAndPan="magnify"><defs/><g><rect fill="#FFFFFF" height="285.2344" style="stroke:#181818;stroke-width:1.0;" width="10" x="143" y="66.1641"/><rect fill="#FFFFFF" height="228.1875" style="stroke:#181818;stroke-width:1.0;" width="10" x="301" y="94.6875"/><rect fill="#FFFFFF" height="142.6172" style="stroke:#181818;stroke-width:1.0;" width="10" x="450" y="151.7344"/><rect fill="#FFFFFF" height="57.0469" style="stroke:#181818;stroke-width:1.0;" width="10" x="778.5" y="180.2578"/><line style="stroke:#181818;stroke-width:0.5;stroke-dasharray:5.0,5.0;" x1="147.5" x2="147.5" y1="35.6406" y2="369.3984"/><line style="stroke:#181818;stroke-width:0.5;stroke-dasharray:5.0,5.0;" x1="305.5" x2="305.5" y1="35.6406" y2="369.3984"/><line style="stroke:#181818;stroke-width:0.5;stroke-dasharray:5.0,5.0;" x1="454.5" x2="454.5" y1="35.6406" y2="369.3984"/><line style="stroke:#181818;stroke-width:0.5;stroke-dasharray:5.0,5.0;" x1="614.5" x2="614.5" y1="35.6406" y2="369.3984"/><line style="stroke:#181818;stroke-width:0.5;stroke-dasharray:5.0,5.0;" x1="687.5" x2="687.5" y1="35.6406" y2="369.3984"/><line style="stroke:#181818;stroke-width:0.5;stroke-dasharray:5.0,5.0;" x1="783.5" x2="783.5" y1="35.6406" y2="369.3984"/><rect fill="#E2E2F0" height="29.6406" rx="2.5" ry="2.5" style="stroke:#181818;stroke-width:0.5;" width="77" x="109.5" y="5"/><text fill="#000000" font-family="sans-serif" font-size="14" lengthAdjust="spacing" textLength="63" x="116.5" y="24.6738">:Template</text><rect fill="#E2E2F0" height="29.6406" rx="2.5" ry="2.5" style="stroke:#181818;stroke-width:0.5;" width="77" x="109.5" y="368.3984"/><text fill="#000000" font-family="sans-serif" font-size="14" lengthAdjust="spacing" textLength="63" x="116.5" y="388.0723">:Template</text><rect fill="#E2E2F0" height="29.6406" rx="2.5" ry="2.5" style="stroke:#181818;stroke-width:0.5;" width="87" x="262.5" y="5"/><text fill="#000000" font-family="sans-serif" font-size="14" lengthAdjust="spacing" textLength="73" x="269.5" y="24.6738">Component</text><rect fill="#E2E2F0" height="29.6406" rx="2.5" ry="2.5" style="stroke:#181818;stroke-width:0.5;" width="87" x="262.5" y="368.3984"/><text fill="#000000" font-family="sans-serif" font-size="14" lengthAdjust="spacing" textLength="73" x="269.5" y="388.0723">Component</text><rect fill="#E2E2F0" height="29.6406" rx="2.5" ry="2.5" style="stroke:#181818;stroke-width:0.5;" width="65" x="422.5" y="5"/><text fill="#000000" font-family="sans-serif" font-size="14" lengthAdjust="spacing" textLength="51" x="429.5" y="24.6738">:Service</text><rect fill="#E2E2F0" height="29.6406" rx="2.5" ry="2.5" style="stroke:#181818;stroke-width:0.5;" width="65" x="422.5" y="368.3984"/><text fill="#000000" font-family="sans-serif" font-size="14" lengthAdjust="spacing" textLength="51" x="429.5" y="388.0723">:Service</text><rect fill="#E2E2F0" height="29.6406" rx="2.5" ry="2.5" style="stroke:#181818;stroke-width:0.5;" width="51" x="589.5" y="5"/><text fill="#000000" font-family="sans-serif" font-size="14" lengthAdjust="spacing" textLength="37" x="596.5" y="24.6738">:Floor</text><rect fill="#E2E2F0" height="29.6406" rx="2.5" ry="2.5" style="stroke:#181818;stroke-width:0.5;" width="51" x="589.5" y="368.3984"/><text fill="#000000" font-family="sans-serif" font-size="14" lengthAdjust="spacing" textLength="37" x="596.5" y="388.0723">:Floor</text><rect fill="#E2E2F0" height="29.6406" rx="2.5" ry="2.5" style="stroke:#181818;stroke-width:0.5;" width="75" x="650.5" y="5"/><text fill="#000000" font-family="sans-serif" font-size="14" lengthAdjust="spacing" textLength="61" x="657.5" y="24.6738">:FloorEdit</text><rect fill="#E2E2F0" height="29.6406" rx="2.5" ry="2.5" style="stroke:#181818;stroke-width:0.5;" width="75" x="650.5" y="368.3984"/><text fill="#000000" font-family="sans-serif" font-size="14" lengthAdjust="spacing" textLength="61" x="657.5" y="388.0723">:FloorEdit</text><rect fill="#E2E2F0" height="29.6406" rx="2.5" ry="2.5" style="stroke:#181818;stroke-width:0.5;" width="96" x="735.5" y="5"/><text fill="#000000" font-family="sans-serif" font-size="14" lengthAdjust="spacing" textLength="82" x="742.5" y="24.6738">:HTTP Driver</text><rect fill="#E2E2F0" height="29.6406" rx="2.5" ry="2.5" style="stroke:#181818;stroke-width:0.5;" width="96" x="735.5" y="368.3984"/><text fill="#000000" font-family="sans-serif" font-size="14" lengthAdjust="spacing" textLength="82" x="742.5" y="388.0723">:HTTP Driver</text><rect fill="#FFFFFF" height="285.2344" style="stroke:#181818;stroke-width:1.0;" width="10" x="143" y="66.1641"/><rect fill="#FFFFFF" height="228.1875" style="stroke:#181818;stroke-width:1.0;" width="10" x="301" y="94.6875"/><rect fill="#FFFFFF" height="142.6172" style="stroke:#181818;stroke-width:1.0;" width="10" x="450" y="151.7344"/><rect fill="#FFFFFF" height="57.0469" style="stroke:#181818;stroke-width:1.0;" width="10" x="778.5" y="180.2578"/><ellipse cx="74.5" cy="65.4141" fill="none" rx="4" ry="4" style="stroke:#181818;stroke-width:1.5;"/><polygon fill="#181818" points="131,62.1641,141,66.1641,131,70.1641,135,66.1641" style="stroke:#181818;stroke-width:1.0;"/><line style="stroke:#181818;stroke-width:1.0;" x1="79" x2="137" y1="66.1641" y2="66.1641"/><text fill="#000000" font-family="sans-serif" font-size="13" font-weight="bold" lengthAdjust="spacing" textLength="7" x="82" y="61.4092">1</text><text fill="#000000" font-family="sans-serif" font-size="13" lengthAdjust="spacing" textLength="35" x="93" y="61.4092">/floors</text><polygon fill="#181818" points="289,90.6875,299,94.6875,289,98.6875,293,94.6875" style="stroke:#181818;stroke-width:1.0;"/><line style="stroke:#181818;stroke-width:1.0;" x1="153" x2="295" y1="94.6875" y2="94.6875"/><text fill="#000000" font-family="sans-serif" font-size="13" font-weight="bold" lengthAdjust="spacing" textLength="7" x="160" y="89.9326">2</text><text fill="#000000" font-family="sans-serif" font-size="13" lengthAdjust="spacing" textLength="89" x="171" y="89.9326">/floors/editFloor</text><polygon fill="#181818" points="676,119.2109,686,123.2109,676,127.2109,680,123.2109" style="stroke:#181818;stroke-width:1.0;"/><line style="stroke:#181818;stroke-width:1.0;" x1="311" x2="682" y1="123.2109" y2="123.2109"/><text fill="#000000" font-family="sans-serif" font-size="13" font-weight="bold" lengthAdjust="spacing" textLength="7" x="318" y="118.4561">3</text><text fill="#000000" font-family="sans-serif" font-size="13" lengthAdjust="spacing" textLength="136" x="329" y="118.4561">Parse Data to FloorEdit</text><polygon fill="#181818" points="438,147.7344,448,151.7344,438,155.7344,442,151.7344" style="stroke:#181818;stroke-width:1.0;"/><line style="stroke:#181818;stroke-width:1.0;" x1="311" x2="444" y1="151.7344" y2="151.7344"/><text fill="#000000" font-family="sans-serif" font-size="13" font-weight="bold" lengthAdjust="spacing" textLength="7" x="318" y="146.9795">4</text><text fill="#000000" font-family="sans-serif" font-size="13" lengthAdjust="spacing" textLength="109" x="329" y="146.9795">editFloor(floorData)</text><polygon fill="#181818" points="766.5,176.2578,776.5,180.2578,766.5,184.2578,770.5,180.2578" style="stroke:#181818;stroke-width:1.0;"/><line style="stroke:#181818;stroke-width:1.0;" x1="460" x2="772.5" y1="180.2578" y2="180.2578"/><text fill="#000000" font-family="sans-serif" font-size="13" font-weight="bold" lengthAdjust="spacing" textLength="7" x="467" y="175.5029">5</text><text fill="#000000" font-family="sans-serif" font-size="13" lengthAdjust="spacing" textLength="44" x="478" y="175.5029">http put</text><polygon fill="#181818" points="836.5,204.7813,846.5,208.7813,836.5,212.7813,840.5,208.7813" style="stroke:#181818;stroke-width:1.0;"/><line style="stroke:#181818;stroke-width:1.0;" x1="788.5" x2="842.5" y1="208.7813" y2="208.7813"/><text fill="#000000" font-family="sans-serif" font-size="13" font-weight="bold" lengthAdjust="spacing" textLength="7" x="795.5" y="204.0264">6</text><text fill="#000000" font-family="sans-serif" font-size="13" lengthAdjust="spacing" textLength="25" x="806.5" y="204.0264">PUT</text><polygon fill="#181818" points="471,233.3047,461,237.3047,471,241.3047,467,237.3047" style="stroke:#181818;stroke-width:1.0;"/><line style="stroke:#181818;stroke-width:1.0;stroke-dasharray:2.0,2.0;" x1="465" x2="782.5" y1="237.3047" y2="237.3047"/><text fill="#000000" font-family="sans-serif" font-size="13" font-weight="bold" lengthAdjust="spacing" textLength="7" x="477" y="232.5498">7</text><text fill="#000000" font-family="sans-serif" font-size="13" lengthAdjust="spacing" textLength="34" x="488" y="232.5498">JSON</text><polygon fill="#181818" points="603,261.8281,613,265.8281,603,269.8281,607,265.8281" style="stroke:#181818;stroke-width:1.0;"/><line style="stroke:#181818;stroke-width:1.0;" x1="460" x2="609" y1="265.8281" y2="265.8281"/><text fill="#000000" font-family="sans-serif" font-size="13" font-weight="bold" lengthAdjust="spacing" textLength="7" x="467" y="261.0732">8</text><text fill="#000000" font-family="sans-serif" font-size="13" lengthAdjust="spacing" textLength="120" x="478" y="261.0732">Parse JSON to Floor</text><polygon fill="#181818" points="322,290.3516,312,294.3516,322,298.3516,318,294.3516" style="stroke:#181818;stroke-width:1.0;"/><line style="stroke:#181818;stroke-width:1.0;stroke-dasharray:2.0,2.0;" x1="316" x2="454" y1="294.3516" y2="294.3516"/><text fill="#000000" font-family="sans-serif" font-size="13" font-weight="bold" lengthAdjust="spacing" textLength="7" x="328" y="289.5967">9</text><text fill="#000000" font-family="sans-serif" font-size="13" lengthAdjust="spacing" textLength="24" x="339" y="289.5967">floor</text><polygon fill="#181818" points="164,318.875,154,322.875,164,326.875,160,322.875" style="stroke:#181818;stroke-width:1.0;"/><line style="stroke:#181818;stroke-width:1.0;stroke-dasharray:2.0,2.0;" x1="158" x2="305" y1="322.875" y2="322.875"/><text fill="#000000" font-family="sans-serif" font-size="13" font-weight="bold" lengthAdjust="spacing" textLength="14" x="170" y="318.1201">10</text><text fill="#000000" font-family="sans-serif" font-size="13" lengthAdjust="spacing" textLength="106" x="188" y="318.1201">operation success</text><polygon fill="#181818" points="11,347.3984,1,351.3984,11,355.3984,7,351.3984" style="stroke:#181818;stroke-width:1.0;"/><line style="stroke:#181818;stroke-width:1.0;stroke-dasharray:2.0,2.0;" x1="5" x2="147" y1="351.3984" y2="351.3984"/><text fill="#000000" font-family="sans-serif" font-size="13" font-weight="bold" lengthAdjust="spacing" textLength="14" x="17" y="346.6436">11</text><text fill="#000000" font-family="sans-serif" font-size="13" lengthAdjust="spacing" textLength="106" x="35" y="346.6436">operation success</text><!--SRC=[ZL6xJiGm4Epz5Qkhe8XEehJGKN0WX0ISTE43ZBC8IqbisPjyFxOJFn9HqEt6CxCp4p6H7gVX2orZp0XBIYeZHe83Rt4mlI0yW72GbWtcKGz6Z-WdZyZBJkQATbPoKLdd7UAvrzh6zpVTOV_NwrEdg23kTf2Njht0sQeP5vcmC_QWcrEopU7u7NGS4vBKxB-KH2nDq9nAYimuehyTJHHkoSfA1vwzkEDm4TOXd0K980qvmGwzji4XNxY99mFljXnBfR5r2DIGaCCFaG4pKS76vB4E3_8-Fjjrgy-zNZ_UMOTRKgqUOwGK0PrJLB1jMT5uBPfTLv4zfVmGRT0AKde4Dqc9pjNigk3xfladgVpHNm00]--></g></svg>