<?xml version="1.0" encoding="UTF-8" standalone="no"?><svg xmlns="http://www.w3.org/2000/svg" xmlns:xlink="http://www.w3.org/1999/xlink" contentStyleType="text/css" height="111px" preserveAspectRatio="none" style="width:423px;height:111px;background:#FFFFFF;" version="1.1" viewBox="0 0 423 111" width="423px" zoomAndPan="magnify"><defs/><g><!--MD5=[1478444cbd0d707d5292787239839939]
cluster RobDroneGo--><g id="cluster_RobDroneGo"><path d="M180.5,6 L272.5,6 A3.75,3.75 0 0 1 275,8.5 L282,29.6094 L413.5,29.6094 A2.5,2.5 0 0 1 416,32.1094 L416,101.5 A2.5,2.5 0 0 1 413.5,104 L180.5,104 A2.5,2.5 0 0 1 178,101.5 L178,8.5 A2.5,2.5 0 0 1 180.5,6 " fill="none" style="stroke:#000000;stroke-width:1.5;"/><line style="stroke:#000000;stroke-width:1.5;" x1="178" x2="282" y1="29.6094" y2="29.6094"/><text fill="#000000" font-family="sans-serif" font-size="14" font-weight="bold" lengthAdjust="spacing" textLength="91" x="182" y="22.5332">RobDroneGo</text></g><g id="elem_UC13"><ellipse cx="297.1901" cy="65.038" fill="#F1F1F1" rx="103.1901" ry="23.038" style="stroke:#181818;stroke-width:0.5;"/><text fill="#000000" font-family="sans-serif" font-size="14" lengthAdjust="spacing" textLength="168" x="213.1901" y="68.7665">Create Elevator in Building</text></g><!--MD5=[99f3cfe8ce18ee9cb444babb539f6fb5]
entity CM--><g id="elem_CM"><ellipse cx="70" cy="42" fill="#F1F1F1" rx="16" ry="16" style="stroke:#181818;stroke-width:1.5;"/><path d="M70,62 C74,62 77,62 81,58 C89,58 97,66 97,74 L97,78 C97,82 93,86 89,86 L51,86 C47,86 43,82 43,78 L43,74 C43,66 51,58 59,58 C63,62 66,62 70,62 " fill="#F1F1F1" style="stroke:#181818;stroke-width:1.5;"/><text fill="#000000" font-family="sans-serif" font-size="14" lengthAdjust="spacing" textLength="128" x="6" y="102.0332">UI Campus Manager</text></g><!--MD5=[ade07d9c495d68ea197cf04dbfa5694f]
link CM to UC13--><g id="link_CM_UC13"><path d="M134.27,65 C151.14,65 169.86,65 188.39,65 " fill="none" id="CM-to-UC13" style="stroke:#181818;stroke-width:1.0;"/><polygon fill="#181818" points="193.61,65,184.61,61,188.61,65,184.61,69,193.61,65" style="stroke:#181818;stroke-width:1.0;"/></g><!--MD5=[dc990cb1f017c0b892f6c6ff3b8acc30]
@startuml
left to right direction

skinparam actorStyle awesome

actor "UI Campus Manager" as CM


package  RobDroneGo  {
  
  usecase "Create Elevator in Building" as UC13
  
}

CM - -> UC13

@enduml

PlantUML version 1.2022.7(Mon Aug 22 18:01:30 WEST 2022)
(GPL source distribution)
Java Runtime: Java(TM) SE Runtime Environment
JVM: Java HotSpot(TM) 64-Bit Server VM
Default Encoding: UTF-8
Language: pt
Country: PT
--></g></svg>