<?xml version="1.0" encoding="us-ascii" standalone="no"?><svg xmlns="http://www.w3.org/2000/svg" xmlns:xlink="http://www.w3.org/1999/xlink" contentStyleType="text/css" height="484px" preserveAspectRatio="none" style="width:1301px;height:484px;background:#FFFFFF;" version="1.1" viewBox="0 0 1301 484" width="1301px" zoomAndPan="magnify"><defs/><g><g id="cluster_##2"><rect fill="#464D77" height="336.5" rx="2.5" ry="2.5" style="stroke:#181818;stroke-width:1.0;" width="465" x="7" y="7"/></g><g id="cluster_##11"><rect fill="#96A377" height="228" rx="2.5" ry="2.5" style="stroke:#181818;stroke-width:1.0;" width="799" x="496" y="250"/></g><!--class Robot--><g id="elem_Robot"><rect codeLine="6" fill="#F1F1F1" height="68.4531" id="Robot" rx="2.5" ry="2.5" style="stroke:#181818;stroke-width:0.5;" width="72" x="260" y="138"/><ellipse cx="275" cy="164.2266" fill="#ADD1B2" rx="11" ry="11" style="stroke:#181818;stroke-width:1.0;"/><path d="M277.7656,160.1016 Q277.9219,159.8828 278.1094,159.7734 Q278.2969,159.6641 278.5156,159.6641 Q278.8906,159.6641 279.125,159.9297 Q279.3594,160.1797 279.3594,160.7891 L279.3594,162.2422 Q279.3594,162.8516 279.125,163.1172 Q278.8906,163.3828 278.5156,163.3828 Q278.1719,163.3828 277.9688,163.1797 Q277.7656,162.9922 277.6563,162.4766 Q277.6094,162.1172 277.4219,161.9297 Q277.0938,161.5547 276.4844,161.3359 Q275.875,161.1172 275.25,161.1172 Q274.4844,161.1172 273.8438,161.4453 Q273.2188,161.7734 272.7188,162.5234 Q272.2344,163.2734 272.2344,164.3047 L272.2344,165.3984 Q272.2344,166.6328 273.125,167.4609 Q274.0156,168.2734 275.6094,168.2734 Q276.5469,168.2734 277.2031,168.0234 Q277.5938,167.8672 278.0156,167.4297 Q278.2813,167.1641 278.4219,167.0859 Q278.5781,167.0078 278.7813,167.0078 Q279.1094,167.0078 279.3594,167.2734 Q279.625,167.5234 279.625,167.8672 Q279.625,168.2109 279.2813,168.6172 Q278.7813,169.1953 277.9844,169.5234 Q276.9063,169.9766 275.6094,169.9766 Q274.0938,169.9766 272.8906,169.3516 Q271.9063,168.8516 271.2188,167.7891 Q270.5313,166.7109 270.5313,165.4297 L270.5313,164.2734 Q270.5313,162.9453 271.1406,161.8047 Q271.7656,160.6484 272.8594,160.0391 Q273.9531,159.4141 275.1875,159.4141 Q275.9219,159.4141 276.5625,159.5859 Q277.2188,159.7422 277.7656,160.1016 Z " fill="#000000"/><text fill="#000000" font-family="sans-serif" font-size="12" font-style="italic" lengthAdjust="spacing" textLength="40" x="289" y="153.8633">&#171;Root&#187;</text><text fill="#000000" font-family="sans-serif" font-size="12" font-style="italic" lengthAdjust="spacing" textLength="44" x="287" y="167.2695">&#171;Entity&#187;</text><text fill="#000000" font-family="sans-serif" font-size="14" lengthAdjust="spacing" textLength="38" x="290" y="182.4863">Robot</text><line style="stroke:#181818;stroke-width:0.5;" x1="261" x2="331" y1="190.4531" y2="190.4531"/><line style="stroke:#181818;stroke-width:0.5;" x1="261" x2="331" y1="198.4531" y2="198.4531"/></g><!--class Drone--><g id="elem_Drone"><rect codeLine="7" fill="#F1F1F1" height="55.0469" id="Drone" rx="2.5" ry="2.5" style="stroke:#181818;stroke-width:0.5;" width="72" x="323" y="23"/><ellipse cx="338" cy="42.5234" fill="#ADD1B2" rx="11" ry="11" style="stroke:#181818;stroke-width:1.0;"/><path d="M340.7656,38.3984 Q340.9219,38.1797 341.1094,38.0703 Q341.2969,37.9609 341.5156,37.9609 Q341.8906,37.9609 342.125,38.2266 Q342.3594,38.4766 342.3594,39.0859 L342.3594,40.5391 Q342.3594,41.1484 342.125,41.4141 Q341.8906,41.6797 341.5156,41.6797 Q341.1719,41.6797 340.9688,41.4766 Q340.7656,41.2891 340.6563,40.7734 Q340.6094,40.4141 340.4219,40.2266 Q340.0938,39.8516 339.4844,39.6328 Q338.875,39.4141 338.25,39.4141 Q337.4844,39.4141 336.8438,39.7422 Q336.2188,40.0703 335.7188,40.8203 Q335.2344,41.5703 335.2344,42.6016 L335.2344,43.6953 Q335.2344,44.9297 336.125,45.7578 Q337.0156,46.5703 338.6094,46.5703 Q339.5469,46.5703 340.2031,46.3203 Q340.5938,46.1641 341.0156,45.7266 Q341.2813,45.4609 341.4219,45.3828 Q341.5781,45.3047 341.7813,45.3047 Q342.1094,45.3047 342.3594,45.5703 Q342.625,45.8203 342.625,46.1641 Q342.625,46.5078 342.2813,46.9141 Q341.7813,47.4922 340.9844,47.8203 Q339.9063,48.2734 338.6094,48.2734 Q337.0938,48.2734 335.8906,47.6484 Q334.9063,47.1484 334.2188,46.0859 Q333.5313,45.0078 333.5313,43.7266 L333.5313,42.5703 Q333.5313,41.2422 334.1406,40.1016 Q334.7656,38.9453 335.8594,38.3359 Q336.9531,37.7109 338.1875,37.7109 Q338.9219,37.7109 339.5625,37.8828 Q340.2188,38.0391 340.7656,38.3984 Z " fill="#000000"/><text fill="#000000" font-family="sans-serif" font-size="12" font-style="italic" lengthAdjust="spacing" textLength="44" x="350" y="38.8633">&#171;Entity&#187;</text><text fill="#000000" font-family="sans-serif" font-size="14" lengthAdjust="spacing" textLength="39" x="352.5" y="54.0801">Drone</text><line style="stroke:#181818;stroke-width:0.5;" x1="324" x2="394" y1="62.0469" y2="62.0469"/><line style="stroke:#181818;stroke-width:0.5;" x1="324" x2="394" y1="70.0469" y2="70.0469"/></g><!--class MobileRobot--><g id="elem_MobileRobot"><rect codeLine="8" fill="#F1F1F1" height="55.0469" id="MobileRobot" rx="2.5" ry="2.5" style="stroke:#181818;stroke-width:0.5;" width="111" x="176.5" y="23"/><ellipse cx="191.5" cy="42.5234" fill="#ADD1B2" rx="11" ry="11" style="stroke:#181818;stroke-width:1.0;"/><path d="M194.2656,38.3984 Q194.4219,38.1797 194.6094,38.0703 Q194.7969,37.9609 195.0156,37.9609 Q195.3906,37.9609 195.625,38.2266 Q195.8594,38.4766 195.8594,39.0859 L195.8594,40.5391 Q195.8594,41.1484 195.625,41.4141 Q195.3906,41.6797 195.0156,41.6797 Q194.6719,41.6797 194.4688,41.4766 Q194.2656,41.2891 194.1563,40.7734 Q194.1094,40.4141 193.9219,40.2266 Q193.5938,39.8516 192.9844,39.6328 Q192.375,39.4141 191.75,39.4141 Q190.9844,39.4141 190.3438,39.7422 Q189.7188,40.0703 189.2188,40.8203 Q188.7344,41.5703 188.7344,42.6016 L188.7344,43.6953 Q188.7344,44.9297 189.625,45.7578 Q190.5156,46.5703 192.1094,46.5703 Q193.0469,46.5703 193.7031,46.3203 Q194.0938,46.1641 194.5156,45.7266 Q194.7813,45.4609 194.9219,45.3828 Q195.0781,45.3047 195.2813,45.3047 Q195.6094,45.3047 195.8594,45.5703 Q196.125,45.8203 196.125,46.1641 Q196.125,46.5078 195.7813,46.9141 Q195.2813,47.4922 194.4844,47.8203 Q193.4063,48.2734 192.1094,48.2734 Q190.5938,48.2734 189.3906,47.6484 Q188.4063,47.1484 187.7188,46.0859 Q187.0313,45.0078 187.0313,43.7266 L187.0313,42.5703 Q187.0313,41.2422 187.6406,40.1016 Q188.2656,38.9453 189.3594,38.3359 Q190.4531,37.7109 191.6875,37.7109 Q192.4219,37.7109 193.0625,37.8828 Q193.7188,38.0391 194.2656,38.3984 Z " fill="#000000"/><text fill="#000000" font-family="sans-serif" font-size="12" font-style="italic" lengthAdjust="spacing" textLength="44" x="223" y="38.8633">&#171;Entity&#187;</text><text fill="#000000" font-family="sans-serif" font-size="14" lengthAdjust="spacing" textLength="79" x="205.5" y="54.0801">MobileRobot</text><line style="stroke:#181818;stroke-width:0.5;" x1="177.5" x2="286.5" y1="62.0469" y2="62.0469"/><line style="stroke:#181818;stroke-width:0.5;" x1="177.5" x2="286.5" y1="70.0469" y2="70.0469"/></g><!--class Code--><g id="elem_Code"><rect codeLine="10" fill="#F1F1F1" height="68.4531" id="Code" rx="2.5" ry="2.5" style="stroke:#181818;stroke-width:0.5;" width="110" x="115" y="138"/><ellipse cx="130" cy="164.2266" fill="#FFA500" rx="11" ry="11" style="stroke:#181818;stroke-width:1.0;"/><path d="M130.6094,167.1641 L132.4531,163.3984 Q131.7656,163.3984 131.5781,163.2734 Q131.1563,163.0234 131.1563,162.5391 Q131.1563,162.1641 131.4219,161.9297 Q131.6875,161.6953 132.2969,161.6953 L134.625,161.6953 Q135.25,161.6953 135.5,161.9297 Q135.7656,162.1641 135.7656,162.5391 Q135.7656,162.9141 135.5,163.1641 Q135.25,163.3984 134.625,163.3984 L134.3438,163.3984 L131.5,169.2266 L129.7188,169.2266 L126.875,163.3984 L126.6406,163.3984 Q126.0156,163.3984 125.75,163.1641 Q125.5,162.9141 125.5,162.5391 Q125.5,162.1641 125.75,161.9297 Q126.0156,161.6953 126.6406,161.6953 L128.9219,161.6953 Q129.5313,161.6953 129.7813,161.9297 Q130.0469,162.1641 130.0469,162.5391 Q130.0469,163.0234 129.6563,163.2734 Q129.4531,163.3984 128.7656,163.3984 L130.6094,167.1641 Z " fill="#000000"/><text fill="#000000" font-family="sans-serif" font-size="12" font-style="italic" lengthAdjust="spacing" textLength="82" x="142" y="153.8633">&#171;ValueObject&#187;</text><text fill="#000000" font-family="sans-serif" font-size="12" font-style="italic" lengthAdjust="spacing" textLength="52" x="157" y="167.2695">&#171;unique&#187;</text><text fill="#000000" font-family="sans-serif" font-size="14" lengthAdjust="spacing" textLength="34" x="166" y="182.4863">Code</text><line style="stroke:#181818;stroke-width:0.5;" x1="116" x2="224" y1="190.4531" y2="190.4531"/><line style="stroke:#181818;stroke-width:0.5;" x1="116" x2="224" y1="198.4531" y2="198.4531"/></g><!--class Nickname--><g id="elem_Nickname"><rect codeLine="11" fill="#F1F1F1" height="55.0469" id="Nickname" rx="2.5" ry="2.5" style="stroke:#181818;stroke-width:0.5;" width="110" x="23" y="272.5"/><ellipse cx="38" cy="292.0234" fill="#A4C2E5" rx="11" ry="11" style="stroke:#181818;stroke-width:1.0;"/><path d="M38.6094,294.9609 L40.4531,291.1953 Q39.7656,291.1953 39.5781,291.0703 Q39.1563,290.8203 39.1563,290.3359 Q39.1563,289.9609 39.4219,289.7266 Q39.6875,289.4922 40.2969,289.4922 L42.625,289.4922 Q43.25,289.4922 43.5,289.7266 Q43.7656,289.9609 43.7656,290.3359 Q43.7656,290.7109 43.5,290.9609 Q43.25,291.1953 42.625,291.1953 L42.3438,291.1953 L39.5,297.0234 L37.7188,297.0234 L34.875,291.1953 L34.6406,291.1953 Q34.0156,291.1953 33.75,290.9609 Q33.5,290.7109 33.5,290.3359 Q33.5,289.9609 33.75,289.7266 Q34.0156,289.4922 34.6406,289.4922 L36.9219,289.4922 Q37.5313,289.4922 37.7813,289.7266 Q38.0469,289.9609 38.0469,290.3359 Q38.0469,290.8203 37.6563,291.0703 Q37.4531,291.1953 36.7656,291.1953 L38.6094,294.9609 Z " fill="#000000"/><text fill="#000000" font-family="sans-serif" font-size="12" font-style="italic" lengthAdjust="spacing" textLength="82" x="50" y="288.3633">&#171;ValueObject&#187;</text><text fill="#000000" font-family="sans-serif" font-size="14" lengthAdjust="spacing" textLength="61" x="60.5" y="303.5801">Nickname</text><line style="stroke:#181818;stroke-width:0.5;" x1="24" x2="132" y1="311.5469" y2="311.5469"/><line style="stroke:#181818;stroke-width:0.5;" x1="24" x2="132" y1="319.5469" y2="319.5469"/></g><!--class OperationStatus--><g id="elem_OperationStatus"><rect codeLine="12" fill="#F1F1F1" height="55.0469" id="OperationStatus" rx="2.5" ry="2.5" style="stroke:#181818;stroke-width:0.5;" width="135" x="168.5" y="272.5"/><ellipse cx="183.5" cy="292.0234" fill="#A4C2E5" rx="11" ry="11" style="stroke:#181818;stroke-width:1.0;"/><path d="M184.1094,294.9609 L185.9531,291.1953 Q185.2656,291.1953 185.0781,291.0703 Q184.6563,290.8203 184.6563,290.3359 Q184.6563,289.9609 184.9219,289.7266 Q185.1875,289.4922 185.7969,289.4922 L188.125,289.4922 Q188.75,289.4922 189,289.7266 Q189.2656,289.9609 189.2656,290.3359 Q189.2656,290.7109 189,290.9609 Q188.75,291.1953 188.125,291.1953 L187.8438,291.1953 L185,297.0234 L183.2188,297.0234 L180.375,291.1953 L180.1406,291.1953 Q179.5156,291.1953 179.25,290.9609 Q179,290.7109 179,290.3359 Q179,289.9609 179.25,289.7266 Q179.5156,289.4922 180.1406,289.4922 L182.4219,289.4922 Q183.0313,289.4922 183.2813,289.7266 Q183.5469,289.9609 183.5469,290.3359 Q183.5469,290.8203 183.1563,291.0703 Q182.9531,291.1953 182.2656,291.1953 L184.1094,294.9609 Z " fill="#000000"/><text fill="#000000" font-family="sans-serif" font-size="12" font-style="italic" lengthAdjust="spacing" textLength="82" x="208" y="288.3633">&#171;ValueObject&#187;</text><text fill="#000000" font-family="sans-serif" font-size="14" lengthAdjust="spacing" textLength="103" x="197.5" y="303.5801">OperationStatus</text><line style="stroke:#181818;stroke-width:0.5;" x1="169.5" x2="302.5" y1="311.5469" y2="311.5469"/><line style="stroke:#181818;stroke-width:0.5;" x1="169.5" x2="302.5" y1="319.5469" y2="319.5469"/></g><!--class SerialNumber--><g id="elem_SerialNumber"><rect codeLine="13" fill="#F1F1F1" height="55.0469" id="SerialNumber" rx="2.5" ry="2.5" style="stroke:#181818;stroke-width:0.5;" width="117" x="338.5" y="272.5"/><ellipse cx="353.5" cy="292.0234" fill="#A4C2E5" rx="11" ry="11" style="stroke:#181818;stroke-width:1.0;"/><path d="M354.1094,294.9609 L355.9531,291.1953 Q355.2656,291.1953 355.0781,291.0703 Q354.6563,290.8203 354.6563,290.3359 Q354.6563,289.9609 354.9219,289.7266 Q355.1875,289.4922 355.7969,289.4922 L358.125,289.4922 Q358.75,289.4922 359,289.7266 Q359.2656,289.9609 359.2656,290.3359 Q359.2656,290.7109 359,290.9609 Q358.75,291.1953 358.125,291.1953 L357.8438,291.1953 L355,297.0234 L353.2188,297.0234 L350.375,291.1953 L350.1406,291.1953 Q349.5156,291.1953 349.25,290.9609 Q349,290.7109 349,290.3359 Q349,289.9609 349.25,289.7266 Q349.5156,289.4922 350.1406,289.4922 L352.4219,289.4922 Q353.0313,289.4922 353.2813,289.7266 Q353.5469,289.9609 353.5469,290.3359 Q353.5469,290.8203 353.1563,291.0703 Q352.9531,291.1953 352.2656,291.1953 L354.1094,294.9609 Z " fill="#000000"/><text fill="#000000" font-family="sans-serif" font-size="12" font-style="italic" lengthAdjust="spacing" textLength="82" x="369" y="288.3633">&#171;ValueObject&#187;</text><text fill="#000000" font-family="sans-serif" font-size="14" lengthAdjust="spacing" textLength="85" x="367.5" y="303.5801">SerialNumber</text><line style="stroke:#181818;stroke-width:0.5;" x1="339.5" x2="454.5" y1="311.5469" y2="311.5469"/><line style="stroke:#181818;stroke-width:0.5;" x1="339.5" x2="454.5" y1="319.5469" y2="319.5469"/></g><!--class RobotType--><g id="elem_RobotType"><rect codeLine="17" fill="#F1F1F1" height="68.4531" id="RobotType" rx="2.5" ry="2.5" style="stroke:#181818;stroke-width:0.5;" width="102" x="743" y="266"/><ellipse cx="758" cy="292.2266" fill="#ADD1B2" rx="11" ry="11" style="stroke:#181818;stroke-width:1.0;"/><path d="M760.7656,288.1016 Q760.9219,287.8828 761.1094,287.7734 Q761.2969,287.6641 761.5156,287.6641 Q761.8906,287.6641 762.125,287.9297 Q762.3594,288.1797 762.3594,288.7891 L762.3594,290.2422 Q762.3594,290.8516 762.125,291.1172 Q761.8906,291.3828 761.5156,291.3828 Q761.1719,291.3828 760.9688,291.1797 Q760.7656,290.9922 760.6563,290.4766 Q760.6094,290.1172 760.4219,289.9297 Q760.0938,289.5547 759.4844,289.3359 Q758.875,289.1172 758.25,289.1172 Q757.4844,289.1172 756.8438,289.4453 Q756.2188,289.7734 755.7188,290.5234 Q755.2344,291.2734 755.2344,292.3047 L755.2344,293.3984 Q755.2344,294.6328 756.125,295.4609 Q757.0156,296.2734 758.6094,296.2734 Q759.5469,296.2734 760.2031,296.0234 Q760.5938,295.8672 761.0156,295.4297 Q761.2813,295.1641 761.4219,295.0859 Q761.5781,295.0078 761.7813,295.0078 Q762.1094,295.0078 762.3594,295.2734 Q762.625,295.5234 762.625,295.8672 Q762.625,296.2109 762.2813,296.6172 Q761.7813,297.1953 760.9844,297.5234 Q759.9063,297.9766 758.6094,297.9766 Q757.0938,297.9766 755.8906,297.3516 Q754.9063,296.8516 754.2188,295.7891 Q753.5313,294.7109 753.5313,293.4297 L753.5313,292.2734 Q753.5313,290.9453 754.1406,289.8047 Q754.7656,288.6484 755.8594,288.0391 Q756.9531,287.4141 758.1875,287.4141 Q758.9219,287.4141 759.5625,287.5859 Q760.2188,287.7422 760.7656,288.1016 Z " fill="#000000"/><text fill="#000000" font-family="sans-serif" font-size="12" font-style="italic" lengthAdjust="spacing" textLength="40" x="787" y="281.8633">&#171;Root&#187;</text><text fill="#000000" font-family="sans-serif" font-size="12" font-style="italic" lengthAdjust="spacing" textLength="44" x="785" y="295.2695">&#171;Entity&#187;</text><text fill="#000000" font-family="sans-serif" font-size="14" lengthAdjust="spacing" textLength="70" x="772" y="310.4863">RobotType</text><line style="stroke:#181818;stroke-width:0.5;" x1="744" x2="844" y1="318.4531" y2="318.4531"/><line style="stroke:#181818;stroke-width:0.5;" x1="744" x2="844" y1="326.4531" y2="326.4531"/></g><!--class AvailableTask--><g id="elem_AvailableTask"><rect codeLine="18" fill="#F1F1F1" height="55.0469" id="AvailableTask" rx="2.5" ry="2.5" style="stroke:#181818;stroke-width:0.5;" width="120" x="512" y="400.5"/><ellipse cx="527" cy="420.0234" fill="#A4C2E5" rx="11" ry="11" style="stroke:#181818;stroke-width:1.0;"/><path d="M527.6094,422.9609 L529.4531,419.1953 Q528.7656,419.1953 528.5781,419.0703 Q528.1563,418.8203 528.1563,418.3359 Q528.1563,417.9609 528.4219,417.7266 Q528.6875,417.4922 529.2969,417.4922 L531.625,417.4922 Q532.25,417.4922 532.5,417.7266 Q532.7656,417.9609 532.7656,418.3359 Q532.7656,418.7109 532.5,418.9609 Q532.25,419.1953 531.625,419.1953 L531.3438,419.1953 L528.5,425.0234 L526.7188,425.0234 L523.875,419.1953 L523.6406,419.1953 Q523.0156,419.1953 522.75,418.9609 Q522.5,418.7109 522.5,418.3359 Q522.5,417.9609 522.75,417.7266 Q523.0156,417.4922 523.6406,417.4922 L525.9219,417.4922 Q526.5313,417.4922 526.7813,417.7266 Q527.0469,417.9609 527.0469,418.3359 Q527.0469,418.8203 526.6563,419.0703 Q526.4531,419.1953 525.7656,419.1953 L527.6094,422.9609 Z " fill="#000000"/><text fill="#000000" font-family="sans-serif" font-size="12" font-style="italic" lengthAdjust="spacing" textLength="82" x="544" y="416.3633">&#171;ValueObject&#187;</text><text fill="#000000" font-family="sans-serif" font-size="14" lengthAdjust="spacing" textLength="88" x="541" y="431.5801">AvailableTask</text><line style="stroke:#181818;stroke-width:0.5;" x1="513" x2="631" y1="439.5469" y2="439.5469"/><line style="stroke:#181818;stroke-width:0.5;" x1="513" x2="631" y1="447.5469" y2="447.5469"/></g><!--class RobotModel--><g id="elem_RobotModel"><rect codeLine="19" fill="#F1F1F1" height="55.0469" id="RobotModel" rx="2.5" ry="2.5" style="stroke:#181818;stroke-width:0.5;" width="110" x="667" y="400.5"/><ellipse cx="682" cy="420.0234" fill="#A4C2E5" rx="11" ry="11" style="stroke:#181818;stroke-width:1.0;"/><path d="M682.6094,422.9609 L684.4531,419.1953 Q683.7656,419.1953 683.5781,419.0703 Q683.1563,418.8203 683.1563,418.3359 Q683.1563,417.9609 683.4219,417.7266 Q683.6875,417.4922 684.2969,417.4922 L686.625,417.4922 Q687.25,417.4922 687.5,417.7266 Q687.7656,417.9609 687.7656,418.3359 Q687.7656,418.7109 687.5,418.9609 Q687.25,419.1953 686.625,419.1953 L686.3438,419.1953 L683.5,425.0234 L681.7188,425.0234 L678.875,419.1953 L678.6406,419.1953 Q678.0156,419.1953 677.75,418.9609 Q677.5,418.7109 677.5,418.3359 Q677.5,417.9609 677.75,417.7266 Q678.0156,417.4922 678.6406,417.4922 L680.9219,417.4922 Q681.5313,417.4922 681.7813,417.7266 Q682.0469,417.9609 682.0469,418.3359 Q682.0469,418.8203 681.6563,419.0703 Q681.4531,419.1953 680.7656,419.1953 L682.6094,422.9609 Z " fill="#000000"/><text fill="#000000" font-family="sans-serif" font-size="12" font-style="italic" lengthAdjust="spacing" textLength="82" x="694" y="416.3633">&#171;ValueObject&#187;</text><text fill="#000000" font-family="sans-serif" font-size="14" lengthAdjust="spacing" textLength="76" x="697" y="431.5801">RobotModel</text><line style="stroke:#181818;stroke-width:0.5;" x1="668" x2="776" y1="439.5469" y2="439.5469"/><line style="stroke:#181818;stroke-width:0.5;" x1="668" x2="776" y1="447.5469" y2="447.5469"/></g><!--class RobotBrand--><g id="elem_RobotBrand"><rect codeLine="20" fill="#F1F1F1" height="55.0469" id="RobotBrand" rx="2.5" ry="2.5" style="stroke:#181818;stroke-width:0.5;" width="110" x="812" y="400.5"/><ellipse cx="827" cy="420.0234" fill="#A4C2E5" rx="11" ry="11" style="stroke:#181818;stroke-width:1.0;"/><path d="M827.6094,422.9609 L829.4531,419.1953 Q828.7656,419.1953 828.5781,419.0703 Q828.1563,418.8203 828.1563,418.3359 Q828.1563,417.9609 828.4219,417.7266 Q828.6875,417.4922 829.2969,417.4922 L831.625,417.4922 Q832.25,417.4922 832.5,417.7266 Q832.7656,417.9609 832.7656,418.3359 Q832.7656,418.7109 832.5,418.9609 Q832.25,419.1953 831.625,419.1953 L831.3438,419.1953 L828.5,425.0234 L826.7188,425.0234 L823.875,419.1953 L823.6406,419.1953 Q823.0156,419.1953 822.75,418.9609 Q822.5,418.7109 822.5,418.3359 Q822.5,417.9609 822.75,417.7266 Q823.0156,417.4922 823.6406,417.4922 L825.9219,417.4922 Q826.5313,417.4922 826.7813,417.7266 Q827.0469,417.9609 827.0469,418.3359 Q827.0469,418.8203 826.6563,419.0703 Q826.4531,419.1953 825.7656,419.1953 L827.6094,422.9609 Z " fill="#000000"/><text fill="#000000" font-family="sans-serif" font-size="12" font-style="italic" lengthAdjust="spacing" textLength="82" x="839" y="416.3633">&#171;ValueObject&#187;</text><text fill="#000000" font-family="sans-serif" font-size="14" lengthAdjust="spacing" textLength="76" x="842" y="431.5801">RobotBrand</text><line style="stroke:#181818;stroke-width:0.5;" x1="813" x2="921" y1="439.5469" y2="439.5469"/><line style="stroke:#181818;stroke-width:0.5;" x1="813" x2="921" y1="447.5469" y2="447.5469"/></g><!--class RobotTypeId--><g id="elem_RobotTypeId"><rect codeLine="21" fill="#F1F1F1" height="68.4531" id="RobotTypeId" rx="2.5" ry="2.5" style="stroke:#181818;stroke-width:0.5;" width="113" x="957.5" y="394"/><ellipse cx="972.5" cy="420.2266" fill="#FFA500" rx="11" ry="11" style="stroke:#181818;stroke-width:1.0;"/><path d="M973.1094,423.1641 L974.9531,419.3984 Q974.2656,419.3984 974.0781,419.2734 Q973.6563,419.0234 973.6563,418.5391 Q973.6563,418.1641 973.9219,417.9297 Q974.1875,417.6953 974.7969,417.6953 L977.125,417.6953 Q977.75,417.6953 978,417.9297 Q978.2656,418.1641 978.2656,418.5391 Q978.2656,418.9141 978,419.1641 Q977.75,419.3984 977.125,419.3984 L976.8438,419.3984 L974,425.2266 L972.2188,425.2266 L969.375,419.3984 L969.1406,419.3984 Q968.5156,419.3984 968.25,419.1641 Q968,418.9141 968,418.5391 Q968,418.1641 968.25,417.9297 Q968.5156,417.6953 969.1406,417.6953 L971.4219,417.6953 Q972.0313,417.6953 972.2813,417.9297 Q972.5469,418.1641 972.5469,418.5391 Q972.5469,419.0234 972.1563,419.2734 Q971.9531,419.3984 971.2656,419.3984 L973.1094,423.1641 Z " fill="#000000"/><text fill="#000000" font-family="sans-serif" font-size="12" font-style="italic" lengthAdjust="spacing" textLength="82" x="986" y="409.8633">&#171;ValueObject&#187;</text><text fill="#000000" font-family="sans-serif" font-size="12" font-style="italic" lengthAdjust="spacing" textLength="52" x="1001" y="423.2695">&#171;unique&#187;</text><text fill="#000000" font-family="sans-serif" font-size="14" lengthAdjust="spacing" textLength="81" x="986.5" y="438.4863">RobotTypeId</text><line style="stroke:#181818;stroke-width:0.5;" x1="958.5" x2="1069.5" y1="446.4531" y2="446.4531"/><line style="stroke:#181818;stroke-width:0.5;" x1="958.5" x2="1069.5" y1="454.4531" y2="454.4531"/></g><!--class RobotTypeDescription--><g id="elem_RobotTypeDescription"><rect codeLine="22" fill="#F1F1F1" height="55.0469" id="RobotTypeDescription" rx="2.5" ry="2.5" style="stroke:#181818;stroke-width:0.5;" width="173" x="1105.5" y="400.5"/><ellipse cx="1120.5" cy="420.0234" fill="#A4C2E5" rx="11" ry="11" style="stroke:#181818;stroke-width:1.0;"/><path d="M1121.1094,422.9609 L1122.9531,419.1953 Q1122.2656,419.1953 1122.0781,419.0703 Q1121.6563,418.8203 1121.6563,418.3359 Q1121.6563,417.9609 1121.9219,417.7266 Q1122.1875,417.4922 1122.7969,417.4922 L1125.125,417.4922 Q1125.75,417.4922 1126,417.7266 Q1126.2656,417.9609 1126.2656,418.3359 Q1126.2656,418.7109 1126,418.9609 Q1125.75,419.1953 1125.125,419.1953 L1124.8438,419.1953 L1122,425.0234 L1120.2188,425.0234 L1117.375,419.1953 L1117.1406,419.1953 Q1116.5156,419.1953 1116.25,418.9609 Q1116,418.7109 1116,418.3359 Q1116,417.9609 1116.25,417.7266 Q1116.5156,417.4922 1117.1406,417.4922 L1119.4219,417.4922 Q1120.0313,417.4922 1120.2813,417.7266 Q1120.5469,417.9609 1120.5469,418.3359 Q1120.5469,418.8203 1120.1563,419.0703 Q1119.9531,419.1953 1119.2656,419.1953 L1121.1094,422.9609 Z " fill="#000000"/><text fill="#000000" font-family="sans-serif" font-size="12" font-style="italic" lengthAdjust="spacing" textLength="82" x="1164" y="416.3633">&#171;ValueObject&#187;</text><text fill="#000000" font-family="sans-serif" font-size="14" lengthAdjust="spacing" textLength="141" x="1134.5" y="431.5801">RobotTypeDescription</text><line style="stroke:#181818;stroke-width:0.5;" x1="1106.5" x2="1277.5" y1="439.5469" y2="439.5469"/><line style="stroke:#181818;stroke-width:0.5;" x1="1106.5" x2="1277.5" y1="447.5469" y2="447.5469"/></g><!--link MobileRobot to Robot--><g id="link_MobileRobot_Robot"><path codeLine="25" d="M273.75,78.07 C273.75,78.07 273.75,117.58 273.75,117.58 " fill="none" id="MobileRobot-to-Robot" style="stroke:#181818;stroke-width:1.0;"/><polygon fill="none" points="280.75,117.58,273.75,137.58,266.75,117.58,280.75,117.58" style="stroke:#181818;stroke-width:1.0;"/></g><!--link Drone to Robot--><g id="link_Drone_Robot"><path codeLine="26" d="M327.5,78.07 C327.5,78.07 327.5,117.58 327.5,117.58 " fill="none" id="Drone-to-Robot" style="stroke:#181818;stroke-width:1.0;"/><polygon fill="none" points="334.5,117.58,327.5,137.58,320.5,117.58,334.5,117.58" style="stroke:#181818;stroke-width:1.0;"/></g><!--reverse link Code to Robot--><g id="link_Code_Robot"><path codeLine="27" d="M230.27,172 C230.27,172 259.99,172 259.99,172 " fill="none" id="Code-backto-Robot" style="stroke:#181818;stroke-width:1.0;"/><polygon fill="#181818" points="225.27,172,234.27,176,230.27,172,234.27,168,225.27,172" style="stroke:#181818;stroke-width:1.0;"/><text fill="#000000" font-family="sans-serif" font-size="13" lengthAdjust="spacing" textLength="7" x="233.1672" y="168.8327">1</text><text fill="#000000" font-family="sans-serif" font-size="13" lengthAdjust="spacing" textLength="7" x="244.8411" y="168.3321">1</text></g><!--link Robot to RobotType--><g id="link_Robot_RobotType"><path codeLine="28" d="M332.22,172 C446.81,172 794,172 794,172 C794,172 794,260.7 794,260.7 " fill="none" id="Robot-to-RobotType" style="stroke:#181818;stroke-width:1.0;"/><polygon fill="#181818" points="794,265.7,798,256.7,794,260.7,790,256.7,794,265.7" style="stroke:#181818;stroke-width:1.0;"/><text fill="#000000" font-family="sans-serif" font-size="13" lengthAdjust="spacing" textLength="5" x="340.206" y="168.3321">*</text><text fill="#000000" font-family="sans-serif" font-size="13" lengthAdjust="spacing" textLength="7" x="786.3109" y="255.3445">1</text></g><!--link Robot to OperationStatus--><g id="link_Robot_OperationStatus"><path codeLine="29" d="M289,206.3 C289,206.3 289,267.49 289,267.49 " fill="none" id="Robot-to-OperationStatus" style="stroke:#181818;stroke-width:1.0;"/><polygon fill="#181818" points="289,272.49,293,263.49,289,267.49,285,263.49,289,272.49" style="stroke:#181818;stroke-width:1.0;"/><text fill="#000000" font-family="sans-serif" font-size="13" lengthAdjust="spacing" textLength="5" x="282.1297" y="226.2064">*</text><text fill="#000000" font-family="sans-serif" font-size="13" lengthAdjust="spacing" textLength="7" x="294.0656" y="261.9048">1</text></g><!--link Robot to Nickname--><g id="link_Robot_Nickname"><path codeLine="30" d="M274.5,206.25 C274.5,221.46 274.5,236 274.5,236 C274.5,236 124,236 124,236 C124,236 124,267.49 124,267.49 " fill="none" id="Robot-to-Nickname" style="stroke:#181818;stroke-width:1.0;"/><polygon fill="#181818" points="124,272.49,128,263.49,124,267.49,120,263.49,124,272.49" style="stroke:#181818;stroke-width:1.0;"/><text fill="#000000" font-family="sans-serif" font-size="13" lengthAdjust="spacing" textLength="7" x="262.5781" y="226.1466">1</text><text fill="#000000" font-family="sans-serif" font-size="13" lengthAdjust="spacing" textLength="7" x="127.3594" y="261.9048">1</text></g><!--link Robot to SerialNumber--><g id="link_Robot_SerialNumber"><path codeLine="31" d="M317.75,206.3 C317.75,244.22 317.75,300 317.75,300 C317.75,300 333.16,300 333.16,300 " fill="none" id="Robot-to-SerialNumber" style="stroke:#181818;stroke-width:1.0;"/><polygon fill="#181818" points="338.16,300,329.16,296,333.16,300,329.16,304,338.16,300" style="stroke:#181818;stroke-width:1.0;"/><text fill="#000000" font-family="sans-serif" font-size="13" lengthAdjust="spacing" textLength="7" x="314.343" y="226.2064">1</text><text fill="#000000" font-family="sans-serif" font-size="13" lengthAdjust="spacing" textLength="7" x="323.5623" y="296.9445">1</text></g><!--link RobotType to RobotModel--><g id="link_RobotType_RobotModel"><path codeLine="33" d="M760,334.3 C760,334.3 760,395.49 760,395.49 " fill="none" id="RobotType-to-RobotModel" style="stroke:#181818;stroke-width:1.0;"/><polygon fill="#181818" points="760,400.49,764,391.49,760,395.49,756,391.49,760,400.49" style="stroke:#181818;stroke-width:1.0;"/><text fill="#000000" font-family="sans-serif" font-size="13" lengthAdjust="spacing" textLength="5" x="747.8141" y="354.2064">*</text><text fill="#000000" font-family="sans-serif" font-size="13" lengthAdjust="spacing" textLength="7" x="761.4094" y="389.9048">1</text></g><!--link RobotType to RobotBrand--><g id="link_RobotType_RobotBrand"><path codeLine="34" d="M828.5,334.3 C828.5,334.3 828.5,395.49 828.5,395.49 " fill="none" id="RobotType-to-RobotBrand" style="stroke:#181818;stroke-width:1.0;"/><polygon fill="#181818" points="828.5,400.49,832.5,391.49,828.5,395.49,824.5,391.49,828.5,400.49" style="stroke:#181818;stroke-width:1.0;"/><text fill="#000000" font-family="sans-serif" font-size="13" lengthAdjust="spacing" textLength="5" x="829.8" y="354.2064">*</text><text fill="#000000" font-family="sans-serif" font-size="13" lengthAdjust="spacing" textLength="7" x="811.2625" y="389.9048">1</text></g><!--link RobotType to AvailableTask--><g id="link_RobotType_AvailableTask"><path codeLine="35" d="M742.79,300 C677.23,300 572,300 572,300 C572,300 572,395.23 572,395.23 " fill="none" id="RobotType-to-AvailableTask" style="stroke:#181818;stroke-width:1.0;"/><polygon fill="#181818" points="572,400.23,576,391.23,572,395.23,568,391.23,572,400.23" style="stroke:#181818;stroke-width:1.0;"/><text fill="#000000" font-family="sans-serif" font-size="13" lengthAdjust="spacing" textLength="5" x="729.9013" y="296.7456">*</text><text fill="#000000" font-family="sans-serif" font-size="13" lengthAdjust="spacing" textLength="5" x="566.3906" y="389.5814">*</text></g><!--link RobotType to RobotTypeId--><g id="link_RobotType_RobotTypeId"><path codeLine="36" d="M845.03,312 C910.02,312 1014,312 1014,312 C1014,312 1014,388.82 1014,388.82 " fill="none" id="RobotType-to-RobotTypeId" style="stroke:#181818;stroke-width:1.0;"/><polygon fill="#181818" points="1014,393.82,1018,384.82,1014,388.82,1010,384.82,1014,393.82" style="stroke:#181818;stroke-width:1.0;"/><text fill="#000000" font-family="sans-serif" font-size="13" lengthAdjust="spacing" textLength="7" x="853.0391" y="310.5081">1</text><text fill="#000000" font-family="sans-serif" font-size="13" lengthAdjust="spacing" textLength="7" x="1006.2781" y="383.1024">1</text></g><!--link RobotType to RobotTypeDescription--><g id="link_RobotType_RobotTypeDescription"><path codeLine="37" d="M845.22,289 C952.71,289 1192,289 1192,289 C1192,289 1192,395.21 1192,395.21 " fill="none" id="RobotType-to-RobotTypeDescription" style="stroke:#181818;stroke-width:1.0;"/><polygon fill="#181818" points="1192,400.21,1196,391.21,1192,395.21,1188,391.21,1192,400.21" style="stroke:#181818;stroke-width:1.0;"/><text fill="#000000" font-family="sans-serif" font-size="13" lengthAdjust="spacing" textLength="5" x="853.1101" y="284.13">*</text><text fill="#000000" font-family="sans-serif" font-size="13" lengthAdjust="spacing" textLength="7" x="1184.1469" y="389.5566">1</text></g><!--SRC=[hL9DJuD04BtpApRqe3Pog68Raqg2fOSUsYQsyRx0H5UMNLoM9etwtrrWs_9XRJ5osMNUl9dPUI-D24kmm36YX87S9e2uaA_SC2uU_lWP0WA9sGi5rBE7jZSQVHW1nMcAdhZF9HgFrKMTZfDVfqmIkLK_EiSJd07w2Pbpdr0eQzHndJ3XOScyt5npeIQ0A_ICQGPB_qsDf1jcZBndS2Yx8474SBndzbnxSZEzQr9rzZ81WINXR2MnpDBpI2iG1DD55liWJZ6-_cVnzqFtjh7uTIxkxyjtDvXGx5DOupGwxsr5wRdQFEsG_wZK2JlavwFFmixIxhaUf84WIQxRwVqRsgQVLcPLJLUB5pRL4NDWMjHor55OS1VjcrOPt8zHGS8IQjYfKh34T-Pi0LLBwOaBVHjT2s6EmuKERRXlrfrGpHYqNZKBZpTeBD_u1W00]--></g></svg>