<?xml version="1.0" encoding="us-ascii" standalone="no"?><svg xmlns="http://www.w3.org/2000/svg" xmlns:xlink="http://www.w3.org/1999/xlink" contentStyleType="text/css" height="107px" preserveAspectRatio="none" style="width:376px;height:107px;background:#FFFFFF;" version="1.1" viewBox="0 0 376 107" width="376px" zoomAndPan="magnify"><defs/><g><!--cluster RobDroneGo--><g id="cluster_RobDroneGo"><path d="M180.5,6.0137 L272.5,6.0137 A3.75,3.75 0 0 1 275,8.5137 L282,30.6348 L366.5,30.6348 A2.5,2.5 0 0 1 369,33.1348 L369,94.5137 A2.5,2.5 0 0 1 366.5,97.0137 L180.5,97.0137 A2.5,2.5 0 0 1 178,94.5137 L178,8.5137 A2.5,2.5 0 0 1 180.5,6.0137 " fill="none" style="stroke:#000000;stroke-width:1.5;"/><line style="stroke:#000000;stroke-width:1.5;" x1="178" x2="282" y1="30.6348" y2="30.6348"/><text fill="#000000" font-family="sans-serif" font-size="14" font-weight="bold" lengthAdjust="spacing" textLength="91" x="182" y="23.1211">RobDroneGo</text></g><g id="elem_UC2"><ellipse cx="273.5079" cy="61.8153" fill="#F1F1F1" rx="79.5079" ry="18.3016" style="stroke:#181818;stroke-width:0.5;"/><text fill="#000000" font-family="sans-serif" font-size="14" lengthAdjust="spacing" textLength="107" x="217.0079" y="66.619">Edit Passageway</text></g><!--entity CM--><g id="elem_CM"><ellipse cx="70" cy="38.5137" fill="#F1F1F1" rx="16" ry="16" style="stroke:#181818;stroke-width:1.5;"/><path d="M70,58.5137 C74,58.5137 77,58.5137 81,54.5137 C89,54.5137 97,62.5137 97,70.5137 L97,74.5137 C97,78.5137 93,82.5137 89,82.5137 L51,82.5137 C47,82.5137 43,78.5137 43,74.5137 L43,70.5137 C43,62.5137 51,54.5137 59,54.5137 C63,58.5137 66,58.5137 70,58.5137 " fill="#F1F1F1" style="stroke:#181818;stroke-width:1.5;"/><text fill="#000000" font-family="sans-serif" font-size="14" lengthAdjust="spacing" textLength="128" x="6" y="99.1211">UI Campus Manager</text></g><!--link CM to UC2--><g id="link_CM_UC2"><path d="M134.2,62.0137 C153.13,62.0137 168.12,62.0137 187.91,62.0137 " fill="none" id="CM-to-UC2" style="stroke:#181818;stroke-width:1.0;"/><polygon fill="#181818" points="193.91,62.0137,184.91,58.0137,188.91,62.0137,184.91,66.0137,193.91,62.0137" style="stroke:#181818;stroke-width:1.0;"/></g><!--SRC=[7Oj13e8m44NtSueVzcmyW9jgZ8icHiC1nZ9Y0xIaCuGGuzr5bk_blK5U1iieiNiRsbWaMCo9IFkO9YuyWeFbyh1r4F0YcaSXsXsgvWh7upGhF2Vkf5HWXVD44uT-4y0zFqyb9xbau4F0h19O1TMvZOORgsxPmkj-Dkv0Nt8UTNtymmy0]--></g></svg>