<?xml version="1.0" encoding="us-ascii" standalone="no"?><svg xmlns="http://www.w3.org/2000/svg" xmlns:xlink="http://www.w3.org/1999/xlink" contentStyleType="text/css" height="100px" preserveAspectRatio="none" style="width:348px;height:100px;background:#FFFFFF;" version="1.1" viewBox="0 0 348 100" width="348px" zoomAndPan="magnify"><defs/><g><!--cluster RobDroneGo--><g id="cluster_RobDroneGo"><path d="M180.5,6 L272.5,6 A3.75,3.75 0 0 1 275,8.5 L282,27.6406 L338.5,27.6406 A2.5,2.5 0 0 1 341,30.1406 L341,85.5 A2.5,2.5 0 0 1 338.5,88 L180.5,88 A2.5,2.5 0 0 1 178,85.5 L178,8.5 A2.5,2.5 0 0 1 180.5,6 " fill="none" style="stroke:#000000;stroke-width:1.5;"/><line style="stroke:#000000;stroke-width:1.5;" x1="178" x2="282" y1="27.6406" y2="27.6406"/><text fill="#000000" font-family="sans-serif" font-size="14" font-weight="bold" lengthAdjust="spacing" textLength="91" x="182" y="20.6738">RobDroneGo</text></g><g id="elem_UC2"><ellipse cx="259.4468" cy="55.9894" fill="#F1F1F1" rx="65.4468" ry="15.4894" style="stroke:#181818;stroke-width:0.5;"/><text fill="#000000" font-family="sans-serif" font-size="14" lengthAdjust="spacing" textLength="85" x="214.2532" y="59.5111">List All Floors</text></g><!--entity CM--><g id="elem_CM"><ellipse cx="70" cy="34" fill="#F1F1F1" rx="16" ry="16" style="stroke:#181818;stroke-width:1.5;"/><path d="M70,54 C74,54 77,54 81,50 C89,50 97,58 97,66 L97,70 C97,74 93,78 89,78 L51,78 C47,78 43,74 43,70 L43,66 C43,58 51,50 59,50 C63,54 66,54 70,54 " fill="#F1F1F1" style="stroke:#181818;stroke-width:1.5;"/><text fill="#000000" font-family="sans-serif" font-size="14" lengthAdjust="spacing" textLength="128" x="6" y="92.1738">UI Campus Manager</text></g><!--link CM to UC2--><g id="link_CM_UC2"><path d="M134.22,56 C151.81,56 171.01,56 188.94,56 " fill="none" id="CM-to-UC2" style="stroke:#181818;stroke-width:1.0;"/><polygon fill="#181818" points="193.96,56,184.96,52,188.96,56,184.96,60,193.96,56" style="stroke:#181818;stroke-width:1.0;"/></g><!--SRC=[7Sj12i9034RXVKxnqtqt7a2G4KMm6wK7Y6EiWzD9IQQ8Y7TNktmVl2otYggmDDmhhiaargI5o1-fJ6myWcDLEzTN5l1JN4SXMWnDVq3WSPeT7HSUn1gm8tH44yV73u2JNhQcHVOAl0cONIAxe3achzZaZ5rMDL_EFgpeGw53swx_yGK0]--></g></svg>