<?xml version="1.0" encoding="UTF-8" standalone="no"?><svg xmlns="http://www.w3.org/2000/svg" xmlns:xlink="http://www.w3.org/1999/xlink" contentStyleType="text/css" height="215px" preserveAspectRatio="none" style="width:390px;height:215px;background:#FFFFFF;" version="1.1" viewBox="0 0 390 215" width="390px" zoomAndPan="magnify"><defs/><g><rect fill="#FFFFFF" height="91.0547" style="stroke:#181818;stroke-width:1.0;" width="10" x="181" y="69.9609"/><rect fill="#FFFFFF" height="30.3516" style="stroke:#181818;stroke-width:1.0;" width="10" x="308" y="100.3125"/><line style="stroke:#181818;stroke-width:0.5;stroke-dasharray:5.0,5.0;" x1="186" x2="186" y1="37.6094" y2="179.0156"/><line style="stroke:#181818;stroke-width:0.5;stroke-dasharray:5.0,5.0;" x1="313" x2="313" y1="37.6094" y2="179.0156"/><rect fill="#E2E2F0" height="31.6094" rx="2.5" ry="2.5" style="stroke:#181818;stroke-width:0.5;" width="92" x="140" y="5"/><text fill="#000000" font-family="sans-serif" font-size="14" lengthAdjust="spacing" textLength="78" x="147" y="26.5332">Visualization</text><rect fill="#E2E2F0" height="31.6094" rx="2.5" ry="2.5" style="stroke:#181818;stroke-width:0.5;" width="92" x="140" y="178.0156"/><text fill="#000000" font-family="sans-serif" font-size="14" lengthAdjust="spacing" textLength="78" x="147" y="199.5488">Visualization</text><rect fill="#E2E2F0" height="31.6094" rx="2.5" ry="2.5" style="stroke:#181818;stroke-width:0.5;" width="142" x="242" y="5"/><text fill="#000000" font-family="sans-serif" font-size="14" lengthAdjust="spacing" textLength="128" x="249" y="26.5332">MasterDataLogistics</text><rect fill="#E2E2F0" height="31.6094" rx="2.5" ry="2.5" style="stroke:#181818;stroke-width:0.5;" width="142" x="242" y="178.0156"/><text fill="#000000" font-family="sans-serif" font-size="14" lengthAdjust="spacing" textLength="128" x="249" y="199.5488">MasterDataLogistics</text><rect fill="#FFFFFF" height="91.0547" style="stroke:#181818;stroke-width:1.0;" width="10" x="181" y="69.9609"/><rect fill="#FFFFFF" height="30.3516" style="stroke:#181818;stroke-width:1.0;" width="10" x="308" y="100.3125"/><ellipse cx="4.5" cy="69.2109" fill="none" rx="4" ry="4" style="stroke:#181818;stroke-width:1.5;"/><polygon fill="#181818" points="169,65.9609,179,69.9609,169,73.9609,173,69.9609" style="stroke:#181818;stroke-width:1.0;"/><line style="stroke:#181818;stroke-width:1.0;" x1="9" x2="175" y1="69.9609" y2="69.9609"/><text fill="#000000" font-family="sans-serif" font-size="13" font-weight="bold" lengthAdjust="spacing" textLength="7" x="12" y="65.1045">1</text><text fill="#000000" font-family="sans-serif" font-size="13" lengthAdjust="spacing" textLength="143" x="23" y="65.1045">Consult all robots in fleet</text><polygon fill="#181818" points="296,96.3125,306,100.3125,296,104.3125,300,100.3125" style="stroke:#181818;stroke-width:1.0;"/><line style="stroke:#181818;stroke-width:1.0;" x1="191" x2="302" y1="100.3125" y2="100.3125"/><text fill="#000000" font-family="sans-serif" font-size="13" font-weight="bold" lengthAdjust="spacing" textLength="7" x="198" y="95.4561">2</text><text fill="#000000" font-family="sans-serif" font-size="13" lengthAdjust="spacing" textLength="66" x="209" y="95.4561">GET robots</text><polygon fill="#181818" points="202,126.6641,192,130.6641,202,134.6641,198,130.6641" style="stroke:#181818;stroke-width:1.0;"/><line style="stroke:#181818;stroke-width:1.0;stroke-dasharray:2.0,2.0;" x1="196" x2="312" y1="130.6641" y2="130.6641"/><text fill="#000000" font-family="sans-serif" font-size="13" font-weight="bold" lengthAdjust="spacing" textLength="7" x="208" y="125.8076">3</text><text fill="#000000" font-family="sans-serif" font-size="13" lengthAdjust="spacing" textLength="75" x="219" y="125.8076">List of robots</text><polygon fill="#181818" points="11,157.0156,1,161.0156,11,165.0156,7,161.0156" style="stroke:#181818;stroke-width:1.0;"/><line style="stroke:#181818;stroke-width:1.0;stroke-dasharray:2.0,2.0;" x1="5" x2="185" y1="161.0156" y2="161.0156"/><text fill="#000000" font-family="sans-serif" font-size="13" font-weight="bold" lengthAdjust="spacing" textLength="7" x="17" y="156.1592">4</text><text fill="#000000" font-family="sans-serif" font-size="13" lengthAdjust="spacing" textLength="75" x="28" y="156.1592">List of robots</text><!--MD5=[d7adbeeaf60b73836196aba8eaf517a3]
@startuml

autonumber

participant Visualization
participant "MasterDataLogistics" as GI

?o-> Visualization: Consult all robots in fleet
activate Visualization


Visualization -> GI: GET robots
activate GI
GI - -> Visualization: List of robots
deactivate GI

<- - Visualization: List of robots
deactivate Visualization


@enduml

PlantUML version 1.2022.7(Mon Aug 22 18:01:30 WEST 2022)
(GPL source distribution)
Java Runtime: Java(TM) SE Runtime Environment
JVM: Java HotSpot(TM) 64-Bit Server VM
Default Encoding: UTF-8
Language: pt
Country: PT
--></g></svg>