<?xml version="1.0" encoding="us-ascii" standalone="no"?><svg xmlns="http://www.w3.org/2000/svg" xmlns:xlink="http://www.w3.org/1999/xlink" contentStyleType="text/css" height="274px" preserveAspectRatio="none" style="width:331px;height:274px;background:#FFFFFF;" version="1.1" viewBox="0 0 331 274" width="331px" zoomAndPan="magnify"><defs/><g><rect fill="#FFFFFF" height="155.6172" style="stroke:#181818;stroke-width:1.0;" width="10" x="46" y="66.1641"/><rect fill="#FFFFFF" height="70.0469" style="stroke:#181818;stroke-width:1.0;" width="10" x="161" y="94.6875"/><line style="stroke:#181818;stroke-width:0.5;stroke-dasharray:5.0,5.0;" x1="51" x2="51" y1="35.6406" y2="239.7813"/><line style="stroke:#181818;stroke-width:0.5;stroke-dasharray:5.0,5.0;" x1="165.5" x2="165.5" y1="35.6406" y2="239.7813"/><line style="stroke:#181818;stroke-width:0.5;stroke-dasharray:5.0,5.0;" x1="283.5" x2="283.5" y1="35.6406" y2="239.7813"/><rect fill="#E2E2F0" height="29.6406" rx="2.5" ry="2.5" style="stroke:#181818;stroke-width:0.5;" width="92" x="5" y="5"/><text fill="#000000" font-family="sans-serif" font-size="14" lengthAdjust="spacing" textLength="78" x="12" y="24.6738">Visualization</text><rect fill="#E2E2F0" height="29.6406" rx="2.5" ry="2.5" style="stroke:#181818;stroke-width:0.5;" width="92" x="5" y="238.7813"/><text fill="#000000" font-family="sans-serif" font-size="14" lengthAdjust="spacing" textLength="78" x="12" y="258.4551">Visualization</text><rect fill="#E2E2F0" height="29.6406" rx="2.5" ry="2.5" style="stroke:#181818;stroke-width:0.5;" width="43" x="144.5" y="5"/><text fill="#000000" font-family="sans-serif" font-size="14" lengthAdjust="spacing" textLength="29" x="151.5" y="24.6738">Auth</text><rect fill="#E2E2F0" height="29.6406" rx="2.5" ry="2.5" style="stroke:#181818;stroke-width:0.5;" width="43" x="144.5" y="238.7813"/><text fill="#000000" font-family="sans-serif" font-size="14" lengthAdjust="spacing" textLength="29" x="151.5" y="258.4551">Auth</text><rect fill="#E2E2F0" height="29.6406" rx="2.5" ry="2.5" style="stroke:#181818;stroke-width:0.5;" width="83" x="242.5" y="5"/><text fill="#000000" font-family="sans-serif" font-size="14" lengthAdjust="spacing" textLength="69" x="249.5" y="24.6738">FileSystem</text><rect fill="#E2E2F0" height="29.6406" rx="2.5" ry="2.5" style="stroke:#181818;stroke-width:0.5;" width="83" x="242.5" y="238.7813"/><text fill="#000000" font-family="sans-serif" font-size="14" lengthAdjust="spacing" textLength="69" x="249.5" y="258.4551">FileSystem</text><rect fill="#FFFFFF" height="155.6172" style="stroke:#181818;stroke-width:1.0;" width="10" x="46" y="66.1641"/><rect fill="#FFFFFF" height="70.0469" style="stroke:#181818;stroke-width:1.0;" width="10" x="161" y="94.6875"/><ellipse cx="8.5" cy="65.4141" fill="none" rx="4" ry="4" style="stroke:#181818;stroke-width:1.5;"/><polygon fill="#181818" points="34,62.1641,44,66.1641,34,70.1641,38,66.1641" style="stroke:#181818;stroke-width:1.0;"/><line style="stroke:#181818;stroke-width:1.0;" x1="13" x2="40" y1="66.1641" y2="66.1641"/><text fill="#000000" font-family="sans-serif" font-size="13" font-weight="bold" lengthAdjust="spacing" textLength="7" x="16" y="61.4092">1</text><text fill="#000000" font-family="sans-serif" font-size="13" lengthAdjust="spacing" textLength="4" x="27" y="61.4092">&#160;</text><polygon fill="#181818" points="149,90.6875,159,94.6875,149,98.6875,153,94.6875" style="stroke:#181818;stroke-width:1.0;"/><line style="stroke:#181818;stroke-width:1.0;" x1="56" x2="155" y1="94.6875" y2="94.6875"/><text fill="#000000" font-family="sans-serif" font-size="13" font-weight="bold" lengthAdjust="spacing" textLength="7" x="63" y="89.9326">2</text><text fill="#000000" font-family="sans-serif" font-size="13" lengthAdjust="spacing" textLength="75" x="74" y="89.9326">GET userInfo</text><line style="stroke:#181818;stroke-width:1.0;" x1="171" x2="213" y1="123.2109" y2="123.2109"/><line style="stroke:#181818;stroke-width:1.0;" x1="213" x2="213" y1="123.2109" y2="136.2109"/><line style="stroke:#181818;stroke-width:1.0;" x1="172" x2="213" y1="136.2109" y2="136.2109"/><polygon fill="#181818" points="182,132.2109,172,136.2109,182,140.2109,178,136.2109" style="stroke:#181818;stroke-width:1.0;"/><text fill="#000000" font-family="sans-serif" font-size="13" font-weight="bold" lengthAdjust="spacing" textLength="7" x="178" y="118.4561">3</text><text fill="#000000" font-family="sans-serif" font-size="13" lengthAdjust="spacing" textLength="83" x="189" y="118.4561">getUserInfo(id)</text><polygon fill="#181818" points="67,160.7344,57,164.7344,67,168.7344,63,164.7344" style="stroke:#181818;stroke-width:1.0;"/><line style="stroke:#181818;stroke-width:1.0;stroke-dasharray:2.0,2.0;" x1="61" x2="165" y1="164.7344" y2="164.7344"/><text fill="#000000" font-family="sans-serif" font-size="13" font-weight="bold" lengthAdjust="spacing" textLength="7" x="73" y="159.9795">4</text><text fill="#000000" font-family="sans-serif" font-size="13" lengthAdjust="spacing" textLength="49" x="84" y="159.9795">user info</text><polygon fill="#181818" points="272,189.2578,282,193.2578,272,197.2578,276,193.2578" style="stroke:#181818;stroke-width:1.0;"/><line style="stroke:#181818;stroke-width:1.0;" x1="56" x2="278" y1="193.2578" y2="193.2578"/><text fill="#000000" font-family="sans-serif" font-size="13" font-weight="bold" lengthAdjust="spacing" textLength="7" x="63" y="188.5029">5</text><text fill="#000000" font-family="sans-serif" font-size="13" lengthAdjust="spacing" textLength="100" x="74" y="188.5029">user Info Json file</text><polygon fill="#181818" points="11,217.7813,1,221.7813,11,225.7813,7,221.7813" style="stroke:#181818;stroke-width:1.0;"/><line style="stroke:#181818;stroke-width:1.0;stroke-dasharray:2.0,2.0;" x1="5" x2="50" y1="221.7813" y2="221.7813"/><text fill="#000000" font-family="sans-serif" font-size="13" font-weight="bold" lengthAdjust="spacing" textLength="7" x="17" y="217.0264">6</text><text fill="#000000" font-family="sans-serif" font-size="13" lengthAdjust="spacing" textLength="4" x="28" y="217.0264">&#160;</text><!--SRC=[PO_13e8m44Jl-nKRJdhW1uZHU92cNb7l5Ofk0YsXMnFzUWjYj73SdPat6UNP6jzUTG_GgPwff4uPnWivhnfwAIPh8YNPUxudg1mA6GivDRfuEjRjAES5mCwcsvYLWIgP7ehrh0CWkZ44XSnG74xedUwbgUql6gf1oA_dflayMLPKhJ_IedZ480sSIaUaHN5UJEu1YKSNldKO1x19qpdr7nOlUWC0]--></g></svg>