<?xml version="1.0" encoding="UTF-8" standalone="no"?><svg xmlns="http://www.w3.org/2000/svg" xmlns:xlink="http://www.w3.org/1999/xlink" contentStyleType="text/css" height="109px" preserveAspectRatio="none" style="width:407px;height:109px;background:#FFFFFF;" version="1.1" viewBox="0 0 407 109" width="407px" zoomAndPan="magnify"><defs/><g><!--MD5=[1478444cbd0d707d5292787239839939]
cluster RobDroneGo--><g id="cluster_RobDroneGo"><path d="M180.5,6 L272.5,6 A3.75,3.75 0 0 1 275,8.5 L282,29.6094 L397.5,29.6094 A2.5,2.5 0 0 1 400,32.1094 L400,99.5 A2.5,2.5 0 0 1 397.5,102 L180.5,102 A2.5,2.5 0 0 1 178,99.5 L178,8.5 A2.5,2.5 0 0 1 180.5,6 " fill="none" style="stroke:#000000;stroke-width:1.5;"/><line style="stroke:#000000;stroke-width:1.5;" x1="178" x2="282" y1="29.6094" y2="29.6094"/><text fill="#000000" font-family="sans-serif" font-size="14" font-weight="bold" lengthAdjust="spacing" textLength="91" x="182" y="22.5332">RobDroneGo</text></g><g id="elem_UC13"><ellipse cx="288.7514" cy="63.8503" fill="#F1F1F1" rx="94.7514" ry="21.3503" style="stroke:#181818;stroke-width:0.5;"/><text fill="#000000" font-family="sans-serif" font-size="14" lengthAdjust="spacing" textLength="149" x="214.2514" y="67.5788">Edit Elevator in Building</text></g><!--MD5=[99f3cfe8ce18ee9cb444babb539f6fb5]
entity CM--><g id="elem_CM"><ellipse cx="70" cy="41" fill="#F1F1F1" rx="16" ry="16" style="stroke:#181818;stroke-width:1.5;"/><path d="M70,61 C74,61 77,61 81,57 C89,57 97,65 97,73 L97,77 C97,81 93,85 89,85 L51,85 C47,85 43,81 43,77 L43,73 C43,65 51,57 59,57 C63,61 66,61 70,61 " fill="#F1F1F1" style="stroke:#181818;stroke-width:1.5;"/><text fill="#000000" font-family="sans-serif" font-size="14" lengthAdjust="spacing" textLength="128" x="6" y="101.0332">UI Campus Manager</text></g><!--MD5=[ade07d9c495d68ea197cf04dbfa5694f]
link CM to UC13--><g id="link_CM_UC13"><path d="M134.06,64 C151.1,64 169.97,64 188.49,64 " fill="none" id="CM-to-UC13" style="stroke:#181818;stroke-width:1.0;"/><polygon fill="#181818" points="193.7,64,184.7,60,188.7,64,184.7,68,193.7,64" style="stroke:#181818;stroke-width:1.0;"/></g><!--MD5=[1c70cf8665b76ebcc62587a67bbfdb9f]
@startuml SceneryView
left to right direction

skinparam actorStyle awesome

actor "UI Campus Manager" as CM


package  RobDroneGo  {
  
  usecase "Edit Elevator in Building" as UC13
  
}

CM - -> UC13

@enduml

PlantUML version 1.2022.7(Mon Aug 22 18:01:30 WEST 2022)
(GPL source distribution)
Java Runtime: Java(TM) SE Runtime Environment
JVM: Java HotSpot(TM) 64-Bit Server VM
Default Encoding: UTF-8
Language: pt
Country: PT
--></g></svg>