<?xml version="1.0" encoding="UTF-8" standalone="no"?><svg xmlns="http://www.w3.org/2000/svg" xmlns:xlink="http://www.w3.org/1999/xlink" contentStyleType="text/css" height="106px" preserveAspectRatio="none" style="width:378px;height:106px;background:#FFFFFF;" version="1.1" viewBox="0 0 378 106" width="378px" zoomAndPan="magnify"><defs/><g><!--MD5=[1478444cbd0d707d5292787239839939]
cluster RobDroneGo--><g id="cluster_RobDroneGo"><path d="M180.5,6 L272.5,6 A3.75,3.75 0 0 1 275,8.5 L282,29.6094 L368.5,29.6094 A2.5,2.5 0 0 1 371,32.1094 L371,93.5 A2.5,2.5 0 0 1 368.5,96 L180.5,96 A2.5,2.5 0 0 1 178,93.5 L178,8.5 A2.5,2.5 0 0 1 180.5,6 " fill="none" style="stroke:#000000;stroke-width:1.5;"/><line style="stroke:#000000;stroke-width:1.5;" x1="178" x2="282" y1="29.6094" y2="29.6094"/><text fill="#000000" font-family="sans-serif" font-size="14" font-weight="bold" lengthAdjust="spacing" textLength="91" x="182" y="22.5332">RobDroneGo</text></g><g id="elem_UC2"><ellipse cx="274.2827" cy="60.9565" fill="#F1F1F1" rx="80.2827" ry="18.4565" style="stroke:#181818;stroke-width:0.5;"/><text fill="#000000" font-family="sans-serif" font-size="14" lengthAdjust="spacing" textLength="115" x="215.9192" y="64.9341">List every Building</text></g><!--MD5=[99f3cfe8ce18ee9cb444babb539f6fb5]
entity CM--><g id="elem_CM"><ellipse cx="70" cy="38" fill="#F1F1F1" rx="16" ry="16" style="stroke:#181818;stroke-width:1.5;"/><path d="M70,58 C74,58 77,58 81,54 C89,54 97,62 97,70 L97,74 C97,78 93,82 89,82 L51,82 C47,82 43,78 43,74 L43,70 C43,62 51,54 59,54 C63,58 66,58 70,58 " fill="#F1F1F1" style="stroke:#181818;stroke-width:1.5;"/><text fill="#000000" font-family="sans-serif" font-size="14" lengthAdjust="spacing" textLength="128" x="6" y="98.0332">UI Campus Manager</text></g><!--MD5=[5725362fb9128b29e7275e925cbddfee]
link CM to UC2--><g id="link_CM_UC2"><path d="M134.24,61 C151.53,61 170.55,61 188.83,61 " fill="none" id="CM-to-UC2" style="stroke:#181818;stroke-width:1.0;"/><polygon fill="#181818" points="193.96,61,184.96,57,188.96,61,184.96,65,193.96,61" style="stroke:#181818;stroke-width:1.0;"/></g><!--MD5=[c877ddff3a80c70478e2d56d24fe8f8e]
@startuml scenaryLevel1
left to right direction

skinparam actorStyle awesome

actor "UI Campus Manager" as CM

package  RobDroneGo  {
  usecase "List every Building" as UC2
}
CM - -> UC2
@enduml

PlantUML version 1.2022.7(Mon Aug 22 18:01:30 WEST 2022)
(GPL source distribution)
Java Runtime: Java(TM) SE Runtime Environment
JVM: Java HotSpot(TM) 64-Bit Server VM
Default Encoding: UTF-8
Language: en
Country: US
--></g></svg>