<?xml version="1.0" encoding="us-ascii" standalone="no"?><svg xmlns="http://www.w3.org/2000/svg" xmlns:xlink="http://www.w3.org/1999/xlink" contentStyleType="text/css" height="123px" preserveAspectRatio="none" style="width:486px;height:123px;background:#FFFFFF;" version="1.1" viewBox="0 0 486 123" width="486px" zoomAndPan="magnify"><defs/><g><!--cluster RobDroneGo--><g id="cluster_RobDroneGo"><path d="M180.5,6 L272.5,6 A3.75,3.75 0 0 1 275,8.5 L282,27.6406 L476.5,27.6406 A2.5,2.5 0 0 1 479,30.1406 L479,113.5 A2.5,2.5 0 0 1 476.5,116 L180.5,116 A2.5,2.5 0 0 1 178,113.5 L178,8.5 A2.5,2.5 0 0 1 180.5,6 " fill="none" style="stroke:#000000;stroke-width:1.5;"/><line style="stroke:#000000;stroke-width:1.5;" x1="178" x2="282" y1="27.6406" y2="27.6406"/><text fill="#000000" font-family="sans-serif" font-size="14" font-weight="bold" lengthAdjust="spacing" textLength="91" x="182" y="20.6738">RobDroneGo</text></g><g id="elem_UC2"><ellipse cx="328.4503" cy="69.7901" fill="#F1F1F1" rx="134.4503" ry="29.2901" style="stroke:#181818;stroke-width:0.5;"/><text fill="#000000" font-family="sans-serif" font-size="14" lengthAdjust="spacing" textLength="239" x="208.9503" y="72.6436">List Building wit Max and Min of Floors</text></g><!--entity CM--><g id="elem_CM"><ellipse cx="70" cy="48" fill="#F1F1F1" rx="16" ry="16" style="stroke:#181818;stroke-width:1.5;"/><path d="M70,68 C74,68 77,68 81,64 C89,64 97,72 97,80 L97,84 C97,88 93,92 89,92 L51,92 C47,92 43,88 43,84 L43,80 C43,72 51,64 59,64 C63,68 66,68 70,68 " fill="#F1F1F1" style="stroke:#181818;stroke-width:1.5;"/><text fill="#000000" font-family="sans-serif" font-size="14" lengthAdjust="spacing" textLength="128" x="6" y="106.1738">UI Campus Manager</text></g><!--link CM to UC2--><g id="link_CM_UC2"><path d="M134.08,70 C150.75,70 169.43,70 188.43,70 " fill="none" id="CM-to-UC2" style="stroke:#181818;stroke-width:1.0;"/><polygon fill="#181818" points="193.8,70,184.8,66,188.8,70,184.8,74,193.8,70" style="stroke:#181818;stroke-width:1.0;"/></g><!--SRC=[7Smn3e9044RXVaxnXvx60rY8qPYuZOO3ZCk04s27x2v1OxoxIFc-uWtIPcH3rEwPqMWKdzK2KUerJ1nv1FjiyPxVWu0NIJOAqMOewWig7gSvmN7WJc81JgWSqSI-Nm6usUCOBSZPW0y1SnBFIL1SDMKSPXqQ3HqMpUlZ1GuDd0POYzDW5jDshAiTVQboAClzFtu0]--></g></svg>