<?xml version="1.0" encoding="us-ascii" standalone="no"?><svg xmlns="http://www.w3.org/2000/svg" xmlns:xlink="http://www.w3.org/1999/xlink" contentStyleType="text/css" height="404px" preserveAspectRatio="none" style="width:890px;height:404px;background:#FFFFFF;" version="1.1" viewBox="0 0 890 404" width="890px" zoomAndPan="magnify"><defs/><g><rect fill="#FFFFFF" height="285.2344" style="stroke:#181818;stroke-width:1.0;" width="10" x="143" y="66.1641"/><rect fill="#FFFFFF" height="228.1875" style="stroke:#181818;stroke-width:1.0;" width="10" x="301" y="94.6875"/><rect fill="#FFFFFF" height="142.6172" style="stroke:#181818;stroke-width:1.0;" width="10" x="465" y="151.7344"/><rect fill="#FFFFFF" height="57.0469" style="stroke:#181818;stroke-width:1.0;" width="10" x="809.5" y="180.2578"/><line style="stroke:#181818;stroke-width:0.5;stroke-dasharray:5.0,5.0;" x1="147.5" x2="147.5" y1="35.6406" y2="369.3984"/><line style="stroke:#181818;stroke-width:0.5;stroke-dasharray:5.0,5.0;" x1="305.5" x2="305.5" y1="35.6406" y2="369.3984"/><line style="stroke:#181818;stroke-width:0.5;stroke-dasharray:5.0,5.0;" x1="469.5" x2="469.5" y1="35.6406" y2="369.3984"/><line style="stroke:#181818;stroke-width:0.5;stroke-dasharray:5.0,5.0;" x1="629.5" x2="629.5" y1="35.6406" y2="369.3984"/><line style="stroke:#181818;stroke-width:0.5;stroke-dasharray:5.0,5.0;" x1="710.5" x2="710.5" y1="35.6406" y2="369.3984"/><line style="stroke:#181818;stroke-width:0.5;stroke-dasharray:5.0,5.0;" x1="814.5" x2="814.5" y1="35.6406" y2="369.3984"/><rect fill="#E2E2F0" height="29.6406" rx="2.5" ry="2.5" style="stroke:#181818;stroke-width:0.5;" width="77" x="109.5" y="5"/><text fill="#000000" font-family="sans-serif" font-size="14" lengthAdjust="spacing" textLength="63" x="116.5" y="24.6738">:Template</text><rect fill="#E2E2F0" height="29.6406" rx="2.5" ry="2.5" style="stroke:#181818;stroke-width:0.5;" width="77" x="109.5" y="368.3984"/><text fill="#000000" font-family="sans-serif" font-size="14" lengthAdjust="spacing" textLength="63" x="116.5" y="388.0723">:Template</text><rect fill="#E2E2F0" height="29.6406" rx="2.5" ry="2.5" style="stroke:#181818;stroke-width:0.5;" width="87" x="262.5" y="5"/><text fill="#000000" font-family="sans-serif" font-size="14" lengthAdjust="spacing" textLength="73" x="269.5" y="24.6738">Component</text><rect fill="#E2E2F0" height="29.6406" rx="2.5" ry="2.5" style="stroke:#181818;stroke-width:0.5;" width="87" x="262.5" y="368.3984"/><text fill="#000000" font-family="sans-serif" font-size="14" lengthAdjust="spacing" textLength="73" x="269.5" y="388.0723">Component</text><rect fill="#E2E2F0" height="29.6406" rx="2.5" ry="2.5" style="stroke:#181818;stroke-width:0.5;" width="65" x="437.5" y="5"/><text fill="#000000" font-family="sans-serif" font-size="14" lengthAdjust="spacing" textLength="51" x="444.5" y="24.6738">:Service</text><rect fill="#E2E2F0" height="29.6406" rx="2.5" ry="2.5" style="stroke:#181818;stroke-width:0.5;" width="65" x="437.5" y="368.3984"/><text fill="#000000" font-family="sans-serif" font-size="14" lengthAdjust="spacing" textLength="51" x="444.5" y="388.0723">:Service</text><rect fill="#E2E2F0" height="29.6406" rx="2.5" ry="2.5" style="stroke:#181818;stroke-width:0.5;" width="49" x="605.5" y="5"/><text fill="#000000" font-family="sans-serif" font-size="14" lengthAdjust="spacing" textLength="35" x="612.5" y="24.6738">:Task</text><rect fill="#E2E2F0" height="29.6406" rx="2.5" ry="2.5" style="stroke:#181818;stroke-width:0.5;" width="49" x="605.5" y="368.3984"/><text fill="#000000" font-family="sans-serif" font-size="14" lengthAdjust="spacing" textLength="35" x="612.5" y="388.0723">:Task</text><rect fill="#E2E2F0" height="29.6406" rx="2.5" ry="2.5" style="stroke:#181818;stroke-width:0.5;" width="92" x="664.5" y="5"/><text fill="#000000" font-family="sans-serif" font-size="14" lengthAdjust="spacing" textLength="78" x="671.5" y="24.6738">:TaskCreate</text><rect fill="#E2E2F0" height="29.6406" rx="2.5" ry="2.5" style="stroke:#181818;stroke-width:0.5;" width="92" x="664.5" y="368.3984"/><text fill="#000000" font-family="sans-serif" font-size="14" lengthAdjust="spacing" textLength="78" x="671.5" y="388.0723">:TaskCreate</text><rect fill="#E2E2F0" height="29.6406" rx="2.5" ry="2.5" style="stroke:#181818;stroke-width:0.5;" width="96" x="766.5" y="5"/><text fill="#000000" font-family="sans-serif" font-size="14" lengthAdjust="spacing" textLength="82" x="773.5" y="24.6738">:HTTP Driver</text><rect fill="#E2E2F0" height="29.6406" rx="2.5" ry="2.5" style="stroke:#181818;stroke-width:0.5;" width="96" x="766.5" y="368.3984"/><text fill="#000000" font-family="sans-serif" font-size="14" lengthAdjust="spacing" textLength="82" x="773.5" y="388.0723">:HTTP Driver</text><rect fill="#FFFFFF" height="285.2344" style="stroke:#181818;stroke-width:1.0;" width="10" x="143" y="66.1641"/><rect fill="#FFFFFF" height="228.1875" style="stroke:#181818;stroke-width:1.0;" width="10" x="301" y="94.6875"/><rect fill="#FFFFFF" height="142.6172" style="stroke:#181818;stroke-width:1.0;" width="10" x="465" y="151.7344"/><rect fill="#FFFFFF" height="57.0469" style="stroke:#181818;stroke-width:1.0;" width="10" x="809.5" y="180.2578"/><ellipse cx="73.5" cy="65.4141" fill="none" rx="4" ry="4" style="stroke:#181818;stroke-width:1.5;"/><polygon fill="#181818" points="131,62.1641,141,66.1641,131,70.1641,135,66.1641" style="stroke:#181818;stroke-width:1.0;"/><line style="stroke:#181818;stroke-width:1.0;" x1="78" x2="137" y1="66.1641" y2="66.1641"/><text fill="#000000" font-family="sans-serif" font-size="13" font-weight="bold" lengthAdjust="spacing" textLength="7" x="81" y="61.4092">1</text><text fill="#000000" font-family="sans-serif" font-size="13" lengthAdjust="spacing" textLength="36" x="92" y="61.4092">/tasks</text><polygon fill="#181818" points="289,90.6875,299,94.6875,289,98.6875,293,94.6875" style="stroke:#181818;stroke-width:1.0;"/><line style="stroke:#181818;stroke-width:1.0;" x1="153" x2="295" y1="94.6875" y2="94.6875"/><text fill="#000000" font-family="sans-serif" font-size="13" font-weight="bold" lengthAdjust="spacing" textLength="7" x="160" y="89.9326">2</text><text fill="#000000" font-family="sans-serif" font-size="13" lengthAdjust="spacing" textLength="103" x="171" y="89.9326">/floors/createTask</text><polygon fill="#181818" points="698.5,119.2109,708.5,123.2109,698.5,127.2109,702.5,123.2109" style="stroke:#181818;stroke-width:1.0;"/><line style="stroke:#181818;stroke-width:1.0;" x1="311" x2="704.5" y1="123.2109" y2="123.2109"/><text fill="#000000" font-family="sans-serif" font-size="13" font-weight="bold" lengthAdjust="spacing" textLength="7" x="318" y="118.4561">3</text><text fill="#000000" font-family="sans-serif" font-size="13" lengthAdjust="spacing" textLength="150" x="329" y="118.4561">Parse Data to TaskCreate</text><polygon fill="#181818" points="453,147.7344,463,151.7344,453,155.7344,457,151.7344" style="stroke:#181818;stroke-width:1.0;"/><line style="stroke:#181818;stroke-width:1.0;" x1="311" x2="459" y1="151.7344" y2="151.7344"/><text fill="#000000" font-family="sans-serif" font-size="13" font-weight="bold" lengthAdjust="spacing" textLength="7" x="318" y="146.9795">4</text><text fill="#000000" font-family="sans-serif" font-size="13" lengthAdjust="spacing" textLength="124" x="329" y="146.9795">createTask(taskData)</text><polygon fill="#181818" points="797.5,176.2578,807.5,180.2578,797.5,184.2578,801.5,180.2578" style="stroke:#181818;stroke-width:1.0;"/><line style="stroke:#181818;stroke-width:1.0;" x1="475" x2="803.5" y1="180.2578" y2="180.2578"/><text fill="#000000" font-family="sans-serif" font-size="13" font-weight="bold" lengthAdjust="spacing" textLength="7" x="482" y="175.5029">5</text><text fill="#000000" font-family="sans-serif" font-size="13" lengthAdjust="spacing" textLength="51" x="493" y="175.5029">http post</text><polygon fill="#181818" points="877.5,204.7813,887.5,208.7813,877.5,212.7813,881.5,208.7813" style="stroke:#181818;stroke-width:1.0;"/><line style="stroke:#181818;stroke-width:1.0;" x1="819.5" x2="883.5" y1="208.7813" y2="208.7813"/><text fill="#000000" font-family="sans-serif" font-size="13" font-weight="bold" lengthAdjust="spacing" textLength="7" x="826.5" y="204.0264">6</text><text fill="#000000" font-family="sans-serif" font-size="13" lengthAdjust="spacing" textLength="35" x="837.5" y="204.0264">POST</text><polygon fill="#181818" points="486,233.3047,476,237.3047,486,241.3047,482,237.3047" style="stroke:#181818;stroke-width:1.0;"/><line style="stroke:#181818;stroke-width:1.0;stroke-dasharray:2.0,2.0;" x1="480" x2="813.5" y1="237.3047" y2="237.3047"/><text fill="#000000" font-family="sans-serif" font-size="13" font-weight="bold" lengthAdjust="spacing" textLength="7" x="492" y="232.5498">7</text><text fill="#000000" font-family="sans-serif" font-size="13" lengthAdjust="spacing" textLength="34" x="503" y="232.5498">JSON</text><polygon fill="#181818" points="618,261.8281,628,265.8281,618,269.8281,622,265.8281" style="stroke:#181818;stroke-width:1.0;"/><line style="stroke:#181818;stroke-width:1.0;" x1="475" x2="624" y1="265.8281" y2="265.8281"/><text fill="#000000" font-family="sans-serif" font-size="13" font-weight="bold" lengthAdjust="spacing" textLength="7" x="482" y="261.0732">8</text><text fill="#000000" font-family="sans-serif" font-size="13" lengthAdjust="spacing" textLength="120" x="493" y="261.0732">Parse JSON to Floor</text><polygon fill="#181818" points="322,290.3516,312,294.3516,322,298.3516,318,294.3516" style="stroke:#181818;stroke-width:1.0;"/><line style="stroke:#181818;stroke-width:1.0;stroke-dasharray:2.0,2.0;" x1="316" x2="469" y1="294.3516" y2="294.3516"/><text fill="#000000" font-family="sans-serif" font-size="13" font-weight="bold" lengthAdjust="spacing" textLength="7" x="328" y="289.5967">9</text><text fill="#000000" font-family="sans-serif" font-size="13" lengthAdjust="spacing" textLength="24" x="339" y="289.5967">floor</text><polygon fill="#181818" points="164,318.875,154,322.875,164,326.875,160,322.875" style="stroke:#181818;stroke-width:1.0;"/><line style="stroke:#181818;stroke-width:1.0;stroke-dasharray:2.0,2.0;" x1="158" x2="305" y1="322.875" y2="322.875"/><text fill="#000000" font-family="sans-serif" font-size="13" font-weight="bold" lengthAdjust="spacing" textLength="14" x="170" y="318.1201">10</text><text fill="#000000" font-family="sans-serif" font-size="13" lengthAdjust="spacing" textLength="106" x="188" y="318.1201">operation success</text><polygon fill="#181818" points="11,347.3984,1,351.3984,11,355.3984,7,351.3984" style="stroke:#181818;stroke-width:1.0;"/><line style="stroke:#181818;stroke-width:1.0;stroke-dasharray:2.0,2.0;" x1="5" x2="147" y1="351.3984" y2="351.3984"/><text fill="#000000" font-family="sans-serif" font-size="13" font-weight="bold" lengthAdjust="spacing" textLength="14" x="17" y="346.6436">11</text><text fill="#000000" font-family="sans-serif" font-size="13" lengthAdjust="spacing" textLength="106" x="35" y="346.6436">operation success</text><!--SRC=[ZL71QiCm3BtxAqHFtI4KTWoZExICCLXRI7x0SpLcciJ6LlBzizsuSi8EkqdMUz9xpt8aCupz5peXX9MEjD9M3WIRkiNUTf9m0z93RXQOW-cj6J1K0V5eLciQT9DMzorplJua_IsDFyqLkp-61uTPHu8yhp3lRNk1ezCJkWIAlH2lfjfdsJNiA2poGYhIKtXWGo9NKEtPH21yTyOulrFfU9J1PFOgE8D0lwkhuIATHpXAaa06sC8AFiTH0z_OHfcH-CJNScfYBY8rMgpXXyY2DPuOdBodG08gA3atxToM1p-QyqbSSSagzoSdsKX4HoDlCP42jWmivLKkVUWkJ0SA_ucnw2HfCu0VbKBlItQHyKjL_PF4l_eB]--></g></svg>