<?xml version="1.0" encoding="us-ascii" standalone="no"?><svg xmlns="http://www.w3.org/2000/svg" xmlns:xlink="http://www.w3.org/1999/xlink" contentStyleType="text/css" height="108px" preserveAspectRatio="none" style="width:322px;height:108px;background:#FFFFFF;" version="1.1" viewBox="0 0 322 108" width="322px" zoomAndPan="magnify"><defs/><g><!--cluster RobDroneGo--><g id="cluster_RobDroneGo"><path d="M108,6.0137 L200,6.0137 A3.75,3.75 0 0 1 202.5,8.5137 L209.5,30.6348 L313,30.6348 A2.5,2.5 0 0 1 315.5,33.1348 L315.5,96.5137 A2.5,2.5 0 0 1 313,99.0137 L108,99.0137 A2.5,2.5 0 0 1 105.5,96.5137 L105.5,8.5137 A2.5,2.5 0 0 1 108,6.0137 " fill="none" style="stroke:#000000;stroke-width:1.5;"/><line style="stroke:#000000;stroke-width:1.5;" x1="105.5" x2="209.5" y1="30.6348" y2="30.6348"/><text fill="#000000" font-family="sans-serif" font-size="14" font-weight="bold" lengthAdjust="spacing" textLength="91" x="109.5" y="23.1211">RobDroneGo</text></g><g id="elem_UC26"><ellipse cx="210.6522" cy="63.2441" fill="#F1F1F1" rx="89.1522" ry="20.2304" style="stroke:#181818;stroke-width:0.5;"/><text fill="#000000" font-family="sans-serif" font-size="14" lengthAdjust="spacing" textLength="132" x="141.6522" y="68.0478">Delete personal data</text></g><!--entity FM--><g id="elem_FM"><ellipse cx="33" cy="39.5137" fill="#F1F1F1" rx="16" ry="16" style="stroke:#181818;stroke-width:1.5;"/><path d="M33,59.5137 C37,59.5137 40,59.5137 44,55.5137 C52,55.5137 60,63.5137 60,71.5137 L60,75.5137 C60,79.5137 56,83.5137 52,83.5137 L14,83.5137 C10,83.5137 6,79.5137 6,75.5137 L6,71.5137 C6,63.5137 14,55.5137 22,55.5137 C26,59.5137 29,59.5137 33,59.5137 " fill="#F1F1F1" style="stroke:#181818;stroke-width:1.5;"/><text fill="#000000" font-family="sans-serif" font-size="14" lengthAdjust="spacing" textLength="45" x="10.5" y="100.1211">UI User</text></g><!--link FM to UC26--><g id="link_FM_UC26"><path d="M61.81,63.0137 C78.14,63.0137 93.79,63.0137 115.45,63.0137 " fill="none" id="FM-to-UC26" style="stroke:#181818;stroke-width:1.0;"/><polygon fill="#181818" points="121.45,63.0137,112.45,59.0137,116.45,63.0137,112.45,67.0137,121.45,63.0137" style="stroke:#181818;stroke-width:1.0;"/></g><!--SRC=[9Smn3i8m34RXtQVurRqB0oCBLH535r0EO59JegPn5HiXXBWxKXdVDxmiTuShQfeUZZ5LYPwq4DcSoigL5t1qhLT_Pm6_n7GHeitGX3E2IMt0XduWefNZp9C05xrrLOkS5FWG0K-Jo2PeEidYWbMgQU6CaPstGJZkzaHVedv0snx-_GC0]--></g></svg>