<?xml version="1.0" encoding="UTF-8" standalone="no"?><svg xmlns="http://www.w3.org/2000/svg" xmlns:xlink="http://www.w3.org/1999/xlink" contentStyleType="text/css" height="357px" preserveAspectRatio="none" style="width:478px;height:357px;background:#FFFFFF;" version="1.1" viewBox="0 0 478 357" width="478px" zoomAndPan="magnify"><defs/><g><g id="cluster_##2"><rect fill="#464D77" height="344" rx="2.5" ry="2.5" style="stroke:#181818;stroke-width:1.0;" width="465" x="7" y="7"/></g><!--MD5=[60fb4f72b7635aa97affd2efc062a79f]
class Robot--><g id="elem_Robot"><rect codeLine="6" fill="#F1F1F1" height="73.7969" id="Robot" rx="2.5" ry="2.5" style="stroke:#181818;stroke-width:0.5;" width="72" x="200" y="142"/><ellipse cx="215" cy="170.8984" fill="#ADD1B2" rx="11" ry="11" style="stroke:#181818;stroke-width:1.0;"/><path d="M217.7656,166.7734 Q217.9219,166.5547 218.1094,166.4453 Q218.2969,166.3359 218.5156,166.3359 Q218.8906,166.3359 219.125,166.6016 Q219.3594,166.8516 219.3594,167.4609 L219.3594,168.9141 Q219.3594,169.5234 219.125,169.7891 Q218.8906,170.0547 218.5156,170.0547 Q218.1719,170.0547 217.9688,169.8516 Q217.7656,169.6641 217.6563,169.1484 Q217.6094,168.7891 217.4219,168.6016 Q217.0938,168.2266 216.4844,168.0078 Q215.875,167.7891 215.25,167.7891 Q214.4844,167.7891 213.8438,168.1172 Q213.2188,168.4453 212.7188,169.1953 Q212.2344,169.9453 212.2344,170.9766 L212.2344,172.0703 Q212.2344,173.3047 213.125,174.1328 Q214.0156,174.9453 215.6094,174.9453 Q216.5469,174.9453 217.2031,174.6953 Q217.5938,174.5391 218.0156,174.1016 Q218.2813,173.8359 218.4219,173.7578 Q218.5781,173.6797 218.7813,173.6797 Q219.1094,173.6797 219.3594,173.9453 Q219.625,174.1953 219.625,174.5391 Q219.625,174.8828 219.2813,175.2891 Q218.7813,175.8672 217.9844,176.1953 Q216.9063,176.6484 215.6094,176.6484 Q214.0938,176.6484 212.8906,176.0234 Q211.9063,175.5234 211.2188,174.4609 Q210.5313,173.3828 210.5313,172.1016 L210.5313,170.9453 Q210.5313,169.6172 211.1406,168.4766 Q211.7656,167.3203 212.8594,166.7109 Q213.9531,166.0859 215.1875,166.0859 Q215.9219,166.0859 216.5625,166.2578 Q217.2188,166.4141 217.7656,166.7734 Z " fill="#000000"/><text fill="#000000" font-family="sans-serif" font-size="12" font-style="italic" lengthAdjust="spacing" textLength="40" x="229" y="159.457">«Root»</text><text fill="#000000" font-family="sans-serif" font-size="12" font-style="italic" lengthAdjust="spacing" textLength="44" x="227" y="174.5508">«Entity»</text><text fill="#000000" font-family="sans-serif" font-size="14" lengthAdjust="spacing" textLength="38" x="230" y="191.7207">Robot</text><line style="stroke:#181818;stroke-width:0.5;" x1="201" x2="271" y1="199.7969" y2="199.7969"/><line style="stroke:#181818;stroke-width:0.5;" x1="201" x2="271" y1="207.7969" y2="207.7969"/></g><!--MD5=[2e3f1e60e74253ff42e47f8bfdb04ee2]
class Drone--><g id="elem_Drone"><rect codeLine="7" fill="#F1F1F1" height="58.7031" id="Drone" rx="2.5" ry="2.5" style="stroke:#181818;stroke-width:0.5;" width="72" x="263" y="23"/><ellipse cx="278" cy="44.3516" fill="#ADD1B2" rx="11" ry="11" style="stroke:#181818;stroke-width:1.0;"/><path d="M280.7656,40.2266 Q280.9219,40.0078 281.1094,39.8984 Q281.2969,39.7891 281.5156,39.7891 Q281.8906,39.7891 282.125,40.0547 Q282.3594,40.3047 282.3594,40.9141 L282.3594,42.3672 Q282.3594,42.9766 282.125,43.2422 Q281.8906,43.5078 281.5156,43.5078 Q281.1719,43.5078 280.9688,43.3047 Q280.7656,43.1172 280.6563,42.6016 Q280.6094,42.2422 280.4219,42.0547 Q280.0938,41.6797 279.4844,41.4609 Q278.875,41.2422 278.25,41.2422 Q277.4844,41.2422 276.8438,41.5703 Q276.2188,41.8984 275.7188,42.6484 Q275.2344,43.3984 275.2344,44.4297 L275.2344,45.5234 Q275.2344,46.7578 276.125,47.5859 Q277.0156,48.3984 278.6094,48.3984 Q279.5469,48.3984 280.2031,48.1484 Q280.5938,47.9922 281.0156,47.5547 Q281.2813,47.2891 281.4219,47.2109 Q281.5781,47.1328 281.7813,47.1328 Q282.1094,47.1328 282.3594,47.3984 Q282.625,47.6484 282.625,47.9922 Q282.625,48.3359 282.2813,48.7422 Q281.7813,49.3203 280.9844,49.6484 Q279.9063,50.1016 278.6094,50.1016 Q277.0938,50.1016 275.8906,49.4766 Q274.9063,48.9766 274.2188,47.9141 Q273.5313,46.8359 273.5313,45.5547 L273.5313,44.3984 Q273.5313,43.0703 274.1406,41.9297 Q274.7656,40.7734 275.8594,40.1641 Q276.9531,39.5391 278.1875,39.5391 Q278.9219,39.5391 279.5625,39.7109 Q280.2188,39.8672 280.7656,40.2266 Z " fill="#000000"/><text fill="#000000" font-family="sans-serif" font-size="12" font-style="italic" lengthAdjust="spacing" textLength="44" x="290" y="40.457">«Entity»</text><text fill="#000000" font-family="sans-serif" font-size="14" lengthAdjust="spacing" textLength="39" x="292.5" y="57.627">Drone</text><line style="stroke:#181818;stroke-width:0.5;" x1="264" x2="334" y1="65.7031" y2="65.7031"/><line style="stroke:#181818;stroke-width:0.5;" x1="264" x2="334" y1="73.7031" y2="73.7031"/></g><!--MD5=[5c93cb3968bd9ae62c5288bd269568f5]
class MobileRobot--><g id="elem_MobileRobot"><rect codeLine="8" fill="#F1F1F1" height="58.7031" id="MobileRobot" rx="2.5" ry="2.5" style="stroke:#181818;stroke-width:0.5;" width="111" x="116.5" y="23"/><ellipse cx="131.5" cy="44.3516" fill="#ADD1B2" rx="11" ry="11" style="stroke:#181818;stroke-width:1.0;"/><path d="M134.2656,40.2266 Q134.4219,40.0078 134.6094,39.8984 Q134.7969,39.7891 135.0156,39.7891 Q135.3906,39.7891 135.625,40.0547 Q135.8594,40.3047 135.8594,40.9141 L135.8594,42.3672 Q135.8594,42.9766 135.625,43.2422 Q135.3906,43.5078 135.0156,43.5078 Q134.6719,43.5078 134.4688,43.3047 Q134.2656,43.1172 134.1563,42.6016 Q134.1094,42.2422 133.9219,42.0547 Q133.5938,41.6797 132.9844,41.4609 Q132.375,41.2422 131.75,41.2422 Q130.9844,41.2422 130.3438,41.5703 Q129.7188,41.8984 129.2188,42.6484 Q128.7344,43.3984 128.7344,44.4297 L128.7344,45.5234 Q128.7344,46.7578 129.625,47.5859 Q130.5156,48.3984 132.1094,48.3984 Q133.0469,48.3984 133.7031,48.1484 Q134.0938,47.9922 134.5156,47.5547 Q134.7813,47.2891 134.9219,47.2109 Q135.0781,47.1328 135.2813,47.1328 Q135.6094,47.1328 135.8594,47.3984 Q136.125,47.6484 136.125,47.9922 Q136.125,48.3359 135.7813,48.7422 Q135.2813,49.3203 134.4844,49.6484 Q133.4063,50.1016 132.1094,50.1016 Q130.5938,50.1016 129.3906,49.4766 Q128.4063,48.9766 127.7188,47.9141 Q127.0313,46.8359 127.0313,45.5547 L127.0313,44.3984 Q127.0313,43.0703 127.6406,41.9297 Q128.2656,40.7734 129.3594,40.1641 Q130.4531,39.5391 131.6875,39.5391 Q132.4219,39.5391 133.0625,39.7109 Q133.7188,39.8672 134.2656,40.2266 Z " fill="#000000"/><text fill="#000000" font-family="sans-serif" font-size="12" font-style="italic" lengthAdjust="spacing" textLength="44" x="163" y="40.457">«Entity»</text><text fill="#000000" font-family="sans-serif" font-size="14" lengthAdjust="spacing" textLength="79" x="145.5" y="57.627">MobileRobot</text><line style="stroke:#181818;stroke-width:0.5;" x1="117.5" x2="226.5" y1="65.7031" y2="65.7031"/><line style="stroke:#181818;stroke-width:0.5;" x1="117.5" x2="226.5" y1="73.7031" y2="73.7031"/></g><!--MD5=[ba580110b1777f63e0f1dfe3fcefdac0]
class Code--><g id="elem_Code"><rect codeLine="10" fill="#F1F1F1" height="73.7969" id="Code" rx="2.5" ry="2.5" style="stroke:#181818;stroke-width:0.5;" width="110" x="55" y="142"/><ellipse cx="70" cy="170.8984" fill="#FFA500" rx="11" ry="11" style="stroke:#181818;stroke-width:1.0;"/><path d="M70.6094,173.8359 L72.4531,170.0703 Q71.7656,170.0703 71.5781,169.9453 Q71.1563,169.6953 71.1563,169.2109 Q71.1563,168.8359 71.4219,168.6016 Q71.6875,168.3672 72.2969,168.3672 L74.625,168.3672 Q75.25,168.3672 75.5,168.6016 Q75.7656,168.8359 75.7656,169.2109 Q75.7656,169.5859 75.5,169.8359 Q75.25,170.0703 74.625,170.0703 L74.3438,170.0703 L71.5,175.8984 L69.7188,175.8984 L66.875,170.0703 L66.6406,170.0703 Q66.0156,170.0703 65.75,169.8359 Q65.5,169.5859 65.5,169.2109 Q65.5,168.8359 65.75,168.6016 Q66.0156,168.3672 66.6406,168.3672 L68.9219,168.3672 Q69.5313,168.3672 69.7813,168.6016 Q70.0469,168.8359 70.0469,169.2109 Q70.0469,169.6953 69.6563,169.9453 Q69.4531,170.0703 68.7656,170.0703 L70.6094,173.8359 Z " fill="#000000"/><text fill="#000000" font-family="sans-serif" font-size="12" font-style="italic" lengthAdjust="spacing" textLength="82" x="82" y="159.457">«ValueObject»</text><text fill="#000000" font-family="sans-serif" font-size="12" font-style="italic" lengthAdjust="spacing" textLength="52" x="97" y="174.5508">«unique»</text><text fill="#000000" font-family="sans-serif" font-size="14" lengthAdjust="spacing" textLength="34" x="106" y="191.7207">Code</text><line style="stroke:#181818;stroke-width:0.5;" x1="56" x2="164" y1="199.7969" y2="199.7969"/><line style="stroke:#181818;stroke-width:0.5;" x1="56" x2="164" y1="207.7969" y2="207.7969"/></g><!--MD5=[a6c99dc740669a944c9e548db6d151dd]
class Nickname--><g id="elem_Nickname"><rect codeLine="11" fill="#F1F1F1" height="58.7031" id="Nickname" rx="2.5" ry="2.5" style="stroke:#181818;stroke-width:0.5;" width="110" x="23" y="276"/><ellipse cx="38" cy="297.3516" fill="#A4C2E5" rx="11" ry="11" style="stroke:#181818;stroke-width:1.0;"/><path d="M38.6094,300.2891 L40.4531,296.5234 Q39.7656,296.5234 39.5781,296.3984 Q39.1563,296.1484 39.1563,295.6641 Q39.1563,295.2891 39.4219,295.0547 Q39.6875,294.8203 40.2969,294.8203 L42.625,294.8203 Q43.25,294.8203 43.5,295.0547 Q43.7656,295.2891 43.7656,295.6641 Q43.7656,296.0391 43.5,296.2891 Q43.25,296.5234 42.625,296.5234 L42.3438,296.5234 L39.5,302.3516 L37.7188,302.3516 L34.875,296.5234 L34.6406,296.5234 Q34.0156,296.5234 33.75,296.2891 Q33.5,296.0391 33.5,295.6641 Q33.5,295.2891 33.75,295.0547 Q34.0156,294.8203 34.6406,294.8203 L36.9219,294.8203 Q37.5313,294.8203 37.7813,295.0547 Q38.0469,295.2891 38.0469,295.6641 Q38.0469,296.1484 37.6563,296.3984 Q37.4531,296.5234 36.7656,296.5234 L38.6094,300.2891 Z " fill="#000000"/><text fill="#000000" font-family="sans-serif" font-size="12" font-style="italic" lengthAdjust="spacing" textLength="82" x="50" y="293.457">«ValueObject»</text><text fill="#000000" font-family="sans-serif" font-size="14" lengthAdjust="spacing" textLength="61" x="60.5" y="310.627">Nickname</text><line style="stroke:#181818;stroke-width:0.5;" x1="24" x2="132" y1="318.7031" y2="318.7031"/><line style="stroke:#181818;stroke-width:0.5;" x1="24" x2="132" y1="326.7031" y2="326.7031"/></g><!--MD5=[d20bc46e64a704623e12462602543b29]
class OperationStatus--><g id="elem_OperationStatus"><rect codeLine="12" fill="#F1F1F1" height="58.7031" id="OperationStatus" rx="2.5" ry="2.5" style="stroke:#181818;stroke-width:0.5;" width="135" x="168.5" y="276"/><ellipse cx="183.5" cy="297.3516" fill="#A4C2E5" rx="11" ry="11" style="stroke:#181818;stroke-width:1.0;"/><path d="M184.1094,300.2891 L185.9531,296.5234 Q185.2656,296.5234 185.0781,296.3984 Q184.6563,296.1484 184.6563,295.6641 Q184.6563,295.2891 184.9219,295.0547 Q185.1875,294.8203 185.7969,294.8203 L188.125,294.8203 Q188.75,294.8203 189,295.0547 Q189.2656,295.2891 189.2656,295.6641 Q189.2656,296.0391 189,296.2891 Q188.75,296.5234 188.125,296.5234 L187.8438,296.5234 L185,302.3516 L183.2188,302.3516 L180.375,296.5234 L180.1406,296.5234 Q179.5156,296.5234 179.25,296.2891 Q179,296.0391 179,295.6641 Q179,295.2891 179.25,295.0547 Q179.5156,294.8203 180.1406,294.8203 L182.4219,294.8203 Q183.0313,294.8203 183.2813,295.0547 Q183.5469,295.2891 183.5469,295.6641 Q183.5469,296.1484 183.1563,296.3984 Q182.9531,296.5234 182.2656,296.5234 L184.1094,300.2891 Z " fill="#000000"/><text fill="#000000" font-family="sans-serif" font-size="12" font-style="italic" lengthAdjust="spacing" textLength="82" x="208" y="293.457">«ValueObject»</text><text fill="#000000" font-family="sans-serif" font-size="14" lengthAdjust="spacing" textLength="103" x="197.5" y="310.627">OperationStatus</text><line style="stroke:#181818;stroke-width:0.5;" x1="169.5" x2="302.5" y1="318.7031" y2="318.7031"/><line style="stroke:#181818;stroke-width:0.5;" x1="169.5" x2="302.5" y1="326.7031" y2="326.7031"/></g><!--MD5=[2145d3acc3e1d933aedd8d638120a59b]
class SerialNumber--><g id="elem_SerialNumber"><rect codeLine="13" fill="#F1F1F1" height="58.7031" id="SerialNumber" rx="2.5" ry="2.5" style="stroke:#181818;stroke-width:0.5;" width="117" x="338.5" y="276"/><ellipse cx="353.5" cy="297.3516" fill="#A4C2E5" rx="11" ry="11" style="stroke:#181818;stroke-width:1.0;"/><path d="M354.1094,300.2891 L355.9531,296.5234 Q355.2656,296.5234 355.0781,296.3984 Q354.6563,296.1484 354.6563,295.6641 Q354.6563,295.2891 354.9219,295.0547 Q355.1875,294.8203 355.7969,294.8203 L358.125,294.8203 Q358.75,294.8203 359,295.0547 Q359.2656,295.2891 359.2656,295.6641 Q359.2656,296.0391 359,296.2891 Q358.75,296.5234 358.125,296.5234 L357.8438,296.5234 L355,302.3516 L353.2188,302.3516 L350.375,296.5234 L350.1406,296.5234 Q349.5156,296.5234 349.25,296.2891 Q349,296.0391 349,295.6641 Q349,295.2891 349.25,295.0547 Q349.5156,294.8203 350.1406,294.8203 L352.4219,294.8203 Q353.0313,294.8203 353.2813,295.0547 Q353.5469,295.2891 353.5469,295.6641 Q353.5469,296.1484 353.1563,296.3984 Q352.9531,296.5234 352.2656,296.5234 L354.1094,300.2891 Z " fill="#000000"/><text fill="#000000" font-family="sans-serif" font-size="12" font-style="italic" lengthAdjust="spacing" textLength="82" x="369" y="293.457">«ValueObject»</text><text fill="#000000" font-family="sans-serif" font-size="14" lengthAdjust="spacing" textLength="85" x="367.5" y="310.627">SerialNumber</text><line style="stroke:#181818;stroke-width:0.5;" x1="339.5" x2="454.5" y1="318.7031" y2="318.7031"/><line style="stroke:#181818;stroke-width:0.5;" x1="339.5" x2="454.5" y1="326.7031" y2="326.7031"/></g><!--MD5=[2cc822c55cb0011683d50097503aa780]
link MobileRobot to Robot--><g id="link_MobileRobot_Robot"><path codeLine="17" d="M213.75,82.16 C213.75,82.16 213.75,121.82 213.75,121.82 " fill="none" id="MobileRobot-to-Robot" style="stroke:#181818;stroke-width:1.0;"/><polygon fill="none" points="220.75,121.82,213.75,141.82,206.75,121.82,220.75,121.82" style="stroke:#181818;stroke-width:1.0;"/></g><!--MD5=[241cc8a22b7a0c9301daa44ae531b72d]
link Drone to Robot--><g id="link_Drone_Robot"><path codeLine="18" d="M267.5,82.16 C267.5,82.16 267.5,121.82 267.5,121.82 " fill="none" id="Drone-to-Robot" style="stroke:#181818;stroke-width:1.0;"/><polygon fill="none" points="274.5,121.82,267.5,141.82,260.5,121.82,274.5,121.82" style="stroke:#181818;stroke-width:1.0;"/></g><!--MD5=[2c5ed39efa3d1bb0d8e8a6569aee9aac]
reverse link Code to Robot--><g id="link_Code_Robot"><path codeLine="19" d="M170.27,179 C170.27,179 199.99,179 199.99,179 " fill="none" id="Code-backto-Robot" style="stroke:#181818;stroke-width:1.0;"/><polygon fill="#181818" points="165.27,179,174.27,183,170.27,179,174.27,175,165.27,179" style="stroke:#181818;stroke-width:1.0;"/><text fill="#000000" font-family="sans-serif" font-size="13" lengthAdjust="spacing" textLength="7" x="173.1672" y="175.4574">1</text><text fill="#000000" font-family="sans-serif" font-size="13" lengthAdjust="spacing" textLength="7" x="184.8411" y="174.9023">1</text></g><!--MD5=[2479c5d89cd9b3e5e8bdb97dd832f511]
link Robot to OperationStatus--><g id="link_Robot_OperationStatus"><path codeLine="20" d="M248,216.27 C248,216.27 248,270.7 248,270.7 " fill="none" id="Robot-to-OperationStatus" style="stroke:#181818;stroke-width:1.0;"/><polygon fill="#181818" points="248,275.7,252,266.7,248,270.7,244,266.7,248,275.7" style="stroke:#181818;stroke-width:1.0;"/><text fill="#000000" font-family="sans-serif" font-size="13" lengthAdjust="spacing" textLength="5" x="244.5734" y="237.3089">*</text><text fill="#000000" font-family="sans-serif" font-size="13" lengthAdjust="spacing" textLength="7" x="242.8594" y="264.9973">1</text></g><!--MD5=[4c60e35692fd65e6a9072570090c4732]
link Robot to Nickname--><g id="link_Robot_Nickname"><path codeLine="21" d="M224,216.03 C224,231.52 224,246 224,246 C224,246 94,246 94,246 C94,246 94,270.75 94,270.75 " fill="none" id="Robot-to-Nickname" style="stroke:#181818;stroke-width:1.0;"/><polygon fill="#181818" points="94,275.75,98,266.75,94,270.75,90,266.75,94,275.75" style="stroke:#181818;stroke-width:1.0;"/><text fill="#000000" font-family="sans-serif" font-size="13" lengthAdjust="spacing" textLength="7" x="214.3359" y="237.3123">1</text><text fill="#000000" font-family="sans-serif" font-size="13" lengthAdjust="spacing" textLength="7" x="89.7344" y="265.0582">1</text></g><!--MD5=[e2e55c0343cd14f927eade45e39b61b6]
link Robot to SerialNumber--><g id="link_Robot_SerialNumber"><path codeLine="22" d="M272.13,179 C319.6,179 397,179 397,179 C397,179 397,270.84 397,270.84 " fill="none" id="Robot-to-SerialNumber" style="stroke:#181818;stroke-width:1.0;"/><polygon fill="#181818" points="397,275.84,401,266.84,397,270.84,393,266.84,397,275.84" style="stroke:#181818;stroke-width:1.0;"/><text fill="#000000" font-family="sans-serif" font-size="13" lengthAdjust="spacing" textLength="7" x="279.9322" y="174.9747">1</text><text fill="#000000" font-family="sans-serif" font-size="13" lengthAdjust="spacing" textLength="7" x="389.2344" y="265.1679">1</text></g><!--MD5=[f4b66a2e04ea1c24182a76ec09a8fb8b]
@startuml

skinparam linetype ortho

'========================================================
rectangle #464D77{
class Robot << Root >> << Entity >>
class Drone  << Entity >>
class MobileRobot  << Entity >>

class Code  << (v,orange) ValueObject >> << unique >>
class Nickname  << (v,#A4C2E5) ValueObject >>
class OperationStatus  << (v,#A4C2E5) ValueObject >>
class SerialNumber  << (v,#A4C2E5) ValueObject >>
}
'========================================================

Robot <|-u- MobileRobot
Robot <|-u- Drone
Robot "1"-l->"1" Code
Robot "*"-d->"1" OperationStatus
Robot "1"- ->"1" Nickname
Robot "1"- ->"1" SerialNumber


@enduml

@startuml

skinparam linetype ortho

rectangle #464D77{
class Robot << Root >> << Entity >>
class Drone  << Entity >>
class MobileRobot  << Entity >>

class Code  << (v,orange) ValueObject >> << unique >>
class Nickname  << (v,#A4C2E5) ValueObject >>
class OperationStatus  << (v,#A4C2E5) ValueObject >>
class SerialNumber  << (v,#A4C2E5) ValueObject >>
}

Robot <|-u- MobileRobot
Robot <|-u- Drone
Robot "1"-l->"1" Code
Robot "*"-d->"1" OperationStatus
Robot "1"- ->"1" Nickname
Robot "1"- ->"1" SerialNumber


@enduml

PlantUML version 1.2022.7(Mon Aug 22 18:01:30 WEST 2022)
(GPL source distribution)
Java Runtime: Java(TM) SE Runtime Environment
JVM: Java HotSpot(TM) 64-Bit Server VM
Default Encoding: UTF-8
Language: en
Country: US
--></g></svg>