<?xml version="1.0" encoding="us-ascii" standalone="no"?><svg xmlns="http://www.w3.org/2000/svg" xmlns:xlink="http://www.w3.org/1999/xlink" contentStyleType="text/css" height="108px" preserveAspectRatio="none" style="width:391px;height:108px;background:#FFFFFF;" version="1.1" viewBox="0 0 391 108" width="391px" zoomAndPan="magnify"><defs/><g><!--cluster RobDroneGo--><g id="cluster_RobDroneGo"><path d="M180.5,6.0137 L272.5,6.0137 A3.75,3.75 0 0 1 275,8.5137 L282,30.6348 L381.5,30.6348 A2.5,2.5 0 0 1 384,33.1348 L384,96.5137 A2.5,2.5 0 0 1 381.5,99.0137 L180.5,99.0137 A2.5,2.5 0 0 1 178,96.5137 L178,8.5137 A2.5,2.5 0 0 1 180.5,6.0137 " fill="none" style="stroke:#000000;stroke-width:1.5;"/><line style="stroke:#000000;stroke-width:1.5;" x1="178" x2="282" y1="30.6348" y2="30.6348"/><text fill="#000000" font-family="sans-serif" font-size="14" font-weight="bold" lengthAdjust="spacing" textLength="91" x="182" y="23.1211">RobDroneGo</text></g><g id="elem_UC2"><ellipse cx="280.7688" cy="62.7674" fill="#F1F1F1" rx="86.7688" ry="19.7538" style="stroke:#181818;stroke-width:0.5;"/><text fill="#000000" font-family="sans-serif" font-size="14" lengthAdjust="spacing" textLength="126" x="214.7688" y="67.5711">Create Passageway</text></g><!--entity CM--><g id="elem_CM"><ellipse cx="70" cy="39.5137" fill="#F1F1F1" rx="16" ry="16" style="stroke:#181818;stroke-width:1.5;"/><path d="M70,59.5137 C74,59.5137 77,59.5137 81,55.5137 C89,55.5137 97,63.5137 97,71.5137 L97,75.5137 C97,79.5137 93,83.5137 89,83.5137 L51,83.5137 C47,83.5137 43,79.5137 43,75.5137 L43,71.5137 C43,63.5137 51,55.5137 59,55.5137 C63,59.5137 66,59.5137 70,59.5137 " fill="#F1F1F1" style="stroke:#181818;stroke-width:1.5;"/><text fill="#000000" font-family="sans-serif" font-size="14" lengthAdjust="spacing" textLength="128" x="6" y="100.1211">UI Campus Manager</text></g><!--link CM to UC2--><g id="link_CM_UC2"><path d="M134.27,63.0137 C153.02,63.0137 167.87,63.0137 187.8,63.0137 " fill="none" id="CM-to-UC2" style="stroke:#181818;stroke-width:1.0;"/><polygon fill="#181818" points="193.8,63.0137,184.8,59.0137,188.8,63.0137,184.8,67.0137,193.8,63.0137" style="stroke:#181818;stroke-width:1.0;"/></g><!--SRC=[7Oj12i9034NtESMd-suyW9iHn4L1b1uWZh4ERMTAabAAU7Thb-_ntY0lXnTewjwEPrA9daeciZxbYPL7SFIYTry70IzYPHIYtQ5gBmWyJhEXuSoTQ0KsX8PeujXl0hYLnqbBbdC1FWJC9f5DK0KLTi6LpRPmuNL_st2WBuK6TNtymmy0]--></g></svg>