<?xml version="1.0" encoding="us-ascii" standalone="no"?><svg xmlns="http://www.w3.org/2000/svg" xmlns:xlink="http://www.w3.org/1999/xlink" contentStyleType="text/css" height="551px" preserveAspectRatio="none" style="width:582px;height:551px;background:#FFFFFF;" version="1.1" viewBox="0 0 582 551" width="582px" zoomAndPan="magnify"><defs/><g><g id="cluster_##2"><rect fill="#EDB182" height="228" rx="2.5" ry="2.5" style="stroke:#181818;stroke-width:1.0;" width="154" x="131" y="317.8245"/></g><g id="cluster_##6"><rect fill="#D499B9" height="215" rx="2.5" ry="2.5" style="stroke:#181818;stroke-width:1.0;" width="569" x="7" y="13.8245"/></g><!--class Passageway--><g id="elem_Passageway"><rect codeLine="6" fill="#F1F1F1" height="68.4531" id="Passageway" rx="2.5" ry="2.5" style="stroke:#181818;stroke-width:0.5;" width="111" x="152.5" y="333.8245"/><ellipse cx="167.5" cy="360.0511" fill="#ADD1B2" rx="11" ry="11" style="stroke:#181818;stroke-width:1.0;"/><path d="M170.2656,355.9261 Q170.4219,355.7073 170.6094,355.5979 Q170.7969,355.4886 171.0156,355.4886 Q171.3906,355.4886 171.625,355.7542 Q171.8594,356.0042 171.8594,356.6136 L171.8594,358.0667 Q171.8594,358.6761 171.625,358.9417 Q171.3906,359.2073 171.0156,359.2073 Q170.6719,359.2073 170.4688,359.0042 Q170.2656,358.8167 170.1563,358.3011 Q170.1094,357.9417 169.9219,357.7542 Q169.5938,357.3792 168.9844,357.1604 Q168.375,356.9417 167.75,356.9417 Q166.9844,356.9417 166.3438,357.2698 Q165.7188,357.5979 165.2188,358.3479 Q164.7344,359.0979 164.7344,360.1292 L164.7344,361.2229 Q164.7344,362.4573 165.625,363.2854 Q166.5156,364.0979 168.1094,364.0979 Q169.0469,364.0979 169.7031,363.8479 Q170.0938,363.6917 170.5156,363.2542 Q170.7813,362.9886 170.9219,362.9104 Q171.0781,362.8323 171.2813,362.8323 Q171.6094,362.8323 171.8594,363.0979 Q172.125,363.3479 172.125,363.6917 Q172.125,364.0354 171.7813,364.4417 Q171.2813,365.0198 170.4844,365.3479 Q169.4063,365.8011 168.1094,365.8011 Q166.5938,365.8011 165.3906,365.1761 Q164.4063,364.6761 163.7188,363.6136 Q163.0313,362.5354 163.0313,361.2542 L163.0313,360.0979 Q163.0313,358.7698 163.6406,357.6292 Q164.2656,356.4729 165.3594,355.8636 Q166.4531,355.2386 167.6875,355.2386 Q168.4219,355.2386 169.0625,355.4104 Q169.7188,355.5667 170.2656,355.9261 Z " fill="#000000"/><text fill="#000000" font-family="sans-serif" font-size="12" font-style="italic" lengthAdjust="spacing" textLength="40" x="201" y="349.6878">&#171;Root&#187;</text><text fill="#000000" font-family="sans-serif" font-size="12" font-style="italic" lengthAdjust="spacing" textLength="44" x="199" y="363.094">&#171;Entity&#187;</text><text fill="#000000" font-family="sans-serif" font-size="14" lengthAdjust="spacing" textLength="79" x="181.5" y="378.3108">Passageway</text><line style="stroke:#181818;stroke-width:0.5;" x1="153.5" x2="262.5" y1="386.2776" y2="386.2776"/><line style="stroke:#181818;stroke-width:0.5;" x1="153.5" x2="262.5" y1="394.2776" y2="394.2776"/></g><!--class PassagewayId--><g id="elem_PassagewayId"><rect codeLine="7" fill="#F1F1F1" height="68.4531" id="PassagewayId" rx="2.5" ry="2.5" style="stroke:#181818;stroke-width:0.5;" width="122" x="147" y="461.8245"/><ellipse cx="162" cy="488.0511" fill="#FFA500" rx="11" ry="11" style="stroke:#181818;stroke-width:1.0;"/><path d="M162.6094,490.9886 L164.4531,487.2229 Q163.7656,487.2229 163.5781,487.0979 Q163.1563,486.8479 163.1563,486.3636 Q163.1563,485.9886 163.4219,485.7542 Q163.6875,485.5198 164.2969,485.5198 L166.625,485.5198 Q167.25,485.5198 167.5,485.7542 Q167.7656,485.9886 167.7656,486.3636 Q167.7656,486.7386 167.5,486.9886 Q167.25,487.2229 166.625,487.2229 L166.3438,487.2229 L163.5,493.0511 L161.7188,493.0511 L158.875,487.2229 L158.6406,487.2229 Q158.0156,487.2229 157.75,486.9886 Q157.5,486.7386 157.5,486.3636 Q157.5,485.9886 157.75,485.7542 Q158.0156,485.5198 158.6406,485.5198 L160.9219,485.5198 Q161.5313,485.5198 161.7813,485.7542 Q162.0469,485.9886 162.0469,486.3636 Q162.0469,486.8479 161.6563,487.0979 Q161.4531,487.2229 160.7656,487.2229 L162.6094,490.9886 Z " fill="#000000"/><text fill="#000000" font-family="sans-serif" font-size="12" font-style="italic" lengthAdjust="spacing" textLength="82" x="180" y="477.6878">&#171;ValueObject&#187;</text><text fill="#000000" font-family="sans-serif" font-size="12" font-style="italic" lengthAdjust="spacing" textLength="52" x="195" y="491.094">&#171;unique&#187;</text><text fill="#000000" font-family="sans-serif" font-size="14" lengthAdjust="spacing" textLength="90" x="176" y="506.3108">PassagewayId</text><line style="stroke:#181818;stroke-width:0.5;" x1="148" x2="268" y1="514.2776" y2="514.2776"/><line style="stroke:#181818;stroke-width:0.5;" x1="148" x2="268" y1="522.2776" y2="522.2776"/></g><!--class Floor--><g id="elem_Floor"><rect codeLine="11" fill="#F1F1F1" height="68.4531" id="Floor" rx="2.5" ry="2.5" style="stroke:#181818;stroke-width:0.5;" width="72" x="172" y="29.8245"/><ellipse cx="187" cy="56.0511" fill="#ADD1B2" rx="11" ry="11" style="stroke:#181818;stroke-width:1.0;"/><path d="M189.7656,51.9261 Q189.9219,51.7073 190.1094,51.5979 Q190.2969,51.4886 190.5156,51.4886 Q190.8906,51.4886 191.125,51.7542 Q191.3594,52.0042 191.3594,52.6136 L191.3594,54.0667 Q191.3594,54.6761 191.125,54.9417 Q190.8906,55.2073 190.5156,55.2073 Q190.1719,55.2073 189.9688,55.0042 Q189.7656,54.8167 189.6563,54.3011 Q189.6094,53.9417 189.4219,53.7542 Q189.0938,53.3792 188.4844,53.1604 Q187.875,52.9417 187.25,52.9417 Q186.4844,52.9417 185.8438,53.2698 Q185.2188,53.5979 184.7188,54.3479 Q184.2344,55.0979 184.2344,56.1292 L184.2344,57.2229 Q184.2344,58.4573 185.125,59.2854 Q186.0156,60.0979 187.6094,60.0979 Q188.5469,60.0979 189.2031,59.8479 Q189.5938,59.6917 190.0156,59.2542 Q190.2813,58.9886 190.4219,58.9104 Q190.5781,58.8323 190.7813,58.8323 Q191.1094,58.8323 191.3594,59.0979 Q191.625,59.3479 191.625,59.6917 Q191.625,60.0354 191.2813,60.4417 Q190.7813,61.0198 189.9844,61.3479 Q188.9063,61.8011 187.6094,61.8011 Q186.0938,61.8011 184.8906,61.1761 Q183.9063,60.6761 183.2188,59.6136 Q182.5313,58.5354 182.5313,57.2542 L182.5313,56.0979 Q182.5313,54.7698 183.1406,53.6292 Q183.7656,52.4729 184.8594,51.8636 Q185.9531,51.2386 187.1875,51.2386 Q187.9219,51.2386 188.5625,51.4104 Q189.2188,51.5667 189.7656,51.9261 Z " fill="#000000"/><text fill="#000000" font-family="sans-serif" font-size="12" font-style="italic" lengthAdjust="spacing" textLength="40" x="201" y="45.6878">&#171;Root&#187;</text><text fill="#000000" font-family="sans-serif" font-size="12" font-style="italic" lengthAdjust="spacing" textLength="44" x="199" y="59.094">&#171;Entity&#187;</text><text fill="#000000" font-family="sans-serif" font-size="14" lengthAdjust="spacing" textLength="33" x="204.5" y="74.3108">Floor</text><line style="stroke:#181818;stroke-width:0.5;" x1="173" x2="243" y1="82.2776" y2="82.2776"/><line style="stroke:#181818;stroke-width:0.5;" x1="173" x2="243" y1="90.2776" y2="90.2776"/></g><!--class FloorId--><g id="elem_FloorId"><rect codeLine="12" fill="#F1F1F1" height="68.4531" id="FloorId" rx="2.5" ry="2.5" style="stroke:#181818;stroke-width:0.5;" width="110" x="279" y="29.8245"/><ellipse cx="294" cy="56.0511" fill="#FFA500" rx="11" ry="11" style="stroke:#181818;stroke-width:1.0;"/><path d="M294.6094,58.9886 L296.4531,55.2229 Q295.7656,55.2229 295.5781,55.0979 Q295.1563,54.8479 295.1563,54.3636 Q295.1563,53.9886 295.4219,53.7542 Q295.6875,53.5198 296.2969,53.5198 L298.625,53.5198 Q299.25,53.5198 299.5,53.7542 Q299.7656,53.9886 299.7656,54.3636 Q299.7656,54.7386 299.5,54.9886 Q299.25,55.2229 298.625,55.2229 L298.3438,55.2229 L295.5,61.0511 L293.7188,61.0511 L290.875,55.2229 L290.6406,55.2229 Q290.0156,55.2229 289.75,54.9886 Q289.5,54.7386 289.5,54.3636 Q289.5,53.9886 289.75,53.7542 Q290.0156,53.5198 290.6406,53.5198 L292.9219,53.5198 Q293.5313,53.5198 293.7813,53.7542 Q294.0469,53.9886 294.0469,54.3636 Q294.0469,54.8479 293.6563,55.0979 Q293.4531,55.2229 292.7656,55.2229 L294.6094,58.9886 Z " fill="#000000"/><text fill="#000000" font-family="sans-serif" font-size="12" font-style="italic" lengthAdjust="spacing" textLength="82" x="306" y="45.6878">&#171;ValueObject&#187;</text><text fill="#000000" font-family="sans-serif" font-size="12" font-style="italic" lengthAdjust="spacing" textLength="52" x="321" y="59.094">&#171;unique&#187;</text><text fill="#000000" font-family="sans-serif" font-size="14" lengthAdjust="spacing" textLength="44" x="325" y="74.3108">FloorId</text><line style="stroke:#181818;stroke-width:0.5;" x1="280" x2="388" y1="82.2776" y2="82.2776"/><line style="stroke:#181818;stroke-width:0.5;" x1="280" x2="388" y1="90.2776" y2="90.2776"/></g><!--class FloorDescription--><g id="elem_FloorDescription"><rect codeLine="13" fill="#F1F1F1" height="55.0469" id="FloorDescription" rx="2.5" ry="2.5" style="stroke:#181818;stroke-width:0.5;" width="136" x="424" y="36.3245"/><ellipse cx="439" cy="55.8479" fill="#A4C2E5" rx="11" ry="11" style="stroke:#181818;stroke-width:1.0;"/><path d="M439.6094,58.7854 L441.4531,55.0198 Q440.7656,55.0198 440.5781,54.8948 Q440.1563,54.6448 440.1563,54.1604 Q440.1563,53.7854 440.4219,53.5511 Q440.6875,53.3167 441.2969,53.3167 L443.625,53.3167 Q444.25,53.3167 444.5,53.5511 Q444.7656,53.7854 444.7656,54.1604 Q444.7656,54.5354 444.5,54.7854 Q444.25,55.0198 443.625,55.0198 L443.3438,55.0198 L440.5,60.8479 L438.7188,60.8479 L435.875,55.0198 L435.6406,55.0198 Q435.0156,55.0198 434.75,54.7854 Q434.5,54.5354 434.5,54.1604 Q434.5,53.7854 434.75,53.5511 Q435.0156,53.3167 435.6406,53.3167 L437.9219,53.3167 Q438.5313,53.3167 438.7813,53.5511 Q439.0469,53.7854 439.0469,54.1604 Q439.0469,54.6448 438.6563,54.8948 Q438.4531,55.0198 437.7656,55.0198 L439.6094,58.7854 Z " fill="#000000"/><text fill="#000000" font-family="sans-serif" font-size="12" font-style="italic" lengthAdjust="spacing" textLength="82" x="464" y="52.1878">&#171;ValueObject&#187;</text><text fill="#000000" font-family="sans-serif" font-size="14" lengthAdjust="spacing" textLength="104" x="453" y="67.4046">FloorDescription</text><line style="stroke:#181818;stroke-width:0.5;" x1="425" x2="559" y1="75.3714" y2="75.3714"/><line style="stroke:#181818;stroke-width:0.5;" x1="425" x2="559" y1="83.3714" y2="83.3714"/></g><!--class FloorMap--><g id="elem_FloorMap"><rect codeLine="14" fill="#F1F1F1" height="55.0469" id="FloorMap" rx="2.5" ry="2.5" style="stroke:#181818;stroke-width:0.5;" width="92" x="162" y="157.8245"/><ellipse cx="177" cy="177.3479" fill="#ADD1B2" rx="11" ry="11" style="stroke:#181818;stroke-width:1.0;"/><path d="M179.7656,173.2229 Q179.9219,173.0042 180.1094,172.8948 Q180.2969,172.7854 180.5156,172.7854 Q180.8906,172.7854 181.125,173.0511 Q181.3594,173.3011 181.3594,173.9104 L181.3594,175.3636 Q181.3594,175.9729 181.125,176.2386 Q180.8906,176.5042 180.5156,176.5042 Q180.1719,176.5042 179.9688,176.3011 Q179.7656,176.1136 179.6563,175.5979 Q179.6094,175.2386 179.4219,175.0511 Q179.0938,174.6761 178.4844,174.4573 Q177.875,174.2386 177.25,174.2386 Q176.4844,174.2386 175.8438,174.5667 Q175.2188,174.8948 174.7188,175.6448 Q174.2344,176.3948 174.2344,177.4261 L174.2344,178.5198 Q174.2344,179.7542 175.125,180.5823 Q176.0156,181.3948 177.6094,181.3948 Q178.5469,181.3948 179.2031,181.1448 Q179.5938,180.9886 180.0156,180.5511 Q180.2813,180.2854 180.4219,180.2073 Q180.5781,180.1292 180.7813,180.1292 Q181.1094,180.1292 181.3594,180.3948 Q181.625,180.6448 181.625,180.9886 Q181.625,181.3323 181.2813,181.7386 Q180.7813,182.3167 179.9844,182.6448 Q178.9063,183.0979 177.6094,183.0979 Q176.0938,183.0979 174.8906,182.4729 Q173.9063,181.9729 173.2188,180.9104 Q172.5313,179.8323 172.5313,178.5511 L172.5313,177.3948 Q172.5313,176.0667 173.1406,174.9261 Q173.7656,173.7698 174.8594,173.1604 Q175.9531,172.5354 177.1875,172.5354 Q177.9219,172.5354 178.5625,172.7073 Q179.2188,172.8636 179.7656,173.2229 Z " fill="#000000"/><text fill="#000000" font-family="sans-serif" font-size="12" font-style="italic" lengthAdjust="spacing" textLength="44" x="199" y="173.6878">&#171;Entity&#187;</text><text fill="#000000" font-family="sans-serif" font-size="14" lengthAdjust="spacing" textLength="60" x="191" y="188.9046">FloorMap</text><line style="stroke:#181818;stroke-width:0.5;" x1="163" x2="253" y1="196.8714" y2="196.8714"/><line style="stroke:#181818;stroke-width:0.5;" x1="163" x2="253" y1="204.8714" y2="204.8714"/></g><!--class FloorNumber--><g id="elem_FloorNumber"><rect codeLine="15" fill="#F1F1F1" height="55.0469" id="FloorNumber" rx="2.5" ry="2.5" style="stroke:#181818;stroke-width:0.5;" width="114" x="23" y="36.3245"/><ellipse cx="38" cy="55.8479" fill="#A4C2E5" rx="11" ry="11" style="stroke:#181818;stroke-width:1.0;"/><path d="M38.6094,58.7854 L40.4531,55.0198 Q39.7656,55.0198 39.5781,54.8948 Q39.1563,54.6448 39.1563,54.1604 Q39.1563,53.7854 39.4219,53.5511 Q39.6875,53.3167 40.2969,53.3167 L42.625,53.3167 Q43.25,53.3167 43.5,53.5511 Q43.7656,53.7854 43.7656,54.1604 Q43.7656,54.5354 43.5,54.7854 Q43.25,55.0198 42.625,55.0198 L42.3438,55.0198 L39.5,60.8479 L37.7188,60.8479 L34.875,55.0198 L34.6406,55.0198 Q34.0156,55.0198 33.75,54.7854 Q33.5,54.5354 33.5,54.1604 Q33.5,53.7854 33.75,53.5511 Q34.0156,53.3167 34.6406,53.3167 L36.9219,53.3167 Q37.5313,53.3167 37.7813,53.5511 Q38.0469,53.7854 38.0469,54.1604 Q38.0469,54.6448 37.6563,54.8948 Q37.4531,55.0198 36.7656,55.0198 L38.6094,58.7854 Z " fill="#000000"/><text fill="#000000" font-family="sans-serif" font-size="12" font-style="italic" lengthAdjust="spacing" textLength="82" x="52" y="52.1878">&#171;ValueObject&#187;</text><text fill="#000000" font-family="sans-serif" font-size="14" lengthAdjust="spacing" textLength="82" x="52" y="67.4046">FloorNumber</text><line style="stroke:#181818;stroke-width:0.5;" x1="24" x2="136" y1="75.3714" y2="75.3714"/><line style="stroke:#181818;stroke-width:0.5;" x1="24" x2="136" y1="83.3714" y2="83.3714"/></g><!--link Passageway to PassagewayId--><g id="link_Passageway_PassagewayId"><path codeLine="20" d="M208,402.1245 C208,402.1245 208,456.4245 208,456.4245 " fill="none" id="Passageway-to-PassagewayId" style="stroke:#181818;stroke-width:1.0;"/><polygon fill="#181818" points="208,461.4245,212,452.4245,208,456.4245,204,452.4245,208,461.4245" style="stroke:#181818;stroke-width:1.0;"/><text fill="#000000" font-family="sans-serif" font-size="13" lengthAdjust="spacing" textLength="7" x="200.3109" y="422.0309">1</text><text fill="#000000" font-family="sans-serif" font-size="13" lengthAdjust="spacing" textLength="7" x="200.3109" y="451.0494">1</text></g><!--link Floor to FloorMap--><g id="link_Floor_FloorMap"><path codeLine="22" d="M208,97.9945 C208,97.9945 208,152.5445 208,152.5445 " fill="none" id="Floor-to-FloorMap" style="stroke:#181818;stroke-width:1.0;"/><polygon fill="#181818" points="208,157.5445,212,148.5445,208,152.5445,204,148.5445,208,157.5445" style="stroke:#181818;stroke-width:1.0;"/><text fill="#000000" font-family="sans-serif" font-size="13" lengthAdjust="spacing" textLength="7" x="200.2781" y="118.2616">1</text><text fill="#000000" font-family="sans-serif" font-size="13" lengthAdjust="spacing" textLength="7" x="200.1469" y="146.8935">1</text></g><!--reverse link FloorNumber to Floor--><g id="link_FloorNumber_Floor"><path codeLine="23" d="M142.26,63.8245 C142.26,63.8245 171.73,63.8245 171.73,63.8245 " fill="none" id="FloorNumber-backto-Floor" style="stroke:#181818;stroke-width:1.0;"/><polygon fill="#181818" points="137.26,63.8245,146.26,67.8245,142.26,63.8245,146.26,59.8245,137.26,63.8245" style="stroke:#181818;stroke-width:1.0;"/><text fill="#000000" font-family="sans-serif" font-size="13" lengthAdjust="spacing" textLength="7" x="145.0449" y="60.7267">1</text><text fill="#000000" font-family="sans-serif" font-size="13" lengthAdjust="spacing" textLength="5" x="159.0972" y="60.2219">*</text></g><!--link Floor to FloorDescription--><g id="link_Floor_FloorDescription"><path codeLine="24" d="M208,29.7245 C208,19.9145 208,11.8245 208,11.8245 C208,11.8245 492,11.8245 492,11.8245 C492,11.8245 492,31.3045 492,31.3045 " fill="none" id="Floor-to-FloorDescription" style="stroke:#181818;stroke-width:1.0;"/><polygon fill="#181818" points="492,36.3045,496,27.3045,492,31.3045,488,27.3045,492,36.3045" style="stroke:#181818;stroke-width:1.0;"/><text fill="#000000" font-family="sans-serif" font-size="13" lengthAdjust="spacing" textLength="5" x="202.4844" y="19.0234">*</text><text fill="#000000" font-family="sans-serif" font-size="13" lengthAdjust="spacing" textLength="7" x="484.1469" y="25.7169">1</text></g><!--link Floor to FloorId--><g id="link_Floor_FloorId"><path codeLine="25" d="M244.11,63.8245 C244.11,63.8245 273.62,63.8245 273.62,63.8245 " fill="none" id="Floor-to-FloorId" style="stroke:#181818;stroke-width:1.0;"/><polygon fill="#181818" points="278.62,63.8245,269.62,59.8245,273.62,63.8245,269.62,67.8245,278.62,63.8245" style="stroke:#181818;stroke-width:1.0;"/><text fill="#000000" font-family="sans-serif" font-size="13" lengthAdjust="spacing" textLength="7" x="251.9082" y="60.2219">1</text><text fill="#000000" font-family="sans-serif" font-size="13" lengthAdjust="spacing" textLength="7" x="264.076" y="60.7007">1</text></g><!--link FloorMap to Passageway--><g id="link_FloorMap_Passageway"><path codeLine="27" d="M208,213.0445 C208,213.0445 208,328.6145 208,328.6145 " fill="none" id="FloorMap-to-Passageway" style="stroke:#181818;stroke-width:1.0;"/><polygon fill="#181818" points="208,333.6145,212,324.6145,208,328.6145,204,324.6145,208,333.6145" style="stroke:#181818;stroke-width:1.0;"/><text fill="#000000" font-family="sans-serif" font-size="13" lengthAdjust="spacing" textLength="7" x="200.2344" y="232.4602">2</text><text fill="#000000" font-family="sans-serif" font-size="13" lengthAdjust="spacing" textLength="20" x="185.9375" y="322.8908">0..*</text></g><!--SRC=[hP5TIyCm58RlyoiEsOKwbk7A10jRmTaANgZ32- -pxh1bPabD4wN8_hlfPjUeoF0Z5_dWFU-RXtFAHw4ARlWQf51egm916xlKX92ZyIyNCPXRhXOIePEbay5vz4fooSiIfdxZ2tpX5S1e1FTQMqYI-fefAspb7rygh-VRskFddZO-54_WWKk7TxEL_-NTxPHuSbYxD_-3dGxZU18ts5TIQtE8U5lqCzZ0c6AP6r5OeLMJqBaONaRPsUU8q7N32_YMvTQjPsWEX6t-CcSIp9CEA9kpn1yVPaV8hdc1t90tIfSormexwa1hfQ17RIgm1FOL-__gnj28CkRjf_r-DuGYRm00]--></g></svg>
