<?xml version="1.0" encoding="us-ascii" standalone="no"?><svg xmlns="http://www.w3.org/2000/svg" xmlns:xlink="http://www.w3.org/1999/xlink" contentStyleType="text/css" height="578px" preserveAspectRatio="none" style="width:167px;height:578px;background:#FFFFFF;" version="1.1" viewBox="0 0 167 578" width="167px" zoomAndPan="magnify"><defs/><g><g id="cluster_##2"><rect fill="#EDB182" height="246" rx="2.5" ry="2.5" style="stroke:#181818;stroke-width:1.0;" width="154" x="7" y="326"/></g><g id="cluster_##6"><rect fill="#D499B9" height="230" rx="2.5" ry="2.5" style="stroke:#181818;stroke-width:1.0;" width="124" x="22" y="7"/></g><!--class Passageway--><g id="elem_Passageway"><rect codeLine="5" fill="#F1F1F1" height="76.543" id="Passageway" rx="2.5" ry="2.5" style="stroke:#181818;stroke-width:0.5;" width="111" x="28.5" y="342"/><ellipse cx="43.5" cy="372.2715" fill="#ADD1B2" rx="11" ry="11" style="stroke:#181818;stroke-width:1.0;"/><path d="M46.2656,368.1465 Q46.4219,367.9277 46.6094,367.8184 Q46.7969,367.709 47.0156,367.709 Q47.3906,367.709 47.625,367.9746 Q47.8594,368.2246 47.8594,368.834 L47.8594,370.2871 Q47.8594,370.8965 47.625,371.1621 Q47.3906,371.4277 47.0156,371.4277 Q46.6719,371.4277 46.4688,371.2246 Q46.2656,371.0371 46.1563,370.5215 Q46.1094,370.1621 45.9219,369.9746 Q45.5938,369.5996 44.9844,369.3809 Q44.375,369.1621 43.75,369.1621 Q42.9844,369.1621 42.3438,369.4902 Q41.7188,369.8184 41.2188,370.5684 Q40.7344,371.3184 40.7344,372.3496 L40.7344,373.4434 Q40.7344,374.6777 41.625,375.5059 Q42.5156,376.3184 44.1094,376.3184 Q45.0469,376.3184 45.7031,376.0684 Q46.0938,375.9121 46.5156,375.4746 Q46.7813,375.209 46.9219,375.1309 Q47.0781,375.0527 47.2813,375.0527 Q47.6094,375.0527 47.8594,375.3184 Q48.125,375.5684 48.125,375.9121 Q48.125,376.2559 47.7813,376.6621 Q47.2813,377.2402 46.4844,377.5684 Q45.4063,378.0215 44.1094,378.0215 Q42.5938,378.0215 41.3906,377.3965 Q40.4063,376.8965 39.7188,375.834 Q39.0313,374.7559 39.0313,373.4746 L39.0313,372.3184 Q39.0313,370.9902 39.6406,369.8496 Q40.2656,368.6934 41.3594,368.084 Q42.4531,367.459 43.6875,367.459 Q44.4219,367.459 45.0625,367.6309 Q45.7188,367.7871 46.2656,368.1465 Z " fill="#000000"/><text fill="#000000" font-family="sans-serif" font-size="12" font-style="italic" lengthAdjust="spacing" textLength="40" x="77" y="359.9492">&#171;Root&#187;</text><text fill="#000000" font-family="sans-serif" font-size="12" font-style="italic" lengthAdjust="spacing" textLength="44" x="75" y="375.9102">&#171;Entity&#187;</text><text fill="#000000" font-family="sans-serif" font-size="14" lengthAdjust="spacing" textLength="79" x="57.5" y="394.0293">Passageway</text><line style="stroke:#181818;stroke-width:0.5;" x1="29.5" x2="138.5" y1="402.543" y2="402.543"/><line style="stroke:#181818;stroke-width:0.5;" x1="29.5" x2="138.5" y1="410.543" y2="410.543"/></g><!--class PassagewayId--><g id="elem_PassagewayId"><rect codeLine="6" fill="#F1F1F1" height="76.543" id="PassagewayId" rx="2.5" ry="2.5" style="stroke:#181818;stroke-width:0.5;" width="122" x="23" y="479"/><ellipse cx="38" cy="509.2715" fill="#FFA500" rx="11" ry="11" style="stroke:#181818;stroke-width:1.0;"/><path d="M38.6094,512.209 L40.4531,508.4434 Q39.7656,508.4434 39.5781,508.3184 Q39.1563,508.0684 39.1563,507.584 Q39.1563,507.209 39.4219,506.9746 Q39.6875,506.7402 40.2969,506.7402 L42.625,506.7402 Q43.25,506.7402 43.5,506.9746 Q43.7656,507.209 43.7656,507.584 Q43.7656,507.959 43.5,508.209 Q43.25,508.4434 42.625,508.4434 L42.3438,508.4434 L39.5,514.2715 L37.7188,514.2715 L34.875,508.4434 L34.6406,508.4434 Q34.0156,508.4434 33.75,508.209 Q33.5,507.959 33.5,507.584 Q33.5,507.209 33.75,506.9746 Q34.0156,506.7402 34.6406,506.7402 L36.9219,506.7402 Q37.5313,506.7402 37.7813,506.9746 Q38.0469,507.209 38.0469,507.584 Q38.0469,508.0684 37.6563,508.3184 Q37.4531,508.4434 36.7656,508.4434 L38.6094,512.209 Z " fill="#000000"/><text fill="#000000" font-family="sans-serif" font-size="12" font-style="italic" lengthAdjust="spacing" textLength="82" x="56" y="496.9492">&#171;ValueObject&#187;</text><text fill="#000000" font-family="sans-serif" font-size="12" font-style="italic" lengthAdjust="spacing" textLength="52" x="71" y="512.9102">&#171;unique&#187;</text><text fill="#000000" font-family="sans-serif" font-size="14" lengthAdjust="spacing" textLength="90" x="52" y="531.0293">PassagewayId</text><line style="stroke:#181818;stroke-width:0.5;" x1="24" x2="144" y1="539.543" y2="539.543"/><line style="stroke:#181818;stroke-width:0.5;" x1="24" x2="144" y1="547.543" y2="547.543"/></g><!--class Floor--><g id="elem_Floor"><rect codeLine="10" fill="#F1F1F1" height="76.543" id="Floor" rx="2.5" ry="2.5" style="stroke:#181818;stroke-width:0.5;" width="72" x="48" y="23"/><ellipse cx="63" cy="53.2715" fill="#ADD1B2" rx="11" ry="11" style="stroke:#181818;stroke-width:1.0;"/><path d="M65.7656,49.1465 Q65.9219,48.9277 66.1094,48.8184 Q66.2969,48.709 66.5156,48.709 Q66.8906,48.709 67.125,48.9746 Q67.3594,49.2246 67.3594,49.834 L67.3594,51.2871 Q67.3594,51.8965 67.125,52.1621 Q66.8906,52.4277 66.5156,52.4277 Q66.1719,52.4277 65.9688,52.2246 Q65.7656,52.0371 65.6563,51.5215 Q65.6094,51.1621 65.4219,50.9746 Q65.0938,50.5996 64.4844,50.3809 Q63.875,50.1621 63.25,50.1621 Q62.4844,50.1621 61.8438,50.4902 Q61.2188,50.8184 60.7188,51.5684 Q60.2344,52.3184 60.2344,53.3496 L60.2344,54.4434 Q60.2344,55.6777 61.125,56.5059 Q62.0156,57.3184 63.6094,57.3184 Q64.5469,57.3184 65.2031,57.0684 Q65.5938,56.9121 66.0156,56.4746 Q66.2813,56.209 66.4219,56.1309 Q66.5781,56.0527 66.7813,56.0527 Q67.1094,56.0527 67.3594,56.3184 Q67.625,56.5684 67.625,56.9121 Q67.625,57.2559 67.2813,57.6621 Q66.7813,58.2402 65.9844,58.5684 Q64.9063,59.0215 63.6094,59.0215 Q62.0938,59.0215 60.8906,58.3965 Q59.9063,57.8965 59.2188,56.834 Q58.5313,55.7559 58.5313,54.4746 L58.5313,53.3184 Q58.5313,51.9902 59.1406,50.8496 Q59.7656,49.6934 60.8594,49.084 Q61.9531,48.459 63.1875,48.459 Q63.9219,48.459 64.5625,48.6309 Q65.2188,48.7871 65.7656,49.1465 Z " fill="#000000"/><text fill="#000000" font-family="sans-serif" font-size="12" font-style="italic" lengthAdjust="spacing" textLength="40" x="77" y="40.9492">&#171;Root&#187;</text><text fill="#000000" font-family="sans-serif" font-size="12" font-style="italic" lengthAdjust="spacing" textLength="44" x="75" y="56.9102">&#171;Entity&#187;</text><text fill="#000000" font-family="sans-serif" font-size="14" lengthAdjust="spacing" textLength="33" x="80.5" y="75.0293">Floor</text><line style="stroke:#181818;stroke-width:0.5;" x1="49" x2="119" y1="83.543" y2="83.543"/><line style="stroke:#181818;stroke-width:0.5;" x1="49" x2="119" y1="91.543" y2="91.543"/></g><!--class FloorMap--><g id="elem_FloorMap"><rect codeLine="11" fill="#F1F1F1" height="60.582" id="FloorMap" rx="2.5" ry="2.5" style="stroke:#181818;stroke-width:0.5;" width="92" x="38" y="160"/><ellipse cx="53" cy="182.291" fill="#ADD1B2" rx="11" ry="11" style="stroke:#181818;stroke-width:1.0;"/><path d="M55.7656,178.166 Q55.9219,177.9473 56.1094,177.8379 Q56.2969,177.7285 56.5156,177.7285 Q56.8906,177.7285 57.125,177.9941 Q57.3594,178.2441 57.3594,178.8535 L57.3594,180.3066 Q57.3594,180.916 57.125,181.1816 Q56.8906,181.4473 56.5156,181.4473 Q56.1719,181.4473 55.9688,181.2441 Q55.7656,181.0566 55.6563,180.541 Q55.6094,180.1816 55.4219,179.9941 Q55.0938,179.6191 54.4844,179.4004 Q53.875,179.1816 53.25,179.1816 Q52.4844,179.1816 51.8438,179.5098 Q51.2188,179.8379 50.7188,180.5879 Q50.2344,181.3379 50.2344,182.3691 L50.2344,183.4629 Q50.2344,184.6973 51.125,185.5254 Q52.0156,186.3379 53.6094,186.3379 Q54.5469,186.3379 55.2031,186.0879 Q55.5938,185.9316 56.0156,185.4941 Q56.2813,185.2285 56.4219,185.1504 Q56.5781,185.0723 56.7813,185.0723 Q57.1094,185.0723 57.3594,185.3379 Q57.625,185.5879 57.625,185.9316 Q57.625,186.2754 57.2813,186.6816 Q56.7813,187.2598 55.9844,187.5879 Q54.9063,188.041 53.6094,188.041 Q52.0938,188.041 50.8906,187.416 Q49.9063,186.916 49.2188,185.8535 Q48.5313,184.7754 48.5313,183.4941 L48.5313,182.3379 Q48.5313,181.0098 49.1406,179.8691 Q49.7656,178.7129 50.8594,178.1035 Q51.9531,177.4785 53.1875,177.4785 Q53.9219,177.4785 54.5625,177.6504 Q55.2188,177.8066 55.7656,178.166 Z " fill="#000000"/><text fill="#000000" font-family="sans-serif" font-size="12" font-style="italic" lengthAdjust="spacing" textLength="44" x="75" y="177.9492">&#171;Entity&#187;</text><text fill="#000000" font-family="sans-serif" font-size="14" lengthAdjust="spacing" textLength="60" x="67" y="196.0684">FloorMap</text><line style="stroke:#181818;stroke-width:0.5;" x1="39" x2="129" y1="204.582" y2="204.582"/><line style="stroke:#181818;stroke-width:0.5;" x1="39" x2="129" y1="212.582" y2="212.582"/></g><!--link Passageway to PassagewayId--><g id="link_Passageway_PassagewayId"><path codeLine="16" d="M84,419.11 C84,437.67 84,454.02 84,472.63 " fill="none" id="Passageway-to-PassagewayId" style="stroke:#181818;stroke-width:1.0;"/><polygon fill="#181818" points="84,478.63,88,469.63,84,473.63,80,469.63,84,478.63" style="stroke:#181818;stroke-width:1.0;"/><text fill="#000000" font-family="sans-serif" font-size="13" lengthAdjust="spacing" textLength="7" x="76.4422" y="440.7061">1</text><text fill="#000000" font-family="sans-serif" font-size="13" lengthAdjust="spacing" textLength="7" x="76.4203" y="467.8746">1</text></g><!--link Floor to FloorMap--><g id="link_Floor_FloorMap"><path codeLine="18" d="M84,100.26 C84,119.27 84,135.99 84,153.74 " fill="none" id="Floor-to-FloorMap" style="stroke:#181818;stroke-width:1.0;"/><polygon fill="#181818" points="84,159.74,88,150.74,84,154.74,80,150.74,84,159.74" style="stroke:#181818;stroke-width:1.0;"/><text fill="#000000" font-family="sans-serif" font-size="13" lengthAdjust="spacing" textLength="7" x="76.4641" y="121.5823">1</text><text fill="#000000" font-family="sans-serif" font-size="13" lengthAdjust="spacing" textLength="7" x="76.2781" y="148.7441">1</text></g><!--link FloorMap to Passageway--><g id="link_FloorMap_Passageway"><path codeLine="20" d="M84,221.29 C84,253.9 84,300.27 84,335.74 " fill="none" id="FloorMap-to-Passageway" style="stroke:#181818;stroke-width:1.0;"/><polygon fill="#181818" points="84,341.74,88,332.74,84,336.74,80,332.74,84,341.74" style="stroke:#181818;stroke-width:1.0;"/><text fill="#000000" font-family="sans-serif" font-size="13" lengthAdjust="spacing" textLength="7" x="76.3547" y="242.6278">2</text><text fill="#000000" font-family="sans-serif" font-size="13" lengthAdjust="spacing" textLength="20" x="62.2813" y="330.7098">0..*</text></g><!--SRC=[KxSb4t0LfIQN9EQbvwGgABkwE1bQ65Lp9USa5XSh1029nFJKyiHA1GKR6uMW_FmI1Jix4DCrhoIpf1B8mL3fcG9Mgr6cary4D3HLKo4iCQSqrJyf2sWBL7TfNcPXQIf8TosNEZMSxM9YQUba2NEsMqv-VX4X5uCL-IOMAA1Ard9Hu28kf01JCbJIJT6r0r8eWSF51N4TaZJC9L0fa9kKZ9HqTO6o1dfwMiZwkG00]--></g></svg>