<?xml version="1.0" encoding="UTF-8" standalone="no"?><svg xmlns="http://www.w3.org/2000/svg" xmlns:xlink="http://www.w3.org/1999/xlink" contentStyleType="text/css" height="104px" preserveAspectRatio="none" style="width:336px;height:104px;background:#FFFFFF;" version="1.1" viewBox="0 0 336 104" width="336px" zoomAndPan="magnify"><defs/><g><!--MD5=[1478444cbd0d707d5292787239839939]
cluster RobDroneGo--><g id="cluster_RobDroneGo"><path d="M160.5,6 L252.5,6 A3.75,3.75 0 0 1 255,8.5 L262,29.6094 L326.5,29.6094 A2.5,2.5 0 0 1 329,32.1094 L329,89.5 A2.5,2.5 0 0 1 326.5,92 L160.5,92 A2.5,2.5 0 0 1 158,89.5 L158,8.5 A2.5,2.5 0 0 1 160.5,6 " fill="none" style="stroke:#000000;stroke-width:1.5;"/><line style="stroke:#000000;stroke-width:1.5;" x1="158" x2="262" y1="29.6094" y2="29.6094"/><text fill="#000000" font-family="sans-serif" font-size="14" font-weight="bold" lengthAdjust="spacing" textLength="91" x="162" y="22.5332">RobDroneGo</text></g><g id="elem_UC18"><ellipse cx="243.457" cy="58.7914" fill="#F1F1F1" rx="69.457" ry="16.2914" style="stroke:#181818;stroke-width:0.5;"/><text fill="#000000" font-family="sans-serif" font-size="14" lengthAdjust="spacing" textLength="86" x="197.457" y="63.308">Inhibit a robot</text></g><!--MD5=[a89ee74bb4979dbed373b93afc1c36e4]
entity FM--><g id="elem_FM"><ellipse cx="60" cy="36" fill="#F1F1F1" rx="16" ry="16" style="stroke:#181818;stroke-width:1.5;"/><path d="M60,56 C64,56 67,56 71,52 C79,52 87,60 87,68 L87,72 C87,76 83,80 79,80 L41,80 C37,80 33,76 33,72 L33,68 C33,60 41,52 49,52 C53,56 56,56 60,56 " fill="#F1F1F1" style="stroke:#181818;stroke-width:1.5;"/><text fill="#000000" font-family="sans-serif" font-size="14" lengthAdjust="spacing" textLength="108" x="6" y="96.0332">UI Fleet Manager</text></g><!--MD5=[1bd1887c584c9336e9527dad2a977629]
link FM to UC18--><g id="link_FM_UC18"><path d="M114.47,59 C131.49,59 150.62,59 168.8,59 " fill="none" id="FM-to-UC18" style="stroke:#181818;stroke-width:1.0;"/><polygon fill="#181818" points="173.9,59,164.9,55,168.9,59,164.9,63,173.9,59" style="stroke:#181818;stroke-width:1.0;"/></g><!--MD5=[119199e4aec64971db811c8bd338f132]
@startuml SceneryView
left to right direction

skinparam actorStyle awesome

actor "UI Fleet Manager" as FM

package  RobDroneGo  {
    usecase "Inhibit a robot" as UC18
}
FM - -> UC18
@enduml

PlantUML version 1.2022.7(Mon Aug 22 18:01:30 WEST 2022)
(GPL source distribution)
Java Runtime: Java(TM) SE Runtime Environment
JVM: Java HotSpot(TM) 64-Bit Server VM
Default Encoding: UTF-8
Language: en
Country: US
--></g></svg>