<?xml version="1.0" encoding="us-ascii" standalone="no"?><svg xmlns="http://www.w3.org/2000/svg" xmlns:xlink="http://www.w3.org/1999/xlink" contentStyleType="text/css" height="6886px" preserveAspectRatio="none" style="width:2022px;height:6886px;background:#FFFFFF;" version="1.1" viewBox="0 0 2022 6886" width="2022px" zoomAndPan="magnify"><defs/><g><!--cluster RobDroneGo--><g id="cluster_RobDroneGo"><path d="M180.5,6 L272.5,6 A3.75,3.75 0 0 1 275,8.5 L282,27.6406 L2012.5,27.6406 A2.5,2.5 0 0 1 2015,30.1406 L2015,6870.5 A2.5,2.5 0 0 1 2012.5,6873 L180.5,6873 A2.5,2.5 0 0 1 178,6870.5 L178,8.5 A2.5,2.5 0 0 1 180.5,6 " fill="none" style="stroke:#000000;stroke-width:1.5;"/><line style="stroke:#000000;stroke-width:1.5;" x1="178" x2="282" y1="27.6406" y2="27.6406"/><text fill="#000000" font-family="sans-serif" font-size="14" font-weight="bold" lengthAdjust="spacing" textLength="91" x="182" y="20.6738">RobDroneGo</text></g><g id="elem_UC1"><ellipse cx="1096.5778" cy="1065.9156" fill="#F1F1F1" rx="70.0778" ry="16.4156" style="stroke:#181818;stroke-width:0.5;"/><text fill="#000000" font-family="sans-serif" font-size="14" lengthAdjust="spacing" textLength="97" x="1047.7903" y="1068.8492">Create Building</text></g><g id="elem_UC2"><ellipse cx="1096.4429" cy="54.9886" fill="#F1F1F1" rx="62.9429" ry="14.9886" style="stroke:#181818;stroke-width:0.5;"/><text fill="#000000" font-family="sans-serif" font-size="14" lengthAdjust="spacing" textLength="78" x="1054.4429" y="58.5755">Edit Building</text></g><g id="elem_UC3"><ellipse cx="1096.6226" cy="121.8245" fill="#F1F1F1" rx="72.1226" ry="16.8245" style="stroke:#181818;stroke-width:0.5;"/><text fill="#000000" font-family="sans-serif" font-size="14" lengthAdjust="spacing" textLength="102" x="1045.6226" y="124.678">List All Buildings</text></g><g id="elem_UC4"><ellipse cx="1096.4441" cy="194.9888" fill="#F1F1F1" rx="92.9441" ry="20.9888" style="stroke:#181818;stroke-width:0.5;"/><text fill="#000000" font-family="sans-serif" font-size="14" lengthAdjust="spacing" textLength="150" x="1021.4441" y="197.8423">Create Floor of Building</text></g><g id="elem_UC5"><ellipse cx="1096.4934" cy="270.7987" fill="#F1F1F1" rx="84.4934" ry="19.2987" style="stroke:#181818;stroke-width:0.5;"/><text fill="#000000" font-family="sans-serif" font-size="14" lengthAdjust="spacing" textLength="131" x="1030.9934" y="273.6522">Edit Floor of Building</text></g><g id="elem_UC6"><ellipse cx="1096.6955" cy="345.2391" fill="#F1F1F1" rx="86.6955" ry="19.7391" style="stroke:#181818;stroke-width:0.5;"/><text fill="#000000" font-family="sans-serif" font-size="14" lengthAdjust="spacing" textLength="136" x="1028.6955" y="348.0926">List Floors of Building</text></g><g id="elem_UC7"><ellipse cx="1096.3869" cy="427.0774" fill="#F1F1F1" rx="125.8869" ry="27.5774" style="stroke:#181818;stroke-width:0.5;"/><text fill="#000000" font-family="sans-serif" font-size="14" lengthAdjust="spacing" textLength="221" x="985.8869" y="429.9309">Create Passage Between Buildings</text></g><g id="elem_UC8"><ellipse cx="1096.4207" cy="515.7841" fill="#F1F1F1" rx="116.9207" ry="25.7841" style="stroke:#181818;stroke-width:0.5;"/><text fill="#000000" font-family="sans-serif" font-size="14" lengthAdjust="spacing" textLength="202" x="995.4207" y="518.6377">Edit Passage Between Buildings</text></g><g id="elem_UC9"><ellipse cx="1096.272" cy="603.7544" fill="#F1F1F1" rx="119.272" ry="26.2544" style="stroke:#181818;stroke-width:0.5;"/><text fill="#000000" font-family="sans-serif" font-size="14" lengthAdjust="spacing" textLength="207" x="992.772" y="606.6079">List Passages Between Buildings</text></g><g id="elem_UC10"><ellipse cx="1096.6271" cy="688.1254" fill="#F1F1F1" rx="101.1271" ry="22.6254" style="stroke:#181818;stroke-width:0.5;"/><text fill="#000000" font-family="sans-serif" font-size="14" lengthAdjust="spacing" textLength="168" x="1012.6271" y="690.9789">Create Elevator in Building</text></g><g id="elem_UC11"><ellipse cx="1096.494" cy="766.8988" fill="#F1F1F1" rx="92.494" ry="20.8988" style="stroke:#181818;stroke-width:0.5;"/><text fill="#000000" font-family="sans-serif" font-size="14" lengthAdjust="spacing" textLength="149" x="1021.994" y="769.7523">Edit Elevator in Building</text></g><g id="elem_UC12"><ellipse cx="1096.7493" cy="844.8499" fill="#F1F1F1" rx="94.7493" ry="21.3499" style="stroke:#181818;stroke-width:0.5;"/><text fill="#000000" font-family="sans-serif" font-size="14" lengthAdjust="spacing" textLength="154" x="1019.7493" y="847.7034">List Elevators in Building</text></g><g id="elem_UC13"><ellipse cx="1096.2521" cy="921.9504" fill="#F1F1F1" rx="90.2521" ry="20.4504" style="stroke:#181818;stroke-width:0.5;"/><text fill="#000000" font-family="sans-serif" font-size="14" lengthAdjust="spacing" textLength="144" x="1024.2521" y="924.8039">Create Rooms of Floor</text></g><g id="elem_UC14"><ellipse cx="1096.4995" cy="995.9999" fill="#F1F1F1" rx="77.9995" ry="17.9999" style="stroke:#181818;stroke-width:0.5;"/><text fill="#000000" font-family="sans-serif" font-size="14" lengthAdjust="spacing" textLength="116" x="1038.4995" y="998.8534">List Room of Floor</text></g><g id="elem_UC15"><ellipse cx="1096.3722" cy="1136.9744" fill="#F1F1F1" rx="85.3722" ry="19.4744" style="stroke:#181818;stroke-width:0.5;"/><text fill="#000000" font-family="sans-serif" font-size="14" lengthAdjust="spacing" textLength="133" x="1029.8722" y="1139.828">Add New Robot Type</text></g><g id="elem_UC16"><ellipse cx="1096.494" cy="1212.8988" fill="#F1F1F1" rx="92.494" ry="20.8988" style="stroke:#181818;stroke-width:0.5;"/><text fill="#000000" font-family="sans-serif" font-size="14" lengthAdjust="spacing" textLength="149" x="1021.994" y="1215.7523">Add New Robot to Fleet</text></g><g id="elem_UC17"><ellipse cx="1096.2943" cy="1284.0589" fill="#F1F1F1" rx="63.2943" ry="15.0589" style="stroke:#181818;stroke-width:0.5;"/><text fill="#000000" font-family="sans-serif" font-size="14" lengthAdjust="spacing" textLength="79" x="1053.7943" y="1287.6458">Inhibit Robot</text></g><g id="elem_UC18"><ellipse cx="1096.4995" cy="1351.9999" fill="#F1F1F1" rx="77.9995" ry="17.9999" style="stroke:#181818;stroke-width:0.5;"/><text fill="#000000" font-family="sans-serif" font-size="14" lengthAdjust="spacing" textLength="116" x="1038.4995" y="1354.8534">Consult All Robots</text></g><g id="elem_UC19"><ellipse cx="1096.3392" cy="1434.7678" fill="#F1F1F1" rx="136.8392" ry="29.7678" style="stroke:#181818;stroke-width:0.5;"/><text fill="#000000" font-family="sans-serif" font-size="14" lengthAdjust="spacing" textLength="244" x="974.3392" y="1437.6214">Search Robots by Designation or Task</text></g><g id="elem_UC20"><ellipse cx="1096.5091" cy="4872.8018" fill="#F1F1F1" rx="384.5091" ry="79.3018" style="stroke:#181818;stroke-width:0.5;"/><text fill="#000000" font-family="sans-serif" font-size="14" lengthAdjust="spacing" textLength="747" x="723.0091" y="4875.6553">Deployment of one of the RFP modules in a DEI VM to be systematic, validating on a scheduled basis with the test plan</text></g><g id="elem_UC21"><ellipse cx="1096.5003" cy="5051.9001" fill="#F1F1F1" rx="310.0003" ry="64.4001" style="stroke:#181818;stroke-width:0.5;"/><text fill="#000000" font-family="sans-serif" font-size="14" lengthAdjust="spacing" textLength="597" x="798.0003" y="5054.7536">Only customers on the DEI internal network (wired or via VPN) to be able to access the solution</text></g><g id="elem_UC22"><ellipse cx="1096.3654" cy="5219.8731" fill="#F1F1F1" rx="327.3654" ry="67.8731" style="stroke:#181818;stroke-width:0.5;"/><text fill="#000000" font-family="sans-serif" font-size="14" lengthAdjust="spacing" textLength="632" x="780.3654" y="5222.7266">The clients indicated in the previous user story to be able to be defined by simply changing a text file</text></g><g id="elem_UC23"><ellipse cx="1096.4633" cy="5370.9927" fill="#F1F1F1" rx="225.4633" ry="47.4927" style="stroke:#181818;stroke-width:0.5;"/><text fill="#000000" font-family="sans-serif" font-size="14" lengthAdjust="spacing" textLength="426" x="883.4633" y="5373.8462">Identify and quantify the risks involved in the recommended solution</text></g><g id="elem_UC24"><ellipse cx="1096.5333" cy="5517.1067" fill="#F1F1F1" rx="306.0333" ry="63.6067" style="stroke:#181818;stroke-width:0.5;"/><text fill="#000000" font-family="sans-serif" font-size="14" lengthAdjust="spacing" textLength="589" x="802.0333" y="5519.9602">MBCO (Minimum Business Continuity Objective) to be proposed to stakeholders to be defined</text></g><g id="elem_UC25"><ellipse cx="1096.6254" cy="1597.2251" fill="#F1F1F1" rx="474.1254" ry="97.2251" style="stroke:#181818;stroke-width:0.5;"/><text fill="#000000" font-family="sans-serif" font-size="14" lengthAdjust="spacing" textLength="927" x="633.1254" y="1600.0786">Backup strategy to be proposed, justified and implemented that minimizes the RPO (Recovery Point Objective) and the WRT (Work Recovery Time)</text></g><g id="elem_UC26"><ellipse cx="1096.4921" cy="1771.1984" fill="#F1F1F1" rx="196.4921" ry="41.6984" style="stroke:#181818;stroke-width:0.5;"/><text fill="#000000" font-family="sans-serif" font-size="14" lengthAdjust="spacing" textLength="367" x="912.9921" y="1774.0519">Define a public folder for all users registered in the system</text></g><g id="elem_UC27"><ellipse cx="1096.6661" cy="1884.2332" fill="#F1F1F1" rx="169.1661" ry="36.2332" style="stroke:#181818;stroke-width:0.5;"/><text fill="#000000" font-family="sans-serif" font-size="14" lengthAdjust="spacing" textLength="311" x="941.1661" y="1887.0867">Obtain users with more than 3 incorrect accesses</text></g><g id="elem_UC28"><ellipse cx="1096.5758" cy="2001.1152" fill="#F1F1F1" rx="218.5758" ry="46.1152" style="stroke:#181818;stroke-width:0.5;"/><text fill="#000000" font-family="sans-serif" font-size="14" lengthAdjust="spacing" textLength="412" x="890.5758" y="2003.9687">Disaster recovery plan that satisfies the MBCO defined in sprint B</text></g><g id="elem_UC29"><ellipse cx="1096.5769" cy="2182.1154" fill="#F1F1F1" rx="488.5769" ry="100.1154" style="stroke:#181818;stroke-width:0.5;"/><text fill="#000000" font-family="sans-serif" font-size="14" lengthAdjust="spacing" textLength="956" x="618.5769" y="2184.9689">Changes to be made to the infrastructure to be presented in a justified manner in order to ensure an MTD (Maximum Tolerable Downtime) of 20 minutes</text></g><g id="elem_UC30"><ellipse cx="1096.3504" cy="2499.8701" fill="#F1F1F1" rx="902.3504" ry="182.8701" style="stroke:#181818;stroke-width:0.5;"/><text fill="#000000" font-family="sans-serif" font-size="14" lengthAdjust="spacing" textLength="1785" x="203.8504" y="2502.7236">Backup copy of the DB(s) to be made to a Cloud environment using a script that renames it to the format &lt;db_name&gt;_yyyymmdd with &lt;db_name&gt; being the name of the database, yyyy the year the copy was made, mm the month the copy was made and dd the day the copy was made</text></g><g id="elem_UC31"><ellipse cx="1096.4941" cy="2874.8988" fill="#F1F1F1" rx="772.4941" ry="156.8988" style="stroke:#181818;stroke-width:0.5;"/><text fill="#000000" font-family="sans-serif" font-size="14" lengthAdjust="spacing" textLength="1525" x="333.9941" y="2877.7523">Use the Backup created in US 840 to create a script that manages the files resulting from this backup, within the following schedule. 1 Backup per month for the last year, 1 backup per week for the last month, 1 backup per day for the last week</text></g><g id="elem_UC32"><ellipse cx="1096.3514" cy="3183.7703" fill="#F1F1F1" rx="569.3514" ry="116.2703" style="stroke:#181818;stroke-width:0.5;"/><text fill="#000000" font-family="sans-serif" font-size="14" lengthAdjust="spacing" textLength="1118" x="537.3514" y="3186.6238">DB backup US process to be kept in the Linux log, in an appropriate context, and the administrator is alerted when accessing the console if a serious failure occurs in this process</text></g><g id="elem_UC33"><ellipse cx="1096.4666" cy="3442.8933" fill="#F1F1F1" rx="524.9666" ry="107.3933" style="stroke:#181818;stroke-width:0.5;"/><text fill="#000000" font-family="sans-serif" font-size="14" lengthAdjust="spacing" textLength="1029" x="581.9666" y="3445.7468">Backup copy of the US of the DB backup to have a lifespan of no more than 7 (seven) days, except as indicated in the US of retention of monthly and annual copies</text></g><g id="elem_UC34"><ellipse cx="1096.59" cy="3684.818" fill="#F1F1F1" rx="484.59" ry="99.318" style="stroke:#181818;stroke-width:0.5;"/><text fill="#000000" font-family="sans-serif" font-size="14" lengthAdjust="spacing" textLength="948" x="622.59" y="3687.6715">A BIA (Business Impact Analysis) of the final solution to be presented to me, adapting if and where applicable the risk(s) identified in the previous sprint</text></g><g id="elem_UC35"><ellipse cx="1096.348" cy="3876.9696" fill="#F1F1F1" rx="272.848" ry="56.9696" style="stroke:#181818;stroke-width:0.5;"/><text fill="#000000" font-family="sans-serif" font-size="14" lengthAdjust="spacing" textLength="522" x="835.348" y="3879.8231">Access management to be implemented that meets the appropriate security criteria</text></g><g id="elem_UC36"><ellipse cx="1096.3016" cy="4039.1603" fill="#F1F1F1" rx="336.3016" ry="69.6603" style="stroke:#181818;stroke-width:0.5;"/><text fill="#000000" font-family="sans-serif" font-size="14" lengthAdjust="spacing" textLength="650" x="771.3016" y="4042.0138">Clustering system to be implemented in a justified manner between the systems that implement the SPA</text></g><g id="elem_UC37"><ellipse cx="1096.5715" cy="4206.2143" fill="#F1F1F1" rx="301.5715" ry="62.7143" style="stroke:#181818;stroke-width:0.5;"/><text fill="#000000" font-family="sans-serif" font-size="14" lengthAdjust="spacing" textLength="580" x="806.5715" y="4209.0678">Have SSH access to the virtual machine, only through a certificate, without using a password</text></g><g id="elem_UC38"><ellipse cx="1096.698" cy="4363.9396" fill="#F1F1F1" rx="287.698" ry="59.9396" style="stroke:#181818;stroke-width:0.5;"/><text fill="#000000" font-family="sans-serif" font-size="14" lengthAdjust="spacing" textLength="552" x="820.698" y="4366.7931">A public file share to be created between the various teams, in SMB/CIFS or NFS format</text></g><g id="elem_UC39"><ellipse cx="1096.5429" cy="4609.2086" fill="#F1F1F1" rx="736.5429" ry="149.7086" style="stroke:#181818;stroke-width:0.5;"/><text fill="#000000" font-family="sans-serif" font-size="14" lengthAdjust="spacing" textLength="1453" x="370.0429" y="4612.0621">Must ensure that, if necessary, backups were carried out correctly. To do this, we must automate its replacement, ultimately validating the functioning of the system (Ex. Database - execute a successful SQL query after replacement)</text></g><g id="elem_UC40"><ellipse cx="1096.5618" cy="5631.2124" fill="#F1F1F1" rx="66.5618" ry="15.7124" style="stroke:#181818;stroke-width:0.5;"/><text fill="#000000" font-family="sans-serif" font-size="14" lengthAdjust="spacing" textLength="88" x="1050.5028" y="5634.5925">Request Task</text></g><g id="elem_UC42"><ellipse cx="1096.2961" cy="6612.7592" fill="#F1F1F1" rx="99.2961" ry="22.2592" style="stroke:#181818;stroke-width:0.5;"/><text fill="#000000" font-family="sans-serif" font-size="14" lengthAdjust="spacing" textLength="164" x="1014.2961" y="6615.6127">Approve or Deny Request</text></g><g id="elem_UC43"><ellipse cx="1096.705" cy="6695.941" fill="#F1F1F1" rx="112.705" ry="24.941" style="stroke:#181818;stroke-width:0.5;"/><text fill="#000000" font-family="sans-serif" font-size="14" lengthAdjust="spacing" textLength="193" x="1000.205" y="6698.7945">Consult Unapproved Requests</text></g><g id="elem_UC44"><ellipse cx="1096.536" cy="6773.9072" fill="#F1F1F1" rx="75.036" ry="17.4072" style="stroke:#181818;stroke-width:0.5;"/><text fill="#000000" font-family="sans-serif" font-size="14" lengthAdjust="spacing" textLength="109" x="1042.036" y="6776.7607">Search Requests</text></g><g id="elem_UC45"><ellipse cx="1096.6549" cy="6534.031" fill="#F1F1F1" rx="95.6549" ry="21.531" style="stroke:#181818;stroke-width:0.5;"/><text fill="#000000" font-family="sans-serif" font-size="14" lengthAdjust="spacing" textLength="156" x="1018.6549" y="6536.8845">Get Execution Sequence</text></g><g id="elem_UC46"><ellipse cx="1096.7465" cy="6841.8493" fill="#F1F1F1" rx="62.2465" ry="14.8493" style="stroke:#181818;stroke-width:0.5;"/><text fill="#000000" font-family="sans-serif" font-size="14" lengthAdjust="spacing" textLength="76" x="1055.7465" y="6845.4362">Create User</text></g><g id="elem_UC47"><ellipse cx="1096.3151" cy="5697.063" fill="#F1F1F1" rx="65.8151" ry="15.563" style="stroke:#181818;stroke-width:0.5;"/><text fill="#000000" font-family="sans-serif" font-size="14" lengthAdjust="spacing" textLength="86" x="1050.8356" y="5700.5379">Register User</text></g><g id="elem_UC48"><ellipse cx="1096.3032" cy="5779.8606" fill="#F1F1F1" rx="149.8032" ry="32.3606" style="stroke:#181818;stroke-width:0.5;"/><text fill="#000000" font-family="sans-serif" font-size="14" lengthAdjust="spacing" textLength="271" x="960.8032" y="5782.7142">Consent to Data Collection and Processing</text></g><g id="elem_UC49"><ellipse cx="1096.5551" cy="5867.211" fill="#F1F1F1" rx="84.0551" ry="19.211" style="stroke:#181818;stroke-width:0.5;"/><text fill="#000000" font-family="sans-serif" font-size="14" lengthAdjust="spacing" textLength="130" x="1031.5551" y="5870.0645">Inform Data Purpose</text></g><g id="elem_UC50"><ellipse cx="1096.7144" cy="5953.8429" fill="#F1F1F1" rx="152.2144" ry="32.8429" style="stroke:#181818;stroke-width:0.5;"/><text fill="#000000" font-family="sans-serif" font-size="14" lengthAdjust="spacing" textLength="276" x="958.7144" y="5956.6964">Meet the Person Responsible for Treatment</text></g><g id="elem_UC51"><ellipse cx="1096.7323" cy="6046.0465" fill="#F1F1F1" rx="105.7323" ry="23.5465" style="stroke:#181818;stroke-width:0.5;"/><text fill="#000000" font-family="sans-serif" font-size="14" lengthAdjust="spacing" textLength="178" x="1007.7323" y="6048.9">Know Data Retention Period</text></g><g id="elem_UC52"><ellipse cx="1096.6016" cy="6131.8203" fill="#F1F1F1" rx="122.1016" ry="26.8203" style="stroke:#181818;stroke-width:0.5;"/><text fill="#000000" font-family="sans-serif" font-size="14" lengthAdjust="spacing" textLength="213" x="990.1016" y="6134.6738">Knowing Rights as a Data Subject</text></g><g id="elem_UC53"><ellipse cx="1096.513" cy="6220.0026" fill="#F1F1F1" rx="115.513" ry="25.5026" style="stroke:#181818;stroke-width:0.5;"/><text fill="#000000" font-family="sans-serif" font-size="14" lengthAdjust="spacing" textLength="199" x="997.013" y="6222.8561">Approve or Refuse Registration</text></g><g id="elem_UC54"><ellipse cx="1096.4934" cy="6299.7987" fill="#F1F1F1" rx="84.4934" ry="19.2987" style="stroke:#181818;stroke-width:0.5;"/><text fill="#000000" font-family="sans-serif" font-size="14" lengthAdjust="spacing" textLength="131" x="1030.9934" y="6302.6522">Rectify/Change Data</text></g><g id="elem_UC55"><ellipse cx="1096.4564" cy="6371.9913" fill="#F1F1F1" rx="75.4564" ry="17.4913" style="stroke:#181818;stroke-width:0.5;"/><text fill="#000000" font-family="sans-serif" font-size="14" lengthAdjust="spacing" textLength="110" x="1041.4564" y="6374.8448">Get Copy of Data</text></g><g id="elem_UC56"><ellipse cx="1096.3013" cy="6451.1603" fill="#F1F1F1" rx="118.8013" ry="26.1603" style="stroke:#181818;stroke-width:0.5;"/><text fill="#000000" font-family="sans-serif" font-size="14" lengthAdjust="spacing" textLength="206" x="993.3013" y="6454.0138">Cancel Account and Delete Data</text></g><!--entity CM--><g id="elem_CM"><ellipse cx="70" cy="538" fill="#F1F1F1" rx="16" ry="16" style="stroke:#181818;stroke-width:1.5;"/><path d="M70,558 C74,558 77,558 81,554 C89,554 97,562 97,570 L97,574 C97,578 93,582 89,582 L51,582 C47,582 43,578 43,574 L43,570 C43,562 51,554 59,554 C63,558 66,558 70,558 " fill="#F1F1F1" style="stroke:#181818;stroke-width:1.5;"/><text fill="#000000" font-family="sans-serif" font-size="14" lengthAdjust="spacing" textLength="128" x="6" y="596.1738">UI Campus Manager</text></g><!--entity FM--><g id="elem_FM"><ellipse cx="70" cy="1262" fill="#F1F1F1" rx="16" ry="16" style="stroke:#181818;stroke-width:1.5;"/><path d="M70,1282 C74,1282 77,1282 81,1278 C89,1278 97,1286 97,1294 L97,1298 C97,1302 93,1306 89,1306 L51,1306 C47,1306 43,1302 43,1298 L43,1294 C43,1286 51,1278 59,1278 C63,1282 66,1282 70,1282 " fill="#F1F1F1" style="stroke:#181818;stroke-width:1.5;"/><text fill="#000000" font-family="sans-serif" font-size="14" lengthAdjust="spacing" textLength="108" x="16" y="1320.1738">UI Fleet Manager</text></g><!--entity SM--><g id="elem_SM"><ellipse cx="70" cy="3759" fill="#F1F1F1" rx="16" ry="16" style="stroke:#181818;stroke-width:1.5;"/><path d="M70,3779 C74,3779 77,3779 81,3775 C89,3775 97,3783 97,3791 L97,3795 C97,3799 93,3803 89,3803 L51,3803 C47,3803 43,3799 43,3795 L43,3791 C43,3783 51,3775 59,3775 C63,3779 66,3779 70,3779 " fill="#F1F1F1" style="stroke:#181818;stroke-width:1.5;"/><text fill="#000000" font-family="sans-serif" font-size="14" lengthAdjust="spacing" textLength="122" x="9" y="3817.1738">UI System Manager</text></g><!--entity U--><g id="elem_U"><ellipse cx="70" cy="6024" fill="#F1F1F1" rx="16" ry="16" style="stroke:#181818;stroke-width:1.5;"/><path d="M70,6044 C74,6044 77,6044 81,6040 C89,6040 97,6048 97,6056 L97,6060 C97,6064 93,6068 89,6068 L51,6068 C47,6068 43,6064 43,6060 L43,6056 C43,6048 51,6040 59,6040 C63,6044 66,6044 70,6044 " fill="#F1F1F1" style="stroke:#181818;stroke-width:1.5;"/><text fill="#000000" font-family="sans-serif" font-size="14" lengthAdjust="spacing" textLength="45" x="47.5" y="6082.1738">UI User</text></g><!--entity TM--><g id="elem_TM"><ellipse cx="70" cy="6633" fill="#F1F1F1" rx="16" ry="16" style="stroke:#181818;stroke-width:1.5;"/><path d="M70,6653 C74,6653 77,6653 81,6649 C89,6649 97,6657 97,6665 L97,6669 C97,6673 93,6677 89,6677 L51,6677 C47,6677 43,6673 43,6669 L43,6665 C43,6657 51,6649 59,6649 C63,6653 66,6653 70,6653 " fill="#F1F1F1" style="stroke:#181818;stroke-width:1.5;"/><text fill="#000000" font-family="sans-serif" font-size="14" lengthAdjust="spacing" textLength="107" x="16.5" y="6691.1738">UI Task Manager</text></g><!--entity ADM--><g id="elem_ADM"><ellipse cx="70" cy="6820" fill="#F1F1F1" rx="16" ry="16" style="stroke:#181818;stroke-width:1.5;"/><path d="M70,6840 C74,6840 77,6840 81,6836 C89,6836 97,6844 97,6852 L97,6856 C97,6860 93,6864 89,6864 L51,6864 C47,6864 43,6860 43,6856 L43,6852 C43,6844 51,6836 59,6836 C63,6840 66,6840 70,6840 " fill="#F1F1F1" style="stroke:#181818;stroke-width:1.5;"/><text fill="#000000" font-family="sans-serif" font-size="14" lengthAdjust="spacing" textLength="55" x="42.5" y="6878.1738">UI Admin</text></g><!--link CM to UC1--><g id="link_CM_UC1"><path d="M73.28,599.78 C80.08,703.02 104.05,975.37 170,1031 C234.41,1085.33 813.87,1074.15 1021.72,1068.32 " fill="none" id="CM-to-UC1" style="stroke:#181818;stroke-width:1.0;"/><polygon fill="#181818" points="1026.86,1068.17,1017.7491,1064.4294,1021.8621,1068.3132,1017.9783,1072.4261,1026.86,1068.17" style="stroke:#181818;stroke-width:1.0;"/></g><!--link CM to UC2--><g id="link_CM_UC2"><path d="M73.21,520.42 C79.89,417 103.64,142.84 170,87 C235.2,32.14 827.08,46.2 1028.64,52.65 " fill="none" id="CM-to-UC2" style="stroke:#181818;stroke-width:1.0;"/><polygon fill="#181818" points="1033.91,52.82,1025.0401,48.5393,1028.9125,52.6629,1024.7888,56.5353,1033.91,52.82" style="stroke:#181818;stroke-width:1.0;"/></g><!--link CM to UC3--><g id="link_CM_UC3"><path d="M74.74,520.49 C84.36,428.09 113.31,202.18 170,156 C300.2,49.93 834.17,94.33 1026.26,114.26 " fill="none" id="CM-to-UC3" style="stroke:#181818;stroke-width:1.0;"/><polygon fill="#181818" points="1031.29,114.78,1022.7633,109.8509,1026.318,114.2514,1021.9175,117.806,1031.29,114.78" style="stroke:#181818;stroke-width:1.0;"/></g><!--link CM to UC4--><g id="link_CM_UC4"><path d="M77.26,520.22 C90.57,441.29 124.23,269.45 170,234 C298.29,134.63 799.47,167.69 1005.89,186.15 " fill="none" id="CM-to-UC4" style="stroke:#181818;stroke-width:1.0;"/><polygon fill="#181818" points="1011.02,186.61,1002.4092,181.8294,1006.0396,186.1676,1001.7014,189.798,1011.02,186.61" style="stroke:#181818;stroke-width:1.0;"/></g><!--link CM to UC5--><g id="link_CM_UC5"><path d="M73.66,520.48 C79.89,462.87 100.67,357.31 170,308 C303.63,212.96 811.71,245.87 1012.83,263.18 " fill="none" id="CM-to-UC5" style="stroke:#181818;stroke-width:1.0;"/><polygon fill="#181818" points="1018.1,263.63,1009.4756,258.8739,1013.1184,263.2018,1008.7905,266.8445,1018.1,263.63" style="stroke:#181818;stroke-width:1.0;"/></g><!--link CM to UC6--><g id="link_CM_UC6"><path d="M80.68,520.49 C93.38,478.08 120.16,412.67 170,382 C308.79,296.6 807.93,323.23 1009.84,338.03 " fill="none" id="CM-to-UC6" style="stroke:#181818;stroke-width:1.0;"/><polygon fill="#181818" points="1014.84,338.4,1006.1488,333.7672,1009.8528,338.0427,1005.5772,341.7467,1014.84,338.4" style="stroke:#181818;stroke-width:1.0;"/></g><!--link CM to UC7--><g id="link_CM_UC7"><path d="M103.94,520.25 C121.49,502.09 144.66,482.34 170,472 C447.81,358.58 812.15,386.55 989.42,410.09 " fill="none" id="CM-to-UC7" style="stroke:#181818;stroke-width:1.0;"/><polygon fill="#181818" points="994.61,410.78,986.2157,405.6288,989.6536,410.1211,985.1613,413.559,994.61,410.78" style="stroke:#181818;stroke-width:1.0;"/></g><!--link CM to UC8--><g id="link_CM_UC8"><path d="M134.31,557.28 C301.72,550.09 758.1,530.49 976.26,521.12 " fill="none" id="CM-to-UC8" style="stroke:#181818;stroke-width:1.0;"/><polygon fill="#181818" points="981.37,520.9,972.2065,517.2902,976.3746,521.1147,972.5501,525.2828,981.37,520.9" style="stroke:#181818;stroke-width:1.0;"/></g><!--link CM to UC9--><g id="link_CM_UC9"><path d="M134.31,562.72 C301.07,569.88 754.56,589.36 973.71,598.77 " fill="none" id="CM-to-UC9" style="stroke:#181818;stroke-width:1.0;"/><polygon fill="#181818" points="978.85,598.99,970.0301,594.6072,973.8546,598.7753,969.6865,602.5998,978.85,598.99" style="stroke:#181818;stroke-width:1.0;"/></g><!--link CM to UC10--><g id="link_CM_UC10"><path d="M103.92,599.8 C121.46,617.99 144.64,637.72 170,648 C316.25,707.25 782.09,699.17 991.63,692.17 " fill="none" id="CM-to-UC10" style="stroke:#181818;stroke-width:1.0;"/><polygon fill="#181818" points="996.84,691.99,987.7082,688.3007,991.8429,692.1613,987.9823,696.296,996.84,691.99" style="stroke:#181818;stroke-width:1.0;"/></g><!--link CM to UC11--><g id="link_CM_UC11"><path d="M82.09,599.54 C95.65,639.64 122.82,699.71 170,728 C308.31,810.95 798.01,787.86 1003.58,773.97 " fill="none" id="CM-to-UC11" style="stroke:#181818;stroke-width:1.0;"/><polygon fill="#181818" points="1008.68,773.63,999.4268,770.2569,1003.6918,773.973,999.9756,778.238,1008.68,773.63" style="stroke:#181818;stroke-width:1.0;"/></g><!--link CM to UC12--><g id="link_CM_UC12"><path d="M74.22,599.83 C81.13,656.15 102.74,757.49 170,805 C301.82,898.11 795.77,869.81 1003.04,853.24 " fill="none" id="CM-to-UC12" style="stroke:#181818;stroke-width:1.0;"/><polygon fill="#181818" points="1008.18,852.83,998.8882,849.5647,1003.1961,853.231,999.5298,857.5389,1008.18,852.83" style="stroke:#181818;stroke-width:1.0;"/></g><!--link CM to UC13--><g id="link_CM_UC13"><path d="M77.3,599.54 C90.67,678 124.44,848.81 170,884 C298.98,983.61 803.84,949.32 1008.56,930.71 " fill="none" id="CM-to-UC13" style="stroke:#181818;stroke-width:1.0;"/><polygon fill="#181818" points="1013.64,930.24,1004.3124,927.0785,1008.6609,930.6965,1005.0428,935.0451,1013.64,930.24" style="stroke:#181818;stroke-width:1.0;"/></g><!--link CM to UC14--><g id="link_CM_UC14"><path d="M74.88,599.79 C84.73,691.7 113.98,914.37 170,960 C298.91,1065 823.45,1023.86 1020.35,1004.16 " fill="none" id="CM-to-UC14" style="stroke:#181818;stroke-width:1.0;"/><polygon fill="#181818" points="1025.51,1003.64,1016.1549,1000.5607,1020.5351,1004.1403,1016.9555,1008.5206,1025.51,1003.64" style="stroke:#181818;stroke-width:1.0;"/></g><!--link FM to UC15--><g id="link_FM_UC15"><path d="M94.63,1244.49 C112.03,1219.41 138.14,1188.96 170,1174 C316.81,1105.07 806.85,1121.79 1008.1,1131.99 " fill="none" id="FM-to-UC15" style="stroke:#181818;stroke-width:1.0;"/><polygon fill="#181818" points="1013.38,1132.26,1004.5973,1127.803,1008.3866,1132.0032,1004.1864,1135.7925,1013.38,1132.26" style="stroke:#181818;stroke-width:1.0;"/></g><!--link FM to UC16--><g id="link_FM_UC16"><path d="M124.23,1263.22 C138.85,1258.35 154.85,1253.78 170,1251 C469.45,1196.08 832.16,1201.61 1000.79,1208.21 " fill="none" id="FM-to-UC16" style="stroke:#181818;stroke-width:1.0;"/><polygon fill="#181818" points="1006.21,1208.43,997.3771,1204.0735,1001.214,1208.2302,997.0573,1212.0671,1006.21,1208.43" style="stroke:#181818;stroke-width:1.0;"/></g><!--link FM to UC17--><g id="link_FM_UC17"><path d="M124.28,1284 C296.21,1284 836.15,1284 1027.47,1284 " fill="none" id="FM-to-UC17" style="stroke:#181818;stroke-width:1.0;"/><polygon fill="#181818" points="1032.75,1284,1023.75,1280,1027.75,1284,1023.75,1288,1032.75,1284" style="stroke:#181818;stroke-width:1.0;"/></g><!--link FM to UC18--><g id="link_FM_UC18"><path d="M124.01,1304.08 C138.7,1308.83 154.79,1313.3 170,1316 C478.54,1370.79 853.67,1363.03 1015.2,1356.19 " fill="none" id="FM-to-UC18" style="stroke:#181818;stroke-width:1.0;"/><polygon fill="#181818" points="1020.38,1355.97,1011.2165,1352.3602,1015.3846,1356.1847,1011.5601,1360.3528,1020.38,1355.97" style="stroke:#181818;stroke-width:1.0;"/></g><!--link FM to UC19--><g id="link_FM_UC19"><path d="M97.22,1323.51 C114.83,1346.44 140.22,1373.4 170,1387 C440.95,1510.77 804.06,1480.62 984.31,1454.45 " fill="none" id="FM-to-UC19" style="stroke:#181818;stroke-width:1.0;"/><polygon fill="#181818" points="989.32,1453.72,979.8329,1451.0752,984.3734,1454.4491,980.9995,1458.9897,989.32,1453.72" style="stroke:#181818;stroke-width:1.0;"/></g><!--link SM to UC20--><g id="link_SM_UC20"><path d="M72.04,3820.52 C77.06,3996.97 101.44,4707.08 170,4776 C333.84,4940.7 605.63,4950.98 812.4,4928.35 " fill="none" id="SM-to-UC20" style="stroke:#181818;stroke-width:1.0;"/><polygon fill="#181818" points="817.58,4927.78,808.1905,4924.8072,812.6111,4928.3369,809.0815,4932.7575,817.58,4927.78" style="stroke:#181818;stroke-width:1.0;"/></g><!--link SM to UC21--><g id="link_SM_UC21"><path d="M71.34,3820.76 C73.41,4018.16 87.19,4886.75 170,4970 C354.54,5155.52 676.84,5138.85 888.2,5101.74 " fill="none" id="SM-to-UC21" style="stroke:#181818;stroke-width:1.0;"/><polygon fill="#181818" points="893.17,5100.86,883.611,5098.4881,888.2464,5101.7306,885.0039,5106.3659,893.17,5100.86" style="stroke:#181818;stroke-width:1.0;"/></g><!--link SM to UC22--><g id="link_SM_UC22"><path d="M70.92,3820.81 C70.88,4034.33 75.75,5037.88 170,5134 C349.08,5316.62 661.19,5306.07 872.95,5271.55 " fill="none" id="SM-to-UC22" style="stroke:#181818;stroke-width:1.0;"/><polygon fill="#181818" points="877.93,5270.73,868.4065,5268.2193,872.9942,5271.5289,869.6847,5276.1166,877.93,5270.73" style="stroke:#181818;stroke-width:1.0;"/></g><!--link SM to UC23--><g id="link_SM_UC23"><path d="M72.12,3820.59 C78.89,4054.81 116.06,5250.72 170,5305 C265.59,5401.2 635.83,5399.4 878.07,5386.9 " fill="none" id="SM-to-UC23" style="stroke:#181818;stroke-width:1.0;"/><polygon fill="#181818" points="883.41,5386.63,874.2059,5383.1252,878.4174,5386.9018,874.6408,5391.1133,883.41,5386.63" style="stroke:#181818;stroke-width:1.0;"/></g><!--link SM to UC24--><g id="link_SM_UC24"><path d="M71.92,3820.73 C77.82,4066.96 111.83,5376.2 170,5436 C354.54,5625.7 682.73,5605.5 894.61,5566.54 " fill="none" id="SM-to-UC24" style="stroke:#181818;stroke-width:1.0;"/><polygon fill="#181818" points="899.59,5565.61,890.0114,5563.3187,894.6739,5566.522,891.4706,5571.1845,899.59,5565.61" style="stroke:#181818;stroke-width:1.0;"/></g><!--link SM to UC25--><g id="link_SM_UC25"><path d="M71.46,3741.31 C74.89,3461.05 98.34,1789.31 170,1712 C303.99,1567.45 519.82,1534.37 709.37,1539.43 " fill="none" id="SM-to-UC25" style="stroke:#181818;stroke-width:1.0;"/><polygon fill="#181818" points="714.4,1539.57,705.5179,1535.3146,709.402,1539.4272,705.2894,1543.3113,714.4,1539.57" style="stroke:#181818;stroke-width:1.0;"/></g><!--link SM to UC26--><g id="link_SM_UC26"><path d="M71.53,3741.38 C75.33,3470.54 100.35,1900.56 170,1830 C269.4,1729.3 668.59,1739.07 909.04,1755.08 " fill="none" id="SM-to-UC26" style="stroke:#181818;stroke-width:1.0;"/><polygon fill="#181818" points="914.34,1755.43,905.6217,1750.8485,909.3508,1755.1021,905.0971,1758.8312,914.34,1755.43" style="stroke:#181818;stroke-width:1.0;"/></g><!--link SM to UC27--><g id="link_SM_UC27"><path d="M71.64,3741.47 C76.09,3479.59 104.02,2003.21 170,1937 C273.75,1832.88 700.59,1850.36 936.66,1868.92 " fill="none" id="SM-to-UC27" style="stroke:#181818;stroke-width:1.0;"/><polygon fill="#181818" points="941.86,1869.33,933.2087,1864.6231,936.876,1868.9301,932.5689,1872.5974,941.86,1869.33" style="stroke:#181818;stroke-width:1.0;"/></g><!--link SM to UC28--><g id="link_SM_UC28"><path d="M71.82,3741.41 C77.17,3490.09 108.99,2125.64 170,2064 C266.47,1966.53 644.18,1970.86 886.24,1984.69 " fill="none" id="SM-to-UC28" style="stroke:#181818;stroke-width:1.0;"/><polygon fill="#181818" points="891.58,1984.99,882.8236,1980.4816,886.5882,1984.7039,882.3659,1988.4685,891.58,1984.99" style="stroke:#181818;stroke-width:1.0;"/></g><!--link SM to UC29--><g id="link_SM_UC29"><path d="M70.71,3741.22 C69.43,3515.96 68.35,2406.84 170,2299 C299.53,2161.59 503.05,2125.08 686.3,2126.06 " fill="none" id="SM-to-UC29" style="stroke:#181818;stroke-width:1.0;"/><polygon fill="#181818" points="691.44,2126.1,682.463,2122.0486,686.4401,2126.0714,682.4173,2130.0485,691.44,2126.1" style="stroke:#181818;stroke-width:1.0;"/></g><!--link SM to UC30--><g id="link_SM_UC30"><path d="M71.9,3741.4 C76.45,3555.99 99.65,2779.46 170,2700 C208.74,2656.24 254.57,2620.78 304.77,2592.16 " fill="none" id="SM-to-UC30" style="stroke:#181818;stroke-width:1.0;"/><polygon fill="#181818" points="309.33,2589.58,299.5295,2590.5549,304.9844,2592.053,303.4863,2597.5079,309.33,2589.58" style="stroke:#181818;stroke-width:1.0;"/></g><!--link SM to UC31--><g id="link_SM_UC31"><path d="M70.53,3741.34 C69.74,3603.85 74.57,3150.56 170,3050 C222.08,2995.12 285.56,2954.37 354.63,2924.42 " fill="none" id="SM-to-UC31" style="stroke:#181818;stroke-width:1.0;"/><polygon fill="#181818" points="359.61,2922.28,349.7619,2922.1598,355.0165,2924.2548,352.9215,2929.5094,359.61,2922.28" style="stroke:#181818;stroke-width:1.0;"/></g><!--link SM to UC32--><g id="link_SM_UC32"><path d="M73.81,3741.16 C81.81,3639.75 108.24,3375.76 170,3318 C269.14,3225.27 402.25,3178.83 536.56,3158.31 " fill="none" id="SM-to-UC32" style="stroke:#181818;stroke-width:1.0;"/><polygon fill="#181818" points="541.74,3157.54,532.2455,3154.922,536.7955,3158.2831,533.4344,3162.8332,541.74,3157.54" style="stroke:#181818;stroke-width:1.0;"/></g><!--link SM to UC33--><g id="link_SM_UC33"><path d="M77.65,3741.12 C88.11,3691.93 113.37,3609.72 170,3568 C285.86,3482.64 432.64,3441.44 574.96,3424.05 " fill="none" id="SM-to-UC33" style="stroke:#181818;stroke-width:1.0;"/><polygon fill="#181818" points="580.02,3423.44,570.6046,3420.5504,575.0562,3424.0408,571.5659,3428.4925,580.02,3423.44" style="stroke:#181818;stroke-width:1.0;"/></g><!--link SM to UC34--><g id="link_SM_UC34"><path d="M131.26,3775.35 C233.35,3765.79 448.89,3745.59 650.34,3726.71 " fill="none" id="SM-to-UC34" style="stroke:#181818;stroke-width:1.0;"/><polygon fill="#181818" points="655.4,3726.24,646.0724,3723.0785,650.4209,3726.6965,646.8028,3731.0451,655.4,3726.24" style="stroke:#181818;stroke-width:1.0;"/></g><!--link SM to UC35--><g id="link_SM_UC35"><path d="M131.25,3795.07 C143.99,3797.68 157.4,3800.16 170,3802 C389.17,3833.99 639.69,3853.25 824.76,3864.22 " fill="none" id="SM-to-UC35" style="stroke:#181818;stroke-width:1.0;"/><polygon fill="#181818" points="829.94,3864.53,821.1836,3860.0216,824.9482,3864.2439,820.7259,3868.0085,829.94,3864.53" style="stroke:#181818;stroke-width:1.0;"/></g><!--link SM to UC36--><g id="link_SM_UC36"><path d="M82.39,3820.87 C96.13,3861.03 123.39,3921.18 170,3951 C357.91,4071.22 612.69,4087.27 807.35,4076.6 " fill="none" id="SM-to-UC36" style="stroke:#181818;stroke-width:1.0;"/><polygon fill="#181818" points="812.52,4076.31,803.3159,4072.8052,807.5274,4076.5818,803.7508,4080.7933,812.52,4076.31" style="stroke:#181818;stroke-width:1.0;"/></g><!--link SM to UC37--><g id="link_SM_UC37"><path d="M76.7,3820.69 C89.36,3902.79 122.49,4086.89 170,4126 C366.63,4287.89 672.88,4280.48 878.66,4251.05 " fill="none" id="SM-to-UC37" style="stroke:#181818;stroke-width:1.0;"/><polygon fill="#181818" points="883.81,4250.31,874.3304,4247.6383,878.8614,4251.0251,875.4746,4255.5561,883.81,4250.31" style="stroke:#181818;stroke-width:1.0;"/></g><!--link SM to UC38--><g id="link_SM_UC38"><path d="M72.82,3820.67 C78.64,3928.66 100.72,4223.92 170,4286 C366.8,4462.35 690.9,4444.88 898.67,4409.47 " fill="none" id="SM-to-UC38" style="stroke:#181818;stroke-width:1.0;"/><polygon fill="#181818" points="903.86,4408.58,894.3145,4406.1543,898.9315,4409.4228,895.6631,4414.0399,903.86,4408.58" style="stroke:#181818;stroke-width:1.0;"/></g><!--link SM to UC39--><g id="link_SM_UC39"><path d="M71.15,3820.83 C72.47,3949.66 83.59,4351.9 170,4441 C227.36,4500.15 298.06,4542.51 374.62,4572.4 " fill="none" id="SM-to-UC39" style="stroke:#181818;stroke-width:1.0;"/><polygon fill="#181818" points="379.67,4574.35,372.7101,4567.3815,375.0044,4572.5522,369.8337,4574.8465,379.67,4574.35" style="stroke:#181818;stroke-width:1.0;"/></g><!--link U to UC40--><g id="link_U_UC40"><path d="M75.35,6006.32 C85.97,5917.49 116.37,5707.05 170,5664 C236.09,5610.94 821.2,5622.9 1025.49,5628.77 " fill="none" id="U-to-UC40" style="stroke:#181818;stroke-width:1.0;"/><polygon fill="#181818" points="1030.54,5628.91,1021.6579,5624.6546,1025.542,5628.7672,1021.4294,5632.6513,1030.54,5628.91" style="stroke:#181818;stroke-width:1.0;"/></g><!--link U to UC47--><g id="link_U_UC47"><path d="M77.64,6006.22 C91.4,5929.12 125.48,5763.94 170,5730 C304.59,5627.39 843.73,5671.23 1031.01,5690.04 " fill="none" id="U-to-UC47" style="stroke:#181818;stroke-width:1.0;"/><polygon fill="#181818" points="1036.18,5690.56,1027.6255,5685.6794,1031.2051,5690.0597,1026.8249,5693.6393,1036.18,5690.56" style="stroke:#181818;stroke-width:1.0;"/></g><!--link U to UC48--><g id="link_U_UC48"><path d="M76.7,6006.14 C86.25,5955.66 110.66,5870.38 170,5830 C292.73,5746.48 719.33,5757.38 948.01,5769.98 " fill="none" id="U-to-UC48" style="stroke:#181818;stroke-width:1.0;"/><polygon fill="#181818" points="953.04,5770.26,944.2836,5765.7516,948.0482,5769.9739,943.8259,5773.7385,953.04,5770.26" style="stroke:#181818;stroke-width:1.0;"/></g><!--link U to UC49--><g id="link_U_UC49"><path d="M86.36,6006.31 C101.87,5972.27 129.37,5925.31 170,5903 C313.03,5824.48 810.95,5847.83 1011.17,5860.88 " fill="none" id="U-to-UC49" style="stroke:#181818;stroke-width:1.0;"/><polygon fill="#181818" points="1016.42,5861.23,1007.7025,5856.6468,1011.4308,5860.9012,1007.1764,5864.6295,1016.42,5861.23" style="stroke:#181818;stroke-width:1.0;"/></g><!--link U to UC50--><g id="link_U_UC50"><path d="M98.76,6031.53 C118.16,6022.17 144.97,6010.7 170,6005 C436.79,5944.26 757.47,5941.71 942.75,5946.84 " fill="none" id="U-to-UC50" style="stroke:#181818;stroke-width:1.0;"/><polygon fill="#181818" points="947.92,5946.99,939.0379,5942.7346,942.922,5946.8472,938.8094,5950.7313,947.92,5946.99" style="stroke:#181818;stroke-width:1.0;"/></g><!--link U to UC51--><g id="link_U_UC51"><path d="M98.67,6046 C225.36,6046 753.83,6046 985.67,6046 " fill="none" id="U-to-UC51" style="stroke:#181818;stroke-width:1.0;"/><polygon fill="#181818" points="990.75,6046,981.75,6042,985.75,6046,981.75,6050,990.75,6046" style="stroke:#181818;stroke-width:1.0;"/></g><!--link U to UC52--><g id="link_U_UC52"><path d="M98.74,6060.52 C118.14,6069.91 144.95,6081.38 170,6087 C452.11,6150.27 794.28,6146.88 973.12,6139.24 " fill="none" id="U-to-UC52" style="stroke:#181818;stroke-width:1.0;"/><polygon fill="#181818" points="978.36,6139.02,969.1965,6135.4102,973.3646,6139.2347,969.5401,6143.4028,978.36,6139.02" style="stroke:#181818;stroke-width:1.0;"/></g><!--link U to UC53--><g id="link_U_UC53"><path d="M89.31,6085.77 C105.73,6116.35 132.96,6156.54 170,6176 C307.23,6248.09 762.4,6236.57 979,6226.48 " fill="none" id="U-to-UC53" style="stroke:#181818;stroke-width:1.0;"/><polygon fill="#181818" points="984.07,6226.24,974.8967,6222.6552,979.0752,6226.4683,975.2621,6230.6468,984.07,6226.24" style="stroke:#181818;stroke-width:1.0;"/></g><!--link U to UC54--><g id="link_U_UC54"><path d="M76.47,6085.73 C85.81,6136.52 110.01,6222.72 170,6263 C305.88,6354.25 810.88,6323.77 1012.04,6307.46 " fill="none" id="U-to-UC54" style="stroke:#181818;stroke-width:1.0;"/><polygon fill="#181818" points="1017.32,6307.03,1008.0197,6303.789,1012.3372,6307.444,1008.6821,6311.7615,1017.32,6307.03" style="stroke:#181818;stroke-width:1.0;"/></g><!--link U to UC55--><g id="link_U_UC55"><path d="M71.28,6085.55 C74.12,6150.27 90.19,6277.54 170,6337 C303.56,6436.51 827.02,6397.89 1021.89,6379.53 " fill="none" id="U-to-UC55" style="stroke:#181818;stroke-width:1.0;"/><polygon fill="#181818" points="1026.99,6379.05,1017.6534,6375.915,1022.0122,6379.5207,1018.4065,6383.8795,1026.99,6379.05" style="stroke:#181818;stroke-width:1.0;"/></g><!--link U to UC56--><g id="link_U_UC56"><path d="M76.03,6085.71 C87.7,6170.86 119.53,6366.58 170,6407 C292,6504.72 762.15,6479.43 981.54,6461.58 " fill="none" id="U-to-UC56" style="stroke:#181818;stroke-width:1.0;"/><polygon fill="#181818" points="986.67,6461.16,977.3789,6457.8926,981.686,6461.5599,978.0187,6465.8669,986.67,6461.16" style="stroke:#181818;stroke-width:1.0;"/></g><!--link TM to UC42--><g id="link_TM_UC42"><path d="M123.57,6652.84 C285.39,6646.21 778.04,6626.01 993.17,6617.19 " fill="none" id="TM-to-UC42" style="stroke:#181818;stroke-width:1.0;"/><polygon fill="#181818" points="998.2,6616.99,989.0365,6613.3802,993.2046,6617.2047,989.3801,6621.3728,998.2,6616.99" style="stroke:#181818;stroke-width:1.0;"/></g><!--link TM to UC43--><g id="link_TM_UC43"><path d="M123.57,6657.1 C282.24,6663.45 759.02,6682.53 980.33,6691.39 " fill="none" id="TM-to-UC43" style="stroke:#181818;stroke-width:1.0;"/><polygon fill="#181818" points="985.51,6691.6,976.6771,6687.2435,980.514,6691.4002,976.3573,6695.2371,985.51,6691.6" style="stroke:#181818;stroke-width:1.0;"/></g><!--link TM to UC44--><g id="link_TM_UC44"><path d="M106.57,6694.78 C123.9,6711.33 146.15,6728.79 170,6738 C323.53,6797.25 823.21,6784.77 1017.36,6777.38 " fill="none" id="TM-to-UC44" style="stroke:#181818;stroke-width:1.0;"/><polygon fill="#181818" points="1022.45,6777.19,1013.2973,6773.5529,1017.454,6777.3898,1013.6171,6781.5465,1022.45,6777.19" style="stroke:#181818;stroke-width:1.0;"/></g><!--link TM to UC45--><g id="link_TM_UC45"><path d="M107.13,6615.3 C124.41,6599.08 146.46,6582.05 170,6573 C463.29,6460.28 847.98,6496.9 1013.72,6520.56 " fill="none" id="TM-to-UC45" style="stroke:#181818;stroke-width:1.0;"/><polygon fill="#181818" points="1019.05,6521.33,1010.7125,6516.0873,1014.1011,6520.6169,1009.5715,6524.0055,1019.05,6521.33" style="stroke:#181818;stroke-width:1.0;"/></g><!--link ADM to UC46--><g id="link_ADM_UC46"><path d="M98.67,6842 C234.04,6842 828.13,6842 1028.92,6842 " fill="none" id="ADM-to-UC46" style="stroke:#181818;stroke-width:1.0;"/><polygon fill="#181818" points="1034.17,6842,1025.17,6838,1029.17,6842,1025.17,6846,1034.17,6842" style="stroke:#181818;stroke-width:1.0;"/></g><!--SRC=[XLXRR-Es4dxtho3sAG6ysyIoSm4E2iJsfWswtlMndVQne2NQPYE9AYdPKOl-z_CDQKgKxJrTB92HDCEvVpDqAZObAnNJShihMIArY4kfybxFlCcyu9fdZCUbqikoJWNZ1s5K9dez-uvzU7rX4vuLbM4pdlEjq1yODsmo2xu_fqAKdS_FuUTbRKgHTRulm- -lvlZsDNYvukQj8x8AHPwIJERszTDqrkiLF7u38sCBjPvgbOkV56D_znYhZ8Yv4Up3H0jU2ZQkP9h8VElKJMv3bi-9B4yP1Y735sbAzfIc3PCvSaKND3sd2hQgpUc9mpELt-CSdUcsdEO2wzq50-RS68h9M9G78V8pe-_F3FatYOSpWuuIvhiYZnSC-voAFQT4olmi7pTdHlq_xjipWpotkSG-k63CGgdCHjJ6rdD6PmSJtndRi1VoFIK9-oeEL8EgPAkw49vlz7qsjANj7i_QoUHBlfDhMJfMpz79sqJbfafTLLek7_ZRJhAMWkjuT-HWwvfDXP7Rd1CCCCIMciqBFdQSceeYLNKcyfAyHsVHdtA7m3tFMQQIAXKsrfnDFx-mNsVaq5emOriUvyTzjkUfJ43cMyY3qSGxGN89MtCZ3Jl8ScUFB0K2NQGyzytNgOPlULgpk38bm8cQ8BSof5NcfT0vJrcEAbJwZLqTW749ERQNdFqw_tfzD8kl0N0WUHmBO-m1HgKLXS7hxDJK2WnnAk4zEPd862MJaBiaMMYnbmgu27RDO9UkJzI0JCH6vkHgpOpC2d9Xn_Cj1OF3uVUIRMJg2sNGgT2N17hbfcOyJzYV5NSFf5bByqO6xLMwR-q1hAiCcKhmwjIhJa7FnfDlx6ecSvbL6Rh4m4940xM495MohDctzHyq8_R21wxGgb061-FHbFnDx5IQK1ewNdfj7OmR0vkh0b8QmTlM9mVssHz8gTn8d4r-Kem4bHlfsl6IPMIc_4kuR2tci7m1H_S2qPuhf3uqbauWjjyMAtRr6vL2mxkIcRZs1eww9Kx68nr5jKvbp3RMDVpHZAEjABi6mTq21eHkm-rAt9_OwTjlwvA3oqdQyiwK5kHFpYB8nqhJ33wMeV0zE-YqzbGQJXfjNgqBr1ekA0RjP10p5nIRJrzeq6iAJN4P-sCxK32XyXC-SHbFRANICJBVQ6ZKLLnMMZHv4iPbmpPvcwoCvxcmgAmqXGli0bW4GHWvMqrHOFpT5jXAfKBRbfYg0qeCUI0G6TnGRgkoTV_nGjd4ggWzv4p7L-Rwn73E9gcg4kZUImn-2rHKq5iBD5eMfOkO5ZdF2AfAxoxo2u1Y_qdMlzEd7t-lyI_BWCusOyrxQAFZI8IUlJ50D0xy4dr6SlPL3PIrX3Nw0AV8oZxBClisGt_jph_ReasIuw7rEODVCZfeY9t9SlemsMbca_IwP0_36_BIlJm9H6PNAbSu13rKsZH2oCUDLcGgC7bjZ-tRK1ph7MsHgWEnUG3_n6wz_W8LuFoZjY7s5ALa8z87rxhbmfhmrcMoSYTS58WE4udvG7GWUZhsSd0SgEA0tTR8cu3JH-k_eDJUMQgsVLl8-5yG16b94OfX0Q2ut-07f_LIMiYYpSC028Ic-1vsM79Ss_gYW33G5kspeKWBRKV2XikKUa75SUMM4HlMettUaS6_53myQahVUmdNTdnFMKtbHfW2he0dLm74tBCh8_OYlwOmcZuJxp55Wb-OOKw35YMD6cMFikb8tTH1ZrUOgx19DcqQTMR94nk_FB6hPeYyPDZ5iOzW7DSOxjVU0O0J3l9ZwGnSy9oXKtZ22rk95CpSXfi0fIY0oswe7gSV0O5qyr5UcCWE0Rt1dN7qv4Q_QmCB5ywMyy63hSorILWgEARID2BHKW1doRsIpaYPf1L1jsqMT_avLt8PJzV7HRgTCCQPquZQJylvarVScJm_Ksaibpyt6ux3Ec1ZIOdCU8nsHg0LBLFbJgjgkuCPCQeRPb1fk9vNLGkZ1PPyh5L-kaVttVpxgGaiOMR7cydX8IdqQCzTUvI2PyPsud8s_c7oyhoaPUqh_ZXKzgewask6MFaPGo7fKvNaWlpakkuV6mG3bsecvbfJMCcHuxXDwq-OHInHjXVX9o2PZkGLLahAhIm9335bOnleFYDOf2-8LR34sdAkSdk7jalj9iWMk_hy_ebDZyE1VKJpeM8S2bSs9vigPSl_Vi56HpETRzo8RxJw7INgxk4B0NuO6spgmvlkzOEg5Db78ASYhzbHmZCFBbqRNdFkf1BFxhjy65swFvpmT1hh9u7hbtMM6dn9h7diXzTmrBjm-Mel_fFXtOcxRjtgi9pTV8xTIz76zfgcxdSDYnnpXxJ1lVkXUxEYGdEIyqhJAkhvEbl8Z7xOeEpEiShXw0KG5uebOH7DfnKvGcdpT_REaFubLmUdOz4Wx9mcXE-bqUqfEnNKWdwdCSJ1dVIoiYkk5nfy9-qBiS5hvcAdUR3_Zw9kS6EwIlpWLa6hmlETPNHo74SXKnVgEBASCi2ggf0EYlrKf72t8uBizlxfJMRiuySVxUyk3JbeoQWbXoqvQicxbhnloOUMV0nKt0HqeEysK7WRQAJB_7FpC0heku2-3-Y7W4QpBXkFRWBwDg070Hq5z32WHm5z5z3t0VqGq8yj7GLweq1l5EYD0hrHe3SAz4Q1tYZG6mLw2PrUVQvkMlA-9HzQyh4XHoqlQhyX1oqPjUIm9KSjYL9QDMKo2EWee8S13UXvcZPFTxt_0G00]--></g></svg>