<?xml version="1.0" encoding="us-ascii" standalone="no"?><svg xmlns="http://www.w3.org/2000/svg" xmlns:xlink="http://www.w3.org/1999/xlink" contentStyleType="text/css" height="744.5px" preserveAspectRatio="none" style="width:245px;height:744px;background:#FFFFFF;" version="1.1" viewBox="0 0 245 744" width="245.5px" zoomAndPan="magnify"><defs/><g><!--cluster RobDroneGo--><g id="cluster_RobDroneGo"><path d="M90.25,3 L136.25,3 A1.875,1.875 0 0 1 137.5,4.25 L141,13.8203 L240.75,13.8203 A1.25,1.25 0 0 1 242,15.0703 L242,739.75 A1.25,1.25 0 0 1 240.75,741 L90.25,741 A1.25,1.25 0 0 1 89,739.75 L89,4.25 A1.25,1.25 0 0 1 90.25,3 " fill="none" style="stroke:#000000;stroke-width:0.75;"/><line style="stroke:#000000;stroke-width:0.75;" x1="89" x2="141" y1="13.8203" y2="13.8203"/><text fill="#000000" font-family="sans-serif" font-size="7" font-weight="bold" lengthAdjust="spacing" textLength="45.5" x="91" y="10.3369">RobDroneGo</text></g><g id="elem_UC1"><ellipse cx="165.5389" cy="28.4578" fill="#F1F1F1" rx="35.0389" ry="8.2078" style="stroke:#181818;stroke-width:0.25;"/><text fill="#000000" font-family="sans-serif" font-size="7" lengthAdjust="spacing" textLength="48.5" x="141.1451" y="29.9246">Create Building</text></g><g id="elem_UC2"><ellipse cx="165.4714" cy="61.9943" fill="#F1F1F1" rx="31.4714" ry="7.4943" style="stroke:#181818;stroke-width:0.25;"/><text fill="#000000" font-family="sans-serif" font-size="7" lengthAdjust="spacing" textLength="39" x="144.4714" y="63.7877">Edit Building</text></g><g id="elem_UC3"><ellipse cx="165.5613" cy="95.4123" fill="#F1F1F1" rx="36.0613" ry="8.4123" style="stroke:#181818;stroke-width:0.25;"/><text fill="#000000" font-family="sans-serif" font-size="7" lengthAdjust="spacing" textLength="51" x="140.0613" y="96.839">List All Buildings</text></g><g id="elem_UC4"><ellipse cx="165.472" cy="131.9944" fill="#F1F1F1" rx="46.472" ry="10.4944" style="stroke:#181818;stroke-width:0.25;"/><text fill="#000000" font-family="sans-serif" font-size="7" lengthAdjust="spacing" textLength="75" x="127.972" y="133.4212">Create Floor of Building</text></g><g id="elem_UC5"><ellipse cx="165.4967" cy="169.8993" fill="#F1F1F1" rx="42.2467" ry="9.6493" style="stroke:#181818;stroke-width:0.25;"/><text fill="#000000" font-family="sans-serif" font-size="7" lengthAdjust="spacing" textLength="65.5" x="132.7467" y="171.3261">Edit Floor of Building</text></g><g id="elem_UC6"><ellipse cx="165.5977" cy="207.1195" fill="#F1F1F1" rx="43.3477" ry="9.8695" style="stroke:#181818;stroke-width:0.25;"/><text fill="#000000" font-family="sans-serif" font-size="7" lengthAdjust="spacing" textLength="68" x="131.5977" y="208.5463">List Floors of Building</text></g><g id="elem_UC7"><ellipse cx="165.4434" cy="248.0387" fill="#F1F1F1" rx="62.9434" ry="13.7887" style="stroke:#181818;stroke-width:0.25;"/><text fill="#000000" font-family="sans-serif" font-size="7" lengthAdjust="spacing" textLength="110.5" x="110.1934" y="249.4654">Create Passage Between Buildings</text></g><g id="elem_UC8"><ellipse cx="165.4604" cy="292.3921" fill="#F1F1F1" rx="58.4604" ry="12.8921" style="stroke:#181818;stroke-width:0.25;"/><text fill="#000000" font-family="sans-serif" font-size="7" lengthAdjust="spacing" textLength="101" x="114.9604" y="293.8188">Edit Passage Between Buildings</text></g><g id="elem_UC9"><ellipse cx="165.386" cy="336.3772" fill="#F1F1F1" rx="59.636" ry="13.1272" style="stroke:#181818;stroke-width:0.25;"/><text fill="#000000" font-family="sans-serif" font-size="7" lengthAdjust="spacing" textLength="103.5" x="113.636" y="337.804">List Passages Between Buildings</text></g><g id="elem_UC10"><ellipse cx="165.5636" cy="378.5627" fill="#F1F1F1" rx="50.5636" ry="11.3127" style="stroke:#181818;stroke-width:0.25;"/><text fill="#000000" font-family="sans-serif" font-size="7" lengthAdjust="spacing" textLength="84" x="123.5636" y="379.9895">Create Elevator in Building</text></g><g id="elem_UC11"><ellipse cx="165.497" cy="417.9494" fill="#F1F1F1" rx="46.247" ry="10.4494" style="stroke:#181818;stroke-width:0.25;"/><text fill="#000000" font-family="sans-serif" font-size="7" lengthAdjust="spacing" textLength="74.5" x="128.247" y="419.3762">Edit Elevator in Building</text></g><g id="elem_UC12"><ellipse cx="165.6246" cy="456.9249" fill="#F1F1F1" rx="47.3746" ry="10.6749" style="stroke:#181818;stroke-width:0.25;"/><text fill="#000000" font-family="sans-serif" font-size="7" lengthAdjust="spacing" textLength="77" x="127.1246" y="458.3517">List Elevators in Building</text></g><g id="elem_UC13"><ellipse cx="165.3761" cy="495.4752" fill="#F1F1F1" rx="45.1261" ry="10.2252" style="stroke:#181818;stroke-width:0.25;"/><text fill="#000000" font-family="sans-serif" font-size="7" lengthAdjust="spacing" textLength="72" x="129.3761" y="496.902">Create Rooms of Floor</text></g><g id="elem_UC14"><ellipse cx="165.4998" cy="532.5" fill="#F1F1F1" rx="38.9998" ry="9" style="stroke:#181818;stroke-width:0.25;"/><text fill="#000000" font-family="sans-serif" font-size="7" lengthAdjust="spacing" textLength="58" x="136.4998" y="533.9267">List Room of Floor</text></g><g id="elem_UC15"><ellipse cx="165.4361" cy="568.9872" fill="#F1F1F1" rx="42.6861" ry="9.7372" style="stroke:#181818;stroke-width:0.25;"/><text fill="#000000" font-family="sans-serif" font-size="7" lengthAdjust="spacing" textLength="66.5" x="132.1861" y="570.414">Add New Robot Type</text></g><g id="elem_UC16"><ellipse cx="165.497" cy="606.9494" fill="#F1F1F1" rx="46.247" ry="10.4494" style="stroke:#181818;stroke-width:0.25;"/><text fill="#000000" font-family="sans-serif" font-size="7" lengthAdjust="spacing" textLength="74.5" x="128.247" y="608.3762">Add New Robot to Fleet</text></g><g id="elem_UC17"><ellipse cx="165.3971" cy="642.5294" fill="#F1F1F1" rx="31.6471" ry="7.5294" style="stroke:#181818;stroke-width:0.25;"/><text fill="#000000" font-family="sans-serif" font-size="7" lengthAdjust="spacing" textLength="39.5" x="144.1471" y="644.3229">Inhibit Robot</text></g><g id="elem_UC18"><ellipse cx="165.4998" cy="676.5" fill="#F1F1F1" rx="38.9998" ry="9" style="stroke:#181818;stroke-width:0.25;"/><text fill="#000000" font-family="sans-serif" font-size="7" lengthAdjust="spacing" textLength="58" x="136.4998" y="677.9267">Consult All Robots</text></g><g id="elem_UC19"><ellipse cx="165.4196" cy="717.8839" fill="#F1F1F1" rx="68.4196" ry="14.8839" style="stroke:#181818;stroke-width:0.25;"/><text fill="#000000" font-family="sans-serif" font-size="7" lengthAdjust="spacing" textLength="122" x="104.4196" y="719.3107">Search Robots by Designation or Task</text></g><!--entity CM--><g id="elem_CM"><ellipse cx="35" cy="259.5" fill="#F1F1F1" rx="8" ry="8" style="stroke:#181818;stroke-width:0.75;"/><path d="M35,269.5 C37,269.5 38.5,269.5 40.5,267.5 C44.5,267.5 48.5,271.5 48.5,275.5 L48.5,277.5 C48.5,279.5 46.5,281.5 44.5,281.5 L25.5,281.5 C23.5,281.5 21.5,279.5 21.5,277.5 L21.5,275.5 C21.5,271.5 25.5,267.5 29.5,267.5 C31.5,269.5 33,269.5 35,269.5 " fill="#F1F1F1" style="stroke:#181818;stroke-width:0.75;"/><text fill="#000000" font-family="sans-serif" font-size="7" lengthAdjust="spacing" textLength="64" x="3" y="288.5869">UI Campus Manager</text></g><!--entity FM--><g id="elem_FM"><ellipse cx="35" cy="631.5" fill="#F1F1F1" rx="8" ry="8" style="stroke:#181818;stroke-width:0.75;"/><path d="M35,641.5 C37,641.5 38.5,641.5 40.5,639.5 C44.5,639.5 48.5,643.5 48.5,647.5 L48.5,649.5 C48.5,651.5 46.5,653.5 44.5,653.5 L25.5,653.5 C23.5,653.5 21.5,651.5 21.5,649.5 L21.5,647.5 C21.5,643.5 25.5,639.5 29.5,639.5 C31.5,641.5 33,641.5 35,641.5 " fill="#F1F1F1" style="stroke:#181818;stroke-width:0.75;"/><text fill="#000000" font-family="sans-serif" font-size="7" lengthAdjust="spacing" textLength="54" x="8" y="660.5869">UI Fleet Manager</text></g><!--entity SM--><g id="elem_SM"><ellipse cx="35" cy="202.5" fill="#F1F1F1" rx="8" ry="8" style="stroke:#181818;stroke-width:0.75;"/><path d="M35,212.5 C37,212.5 38.5,212.5 40.5,210.5 C44.5,210.5 48.5,214.5 48.5,218.5 L48.5,220.5 C48.5,222.5 46.5,224.5 44.5,224.5 L25.5,224.5 C23.5,224.5 21.5,222.5 21.5,220.5 L21.5,218.5 C21.5,214.5 25.5,210.5 29.5,210.5 C31.5,212.5 33,212.5 35,212.5 " fill="#F1F1F1" style="stroke:#181818;stroke-width:0.75;"/><text fill="#000000" font-family="sans-serif" font-size="7" lengthAdjust="spacing" textLength="61" x="4.5" y="231.5869">UI System Manager</text></g><!--entity U--><g id="elem_U"><ellipse cx="35" cy="145.5" fill="#F1F1F1" rx="8" ry="8" style="stroke:#181818;stroke-width:0.75;"/><path d="M35,155.5 C37,155.5 38.5,155.5 40.5,153.5 C44.5,153.5 48.5,157.5 48.5,161.5 L48.5,163.5 C48.5,165.5 46.5,167.5 44.5,167.5 L25.5,167.5 C23.5,167.5 21.5,165.5 21.5,163.5 L21.5,161.5 C21.5,157.5 25.5,153.5 29.5,153.5 C31.5,155.5 33,155.5 35,155.5 " fill="#F1F1F1" style="stroke:#181818;stroke-width:0.75;"/><text fill="#000000" font-family="sans-serif" font-size="7" lengthAdjust="spacing" textLength="22.5" x="23.75" y="174.5869">UI User</text></g><!--link CM to UC1--><g id="link_CM_UC1"><path d="M61.105,250.73 C63.41,248.025 65.45,245.1 67,242 C86.6,202.775 55.875,78.28 85,45.5 C95.785,33.36 112.905,28.675 128.545,27.205 " fill="none" id="CM-to-UC1" style="stroke:#181818;stroke-width:0.5;"/><polygon fill="#181818" points="131.04,26.995,126.3898,25.3745,128.5486,27.202,126.7211,29.3608,131.04,26.995" style="stroke:#181818;stroke-width:0.5;"/></g><!--link CM to UC2--><g id="link_CM_UC2"><path d="M61.05,250.7 C63.365,248 65.425,245.085 67,242 C83.68,209.35 60.24,105.04 85,78 C96.85,65.06 115.96,60.895 132.535,60.045 " fill="none" id="CM-to-UC2" style="stroke:#181818;stroke-width:0.5;"/><polygon fill="#181818" points="135.17,59.935,130.5885,58.1295,132.6723,60.042,130.7598,62.1258,135.17,59.935" style="stroke:#181818;stroke-width:0.5;"/></g><!--link CM to UC3--><g id="link_CM_UC3"><path d="M60.965,250.655 C63.29,247.965 65.38,245.065 67,242 C94.18,190.64 45.4,155.025 85,112.5 C95.655,101.055 111.95,96.31 127.055,94.62 " fill="none" id="CM-to-UC3" style="stroke:#181818;stroke-width:0.5;"/><polygon fill="#181818" points="129.665,94.36,124.9874,92.8204,127.1775,94.6102,125.3877,96.8003,129.665,94.36" style="stroke:#181818;stroke-width:0.5;"/></g><!--link CM to UC4--><g id="link_CM_UC4"><path d="M60.635,250.73 C63.055,248.005 65.255,245.08 67,242 C87.23,206.325 56.63,181.11 85,151.5 C93.495,142.635 105.295,137.52 117.225,134.645 " fill="none" id="CM-to-UC4" style="stroke:#181818;stroke-width:0.5;"/><polygon fill="#181818" points="119.77,134.065,114.9373,133.1188,117.3329,134.6225,115.8293,137.0181,119.77,134.065" style="stroke:#181818;stroke-width:0.5;"/></g><!--link CM to UC5--><g id="link_CM_UC5"><path d="M60.095,250.66 C62.645,247.935 65.02,245.025 67,242 C80.75,221.015 66.42,205.355 85,188.5 C94.85,179.565 108.14,174.685 121.06,172.09 " fill="none" id="CM-to-UC5" style="stroke:#181818;stroke-width:0.5;"/><polygon fill="#181818" points="123.64,171.605,118.8469,170.4753,121.1835,172.0692,119.5896,174.4057,123.64,171.605" style="stroke:#181818;stroke-width:0.5;"/></g><!--link CM to UC6--><g id="link_CM_UC6"><path d="M57.375,250.74 C60.605,247.815 63.89,244.83 67,242 C75.025,234.695 75.395,230.555 85,225.5 C97.23,219.06 111.675,214.845 124.9,212.095 " fill="none" id="CM-to-UC6" style="stroke:#181818;stroke-width:0.5;"/><polygon fill="#181818" points="127.355,211.595,122.5489,210.5217,124.9041,212.088,123.3378,214.4432,127.355,211.595" style="stroke:#181818;stroke-width:0.5;"/></g><!--link CM to UC7--><g id="link_CM_UC7"><path d="M67.015,265.025 C80.98,262.6 97.77,259.68 113.48,256.95 " fill="none" id="CM-to-UC7" style="stroke:#181818;stroke-width:0.5;"/><polygon fill="#181818" points="115.99,256.515,111.2139,255.3156,113.527,256.9434,111.8992,259.2565,115.99,256.515" style="stroke:#181818;stroke-width:0.5;"/></g><!--link CM to UC8--><g id="link_CM_UC8"><path d="M67.015,275.855 C81.725,278.355 99.575,281.385 115.99,284.175 " fill="none" id="CM-to-UC8" style="stroke:#181818;stroke-width:0.5;"/><polygon fill="#181818" points="118.61,284.62,114.5115,281.8901,116.1458,284.1986,113.8373,285.8328,118.61,284.62" style="stroke:#181818;stroke-width:0.5;"/></g><!--link CM to UC9--><g id="link_CM_UC9"><path d="M53.945,290.28 C62.665,298.63 73.64,307.83 85,314 C95.135,319.505 106.745,323.765 117.915,327.025 " fill="none" id="CM-to-UC9" style="stroke:#181818;stroke-width:0.5;"/><polygon fill="#181818" points="120.445,327.745,116.6676,324.5857,118.0412,327.0582,115.5687,328.4318,120.445,327.745" style="stroke:#181818;stroke-width:0.5;"/></g><!--link CM to UC10--><g id="link_CM_UC10"><path d="M41.49,290.415 C48.6,310.61 62.425,341.275 85,358.5 C94.26,365.565 105.71,370.16 117.03,373.14 " fill="none" id="CM-to-UC10" style="stroke:#181818;stroke-width:0.5;"/><polygon fill="#181818" points="119.595,373.785,115.725,370.7399,117.1718,373.1703,114.7414,374.6171,119.595,373.785" style="stroke:#181818;stroke-width:0.5;"/></g><!--link CM to UC11--><g id="link_CM_UC11"><path d="M37.51,290.4 C41.455,318.705 52.86,370.285 85,398.5 C94.33,406.69 106.53,411.565 118.585,414.435 " fill="none" id="CM-to-UC11" style="stroke:#181818;stroke-width:0.5;"/><polygon fill="#181818" points="121.155,415.02,117.2042,412.0804,118.7161,414.4709,116.3256,415.9827,121.155,415.02" style="stroke:#181818;stroke-width:0.5;"/></g><!--link CM to UC12--><g id="link_CM_UC12"><path d="M35.425,290.37 C36.425,325.24 43.71,397.49 85,437 C93.785,445.41 105.555,450.44 117.35,453.41 " fill="none" id="CM-to-UC12" style="stroke:#181818;stroke-width:0.5;"/><polygon fill="#181818" points="119.87,454.01,115.954,451.0242,117.4377,453.4322,115.0296,454.9159,119.87,454.01" style="stroke:#181818;stroke-width:0.5;"/></g><!--link CM to UC13--><g id="link_CM_UC13"><path d="M37.625,290.285 C43.005,336.61 58.63,450.2 85,476.5 C93.905,485.385 106.16,490.405 118.405,493.165 " fill="none" id="CM-to-UC13" style="stroke:#181818;stroke-width:0.5;"/><polygon fill="#181818" points="120.85,493.69,116.8666,490.7947,118.4051,493.1681,116.0316,494.7066,120.85,493.69" style="stroke:#181818;stroke-width:0.5;"/></g><!--link CM to UC14--><g id="link_CM_UC14"><path d="M36.805,290.38 C40.655,342.73 53.705,482.535 85,514.5 C95.125,524.84 109.825,529.81 123.875,532.04 " fill="none" id="CM-to-UC14" style="stroke:#181818;stroke-width:0.5;"/><polygon fill="#181818" points="126.485,532.425,122.3247,529.7902,124.0117,532.0604,121.7415,533.7474,126.485,532.425" style="stroke:#181818;stroke-width:0.5;"/></g><!--link FM to UC15--><g id="link_FM_UC15"><path d="M48.605,622.62 C57.495,610.68 70.28,596.175 85,587.5 C96.685,580.61 110.74,576.29 123.78,573.575 " fill="none" id="FM-to-UC15" style="stroke:#181818;stroke-width:0.5;"/><polygon fill="#181818" points="126.375,573.055,121.5689,571.9817,123.9241,573.548,122.3578,575.9032,126.375,573.055" style="stroke:#181818;stroke-width:0.5;"/></g><!--link FM to UC16--><g id="link_FM_UC16"><path d="M62.08,633.16 C69.465,630.695 77.51,628.135 85,626 C99.345,621.915 115.31,618 129.18,614.795 " fill="none" id="FM-to-UC16" style="stroke:#181818;stroke-width:0.5;"/><polygon fill="#181818" points="131.745,614.205,126.9123,613.2588,129.3079,614.7625,127.8043,617.1581,131.745,614.205" style="stroke:#181818;stroke-width:0.5;"/></g><!--link FM to UC17--><g id="link_FM_UC17"><path d="M62.02,642.5 C82,642.5 109.55,642.5 131.125,642.5 " fill="none" id="FM-to-UC17" style="stroke:#181818;stroke-width:0.5;"/><polygon fill="#181818" points="133.725,642.5,129.225,640.5,131.225,642.5,129.225,644.5,133.725,642.5" style="stroke:#181818;stroke-width:0.5;"/></g><!--link FM to UC18--><g id="link_FM_UC18"><path d="M62.085,651.585 C69.465,653.975 77.51,656.45 85,658.5 C100.77,662.815 118.495,666.88 133.245,670.05 " fill="none" id="FM-to-UC18" style="stroke:#181818;stroke-width:0.5;"/><polygon fill="#181818" points="135.77,670.595,131.7866,667.6997,133.3251,670.0731,130.9516,671.6116,135.77,670.595" style="stroke:#181818;stroke-width:0.5;"/></g><!--link FM to UC19--><g id="link_FM_UC19"><path d="M50.3,662.3 C59.27,673.05 71.56,685.79 85,694 C93.67,699.295 103.585,703.49 113.42,706.79 " fill="none" id="FM-to-UC19" style="stroke:#181818;stroke-width:0.5;"/><polygon fill="#181818" points="115.915,707.61,112.2634,704.3061,113.5397,706.8302,111.0157,708.1065,115.915,707.61" style="stroke:#181818;stroke-width:0.5;"/></g><!--SRC=[XPFTRi8m38NlynGMzqYKVsucGQ4JqfWc60yGMWCHQLBLOGXDU_VHGcbAodPt4d-EZ-nOujQ0qP2AtTv0958CZT2ACJe8bV2Kny13ezELEKi4VaBICJAMtq5ZFGUVnycHOC4Lts7Q04xWBwnu815D9HpOuTMP3CQL-CgEh-bsksOiuU7XGW4izMQQQeMl6k2R0Hm9Gqu83Jz5RX0cHo4ZeNRNHD-paLaap2FGje4tGGR6KjuXkb6Tcag1r1UZUlluOjSf-OpiERLpachGVes13qwKzMI2veIe7DC3nyX_6KF7q2s3dgQCQepD97xnR8f2EVDeEQR-eZt7K45J7TwkCRFKEiuxclUs83lEmnddO5rcS-CeWdSyPNzG6_Wy9rXmlUVOPS7oFIZGoYJdQYysmbpHWgZCpTUAZlBwAtEgQBnN6TOAUHhkRmHipZ154Zl5iuM6Isy_EHsAn17xOVu2cisNV47kibtAJYcxfUoLib_AGIc7fHnP9LgMjkfvLa7FgfXrFRWVUfRkMtfWwQ6bHxy0]--></g></svg>