<?xml version="1.0" encoding="us-ascii" standalone="no"?><svg xmlns="http://www.w3.org/2000/svg" xmlns:xlink="http://www.w3.org/1999/xlink" contentStyleType="text/css" height="99px" preserveAspectRatio="none" style="width:344px;height:99px;background:#FFFFFF;" version="1.1" viewBox="0 0 344 99" width="344px" zoomAndPan="magnify"><defs/><g><!--cluster RobDroneGo--><g id="cluster_RobDroneGo"><path d="M180.5,6 L272.5,6 A3.75,3.75 0 0 1 275,8.5 L282,27.6406 L334.5,27.6406 A2.5,2.5 0 0 1 337,30.1406 L337,83.5 A2.5,2.5 0 0 1 334.5,86 L180.5,86 A2.5,2.5 0 0 1 178,83.5 L178,8.5 A2.5,2.5 0 0 1 180.5,6 " fill="none" style="stroke:#000000;stroke-width:1.5;"/><line style="stroke:#000000;stroke-width:1.5;" x1="178" x2="282" y1="27.6406" y2="27.6406"/><text fill="#000000" font-family="sans-serif" font-size="14" font-weight="bold" lengthAdjust="spacing" textLength="91" x="182" y="20.6738">RobDroneGo</text></g><g id="elem_UC2"><ellipse cx="257.6477" cy="55.1295" fill="#F1F1F1" rx="63.6477" ry="15.1295" style="stroke:#181818;stroke-width:0.5;"/><text fill="#000000" font-family="sans-serif" font-size="14" lengthAdjust="spacing" textLength="80" x="214.6477" y="58.7165">Create Floor</text></g><!--entity CM--><g id="elem_CM"><ellipse cx="70" cy="33" fill="#F1F1F1" rx="16" ry="16" style="stroke:#181818;stroke-width:1.5;"/><path d="M70,53 C74,53 77,53 81,49 C89,49 97,57 97,65 L97,69 C97,73 93,77 89,77 L51,77 C47,77 43,73 43,69 L43,65 C43,57 51,49 59,49 C63,53 66,53 70,53 " fill="#F1F1F1" style="stroke:#181818;stroke-width:1.5;"/><text fill="#000000" font-family="sans-serif" font-size="14" lengthAdjust="spacing" textLength="128" x="6" y="91.1738">UI Campus Manager</text></g><!--link CM to UC2--><g id="link_CM_UC2"><path d="M134.06,55 C151.73,55 171,55 188.91,55 " fill="none" id="CM-to-UC2" style="stroke:#181818;stroke-width:1.0;"/><polygon fill="#181818" points="193.93,55,184.93,51,188.93,55,184.93,59,193.93,55" style="stroke:#181818;stroke-width:1.0;"/></g><!--SRC=[9Siz3i8m38RXtQVurBqB1s090Z5a0VK09fWIjOqhnrM547VdRtmVwHtbvd25vVxkk6QJv5aBKHrocTbu0YTNE_jZ5F0gLISX-XcQxeZ0qxnKH2xSYpNWYX29Pax31u2JNdQcHGuAF0bOgYIkWYQOi0lse-f_wyA6NXGYsdRxZJS0]--></g></svg>