<?xml version="1.0" encoding="UTF-8" standalone="no"?><svg xmlns="http://www.w3.org/2000/svg" xmlns:xlink="http://www.w3.org/1999/xlink" contentStyleType="text/css" height="367px" preserveAspectRatio="none" style="width:570px;height:367px;background:#FFFFFF;" version="1.1" viewBox="0 0 570 367" width="570px" zoomAndPan="magnify"><defs/><g><rect fill="#FFFFFF" height="242.8125" style="stroke:#181818;stroke-width:1.0;" width="10" x="102" y="69.9609"/><rect fill="#FFFFFF" height="182.1094" style="stroke:#181818;stroke-width:1.0;" width="10" x="219" y="100.3125"/><rect fill="#FFFFFF" height="121.4063" style="stroke:#181818;stroke-width:1.0;" width="10" x="336" y="130.6641"/><rect fill="#FFFFFF" height="60.7031" style="stroke:#181818;stroke-width:1.0;" width="10" x="453" y="161.0156"/><line style="stroke:#181818;stroke-width:0.5;stroke-dasharray:5.0,5.0;" x1="106.5" x2="106.5" y1="37.6094" y2="330.7734"/><line style="stroke:#181818;stroke-width:0.5;stroke-dasharray:5.0,5.0;" x1="223.5" x2="223.5" y1="37.6094" y2="330.7734"/><line style="stroke:#181818;stroke-width:0.5;stroke-dasharray:5.0,5.0;" x1="340.5" x2="340.5" y1="37.6094" y2="330.7734"/><line style="stroke:#181818;stroke-width:0.5;stroke-dasharray:5.0,5.0;" x1="458" x2="458" y1="37.6094" y2="330.7734"/><rect fill="#E2E2F0" height="31.6094" rx="2.5" ry="2.5" style="stroke:#181818;stroke-width:0.5;" width="73" x="70.5" y="5"/><text fill="#000000" font-family="sans-serif" font-size="14" lengthAdjust="spacing" textLength="59" x="77.5" y="26.5332">Template</text><rect fill="#E2E2F0" height="31.6094" rx="2.5" ry="2.5" style="stroke:#181818;stroke-width:0.5;" width="73" x="70.5" y="329.7734"/><text fill="#000000" font-family="sans-serif" font-size="14" lengthAdjust="spacing" textLength="59" x="77.5" y="351.3066">Template</text><rect fill="#E2E2F0" height="31.6094" rx="2.5" ry="2.5" style="stroke:#181818;stroke-width:0.5;" width="87" x="180.5" y="5"/><text fill="#000000" font-family="sans-serif" font-size="14" lengthAdjust="spacing" textLength="73" x="187.5" y="26.5332">Component</text><rect fill="#E2E2F0" height="31.6094" rx="2.5" ry="2.5" style="stroke:#181818;stroke-width:0.5;" width="87" x="180.5" y="329.7734"/><text fill="#000000" font-family="sans-serif" font-size="14" lengthAdjust="spacing" textLength="73" x="187.5" y="351.3066">Component</text><rect fill="#E2E2F0" height="31.6094" rx="2.5" ry="2.5" style="stroke:#181818;stroke-width:0.5;" width="61" x="310.5" y="5"/><text fill="#000000" font-family="sans-serif" font-size="14" lengthAdjust="spacing" textLength="47" x="317.5" y="26.5332">Service</text><rect fill="#E2E2F0" height="31.6094" rx="2.5" ry="2.5" style="stroke:#181818;stroke-width:0.5;" width="61" x="310.5" y="329.7734"/><text fill="#000000" font-family="sans-serif" font-size="14" lengthAdjust="spacing" textLength="47" x="317.5" y="351.3066">Service</text><rect fill="#E2E2F0" height="31.6094" rx="2.5" ry="2.5" style="stroke:#181818;stroke-width:0.5;" width="88" x="414" y="5"/><text fill="#000000" font-family="sans-serif" font-size="14" lengthAdjust="spacing" textLength="74" x="421" y="26.5332">HTTPDriver</text><rect fill="#E2E2F0" height="31.6094" rx="2.5" ry="2.5" style="stroke:#181818;stroke-width:0.5;" width="88" x="414" y="329.7734"/><text fill="#000000" font-family="sans-serif" font-size="14" lengthAdjust="spacing" textLength="74" x="421" y="351.3066">HTTPDriver</text><rect fill="#FFFFFF" height="242.8125" style="stroke:#181818;stroke-width:1.0;" width="10" x="102" y="69.9609"/><rect fill="#FFFFFF" height="182.1094" style="stroke:#181818;stroke-width:1.0;" width="10" x="219" y="100.3125"/><rect fill="#FFFFFF" height="121.4063" style="stroke:#181818;stroke-width:1.0;" width="10" x="336" y="130.6641"/><rect fill="#FFFFFF" height="60.7031" style="stroke:#181818;stroke-width:1.0;" width="10" x="453" y="161.0156"/><ellipse cx="20.5" cy="69.2109" fill="none" rx="4" ry="4" style="stroke:#181818;stroke-width:1.5;"/><polygon fill="#181818" points="90,65.9609,100,69.9609,90,73.9609,94,69.9609" style="stroke:#181818;stroke-width:1.0;"/><line style="stroke:#181818;stroke-width:1.0;" x1="25" x2="96" y1="69.9609" y2="69.9609"/><text fill="#000000" font-family="sans-serif" font-size="13" font-weight="bold" lengthAdjust="spacing" textLength="7" x="28" y="65.1045">1</text><text fill="#000000" font-family="sans-serif" font-size="13" lengthAdjust="spacing" textLength="48" x="39" y="65.1045">Register</text><polygon fill="#181818" points="207,96.3125,217,100.3125,207,104.3125,211,100.3125" style="stroke:#181818;stroke-width:1.0;"/><line style="stroke:#181818;stroke-width:1.0;" x1="112" x2="213" y1="100.3125" y2="100.3125"/><text fill="#000000" font-family="sans-serif" font-size="13" font-weight="bold" lengthAdjust="spacing" textLength="7" x="119" y="95.4561">2</text><text fill="#000000" font-family="sans-serif" font-size="13" lengthAdjust="spacing" textLength="48" x="130" y="95.4561">Register</text><polygon fill="#181818" points="324,126.6641,334,130.6641,324,134.6641,328,130.6641" style="stroke:#181818;stroke-width:1.0;"/><line style="stroke:#181818;stroke-width:1.0;" x1="229" x2="330" y1="130.6641" y2="130.6641"/><text fill="#000000" font-family="sans-serif" font-size="13" font-weight="bold" lengthAdjust="spacing" textLength="7" x="236" y="125.8076">3</text><text fill="#000000" font-family="sans-serif" font-size="13" lengthAdjust="spacing" textLength="48" x="247" y="125.8076">Register</text><polygon fill="#181818" points="441,157.0156,451,161.0156,441,165.0156,445,161.0156" style="stroke:#181818;stroke-width:1.0;"/><line style="stroke:#181818;stroke-width:1.0;" x1="346" x2="447" y1="161.0156" y2="161.0156"/><text fill="#000000" font-family="sans-serif" font-size="13" font-weight="bold" lengthAdjust="spacing" textLength="7" x="353" y="156.1592">4</text><text fill="#000000" font-family="sans-serif" font-size="13" lengthAdjust="spacing" textLength="71" x="364" y="156.1592">HTTP POST</text><polygon fill="#181818" points="557,187.3672,567,191.3672,557,195.3672,561,191.3672" style="stroke:#181818;stroke-width:1.0;"/><line style="stroke:#181818;stroke-width:1.0;" x1="463" x2="563" y1="191.3672" y2="191.3672"/><text fill="#000000" font-family="sans-serif" font-size="13" font-weight="bold" lengthAdjust="spacing" textLength="7" x="470" y="186.5107">5</text><text fill="#000000" font-family="sans-serif" font-size="13" lengthAdjust="spacing" textLength="71" x="481" y="186.5107">HTTP POST</text><polygon fill="#181818" points="357,217.7188,347,221.7188,357,225.7188,353,221.7188" style="stroke:#181818;stroke-width:1.0;"/><line style="stroke:#181818;stroke-width:1.0;stroke-dasharray:2.0,2.0;" x1="351" x2="457" y1="221.7188" y2="221.7188"/><text fill="#000000" font-family="sans-serif" font-size="13" font-weight="bold" lengthAdjust="spacing" textLength="7" x="363" y="216.8623">6</text><text fill="#000000" font-family="sans-serif" font-size="13" lengthAdjust="spacing" textLength="72" x="374" y="216.8623">Confirmation</text><polygon fill="#181818" points="240,248.0703,230,252.0703,240,256.0703,236,252.0703" style="stroke:#181818;stroke-width:1.0;"/><line style="stroke:#181818;stroke-width:1.0;stroke-dasharray:2.0,2.0;" x1="234" x2="340" y1="252.0703" y2="252.0703"/><text fill="#000000" font-family="sans-serif" font-size="13" font-weight="bold" lengthAdjust="spacing" textLength="7" x="246" y="247.2139">7</text><text fill="#000000" font-family="sans-serif" font-size="13" lengthAdjust="spacing" textLength="72" x="257" y="247.2139">Confirmation</text><polygon fill="#181818" points="123,278.4219,113,282.4219,123,286.4219,119,282.4219" style="stroke:#181818;stroke-width:1.0;"/><line style="stroke:#181818;stroke-width:1.0;stroke-dasharray:2.0,2.0;" x1="117" x2="223" y1="282.4219" y2="282.4219"/><text fill="#000000" font-family="sans-serif" font-size="13" font-weight="bold" lengthAdjust="spacing" textLength="7" x="129" y="277.5654">8</text><text fill="#000000" font-family="sans-serif" font-size="13" lengthAdjust="spacing" textLength="72" x="140" y="277.5654">Confirmation</text><polygon fill="#181818" points="11,308.7734,1,312.7734,11,316.7734,7,312.7734" style="stroke:#181818;stroke-width:1.0;"/><line style="stroke:#181818;stroke-width:1.0;stroke-dasharray:2.0,2.0;" x1="5" x2="106" y1="312.7734" y2="312.7734"/><text fill="#000000" font-family="sans-serif" font-size="13" font-weight="bold" lengthAdjust="spacing" textLength="7" x="17" y="307.917">9</text><text fill="#000000" font-family="sans-serif" font-size="13" lengthAdjust="spacing" textLength="72" x="28" y="307.917">Confirmation</text><!--MD5=[12857cf6381b90c4455b04d4f56cd315]
@startuml ProcessView

autonumber

participant Template
participant Component
participant Service
participant HTTPDriver


?o->Template: Register
activate Template

Template->Component: Register
activate Component

Component->Service: Register
activate Service

Service->HTTPDriver: HTTP POST
activate HTTPDriver

HTTPDriver -> : HTTP POST

HTTPDriver - -> Service: Confirmation
deactivate HTTPDriver

Service - -> Component: Confirmation
deactivate Service

Component - -> Template: Confirmation
deactivate Component

<- - Template: Confirmation

deactivate Template
@enduml

PlantUML version 1.2022.7(Mon Aug 22 18:01:30 WEST 2022)
(GPL source distribution)
Java Runtime: Java(TM) SE Runtime Environment
JVM: Java HotSpot(TM) 64-Bit Server VM
Default Encoding: UTF-8
Language: en
Country: US
--></g></svg>