<?xml version="1.0" encoding="us-ascii" standalone="no"?><svg xmlns="http://www.w3.org/2000/svg" xmlns:xlink="http://www.w3.org/1999/xlink" contentStyleType="text/css" height="248px" preserveAspectRatio="none" style="width:1241px;height:248px;background:#FFFFFF;" version="1.1" viewBox="0 0 1241 248" width="1241px" zoomAndPan="magnify"><defs/><g><g id="cluster_##2"><rect fill="#36827F" height="228" rx="2.5" ry="2.5" style="stroke:#181818;stroke-width:1.0;" width="635" x="7" y="14"/></g><g id="cluster_##9"><rect fill="#D499B9" height="221.5" rx="2.5" ry="2.5" style="stroke:#181818;stroke-width:1.0;" width="569" x="666" y="14"/></g><!--class Building--><g id="elem_Building"><rect codeLine="6" fill="#F1F1F1" height="68.4531" id="Building" rx="2.5" ry="2.5" style="stroke:#181818;stroke-width:0.5;" width="82" x="382" y="30"/><ellipse cx="397" cy="56.2266" fill="#ADD1B2" rx="11" ry="11" style="stroke:#181818;stroke-width:1.0;"/><path d="M399.7656,52.1016 Q399.9219,51.8828 400.1094,51.7734 Q400.2969,51.6641 400.5156,51.6641 Q400.8906,51.6641 401.125,51.9297 Q401.3594,52.1797 401.3594,52.7891 L401.3594,54.2422 Q401.3594,54.8516 401.125,55.1172 Q400.8906,55.3828 400.5156,55.3828 Q400.1719,55.3828 399.9688,55.1797 Q399.7656,54.9922 399.6563,54.4766 Q399.6094,54.1172 399.4219,53.9297 Q399.0938,53.5547 398.4844,53.3359 Q397.875,53.1172 397.25,53.1172 Q396.4844,53.1172 395.8438,53.4453 Q395.2188,53.7734 394.7188,54.5234 Q394.2344,55.2734 394.2344,56.3047 L394.2344,57.3984 Q394.2344,58.6328 395.125,59.4609 Q396.0156,60.2734 397.6094,60.2734 Q398.5469,60.2734 399.2031,60.0234 Q399.5938,59.8672 400.0156,59.4297 Q400.2813,59.1641 400.4219,59.0859 Q400.5781,59.0078 400.7813,59.0078 Q401.1094,59.0078 401.3594,59.2734 Q401.625,59.5234 401.625,59.8672 Q401.625,60.2109 401.2813,60.6172 Q400.7813,61.1953 399.9844,61.5234 Q398.9063,61.9766 397.6094,61.9766 Q396.0938,61.9766 394.8906,61.3516 Q393.9063,60.8516 393.2188,59.7891 Q392.5313,58.7109 392.5313,57.4297 L392.5313,56.2734 Q392.5313,54.9453 393.1406,53.8047 Q393.7656,52.6484 394.8594,52.0391 Q395.9531,51.4141 397.1875,51.4141 Q397.9219,51.4141 398.5625,51.5859 Q399.2188,51.7422 399.7656,52.1016 Z " fill="#000000"/><text fill="#000000" font-family="sans-serif" font-size="12" font-style="italic" lengthAdjust="spacing" textLength="40" x="416" y="45.8633">&#171;Root&#187;</text><text fill="#000000" font-family="sans-serif" font-size="12" font-style="italic" lengthAdjust="spacing" textLength="44" x="414" y="59.2695">&#171;Entity&#187;</text><text fill="#000000" font-family="sans-serif" font-size="14" lengthAdjust="spacing" textLength="50" x="411" y="74.4863">Building</text><line style="stroke:#181818;stroke-width:0.5;" x1="383" x2="463" y1="82.4531" y2="82.4531"/><line style="stroke:#181818;stroke-width:0.5;" x1="383" x2="463" y1="90.4531" y2="90.4531"/></g><!--class BuildingDescription--><g id="elem_BuildingDescription"><rect codeLine="7" fill="#F1F1F1" height="55.0469" id="BuildingDescription" rx="2.5" ry="2.5" style="stroke:#181818;stroke-width:0.5;" width="153" x="23.5" y="164.5"/><ellipse cx="38.5" cy="184.0234" fill="#A4C2E5" rx="11" ry="11" style="stroke:#181818;stroke-width:1.0;"/><path d="M39.1094,186.9609 L40.9531,183.1953 Q40.2656,183.1953 40.0781,183.0703 Q39.6563,182.8203 39.6563,182.3359 Q39.6563,181.9609 39.9219,181.7266 Q40.1875,181.4922 40.7969,181.4922 L43.125,181.4922 Q43.75,181.4922 44,181.7266 Q44.2656,181.9609 44.2656,182.3359 Q44.2656,182.7109 44,182.9609 Q43.75,183.1953 43.125,183.1953 L42.8438,183.1953 L40,189.0234 L38.2188,189.0234 L35.375,183.1953 L35.1406,183.1953 Q34.5156,183.1953 34.25,182.9609 Q34,182.7109 34,182.3359 Q34,181.9609 34.25,181.7266 Q34.5156,181.4922 35.1406,181.4922 L37.4219,181.4922 Q38.0313,181.4922 38.2813,181.7266 Q38.5469,181.9609 38.5469,182.3359 Q38.5469,182.8203 38.1563,183.0703 Q37.9531,183.1953 37.2656,183.1953 L39.1094,186.9609 Z " fill="#000000"/><text fill="#000000" font-family="sans-serif" font-size="12" font-style="italic" lengthAdjust="spacing" textLength="82" x="72" y="180.3633">&#171;ValueObject&#187;</text><text fill="#000000" font-family="sans-serif" font-size="14" lengthAdjust="spacing" textLength="121" x="52.5" y="195.5801">BuildingDescription</text><line style="stroke:#181818;stroke-width:0.5;" x1="24.5" x2="175.5" y1="203.5469" y2="203.5469"/><line style="stroke:#181818;stroke-width:0.5;" x1="24.5" x2="175.5" y1="211.5469" y2="211.5469"/></g><!--class BuildingName--><g id="elem_BuildingName"><rect codeLine="8" fill="#F1F1F1" height="55.0469" id="BuildingName" rx="2.5" ry="2.5" style="stroke:#181818;stroke-width:0.5;" width="118" x="212" y="164.5"/><ellipse cx="227" cy="184.0234" fill="#A4C2E5" rx="11" ry="11" style="stroke:#181818;stroke-width:1.0;"/><path d="M227.6094,186.9609 L229.4531,183.1953 Q228.7656,183.1953 228.5781,183.0703 Q228.1563,182.8203 228.1563,182.3359 Q228.1563,181.9609 228.4219,181.7266 Q228.6875,181.4922 229.2969,181.4922 L231.625,181.4922 Q232.25,181.4922 232.5,181.7266 Q232.7656,181.9609 232.7656,182.3359 Q232.7656,182.7109 232.5,182.9609 Q232.25,183.1953 231.625,183.1953 L231.3438,183.1953 L228.5,189.0234 L226.7188,189.0234 L223.875,183.1953 L223.6406,183.1953 Q223.0156,183.1953 222.75,182.9609 Q222.5,182.7109 222.5,182.3359 Q222.5,181.9609 222.75,181.7266 Q223.0156,181.4922 223.6406,181.4922 L225.9219,181.4922 Q226.5313,181.4922 226.7813,181.7266 Q227.0469,181.9609 227.0469,182.3359 Q227.0469,182.8203 226.6563,183.0703 Q226.4531,183.1953 225.7656,183.1953 L227.6094,186.9609 Z " fill="#000000"/><text fill="#000000" font-family="sans-serif" font-size="12" font-style="italic" lengthAdjust="spacing" textLength="82" x="243" y="180.3633">&#171;ValueObject&#187;</text><text fill="#000000" font-family="sans-serif" font-size="14" lengthAdjust="spacing" textLength="86" x="241" y="195.5801">BuildingName</text><line style="stroke:#181818;stroke-width:0.5;" x1="213" x2="329" y1="203.5469" y2="203.5469"/><line style="stroke:#181818;stroke-width:0.5;" x1="213" x2="329" y1="211.5469" y2="211.5469"/></g><!--class BuildingCode--><g id="elem_BuildingCode"><rect codeLine="9" fill="#F1F1F1" height="68.4531" id="BuildingCode" rx="2.5" ry="2.5" style="stroke:#181818;stroke-width:0.5;" width="116" x="365" y="158"/><ellipse cx="380" cy="184.2266" fill="#FFA500" rx="11" ry="11" style="stroke:#181818;stroke-width:1.0;"/><path d="M380.6094,187.1641 L382.4531,183.3984 Q381.7656,183.3984 381.5781,183.2734 Q381.1563,183.0234 381.1563,182.5391 Q381.1563,182.1641 381.4219,181.9297 Q381.6875,181.6953 382.2969,181.6953 L384.625,181.6953 Q385.25,181.6953 385.5,181.9297 Q385.7656,182.1641 385.7656,182.5391 Q385.7656,182.9141 385.5,183.1641 Q385.25,183.3984 384.625,183.3984 L384.3438,183.3984 L381.5,189.2266 L379.7188,189.2266 L376.875,183.3984 L376.6406,183.3984 Q376.0156,183.3984 375.75,183.1641 Q375.5,182.9141 375.5,182.5391 Q375.5,182.1641 375.75,181.9297 Q376.0156,181.6953 376.6406,181.6953 L378.9219,181.6953 Q379.5313,181.6953 379.7813,181.9297 Q380.0469,182.1641 380.0469,182.5391 Q380.0469,183.0234 379.6563,183.2734 Q379.4531,183.3984 378.7656,183.3984 L380.6094,187.1641 Z " fill="#000000"/><text fill="#000000" font-family="sans-serif" font-size="12" font-style="italic" lengthAdjust="spacing" textLength="82" x="395" y="173.8633">&#171;ValueObject&#187;</text><text fill="#000000" font-family="sans-serif" font-size="12" font-style="italic" lengthAdjust="spacing" textLength="52" x="410" y="187.2695">&#171;unique&#187;</text><text fill="#000000" font-family="sans-serif" font-size="14" lengthAdjust="spacing" textLength="84" x="394" y="202.4863">BuildingCode</text><line style="stroke:#181818;stroke-width:0.5;" x1="366" x2="480" y1="210.4531" y2="210.4531"/><line style="stroke:#181818;stroke-width:0.5;" x1="366" x2="480" y1="218.4531" y2="218.4531"/></g><!--class BuildingSize--><g id="elem_BuildingSize"><rect codeLine="10" fill="#F1F1F1" height="55.0469" id="BuildingSize" rx="2.5" ry="2.5" style="stroke:#181818;stroke-width:0.5;" width="110" x="516" y="164.5"/><ellipse cx="531" cy="184.0234" fill="#A4C2E5" rx="11" ry="11" style="stroke:#181818;stroke-width:1.0;"/><path d="M531.6094,186.9609 L533.4531,183.1953 Q532.7656,183.1953 532.5781,183.0703 Q532.1563,182.8203 532.1563,182.3359 Q532.1563,181.9609 532.4219,181.7266 Q532.6875,181.4922 533.2969,181.4922 L535.625,181.4922 Q536.25,181.4922 536.5,181.7266 Q536.7656,181.9609 536.7656,182.3359 Q536.7656,182.7109 536.5,182.9609 Q536.25,183.1953 535.625,183.1953 L535.3438,183.1953 L532.5,189.0234 L530.7188,189.0234 L527.875,183.1953 L527.6406,183.1953 Q527.0156,183.1953 526.75,182.9609 Q526.5,182.7109 526.5,182.3359 Q526.5,181.9609 526.75,181.7266 Q527.0156,181.4922 527.6406,181.4922 L529.9219,181.4922 Q530.5313,181.4922 530.7813,181.7266 Q531.0469,181.9609 531.0469,182.3359 Q531.0469,182.8203 530.6563,183.0703 Q530.4531,183.1953 529.7656,183.1953 L531.6094,186.9609 Z " fill="#000000"/><text fill="#000000" font-family="sans-serif" font-size="12" font-style="italic" lengthAdjust="spacing" textLength="82" x="543" y="180.3633">&#171;ValueObject&#187;</text><text fill="#000000" font-family="sans-serif" font-size="14" lengthAdjust="spacing" textLength="76" x="546" y="195.5801">BuildingSize</text><line style="stroke:#181818;stroke-width:0.5;" x1="517" x2="625" y1="203.5469" y2="203.5469"/><line style="stroke:#181818;stroke-width:0.5;" x1="517" x2="625" y1="211.5469" y2="211.5469"/></g><!--class Floor--><g id="elem_Floor"><rect codeLine="14" fill="#F1F1F1" height="68.4531" id="Floor" rx="2.5" ry="2.5" style="stroke:#181818;stroke-width:0.5;" width="72" x="831" y="30"/><ellipse cx="846" cy="56.2266" fill="#ADD1B2" rx="11" ry="11" style="stroke:#181818;stroke-width:1.0;"/><path d="M848.7656,52.1016 Q848.9219,51.8828 849.1094,51.7734 Q849.2969,51.6641 849.5156,51.6641 Q849.8906,51.6641 850.125,51.9297 Q850.3594,52.1797 850.3594,52.7891 L850.3594,54.2422 Q850.3594,54.8516 850.125,55.1172 Q849.8906,55.3828 849.5156,55.3828 Q849.1719,55.3828 848.9688,55.1797 Q848.7656,54.9922 848.6563,54.4766 Q848.6094,54.1172 848.4219,53.9297 Q848.0938,53.5547 847.4844,53.3359 Q846.875,53.1172 846.25,53.1172 Q845.4844,53.1172 844.8438,53.4453 Q844.2188,53.7734 843.7188,54.5234 Q843.2344,55.2734 843.2344,56.3047 L843.2344,57.3984 Q843.2344,58.6328 844.125,59.4609 Q845.0156,60.2734 846.6094,60.2734 Q847.5469,60.2734 848.2031,60.0234 Q848.5938,59.8672 849.0156,59.4297 Q849.2813,59.1641 849.4219,59.0859 Q849.5781,59.0078 849.7813,59.0078 Q850.1094,59.0078 850.3594,59.2734 Q850.625,59.5234 850.625,59.8672 Q850.625,60.2109 850.2813,60.6172 Q849.7813,61.1953 848.9844,61.5234 Q847.9063,61.9766 846.6094,61.9766 Q845.0938,61.9766 843.8906,61.3516 Q842.9063,60.8516 842.2188,59.7891 Q841.5313,58.7109 841.5313,57.4297 L841.5313,56.2734 Q841.5313,54.9453 842.1406,53.8047 Q842.7656,52.6484 843.8594,52.0391 Q844.9531,51.4141 846.1875,51.4141 Q846.9219,51.4141 847.5625,51.5859 Q848.2188,51.7422 848.7656,52.1016 Z " fill="#000000"/><text fill="#000000" font-family="sans-serif" font-size="12" font-style="italic" lengthAdjust="spacing" textLength="40" x="860" y="45.8633">&#171;Root&#187;</text><text fill="#000000" font-family="sans-serif" font-size="12" font-style="italic" lengthAdjust="spacing" textLength="44" x="858" y="59.2695">&#171;Entity&#187;</text><text fill="#000000" font-family="sans-serif" font-size="14" lengthAdjust="spacing" textLength="33" x="863.5" y="74.4863">Floor</text><line style="stroke:#181818;stroke-width:0.5;" x1="832" x2="902" y1="82.4531" y2="82.4531"/><line style="stroke:#181818;stroke-width:0.5;" x1="832" x2="902" y1="90.4531" y2="90.4531"/></g><!--class FloorId--><g id="elem_FloorId"><rect codeLine="15" fill="#F1F1F1" height="68.4531" id="FloorId" rx="2.5" ry="2.5" style="stroke:#181818;stroke-width:0.5;" width="110" x="938" y="30"/><ellipse cx="953" cy="56.2266" fill="#FFA500" rx="11" ry="11" style="stroke:#181818;stroke-width:1.0;"/><path d="M953.6094,59.1641 L955.4531,55.3984 Q954.7656,55.3984 954.5781,55.2734 Q954.1563,55.0234 954.1563,54.5391 Q954.1563,54.1641 954.4219,53.9297 Q954.6875,53.6953 955.2969,53.6953 L957.625,53.6953 Q958.25,53.6953 958.5,53.9297 Q958.7656,54.1641 958.7656,54.5391 Q958.7656,54.9141 958.5,55.1641 Q958.25,55.3984 957.625,55.3984 L957.3438,55.3984 L954.5,61.2266 L952.7188,61.2266 L949.875,55.3984 L949.6406,55.3984 Q949.0156,55.3984 948.75,55.1641 Q948.5,54.9141 948.5,54.5391 Q948.5,54.1641 948.75,53.9297 Q949.0156,53.6953 949.6406,53.6953 L951.9219,53.6953 Q952.5313,53.6953 952.7813,53.9297 Q953.0469,54.1641 953.0469,54.5391 Q953.0469,55.0234 952.6563,55.2734 Q952.4531,55.3984 951.7656,55.3984 L953.6094,59.1641 Z " fill="#000000"/><text fill="#000000" font-family="sans-serif" font-size="12" font-style="italic" lengthAdjust="spacing" textLength="82" x="965" y="45.8633">&#171;ValueObject&#187;</text><text fill="#000000" font-family="sans-serif" font-size="12" font-style="italic" lengthAdjust="spacing" textLength="52" x="980" y="59.2695">&#171;unique&#187;</text><text fill="#000000" font-family="sans-serif" font-size="14" lengthAdjust="spacing" textLength="44" x="984" y="74.4863">FloorId</text><line style="stroke:#181818;stroke-width:0.5;" x1="939" x2="1047" y1="82.4531" y2="82.4531"/><line style="stroke:#181818;stroke-width:0.5;" x1="939" x2="1047" y1="90.4531" y2="90.4531"/></g><!--class FloorDescription--><g id="elem_FloorDescription"><rect codeLine="16" fill="#F1F1F1" height="55.0469" id="FloorDescription" rx="2.5" ry="2.5" style="stroke:#181818;stroke-width:0.5;" width="136" x="1083" y="36.5"/><ellipse cx="1098" cy="56.0234" fill="#A4C2E5" rx="11" ry="11" style="stroke:#181818;stroke-width:1.0;"/><path d="M1098.6094,58.9609 L1100.4531,55.1953 Q1099.7656,55.1953 1099.5781,55.0703 Q1099.1563,54.8203 1099.1563,54.3359 Q1099.1563,53.9609 1099.4219,53.7266 Q1099.6875,53.4922 1100.2969,53.4922 L1102.625,53.4922 Q1103.25,53.4922 1103.5,53.7266 Q1103.7656,53.9609 1103.7656,54.3359 Q1103.7656,54.7109 1103.5,54.9609 Q1103.25,55.1953 1102.625,55.1953 L1102.3438,55.1953 L1099.5,61.0234 L1097.7188,61.0234 L1094.875,55.1953 L1094.6406,55.1953 Q1094.0156,55.1953 1093.75,54.9609 Q1093.5,54.7109 1093.5,54.3359 Q1093.5,53.9609 1093.75,53.7266 Q1094.0156,53.4922 1094.6406,53.4922 L1096.9219,53.4922 Q1097.5313,53.4922 1097.7813,53.7266 Q1098.0469,53.9609 1098.0469,54.3359 Q1098.0469,54.8203 1097.6563,55.0703 Q1097.4531,55.1953 1096.7656,55.1953 L1098.6094,58.9609 Z " fill="#000000"/><text fill="#000000" font-family="sans-serif" font-size="12" font-style="italic" lengthAdjust="spacing" textLength="82" x="1123" y="52.3633">&#171;ValueObject&#187;</text><text fill="#000000" font-family="sans-serif" font-size="14" lengthAdjust="spacing" textLength="104" x="1112" y="67.5801">FloorDescription</text><line style="stroke:#181818;stroke-width:0.5;" x1="1084" x2="1218" y1="75.5469" y2="75.5469"/><line style="stroke:#181818;stroke-width:0.5;" x1="1084" x2="1218" y1="83.5469" y2="83.5469"/></g><!--class FloorMap--><g id="elem_FloorMap"><rect codeLine="17" fill="#F1F1F1" height="55.0469" id="FloorMap" rx="2.5" ry="2.5" style="stroke:#181818;stroke-width:0.5;" width="92" x="821" y="164.5"/><ellipse cx="836" cy="184.0234" fill="#ADD1B2" rx="11" ry="11" style="stroke:#181818;stroke-width:1.0;"/><path d="M838.7656,179.8984 Q838.9219,179.6797 839.1094,179.5703 Q839.2969,179.4609 839.5156,179.4609 Q839.8906,179.4609 840.125,179.7266 Q840.3594,179.9766 840.3594,180.5859 L840.3594,182.0391 Q840.3594,182.6484 840.125,182.9141 Q839.8906,183.1797 839.5156,183.1797 Q839.1719,183.1797 838.9688,182.9766 Q838.7656,182.7891 838.6563,182.2734 Q838.6094,181.9141 838.4219,181.7266 Q838.0938,181.3516 837.4844,181.1328 Q836.875,180.9141 836.25,180.9141 Q835.4844,180.9141 834.8438,181.2422 Q834.2188,181.5703 833.7188,182.3203 Q833.2344,183.0703 833.2344,184.1016 L833.2344,185.1953 Q833.2344,186.4297 834.125,187.2578 Q835.0156,188.0703 836.6094,188.0703 Q837.5469,188.0703 838.2031,187.8203 Q838.5938,187.6641 839.0156,187.2266 Q839.2813,186.9609 839.4219,186.8828 Q839.5781,186.8047 839.7813,186.8047 Q840.1094,186.8047 840.3594,187.0703 Q840.625,187.3203 840.625,187.6641 Q840.625,188.0078 840.2813,188.4141 Q839.7813,188.9922 838.9844,189.3203 Q837.9063,189.7734 836.6094,189.7734 Q835.0938,189.7734 833.8906,189.1484 Q832.9063,188.6484 832.2188,187.5859 Q831.5313,186.5078 831.5313,185.2266 L831.5313,184.0703 Q831.5313,182.7422 832.1406,181.6016 Q832.7656,180.4453 833.8594,179.8359 Q834.9531,179.2109 836.1875,179.2109 Q836.9219,179.2109 837.5625,179.3828 Q838.2188,179.5391 838.7656,179.8984 Z " fill="#000000"/><text fill="#000000" font-family="sans-serif" font-size="12" font-style="italic" lengthAdjust="spacing" textLength="44" x="858" y="180.3633">&#171;Entity&#187;</text><text fill="#000000" font-family="sans-serif" font-size="14" lengthAdjust="spacing" textLength="60" x="850" y="195.5801">FloorMap</text><line style="stroke:#181818;stroke-width:0.5;" x1="822" x2="912" y1="203.5469" y2="203.5469"/><line style="stroke:#181818;stroke-width:0.5;" x1="822" x2="912" y1="211.5469" y2="211.5469"/></g><!--class FloorNumber--><g id="elem_FloorNumber"><rect codeLine="18" fill="#F1F1F1" height="55.0469" id="FloorNumber" rx="2.5" ry="2.5" style="stroke:#181818;stroke-width:0.5;" width="114" x="682" y="36.5"/><ellipse cx="697" cy="56.0234" fill="#A4C2E5" rx="11" ry="11" style="stroke:#181818;stroke-width:1.0;"/><path d="M697.6094,58.9609 L699.4531,55.1953 Q698.7656,55.1953 698.5781,55.0703 Q698.1563,54.8203 698.1563,54.3359 Q698.1563,53.9609 698.4219,53.7266 Q698.6875,53.4922 699.2969,53.4922 L701.625,53.4922 Q702.25,53.4922 702.5,53.7266 Q702.7656,53.9609 702.7656,54.3359 Q702.7656,54.7109 702.5,54.9609 Q702.25,55.1953 701.625,55.1953 L701.3438,55.1953 L698.5,61.0234 L696.7188,61.0234 L693.875,55.1953 L693.6406,55.1953 Q693.0156,55.1953 692.75,54.9609 Q692.5,54.7109 692.5,54.3359 Q692.5,53.9609 692.75,53.7266 Q693.0156,53.4922 693.6406,53.4922 L695.9219,53.4922 Q696.5313,53.4922 696.7813,53.7266 Q697.0469,53.9609 697.0469,54.3359 Q697.0469,54.8203 696.6563,55.0703 Q696.4531,55.1953 695.7656,55.1953 L697.6094,58.9609 Z " fill="#000000"/><text fill="#000000" font-family="sans-serif" font-size="12" font-style="italic" lengthAdjust="spacing" textLength="82" x="711" y="52.3633">&#171;ValueObject&#187;</text><text fill="#000000" font-family="sans-serif" font-size="14" lengthAdjust="spacing" textLength="82" x="711" y="67.5801">FloorNumber</text><line style="stroke:#181818;stroke-width:0.5;" x1="683" x2="795" y1="75.5469" y2="75.5469"/><line style="stroke:#181818;stroke-width:0.5;" x1="683" x2="795" y1="83.5469" y2="83.5469"/></g><!--link Building to Floor--><g id="link_Building_Floor"><path codeLine="21" d="M423,29.93 C423,17.3 423,6 423,6 C423,6 855,6 855,6 C855,6 855,24.93 855,24.93 " fill="none" id="Building-to-Floor" style="stroke:#181818;stroke-width:1.0;"/><polygon fill="#181818" points="855,29.93,859,20.93,855,24.93,851,20.93,855,29.93" style="stroke:#181818;stroke-width:1.0;"/><text fill="#000000" font-family="sans-serif" font-size="13" lengthAdjust="spacing" textLength="7" x="415.2781" y="19.2351">1</text><text fill="#000000" font-family="sans-serif" font-size="13" lengthAdjust="spacing" textLength="5" x="847.0094" y="19.2351">*</text></g><!--link Building to BuildingDescription--><g id="link_Building_BuildingDescription"><path codeLine="22" d="M381.76,53 C294.69,53 100,53 100,53 C100,53 100,159.21 100,159.21 " fill="none" id="Building-to-BuildingDescription" style="stroke:#181818;stroke-width:1.0;"/><polygon fill="#181818" points="100,164.21,104,155.21,100,159.21,96,155.21,100,164.21" style="stroke:#181818;stroke-width:1.0;"/><text fill="#000000" font-family="sans-serif" font-size="13" lengthAdjust="spacing" textLength="5" x="368.9688" y="47.5686">*</text><text fill="#000000" font-family="sans-serif" font-size="13" lengthAdjust="spacing" textLength="22" x="75.3188" y="153.5566">0..1</text></g><!--link Building to BuildingName--><g id="link_Building_BuildingName"><path codeLine="23" d="M381.87,76 C336.85,76 271,76 271,76 C271,76 271,159.22 271,159.22 " fill="none" id="Building-to-BuildingName" style="stroke:#181818;stroke-width:1.0;"/><polygon fill="#181818" points="271,164.22,275,155.22,271,159.22,267,155.22,271,164.22" style="stroke:#181818;stroke-width:1.0;"/><text fill="#000000" font-family="sans-serif" font-size="13" lengthAdjust="spacing" textLength="7" x="366.9203" y="74.6654">1</text><text fill="#000000" font-family="sans-serif" font-size="13" lengthAdjust="spacing" textLength="7" x="263.1469" y="153.569">1</text></g><!--link Building to BuildingSize--><g id="link_Building_BuildingSize"><path codeLine="24" d="M464.23,64 C508.02,64 571,64 571,64 C571,64 571,159.23 571,159.23 " fill="none" id="Building-to-BuildingSize" style="stroke:#181818;stroke-width:1.0;"/><polygon fill="#181818" points="571,164.23,575,155.23,571,159.23,567,155.23,571,164.23" style="stroke:#181818;stroke-width:1.0;"/><text fill="#000000" font-family="sans-serif" font-size="13" lengthAdjust="spacing" textLength="5" x="472.0194" y="60.5279">*</text><text fill="#000000" font-family="sans-serif" font-size="13" lengthAdjust="spacing" textLength="7" x="563.1469" y="153.5814">1</text></g><!--link Building to BuildingCode--><g id="link_Building_BuildingCode"><path codeLine="25" d="M423,98.3 C423,98.3 423,152.6 423,152.6 " fill="none" id="Building-to-BuildingCode" style="stroke:#181818;stroke-width:1.0;"/><polygon fill="#181818" points="423,157.6,427,148.6,423,152.6,419,148.6,423,157.6" style="stroke:#181818;stroke-width:1.0;"/><text fill="#000000" font-family="sans-serif" font-size="13" lengthAdjust="spacing" textLength="7" x="415.3109" y="118.2064">1</text><text fill="#000000" font-family="sans-serif" font-size="13" lengthAdjust="spacing" textLength="7" x="415.3109" y="147.2249">1</text></g><!--link Floor to FloorMap--><g id="link_Floor_FloorMap"><path codeLine="28" d="M867,98.3 C867,98.3 867,159.49 867,159.49 " fill="none" id="Floor-to-FloorMap" style="stroke:#181818;stroke-width:1.0;"/><polygon fill="#181818" points="867,164.49,871,155.49,867,159.49,863,155.49,867,164.49" style="stroke:#181818;stroke-width:1.0;"/><text fill="#000000" font-family="sans-serif" font-size="13" lengthAdjust="spacing" textLength="7" x="859.3109" y="118.2064">1</text><text fill="#000000" font-family="sans-serif" font-size="13" lengthAdjust="spacing" textLength="7" x="859.1469" y="153.9048">1</text></g><!--reverse link FloorNumber to Floor--><g id="link_FloorNumber_Floor"><path codeLine="29" d="M801.26,64 C801.26,64 830.73,64 830.73,64 " fill="none" id="FloorNumber-backto-Floor" style="stroke:#181818;stroke-width:1.0;"/><polygon fill="#181818" points="796.26,64,805.26,68,801.26,64,805.26,60,796.26,64" style="stroke:#181818;stroke-width:1.0;"/><text fill="#000000" font-family="sans-serif" font-size="13" lengthAdjust="spacing" textLength="7" x="804.0449" y="60.9022">1</text><text fill="#000000" font-family="sans-serif" font-size="13" lengthAdjust="spacing" textLength="5" x="818.0972" y="60.3974">*</text></g><!--link Floor to FloorDescription--><g id="link_Floor_FloorDescription"><path codeLine="30" d="M879,29.61 C879,22.95 879,18 879,18 C879,18 1151,18 1151,18 C1151,18 1151,31.44 1151,31.44 " fill="none" id="Floor-to-FloorDescription" style="stroke:#181818;stroke-width:1.0;"/><polygon fill="#181818" points="1151,36.44,1155,27.44,1151,31.44,1147,27.44,1151,36.44" style="stroke:#181818;stroke-width:1.0;"/><text fill="#000000" font-family="sans-serif" font-size="13" lengthAdjust="spacing" textLength="5" x="875.8703" y="19.2368">*</text><text fill="#000000" font-family="sans-serif" font-size="13" lengthAdjust="spacing" textLength="7" x="1143.1469" y="25.8426">1</text></g><!--link Floor to FloorId--><g id="link_Floor_FloorId"><path codeLine="31" d="M903.11,64 C903.11,64 932.62,64 932.62,64 " fill="none" id="Floor-to-FloorId" style="stroke:#181818;stroke-width:1.0;"/><polygon fill="#181818" points="937.62,64,928.62,60,932.62,64,928.62,68,937.62,64" style="stroke:#181818;stroke-width:1.0;"/><text fill="#000000" font-family="sans-serif" font-size="13" lengthAdjust="spacing" textLength="7" x="910.9082" y="60.3974">1</text><text fill="#000000" font-family="sans-serif" font-size="13" lengthAdjust="spacing" textLength="7" x="923.076" y="60.8762">1</text></g><!--SRC=[bP9TIyCm58RlyoiEsOqEEzoS7uLHS5-m2pTGy3vhmuocIKqJOOh_tQIbNRQgfNTDt_SvEUUyoT-Oo8WYAN0cgDvd5AJIBn8Xf6YiYTXn2hshcxlHxV8BnPpaEKmDumaJEu3911wbr115xdCXDDDxUpZnpMaUAvPf9aM1d7rSzEx7iz7Y-XoU2JTqitsrTpN1DKbfDs8cavgGodPFJm4d6i7U3MtIJ-opzRxleyNCns4u3Ql5BBcKgcqhXMcLTE-o03llig0UI0P_zh8swPQgzh7hsF4G1n7kunBt_lTnO8NBmM28Vml_k89rUZONTQEIfxje_kDTyFRDbWauEIdrQlnAiONDGIX7zxI3vFTTLuKWWjgnIX3w0G00]--></g></svg>
