<?xml version="1.0" encoding="us-ascii" standalone="no"?><svg xmlns="http://www.w3.org/2000/svg" xmlns:xlink="http://www.w3.org/1999/xlink" contentStyleType="text/css" height="246.84px" preserveAspectRatio="none" style="width:663px;height:246px;background:#FFFFFF;" version="1.1" viewBox="0 0 663 246" width="663.51px" zoomAndPan="magnify"><defs/><g><g id="cluster_##2"><rect fill="#464D77" height="171.615" rx="1.275" ry="1.275" style="stroke:#181818;stroke-width:0.51;" width="237.15" x="3.57" y="3.57"/></g><g id="cluster_##11"><rect fill="#96A377" height="116.28" rx="1.275" ry="1.275" style="stroke:#181818;stroke-width:0.51;" width="407.49" x="252.96" y="127.5"/></g><!--class Robot--><g id="elem_Robot"><rect codeLine="6" fill="#F1F1F1" height="34.9111" id="Robot" rx="1.275" ry="1.275" style="stroke:#181818;stroke-width:0.255;" width="36.72" x="132.6" y="70.38"/><ellipse cx="140.25" cy="83.7555" fill="#ADD1B2" rx="5.61" ry="5.61" style="stroke:#181818;stroke-width:0.51;"/><path d="M141.6605,81.6518 Q141.7402,81.5402 141.8358,81.4845 Q141.9314,81.4287 142.043,81.4287 Q142.2342,81.4287 142.3538,81.5641 Q142.4733,81.6916 142.4733,82.0024 L142.4733,82.7435 Q142.4733,83.0543 142.3538,83.1898 Q142.2342,83.3252 142.043,83.3252 Q141.8677,83.3252 141.7641,83.2216 Q141.6605,83.126 141.6047,82.863 Q141.5808,82.6798 141.4852,82.5841 Q141.3178,82.3929 141.007,82.2813 Q140.6963,82.1698 140.3775,82.1698 Q139.987,82.1698 139.6603,82.3371 Q139.3416,82.5045 139.0866,82.887 Q138.8395,83.2695 138.8395,83.7954 L138.8395,84.3532 Q138.8395,84.9827 139.2938,85.4051 Q139.748,85.8195 140.5608,85.8195 Q141.0389,85.8195 141.3736,85.692 Q141.5728,85.6123 141.788,85.3891 Q141.9234,85.2537 141.9952,85.2138 Q142.0748,85.174 142.1784,85.174 Q142.3458,85.174 142.4733,85.3095 Q142.6088,85.437 142.6088,85.6123 Q142.6088,85.7876 142.4334,85.9948 Q142.1784,86.2896 141.772,86.457 Q141.2222,86.688 140.5608,86.688 Q139.7878,86.688 139.1742,86.3693 Q138.6722,86.1143 138.3216,85.5724 Q137.9709,85.0226 137.9709,84.3691 L137.9709,83.7795 Q137.9709,83.1021 138.2817,82.5204 Q138.6005,81.9307 139.1583,81.6199 Q139.7161,81.3012 140.3456,81.3012 Q140.7202,81.3012 141.0469,81.3888 Q141.3816,81.4685 141.6605,81.6518 Z " fill="#000000"/><text fill="#000000" font-family="sans-serif" font-size="6.12" font-style="italic" lengthAdjust="spacing" textLength="20.4" x="147.39" y="78.4703">&#171;Root&#187;</text><text fill="#000000" font-family="sans-serif" font-size="6.12" font-style="italic" lengthAdjust="spacing" textLength="22.44" x="146.37" y="85.3075">&#171;Entity&#187;</text><text fill="#000000" font-family="sans-serif" font-size="7.14" lengthAdjust="spacing" textLength="19.38" x="147.9" y="93.068">Robot</text><line style="stroke:#181818;stroke-width:0.255;" x1="133.11" x2="168.81" y1="97.1311" y2="97.1311"/><line style="stroke:#181818;stroke-width:0.255;" x1="133.11" x2="168.81" y1="101.2111" y2="101.2111"/></g><!--class Drone--><g id="elem_Drone"><rect codeLine="7" fill="#F1F1F1" height="28.0739" id="Drone" rx="1.275" ry="1.275" style="stroke:#181818;stroke-width:0.255;" width="36.72" x="164.73" y="11.73"/><ellipse cx="172.38" cy="21.687" fill="#ADD1B2" rx="5.61" ry="5.61" style="stroke:#181818;stroke-width:0.51;"/><path d="M173.7905,19.5832 Q173.8702,19.4716 173.9658,19.4159 Q174.0614,19.3601 174.173,19.3601 Q174.3642,19.3601 174.4838,19.4955 Q174.6033,19.623 174.6033,19.9338 L174.6033,20.6749 Q174.6033,20.9857 174.4838,21.1212 Q174.3642,21.2566 174.173,21.2566 Q173.9977,21.2566 173.8941,21.153 Q173.7905,21.0574 173.7347,20.7945 Q173.7108,20.6112 173.6152,20.5155 Q173.4478,20.3243 173.137,20.2127 Q172.8263,20.1012 172.5075,20.1012 Q172.117,20.1012 171.7903,20.2685 Q171.4716,20.4359 171.2166,20.8184 Q170.9695,21.2009 170.9695,21.7268 L170.9695,22.2846 Q170.9695,22.9141 171.4238,23.3365 Q171.878,23.7509 172.6908,23.7509 Q173.1689,23.7509 173.5036,23.6234 Q173.7028,23.5437 173.918,23.3205 Q174.0534,23.1851 174.1252,23.1452 Q174.2048,23.1054 174.3084,23.1054 Q174.4758,23.1054 174.6033,23.2409 Q174.7388,23.3684 174.7388,23.5437 Q174.7388,23.719 174.5634,23.9262 Q174.3084,24.221 173.902,24.3884 Q173.3522,24.6195 172.6908,24.6195 Q171.9178,24.6195 171.3042,24.3007 Q170.8022,24.0457 170.4516,23.5038 Q170.1009,22.954 170.1009,22.3005 L170.1009,21.7109 Q170.1009,21.0335 170.4117,20.4518 Q170.7305,19.8621 171.2883,19.5513 Q171.8461,19.2326 172.4756,19.2326 Q172.8502,19.2326 173.1769,19.3202 Q173.5116,19.3999 173.7905,19.5832 Z " fill="#000000"/><text fill="#000000" font-family="sans-serif" font-size="6.12" font-style="italic" lengthAdjust="spacing" textLength="22.44" x="178.5" y="19.8203">&#171;Entity&#187;</text><text fill="#000000" font-family="sans-serif" font-size="7.14" lengthAdjust="spacing" textLength="19.89" x="179.775" y="27.5808">Drone</text><line style="stroke:#181818;stroke-width:0.255;" x1="165.24" x2="200.94" y1="31.6439" y2="31.6439"/><line style="stroke:#181818;stroke-width:0.255;" x1="165.24" x2="200.94" y1="35.7239" y2="35.7239"/></g><!--class MobileRobot--><g id="elem_MobileRobot"><rect codeLine="8" fill="#F1F1F1" height="28.0739" id="MobileRobot" rx="1.275" ry="1.275" style="stroke:#181818;stroke-width:0.255;" width="56.61" x="90.015" y="11.73"/><ellipse cx="97.665" cy="21.687" fill="#ADD1B2" rx="5.61" ry="5.61" style="stroke:#181818;stroke-width:0.51;"/><path d="M99.0755,19.5832 Q99.1552,19.4716 99.2508,19.4159 Q99.3464,19.3601 99.458,19.3601 Q99.6492,19.3601 99.7688,19.4955 Q99.8883,19.623 99.8883,19.9338 L99.8883,20.6749 Q99.8883,20.9857 99.7688,21.1212 Q99.6492,21.2566 99.458,21.2566 Q99.2827,21.2566 99.1791,21.153 Q99.0755,21.0574 99.0197,20.7945 Q98.9958,20.6112 98.9002,20.5155 Q98.7328,20.3243 98.422,20.2127 Q98.1113,20.1012 97.7925,20.1012 Q97.402,20.1012 97.0753,20.2685 Q96.7566,20.4359 96.5016,20.8184 Q96.2545,21.2009 96.2545,21.7268 L96.2545,22.2846 Q96.2545,22.9141 96.7088,23.3365 Q97.163,23.7509 97.9758,23.7509 Q98.4539,23.7509 98.7886,23.6234 Q98.9878,23.5437 99.203,23.3205 Q99.3384,23.1851 99.4102,23.1452 Q99.4898,23.1054 99.5934,23.1054 Q99.7608,23.1054 99.8883,23.2409 Q100.0238,23.3684 100.0238,23.5437 Q100.0238,23.719 99.8484,23.9262 Q99.5934,24.221 99.187,24.3884 Q98.6372,24.6195 97.9758,24.6195 Q97.2028,24.6195 96.5892,24.3007 Q96.0872,24.0457 95.7366,23.5038 Q95.3859,22.954 95.3859,22.3005 L95.3859,21.7109 Q95.3859,21.0335 95.6967,20.4518 Q96.0155,19.8621 96.5733,19.5513 Q97.1311,19.2326 97.7606,19.2326 Q98.1352,19.2326 98.4619,19.3202 Q98.7966,19.3999 99.0755,19.5832 Z " fill="#000000"/><text fill="#000000" font-family="sans-serif" font-size="6.12" font-style="italic" lengthAdjust="spacing" textLength="22.44" x="113.73" y="19.8203">&#171;Entity&#187;</text><text fill="#000000" font-family="sans-serif" font-size="7.14" lengthAdjust="spacing" textLength="40.29" x="104.805" y="27.5808">MobileRobot</text><line style="stroke:#181818;stroke-width:0.255;" x1="90.525" x2="146.115" y1="31.6439" y2="31.6439"/><line style="stroke:#181818;stroke-width:0.255;" x1="90.525" x2="146.115" y1="35.7239" y2="35.7239"/></g><!--class Code--><g id="elem_Code"><rect codeLine="10" fill="#F1F1F1" height="34.9111" id="Code" rx="1.275" ry="1.275" style="stroke:#181818;stroke-width:0.255;" width="56.1" x="58.65" y="70.38"/><ellipse cx="66.3" cy="83.7555" fill="#FFA500" rx="5.61" ry="5.61" style="stroke:#181818;stroke-width:0.51;"/><path d="M66.6108,85.2537 L67.5511,83.3332 Q67.2005,83.3332 67.1048,83.2695 Q66.8897,83.142 66.8897,82.8949 Q66.8897,82.7037 67.0252,82.5841 Q67.1606,82.4646 67.4714,82.4646 L68.6588,82.4646 Q68.9775,82.4646 69.105,82.5841 Q69.2405,82.7037 69.2405,82.8949 Q69.2405,83.0862 69.105,83.2137 Q68.9775,83.3332 68.6588,83.3332 L68.5153,83.3332 L67.065,86.3055 L66.1566,86.3055 L64.7063,83.3332 L64.5867,83.3332 Q64.268,83.3332 64.1325,83.2137 Q64.005,83.0862 64.005,82.8949 Q64.005,82.7037 64.1325,82.5841 Q64.268,82.4646 64.5867,82.4646 L65.7502,82.4646 Q66.0609,82.4646 66.1884,82.5841 Q66.3239,82.7037 66.3239,82.8949 Q66.3239,83.142 66.1247,83.2695 Q66.0211,83.3332 65.6705,83.3332 L66.6108,85.2537 Z " fill="#000000"/><text fill="#000000" font-family="sans-serif" font-size="6.12" font-style="italic" lengthAdjust="spacing" textLength="41.82" x="72.42" y="78.4703">&#171;ValueObject&#187;</text><text fill="#000000" font-family="sans-serif" font-size="6.12" font-style="italic" lengthAdjust="spacing" textLength="26.52" x="80.07" y="85.3075">&#171;unique&#187;</text><text fill="#000000" font-family="sans-serif" font-size="7.14" lengthAdjust="spacing" textLength="17.34" x="84.66" y="93.068">Code</text><line style="stroke:#181818;stroke-width:0.255;" x1="59.16" x2="114.24" y1="97.1311" y2="97.1311"/><line style="stroke:#181818;stroke-width:0.255;" x1="59.16" x2="114.24" y1="101.2111" y2="101.2111"/></g><!--class Nickname--><g id="elem_Nickname"><rect codeLine="11" fill="#F1F1F1" height="28.0739" id="Nickname" rx="1.275" ry="1.275" style="stroke:#181818;stroke-width:0.255;" width="56.1" x="11.73" y="138.975"/><ellipse cx="19.38" cy="148.932" fill="#A4C2E5" rx="5.61" ry="5.61" style="stroke:#181818;stroke-width:0.51;"/><path d="M19.6908,150.4301 L20.6311,148.5096 Q20.2805,148.5096 20.1848,148.4459 Q19.9697,148.3184 19.9697,148.0713 Q19.9697,147.8801 20.1052,147.7605 Q20.2406,147.641 20.5514,147.641 L21.7388,147.641 Q22.0575,147.641 22.185,147.7605 Q22.3205,147.8801 22.3205,148.0713 Q22.3205,148.2626 22.185,148.3901 Q22.0575,148.5096 21.7388,148.5096 L21.5953,148.5096 L20.145,151.482 L19.2366,151.482 L17.7863,148.5096 L17.6667,148.5096 Q17.348,148.5096 17.2125,148.3901 Q17.085,148.2626 17.085,148.0713 Q17.085,147.8801 17.2125,147.7605 Q17.348,147.641 17.6667,147.641 L18.8302,147.641 Q19.1409,147.641 19.2684,147.7605 Q19.4039,147.8801 19.4039,148.0713 Q19.4039,148.3184 19.2047,148.4459 Q19.1011,148.5096 18.7505,148.5096 L19.6908,150.4301 Z " fill="#000000"/><text fill="#000000" font-family="sans-serif" font-size="6.12" font-style="italic" lengthAdjust="spacing" textLength="41.82" x="25.5" y="147.0653">&#171;ValueObject&#187;</text><text fill="#000000" font-family="sans-serif" font-size="7.14" lengthAdjust="spacing" textLength="31.11" x="30.855" y="154.8258">Nickname</text><line style="stroke:#181818;stroke-width:0.255;" x1="12.24" x2="67.32" y1="158.8889" y2="158.8889"/><line style="stroke:#181818;stroke-width:0.255;" x1="12.24" x2="67.32" y1="162.9689" y2="162.9689"/></g><!--class OperationStatus--><g id="elem_OperationStatus"><rect codeLine="12" fill="#F1F1F1" height="28.0739" id="OperationStatus" rx="1.275" ry="1.275" style="stroke:#181818;stroke-width:0.255;" width="68.85" x="85.935" y="138.975"/><ellipse cx="93.585" cy="148.932" fill="#A4C2E5" rx="5.61" ry="5.61" style="stroke:#181818;stroke-width:0.51;"/><path d="M93.8958,150.4301 L94.8361,148.5096 Q94.4855,148.5096 94.3898,148.4459 Q94.1747,148.3184 94.1747,148.0713 Q94.1747,147.8801 94.3102,147.7605 Q94.4456,147.641 94.7564,147.641 L95.9438,147.641 Q96.2625,147.641 96.39,147.7605 Q96.5255,147.8801 96.5255,148.0713 Q96.5255,148.2626 96.39,148.3901 Q96.2625,148.5096 95.9438,148.5096 L95.8003,148.5096 L94.35,151.482 L93.4416,151.482 L91.9913,148.5096 L91.8717,148.5096 Q91.553,148.5096 91.4175,148.3901 Q91.29,148.2626 91.29,148.0713 Q91.29,147.8801 91.4175,147.7605 Q91.553,147.641 91.8717,147.641 L93.0352,147.641 Q93.3459,147.641 93.4734,147.7605 Q93.6089,147.8801 93.6089,148.0713 Q93.6089,148.3184 93.4097,148.4459 Q93.3061,148.5096 92.9555,148.5096 L93.8958,150.4301 Z " fill="#000000"/><text fill="#000000" font-family="sans-serif" font-size="6.12" font-style="italic" lengthAdjust="spacing" textLength="41.82" x="106.08" y="147.0653">&#171;ValueObject&#187;</text><text fill="#000000" font-family="sans-serif" font-size="7.14" lengthAdjust="spacing" textLength="52.53" x="100.725" y="154.8258">OperationStatus</text><line style="stroke:#181818;stroke-width:0.255;" x1="86.445" x2="154.275" y1="158.8889" y2="158.8889"/><line style="stroke:#181818;stroke-width:0.255;" x1="86.445" x2="154.275" y1="162.9689" y2="162.9689"/></g><!--class SerialNumber--><g id="elem_SerialNumber"><rect codeLine="13" fill="#F1F1F1" height="28.0739" id="SerialNumber" rx="1.275" ry="1.275" style="stroke:#181818;stroke-width:0.255;" width="59.67" x="172.635" y="138.975"/><ellipse cx="180.285" cy="148.932" fill="#A4C2E5" rx="5.61" ry="5.61" style="stroke:#181818;stroke-width:0.51;"/><path d="M180.5958,150.4301 L181.5361,148.5096 Q181.1855,148.5096 181.0898,148.4459 Q180.8747,148.3184 180.8747,148.0713 Q180.8747,147.8801 181.0102,147.7605 Q181.1456,147.641 181.4564,147.641 L182.6438,147.641 Q182.9625,147.641 183.09,147.7605 Q183.2255,147.8801 183.2255,148.0713 Q183.2255,148.2626 183.09,148.3901 Q182.9625,148.5096 182.6438,148.5096 L182.5003,148.5096 L181.05,151.482 L180.1416,151.482 L178.6913,148.5096 L178.5717,148.5096 Q178.253,148.5096 178.1175,148.3901 Q177.99,148.2626 177.99,148.0713 Q177.99,147.8801 178.1175,147.7605 Q178.253,147.641 178.5717,147.641 L179.7352,147.641 Q180.0459,147.641 180.1734,147.7605 Q180.3089,147.8801 180.3089,148.0713 Q180.3089,148.3184 180.1097,148.4459 Q180.0061,148.5096 179.6555,148.5096 L180.5958,150.4301 Z " fill="#000000"/><text fill="#000000" font-family="sans-serif" font-size="6.12" font-style="italic" lengthAdjust="spacing" textLength="41.82" x="188.19" y="147.0653">&#171;ValueObject&#187;</text><text fill="#000000" font-family="sans-serif" font-size="7.14" lengthAdjust="spacing" textLength="43.35" x="187.425" y="154.8258">SerialNumber</text><line style="stroke:#181818;stroke-width:0.255;" x1="173.145" x2="231.795" y1="158.8889" y2="158.8889"/><line style="stroke:#181818;stroke-width:0.255;" x1="173.145" x2="231.795" y1="162.9689" y2="162.9689"/></g><!--class RobotType--><g id="elem_RobotType"><rect codeLine="17" fill="#F1F1F1" height="34.9111" id="RobotType" rx="1.275" ry="1.275" style="stroke:#181818;stroke-width:0.255;" width="52.02" x="378.93" y="135.66"/><ellipse cx="386.58" cy="149.0355" fill="#ADD1B2" rx="5.61" ry="5.61" style="stroke:#181818;stroke-width:0.51;"/><path d="M387.9905,146.9318 Q388.0702,146.8202 388.1658,146.7645 Q388.2614,146.7087 388.373,146.7087 Q388.5642,146.7087 388.6838,146.8441 Q388.8033,146.9716 388.8033,147.2824 L388.8033,148.0235 Q388.8033,148.3343 388.6838,148.4698 Q388.5642,148.6052 388.373,148.6052 Q388.1977,148.6052 388.0941,148.5016 Q387.9905,148.406 387.9347,148.143 Q387.9108,147.9598 387.8152,147.8641 Q387.6478,147.6729 387.337,147.5613 Q387.0263,147.4498 386.7075,147.4498 Q386.317,147.4498 385.9903,147.6171 Q385.6716,147.7845 385.4166,148.167 Q385.1695,148.5495 385.1695,149.0754 L385.1695,149.6332 Q385.1695,150.2627 385.6238,150.6851 Q386.078,151.0995 386.8908,151.0995 Q387.3689,151.0995 387.7036,150.972 Q387.9028,150.8923 388.118,150.6691 Q388.2534,150.5337 388.3252,150.4938 Q388.4048,150.454 388.5084,150.454 Q388.6758,150.454 388.8033,150.5895 Q388.9388,150.717 388.9388,150.8923 Q388.9388,151.0676 388.7634,151.2748 Q388.5084,151.5696 388.102,151.737 Q387.5522,151.968 386.8908,151.968 Q386.1178,151.968 385.5042,151.6493 Q385.0022,151.3943 384.6516,150.8524 Q384.3009,150.3026 384.3009,149.6491 L384.3009,149.0595 Q384.3009,148.3821 384.6117,147.8004 Q384.9305,147.2107 385.4883,146.8999 Q386.0461,146.5812 386.6756,146.5812 Q387.0502,146.5812 387.3769,146.6688 Q387.7116,146.7485 387.9905,146.9318 Z " fill="#000000"/><text fill="#000000" font-family="sans-serif" font-size="6.12" font-style="italic" lengthAdjust="spacing" textLength="20.4" x="401.37" y="143.7503">&#171;Root&#187;</text><text fill="#000000" font-family="sans-serif" font-size="6.12" font-style="italic" lengthAdjust="spacing" textLength="22.44" x="400.35" y="150.5875">&#171;Entity&#187;</text><text fill="#000000" font-family="sans-serif" font-size="7.14" lengthAdjust="spacing" textLength="35.7" x="393.72" y="158.348">RobotType</text><line style="stroke:#181818;stroke-width:0.255;" x1="379.44" x2="430.44" y1="162.4111" y2="162.4111"/><line style="stroke:#181818;stroke-width:0.255;" x1="379.44" x2="430.44" y1="166.4911" y2="166.4911"/></g><!--class AvailableTask--><g id="elem_AvailableTask"><rect codeLine="18" fill="#F1F1F1" height="28.0739" id="AvailableTask" rx="1.275" ry="1.275" style="stroke:#181818;stroke-width:0.255;" width="61.2" x="261.12" y="204.255"/><ellipse cx="268.77" cy="214.212" fill="#A4C2E5" rx="5.61" ry="5.61" style="stroke:#181818;stroke-width:0.51;"/><path d="M269.0808,215.7101 L270.0211,213.7896 Q269.6705,213.7896 269.5748,213.7259 Q269.3597,213.5984 269.3597,213.3513 Q269.3597,213.1601 269.4952,213.0405 Q269.6306,212.921 269.9414,212.921 L271.1288,212.921 Q271.4475,212.921 271.575,213.0405 Q271.7105,213.1601 271.7105,213.3513 Q271.7105,213.5426 271.575,213.6701 Q271.4475,213.7896 271.1288,213.7896 L270.9853,213.7896 L269.535,216.762 L268.6266,216.762 L267.1763,213.7896 L267.0567,213.7896 Q266.738,213.7896 266.6025,213.6701 Q266.475,213.5426 266.475,213.3513 Q266.475,213.1601 266.6025,213.0405 Q266.738,212.921 267.0567,212.921 L268.2202,212.921 Q268.5309,212.921 268.6584,213.0405 Q268.7939,213.1601 268.7939,213.3513 Q268.7939,213.5984 268.5947,213.7259 Q268.4911,213.7896 268.1405,213.7896 L269.0808,215.7101 Z " fill="#000000"/><text fill="#000000" font-family="sans-serif" font-size="6.12" font-style="italic" lengthAdjust="spacing" textLength="41.82" x="277.44" y="212.3453">&#171;ValueObject&#187;</text><text fill="#000000" font-family="sans-serif" font-size="7.14" lengthAdjust="spacing" textLength="44.88" x="275.91" y="220.1058">AvailableTask</text><line style="stroke:#181818;stroke-width:0.255;" x1="261.63" x2="321.81" y1="224.1689" y2="224.1689"/><line style="stroke:#181818;stroke-width:0.255;" x1="261.63" x2="321.81" y1="228.2489" y2="228.2489"/></g><!--class RobotModel--><g id="elem_RobotModel"><rect codeLine="19" fill="#F1F1F1" height="28.0739" id="RobotModel" rx="1.275" ry="1.275" style="stroke:#181818;stroke-width:0.255;" width="56.1" x="340.17" y="204.255"/><ellipse cx="347.82" cy="214.212" fill="#A4C2E5" rx="5.61" ry="5.61" style="stroke:#181818;stroke-width:0.51;"/><path d="M348.1308,215.7101 L349.0711,213.7896 Q348.7205,213.7896 348.6248,213.7259 Q348.4097,213.5984 348.4097,213.3513 Q348.4097,213.1601 348.5452,213.0405 Q348.6806,212.921 348.9914,212.921 L350.1788,212.921 Q350.4975,212.921 350.625,213.0405 Q350.7605,213.1601 350.7605,213.3513 Q350.7605,213.5426 350.625,213.6701 Q350.4975,213.7896 350.1788,213.7896 L350.0353,213.7896 L348.585,216.762 L347.6766,216.762 L346.2263,213.7896 L346.1067,213.7896 Q345.788,213.7896 345.6525,213.6701 Q345.525,213.5426 345.525,213.3513 Q345.525,213.1601 345.6525,213.0405 Q345.788,212.921 346.1067,212.921 L347.2702,212.921 Q347.5809,212.921 347.7084,213.0405 Q347.8439,213.1601 347.8439,213.3513 Q347.8439,213.5984 347.6447,213.7259 Q347.5411,213.7896 347.1905,213.7896 L348.1308,215.7101 Z " fill="#000000"/><text fill="#000000" font-family="sans-serif" font-size="6.12" font-style="italic" lengthAdjust="spacing" textLength="41.82" x="353.94" y="212.3453">&#171;ValueObject&#187;</text><text fill="#000000" font-family="sans-serif" font-size="7.14" lengthAdjust="spacing" textLength="38.76" x="355.47" y="220.1058">RobotModel</text><line style="stroke:#181818;stroke-width:0.255;" x1="340.68" x2="395.76" y1="224.1689" y2="224.1689"/><line style="stroke:#181818;stroke-width:0.255;" x1="340.68" x2="395.76" y1="228.2489" y2="228.2489"/></g><!--class RobotBrand--><g id="elem_RobotBrand"><rect codeLine="20" fill="#F1F1F1" height="28.0739" id="RobotBrand" rx="1.275" ry="1.275" style="stroke:#181818;stroke-width:0.255;" width="56.1" x="414.12" y="204.255"/><ellipse cx="421.77" cy="214.212" fill="#A4C2E5" rx="5.61" ry="5.61" style="stroke:#181818;stroke-width:0.51;"/><path d="M422.0808,215.7101 L423.0211,213.7896 Q422.6705,213.7896 422.5748,213.7259 Q422.3597,213.5984 422.3597,213.3513 Q422.3597,213.1601 422.4952,213.0405 Q422.6306,212.921 422.9414,212.921 L424.1288,212.921 Q424.4475,212.921 424.575,213.0405 Q424.7105,213.1601 424.7105,213.3513 Q424.7105,213.5426 424.575,213.6701 Q424.4475,213.7896 424.1288,213.7896 L423.9853,213.7896 L422.535,216.762 L421.6266,216.762 L420.1763,213.7896 L420.0567,213.7896 Q419.738,213.7896 419.6025,213.6701 Q419.475,213.5426 419.475,213.3513 Q419.475,213.1601 419.6025,213.0405 Q419.738,212.921 420.0567,212.921 L421.2202,212.921 Q421.5309,212.921 421.6584,213.0405 Q421.7939,213.1601 421.7939,213.3513 Q421.7939,213.5984 421.5947,213.7259 Q421.4911,213.7896 421.1405,213.7896 L422.0808,215.7101 Z " fill="#000000"/><text fill="#000000" font-family="sans-serif" font-size="6.12" font-style="italic" lengthAdjust="spacing" textLength="41.82" x="427.89" y="212.3453">&#171;ValueObject&#187;</text><text fill="#000000" font-family="sans-serif" font-size="7.14" lengthAdjust="spacing" textLength="38.76" x="429.42" y="220.1058">RobotBrand</text><line style="stroke:#181818;stroke-width:0.255;" x1="414.63" x2="469.71" y1="224.1689" y2="224.1689"/><line style="stroke:#181818;stroke-width:0.255;" x1="414.63" x2="469.71" y1="228.2489" y2="228.2489"/></g><!--class RobotTypeId--><g id="elem_RobotTypeId"><rect codeLine="21" fill="#F1F1F1" height="34.9111" id="RobotTypeId" rx="1.275" ry="1.275" style="stroke:#181818;stroke-width:0.255;" width="57.63" x="488.325" y="200.94"/><ellipse cx="495.975" cy="214.3155" fill="#FFA500" rx="5.61" ry="5.61" style="stroke:#181818;stroke-width:0.51;"/><path d="M496.2858,215.8137 L497.2261,213.8932 Q496.8755,213.8932 496.7798,213.8295 Q496.5647,213.702 496.5647,213.4549 Q496.5647,213.2637 496.7002,213.1441 Q496.8356,213.0246 497.1464,213.0246 L498.3338,213.0246 Q498.6525,213.0246 498.78,213.1441 Q498.9155,213.2637 498.9155,213.4549 Q498.9155,213.6462 498.78,213.7737 Q498.6525,213.8932 498.3338,213.8932 L498.1903,213.8932 L496.74,216.8655 L495.8316,216.8655 L494.3813,213.8932 L494.2617,213.8932 Q493.943,213.8932 493.8075,213.7737 Q493.68,213.6462 493.68,213.4549 Q493.68,213.2637 493.8075,213.1441 Q493.943,213.0246 494.2617,213.0246 L495.4252,213.0246 Q495.7359,213.0246 495.8634,213.1441 Q495.9989,213.2637 495.9989,213.4549 Q495.9989,213.702 495.7997,213.8295 Q495.6961,213.8932 495.3455,213.8932 L496.2858,215.8137 Z " fill="#000000"/><text fill="#000000" font-family="sans-serif" font-size="6.12" font-style="italic" lengthAdjust="spacing" textLength="41.82" x="502.86" y="209.0303">&#171;ValueObject&#187;</text><text fill="#000000" font-family="sans-serif" font-size="6.12" font-style="italic" lengthAdjust="spacing" textLength="26.52" x="510.51" y="215.8675">&#171;unique&#187;</text><text fill="#000000" font-family="sans-serif" font-size="7.14" lengthAdjust="spacing" textLength="41.31" x="503.115" y="223.628">RobotTypeId</text><line style="stroke:#181818;stroke-width:0.255;" x1="488.835" x2="545.445" y1="227.6911" y2="227.6911"/><line style="stroke:#181818;stroke-width:0.255;" x1="488.835" x2="545.445" y1="231.7711" y2="231.7711"/></g><!--class RobotTypeDescription--><g id="elem_RobotTypeDescription"><rect codeLine="22" fill="#F1F1F1" height="28.0739" id="RobotTypeDescription" rx="1.275" ry="1.275" style="stroke:#181818;stroke-width:0.255;" width="88.23" x="563.805" y="204.255"/><ellipse cx="571.455" cy="214.212" fill="#A4C2E5" rx="5.61" ry="5.61" style="stroke:#181818;stroke-width:0.51;"/><path d="M571.7658,215.7101 L572.7061,213.7896 Q572.3555,213.7896 572.2598,213.7259 Q572.0447,213.5984 572.0447,213.3513 Q572.0447,213.1601 572.1802,213.0405 Q572.3156,212.921 572.6264,212.921 L573.8138,212.921 Q574.1325,212.921 574.26,213.0405 Q574.3955,213.1601 574.3955,213.3513 Q574.3955,213.5426 574.26,213.6701 Q574.1325,213.7896 573.8138,213.7896 L573.6703,213.7896 L572.22,216.762 L571.3116,216.762 L569.8613,213.7896 L569.7417,213.7896 Q569.423,213.7896 569.2875,213.6701 Q569.16,213.5426 569.16,213.3513 Q569.16,213.1601 569.2875,213.0405 Q569.423,212.921 569.7417,212.921 L570.9052,212.921 Q571.2159,212.921 571.3434,213.0405 Q571.4789,213.1601 571.4789,213.3513 Q571.4789,213.5984 571.2797,213.7259 Q571.1761,213.7896 570.8255,213.7896 L571.7658,215.7101 Z " fill="#000000"/><text fill="#000000" font-family="sans-serif" font-size="6.12" font-style="italic" lengthAdjust="spacing" textLength="41.82" x="593.64" y="212.3453">&#171;ValueObject&#187;</text><text fill="#000000" font-family="sans-serif" font-size="7.14" lengthAdjust="spacing" textLength="71.91" x="578.595" y="220.1058">RobotTypeDescription</text><line style="stroke:#181818;stroke-width:0.255;" x1="564.315" x2="651.525" y1="224.1689" y2="224.1689"/><line style="stroke:#181818;stroke-width:0.255;" x1="564.315" x2="651.525" y1="228.2489" y2="228.2489"/></g><!--link MobileRobot to Robot--><g id="link_MobileRobot_Robot"><path codeLine="25" d="M139.6125,39.8157 C139.6125,39.8157 139.6125,59.9658 139.6125,59.9658 " fill="none" id="MobileRobot-to-Robot" style="stroke:#181818;stroke-width:0.51;"/><polygon fill="none" points="143.1825,59.9658,139.6125,70.1658,136.0425,59.9658,143.1825,59.9658" style="stroke:#181818;stroke-width:0.51;"/></g><!--link Drone to Robot--><g id="link_Drone_Robot"><path codeLine="26" d="M167.025,39.8157 C167.025,39.8157 167.025,59.9658 167.025,59.9658 " fill="none" id="Drone-to-Robot" style="stroke:#181818;stroke-width:0.51;"/><polygon fill="none" points="170.595,59.9658,167.025,70.1658,163.455,59.9658,170.595,59.9658" style="stroke:#181818;stroke-width:0.51;"/></g><!--reverse link Code to Robot--><g id="link_Code_Robot"><path codeLine="27" d="M117.4377,87.72 C117.4377,87.72 132.5949,87.72 132.5949,87.72 " fill="none" id="Code-backto-Robot" style="stroke:#181818;stroke-width:0.51;"/><polygon fill="#181818" points="114.8877,87.72,119.4777,89.76,117.4377,87.72,119.4777,85.68,114.8877,87.72" style="stroke:#181818;stroke-width:0.51;"/><text fill="#000000" font-family="sans-serif" font-size="6.63" lengthAdjust="spacing" textLength="3.57" x="118.9153" y="86.1047">1</text><text fill="#000000" font-family="sans-serif" font-size="6.63" lengthAdjust="spacing" textLength="3.57" x="124.8689" y="85.8493">1</text></g><!--link Robot to RobotType--><g id="link_Robot_RobotType"><path codeLine="28" d="M169.4322,87.72 C227.8731,87.72 404.94,87.72 404.94,87.72 C404.94,87.72 404.94,132.957 404.94,132.957 " fill="none" id="Robot-to-RobotType" style="stroke:#181818;stroke-width:0.51;"/><polygon fill="#181818" points="404.94,135.507,406.98,130.917,404.94,132.957,402.9,130.917,404.94,135.507" style="stroke:#181818;stroke-width:0.51;"/><text fill="#000000" font-family="sans-serif" font-size="6.63" lengthAdjust="spacing" textLength="2.55" x="173.5051" y="85.8493">*</text><text fill="#000000" font-family="sans-serif" font-size="6.63" lengthAdjust="spacing" textLength="3.57" x="401.0186" y="130.2257">1</text></g><!--link Robot to OperationStatus--><g id="link_Robot_OperationStatus"><path codeLine="29" d="M147.39,105.213 C147.39,105.213 147.39,136.4199 147.39,136.4199 " fill="none" id="Robot-to-OperationStatus" style="stroke:#181818;stroke-width:0.51;"/><polygon fill="#181818" points="147.39,138.9699,149.43,134.3799,147.39,136.4199,145.35,134.3799,147.39,138.9699" style="stroke:#181818;stroke-width:0.51;"/><text fill="#000000" font-family="sans-serif" font-size="6.63" lengthAdjust="spacing" textLength="2.55" x="143.8861" y="115.3653">*</text><text fill="#000000" font-family="sans-serif" font-size="6.63" lengthAdjust="spacing" textLength="3.57" x="149.9735" y="133.5715">1</text></g><!--link Robot to Nickname--><g id="link_Robot_Nickname"><path codeLine="30" d="M139.995,105.1875 C139.995,112.9446 139.995,120.36 139.995,120.36 C139.995,120.36 63.24,120.36 63.24,120.36 C63.24,120.36 63.24,136.4199 63.24,136.4199 " fill="none" id="Robot-to-Nickname" style="stroke:#181818;stroke-width:0.51;"/><polygon fill="#181818" points="63.24,138.9699,65.28,134.3799,63.24,136.4199,61.2,134.3799,63.24,138.9699" style="stroke:#181818;stroke-width:0.51;"/><text fill="#000000" font-family="sans-serif" font-size="6.63" lengthAdjust="spacing" textLength="3.57" x="133.9148" y="115.3348">1</text><text fill="#000000" font-family="sans-serif" font-size="6.63" lengthAdjust="spacing" textLength="3.57" x="64.9533" y="133.5715">1</text></g><!--link Robot to SerialNumber--><g id="link_Robot_SerialNumber"><path codeLine="31" d="M162.0525,105.213 C162.0525,124.5522 162.0525,153 162.0525,153 C162.0525,153 169.9116,153 169.9116,153 " fill="none" id="Robot-to-SerialNumber" style="stroke:#181818;stroke-width:0.51;"/><polygon fill="#181818" points="172.4616,153,167.8716,150.96,169.9116,153,167.8716,155.04,172.4616,153" style="stroke:#181818;stroke-width:0.51;"/><text fill="#000000" font-family="sans-serif" font-size="6.63" lengthAdjust="spacing" textLength="3.57" x="160.3149" y="115.3653">1</text><text fill="#000000" font-family="sans-serif" font-size="6.63" lengthAdjust="spacing" textLength="3.57" x="165.0168" y="151.4417">1</text></g><!--link RobotType to RobotModel--><g id="link_RobotType_RobotModel"><path codeLine="33" d="M387.6,170.493 C387.6,170.493 387.6,201.6999 387.6,201.6999 " fill="none" id="RobotType-to-RobotModel" style="stroke:#181818;stroke-width:0.51;"/><polygon fill="#181818" points="387.6,204.2499,389.64,199.6599,387.6,201.6999,385.56,199.6599,387.6,204.2499" style="stroke:#181818;stroke-width:0.51;"/><text fill="#000000" font-family="sans-serif" font-size="6.63" lengthAdjust="spacing" textLength="2.55" x="381.3852" y="180.6453">*</text><text fill="#000000" font-family="sans-serif" font-size="6.63" lengthAdjust="spacing" textLength="3.57" x="388.3188" y="198.8515">1</text></g><!--link RobotType to RobotBrand--><g id="link_RobotType_RobotBrand"><path codeLine="34" d="M422.535,170.493 C422.535,170.493 422.535,201.6999 422.535,201.6999 " fill="none" id="RobotType-to-RobotBrand" style="stroke:#181818;stroke-width:0.51;"/><polygon fill="#181818" points="422.535,204.2499,424.575,199.6599,422.535,201.6999,420.495,199.6599,422.535,204.2499" style="stroke:#181818;stroke-width:0.51;"/><text fill="#000000" font-family="sans-serif" font-size="6.63" lengthAdjust="spacing" textLength="2.55" x="423.198" y="180.6453">*</text><text fill="#000000" font-family="sans-serif" font-size="6.63" lengthAdjust="spacing" textLength="3.57" x="413.7439" y="198.8515">1</text></g><!--link RobotType to AvailableTask--><g id="link_RobotType_AvailableTask"><path codeLine="35" d="M378.8229,153 C345.3873,153 291.72,153 291.72,153 C291.72,153 291.72,201.5673 291.72,201.5673 " fill="none" id="RobotType-to-AvailableTask" style="stroke:#181818;stroke-width:0.51;"/><polygon fill="#181818" points="291.72,204.1173,293.76,199.5273,291.72,201.5673,289.68,199.5273,291.72,204.1173" style="stroke:#181818;stroke-width:0.51;"/><text fill="#000000" font-family="sans-serif" font-size="6.63" lengthAdjust="spacing" textLength="2.55" x="372.2497" y="151.3403">*</text><text fill="#000000" font-family="sans-serif" font-size="6.63" lengthAdjust="spacing" textLength="2.55" x="288.8592" y="198.6865">*</text></g><!--link RobotType to RobotTypeId--><g id="link_RobotType_RobotTypeId"><path codeLine="36" d="M430.9653,159.12 C464.1102,159.12 517.14,159.12 517.14,159.12 C517.14,159.12 517.14,198.2982 517.14,198.2982 " fill="none" id="RobotType-to-RobotTypeId" style="stroke:#181818;stroke-width:0.51;"/><polygon fill="#181818" points="517.14,200.8482,519.18,196.2582,517.14,198.2982,515.1,196.2582,517.14,200.8482" style="stroke:#181818;stroke-width:0.51;"/><text fill="#000000" font-family="sans-serif" font-size="6.63" lengthAdjust="spacing" textLength="3.57" x="435.0499" y="158.3591">1</text><text fill="#000000" font-family="sans-serif" font-size="6.63" lengthAdjust="spacing" textLength="3.57" x="513.2018" y="195.3822">1</text></g><!--link RobotType to RobotTypeDescription--><g id="link_RobotType_RobotTypeDescription"><path codeLine="37" d="M431.0622,147.39 C485.8821,147.39 607.92,147.39 607.92,147.39 C607.92,147.39 607.92,201.5571 607.92,201.5571 " fill="none" id="RobotType-to-RobotTypeDescription" style="stroke:#181818;stroke-width:0.51;"/><polygon fill="#181818" points="607.92,204.1071,609.96,199.5171,607.92,201.5571,605.88,199.5171,607.92,204.1071" style="stroke:#181818;stroke-width:0.51;"/><text fill="#000000" font-family="sans-serif" font-size="6.63" lengthAdjust="spacing" textLength="2.55" x="435.0862" y="144.9063">*</text><text fill="#000000" font-family="sans-serif" font-size="6.63" lengthAdjust="spacing" textLength="3.57" x="603.9149" y="198.6739">1</text></g><!--SRC=[hL9DJuD04BtpApRqe3Pog68Raqg2fOSUsYQsyRx0H5UMNLoM9etwtrrWs_9XRJ5osMNUl9dPUI-D24kmm36YX87S9e2uaA_SC2uU_lWP0WA9sGi5rBE7jZSQVHW1nMcAdhZF9HgFrKMTZfDVfqmIkLK_EiSJd07w2Pbpdr0eQzHndJ3XOScyt5npeIQ0A_ICQGPB_qsDf1jcZBndS2Yx8474SBndzbnxSZEzQr9rzZ81WINXR2MnpDBpI2iG1DD55liWJZ6-_cVnzqFtjh7uTIxkxyjtDvXGx5DOupGwxsr5wRdQFEsG_wZK2JlavwFFmixIxhaUf84WIQxRwVqRsgQVLcPLJLUB5pRL4NDWMjHor55OS1VjcrOPt8zHGS8IQjYfKh34T-Pi0LLBwOaBVHjT2s6EmuKERRXlrfrGpHYqNZKBZpTeBD_u1W00]--></g></svg>