<?xml version="1.0" encoding="UTF-8" standalone="no"?><svg xmlns="http://www.w3.org/2000/svg" xmlns:xlink="http://www.w3.org/1999/xlink" contentStyleType="text/css" height="253px" preserveAspectRatio="none" style="width:648px;height:253px;background:#FFFFFF;" version="1.1" viewBox="0 0 648 253" width="648px" zoomAndPan="magnify"><defs/><g><g id="cluster_##2"><rect fill="#36827F" height="240" rx="2.5" ry="2.5" style="stroke:#181818;stroke-width:1.0;" width="635" x="7" y="7"/></g><!--MD5=[8560f289a30852a9f75d64e53f926853]
class Building--><g id="elem_Building"><rect codeLine="6" fill="#F1F1F1" height="73.7969" id="Building" rx="2.5" ry="2.5" style="stroke:#181818;stroke-width:0.5;" width="82" x="306" y="23"/><ellipse cx="321" cy="51.8984" fill="#ADD1B2" rx="11" ry="11" style="stroke:#181818;stroke-width:1.0;"/><path d="M323.7656,47.7734 Q323.9219,47.5547 324.1094,47.4453 Q324.2969,47.3359 324.5156,47.3359 Q324.8906,47.3359 325.125,47.6016 Q325.3594,47.8516 325.3594,48.4609 L325.3594,49.9141 Q325.3594,50.5234 325.125,50.7891 Q324.8906,51.0547 324.5156,51.0547 Q324.1719,51.0547 323.9688,50.8516 Q323.7656,50.6641 323.6563,50.1484 Q323.6094,49.7891 323.4219,49.6016 Q323.0938,49.2266 322.4844,49.0078 Q321.875,48.7891 321.25,48.7891 Q320.4844,48.7891 319.8438,49.1172 Q319.2188,49.4453 318.7188,50.1953 Q318.2344,50.9453 318.2344,51.9766 L318.2344,53.0703 Q318.2344,54.3047 319.125,55.1328 Q320.0156,55.9453 321.6094,55.9453 Q322.5469,55.9453 323.2031,55.6953 Q323.5938,55.5391 324.0156,55.1016 Q324.2813,54.8359 324.4219,54.7578 Q324.5781,54.6797 324.7813,54.6797 Q325.1094,54.6797 325.3594,54.9453 Q325.625,55.1953 325.625,55.5391 Q325.625,55.8828 325.2813,56.2891 Q324.7813,56.8672 323.9844,57.1953 Q322.9063,57.6484 321.6094,57.6484 Q320.0938,57.6484 318.8906,57.0234 Q317.9063,56.5234 317.2188,55.4609 Q316.5313,54.3828 316.5313,53.1016 L316.5313,51.9453 Q316.5313,50.6172 317.1406,49.4766 Q317.7656,48.3203 318.8594,47.7109 Q319.9531,47.0859 321.1875,47.0859 Q321.9219,47.0859 322.5625,47.2578 Q323.2188,47.4141 323.7656,47.7734 Z " fill="#000000"/><text fill="#000000" font-family="sans-serif" font-size="12" font-style="italic" lengthAdjust="spacing" textLength="40" x="340" y="40.457">«Root»</text><text fill="#000000" font-family="sans-serif" font-size="12" font-style="italic" lengthAdjust="spacing" textLength="44" x="338" y="55.5508">«Entity»</text><text fill="#000000" font-family="sans-serif" font-size="14" lengthAdjust="spacing" textLength="50" x="335" y="72.7207">Building</text><line style="stroke:#181818;stroke-width:0.5;" x1="307" x2="387" y1="80.7969" y2="80.7969"/><line style="stroke:#181818;stroke-width:0.5;" x1="307" x2="387" y1="88.7969" y2="88.7969"/></g><!--MD5=[c0b459e78c8de4b6fd0153dde2bd0f96]
class BuildingDescription--><g id="elem_BuildingDescription"><rect codeLine="7" fill="#F1F1F1" height="58.7031" id="BuildingDescription" rx="2.5" ry="2.5" style="stroke:#181818;stroke-width:0.5;" width="153" x="23.5" y="164.5"/><ellipse cx="38.5" cy="185.8516" fill="#A4C2E5" rx="11" ry="11" style="stroke:#181818;stroke-width:1.0;"/><path d="M39.1094,188.7891 L40.9531,185.0234 Q40.2656,185.0234 40.0781,184.8984 Q39.6563,184.6484 39.6563,184.1641 Q39.6563,183.7891 39.9219,183.5547 Q40.1875,183.3203 40.7969,183.3203 L43.125,183.3203 Q43.75,183.3203 44,183.5547 Q44.2656,183.7891 44.2656,184.1641 Q44.2656,184.5391 44,184.7891 Q43.75,185.0234 43.125,185.0234 L42.8438,185.0234 L40,190.8516 L38.2188,190.8516 L35.375,185.0234 L35.1406,185.0234 Q34.5156,185.0234 34.25,184.7891 Q34,184.5391 34,184.1641 Q34,183.7891 34.25,183.5547 Q34.5156,183.3203 35.1406,183.3203 L37.4219,183.3203 Q38.0313,183.3203 38.2813,183.5547 Q38.5469,183.7891 38.5469,184.1641 Q38.5469,184.6484 38.1563,184.8984 Q37.9531,185.0234 37.2656,185.0234 L39.1094,188.7891 Z " fill="#000000"/><text fill="#000000" font-family="sans-serif" font-size="12" font-style="italic" lengthAdjust="spacing" textLength="82" x="72" y="181.957">«ValueObject»</text><text fill="#000000" font-family="sans-serif" font-size="14" lengthAdjust="spacing" textLength="121" x="52.5" y="199.127">BuildingDescription</text><line style="stroke:#181818;stroke-width:0.5;" x1="24.5" x2="175.5" y1="207.2031" y2="207.2031"/><line style="stroke:#181818;stroke-width:0.5;" x1="24.5" x2="175.5" y1="215.2031" y2="215.2031"/></g><!--MD5=[454d980de7ec19c426bfaad009ef01a6]
class BuildingName--><g id="elem_BuildingName"><rect codeLine="8" fill="#F1F1F1" height="58.7031" id="BuildingName" rx="2.5" ry="2.5" style="stroke:#181818;stroke-width:0.5;" width="118" x="212" y="164.5"/><ellipse cx="227" cy="185.8516" fill="#A4C2E5" rx="11" ry="11" style="stroke:#181818;stroke-width:1.0;"/><path d="M227.6094,188.7891 L229.4531,185.0234 Q228.7656,185.0234 228.5781,184.8984 Q228.1563,184.6484 228.1563,184.1641 Q228.1563,183.7891 228.4219,183.5547 Q228.6875,183.3203 229.2969,183.3203 L231.625,183.3203 Q232.25,183.3203 232.5,183.5547 Q232.7656,183.7891 232.7656,184.1641 Q232.7656,184.5391 232.5,184.7891 Q232.25,185.0234 231.625,185.0234 L231.3438,185.0234 L228.5,190.8516 L226.7188,190.8516 L223.875,185.0234 L223.6406,185.0234 Q223.0156,185.0234 222.75,184.7891 Q222.5,184.5391 222.5,184.1641 Q222.5,183.7891 222.75,183.5547 Q223.0156,183.3203 223.6406,183.3203 L225.9219,183.3203 Q226.5313,183.3203 226.7813,183.5547 Q227.0469,183.7891 227.0469,184.1641 Q227.0469,184.6484 226.6563,184.8984 Q226.4531,185.0234 225.7656,185.0234 L227.6094,188.7891 Z " fill="#000000"/><text fill="#000000" font-family="sans-serif" font-size="12" font-style="italic" lengthAdjust="spacing" textLength="82" x="243" y="181.957">«ValueObject»</text><text fill="#000000" font-family="sans-serif" font-size="14" lengthAdjust="spacing" textLength="86" x="241" y="199.127">BuildingName</text><line style="stroke:#181818;stroke-width:0.5;" x1="213" x2="329" y1="207.2031" y2="207.2031"/><line style="stroke:#181818;stroke-width:0.5;" x1="213" x2="329" y1="215.2031" y2="215.2031"/></g><!--MD5=[0887aee07bf8783a414287ff6a6b8165]
class BuildingCode--><g id="elem_BuildingCode"><rect codeLine="9" fill="#F1F1F1" height="73.7969" id="BuildingCode" rx="2.5" ry="2.5" style="stroke:#181818;stroke-width:0.5;" width="116" x="365" y="157"/><ellipse cx="380" cy="185.8984" fill="#FFA500" rx="11" ry="11" style="stroke:#181818;stroke-width:1.0;"/><path d="M380.6094,188.8359 L382.4531,185.0703 Q381.7656,185.0703 381.5781,184.9453 Q381.1563,184.6953 381.1563,184.2109 Q381.1563,183.8359 381.4219,183.6016 Q381.6875,183.3672 382.2969,183.3672 L384.625,183.3672 Q385.25,183.3672 385.5,183.6016 Q385.7656,183.8359 385.7656,184.2109 Q385.7656,184.5859 385.5,184.8359 Q385.25,185.0703 384.625,185.0703 L384.3438,185.0703 L381.5,190.8984 L379.7188,190.8984 L376.875,185.0703 L376.6406,185.0703 Q376.0156,185.0703 375.75,184.8359 Q375.5,184.5859 375.5,184.2109 Q375.5,183.8359 375.75,183.6016 Q376.0156,183.3672 376.6406,183.3672 L378.9219,183.3672 Q379.5313,183.3672 379.7813,183.6016 Q380.0469,183.8359 380.0469,184.2109 Q380.0469,184.6953 379.6563,184.9453 Q379.4531,185.0703 378.7656,185.0703 L380.6094,188.8359 Z " fill="#000000"/><text fill="#000000" font-family="sans-serif" font-size="12" font-style="italic" lengthAdjust="spacing" textLength="82" x="395" y="174.457">«ValueObject»</text><text fill="#000000" font-family="sans-serif" font-size="12" font-style="italic" lengthAdjust="spacing" textLength="52" x="410" y="189.5508">«unique»</text><text fill="#000000" font-family="sans-serif" font-size="14" lengthAdjust="spacing" textLength="84" x="394" y="206.7207">BuildingCode</text><line style="stroke:#181818;stroke-width:0.5;" x1="366" x2="480" y1="214.7969" y2="214.7969"/><line style="stroke:#181818;stroke-width:0.5;" x1="366" x2="480" y1="222.7969" y2="222.7969"/></g><!--MD5=[41117c0a9b32e7155a3e04d41b096064]
class BuildingSize--><g id="elem_BuildingSize"><rect codeLine="10" fill="#F1F1F1" height="58.7031" id="BuildingSize" rx="2.5" ry="2.5" style="stroke:#181818;stroke-width:0.5;" width="110" x="516" y="164.5"/><ellipse cx="531" cy="185.8516" fill="#A4C2E5" rx="11" ry="11" style="stroke:#181818;stroke-width:1.0;"/><path d="M531.6094,188.7891 L533.4531,185.0234 Q532.7656,185.0234 532.5781,184.8984 Q532.1563,184.6484 532.1563,184.1641 Q532.1563,183.7891 532.4219,183.5547 Q532.6875,183.3203 533.2969,183.3203 L535.625,183.3203 Q536.25,183.3203 536.5,183.5547 Q536.7656,183.7891 536.7656,184.1641 Q536.7656,184.5391 536.5,184.7891 Q536.25,185.0234 535.625,185.0234 L535.3438,185.0234 L532.5,190.8516 L530.7188,190.8516 L527.875,185.0234 L527.6406,185.0234 Q527.0156,185.0234 526.75,184.7891 Q526.5,184.5391 526.5,184.1641 Q526.5,183.7891 526.75,183.5547 Q527.0156,183.3203 527.6406,183.3203 L529.9219,183.3203 Q530.5313,183.3203 530.7813,183.5547 Q531.0469,183.7891 531.0469,184.1641 Q531.0469,184.6484 530.6563,184.8984 Q530.4531,185.0234 529.7656,185.0234 L531.6094,188.7891 Z " fill="#000000"/><text fill="#000000" font-family="sans-serif" font-size="12" font-style="italic" lengthAdjust="spacing" textLength="82" x="543" y="181.957">«ValueObject»</text><text fill="#000000" font-family="sans-serif" font-size="14" lengthAdjust="spacing" textLength="76" x="546" y="199.127">BuildingSize</text><line style="stroke:#181818;stroke-width:0.5;" x1="517" x2="625" y1="207.2031" y2="207.2031"/><line style="stroke:#181818;stroke-width:0.5;" x1="517" x2="625" y1="215.2031" y2="215.2031"/></g><!--MD5=[c7c2c2b6fa1af21c048badd80363f7c7]
link Building to BuildingDescription--><g id="link_Building_BuildingDescription"><path codeLine="13" d="M305.94,60 C235.7,60 100,60 100,60 C100,60 100,159.26 100,159.26 " fill="none" id="Building-to-BuildingDescription" style="stroke:#181818;stroke-width:1.0;"/><polygon fill="#181818" points="100,164.26,104,155.26,100,159.26,96,155.26,100,164.26" style="stroke:#181818;stroke-width:1.0;"/><text fill="#000000" font-family="sans-serif" font-size="13" lengthAdjust="spacing" textLength="5" x="292.9086" y="56.0713">*</text><text fill="#000000" font-family="sans-serif" font-size="13" lengthAdjust="spacing" textLength="22" x="75.5938" y="153.5704">0..1</text></g><!--MD5=[53e22fe04d307f496c435aecb681f20c]
link Building to BuildingName--><g id="link_Building_BuildingName"><path codeLine="14" d="M318,97.33 C318,97.33 318,159.07 318,159.07 " fill="none" id="Building-to-BuildingName" style="stroke:#181818;stroke-width:1.0;"/><polygon fill="#181818" points="318,164.07,322,155.07,318,159.07,314,155.07,318,164.07" style="stroke:#181818;stroke-width:1.0;"/><text fill="#000000" font-family="sans-serif" font-size="13" lengthAdjust="spacing" textLength="7" x="305.6172" y="118.3788">1</text><text fill="#000000" font-family="sans-serif" font-size="13" lengthAdjust="spacing" textLength="7" x="319.9719" y="153.8089">1</text></g><!--MD5=[8fdfc15c9e5b52285bc3674604186e5e]
link Building to BuildingSize--><g id="link_Building_BuildingSize"><path codeLine="15" d="M388.09,60 C452.75,60 571,60 571,60 C571,60 571,159.26 571,159.26 " fill="none" id="Building-to-BuildingSize" style="stroke:#181818;stroke-width:1.0;"/><polygon fill="#181818" points="571,164.26,575,155.26,571,159.26,567,155.26,571,164.26" style="stroke:#181818;stroke-width:1.0;"/><text fill="#000000" font-family="sans-serif" font-size="13" lengthAdjust="spacing" textLength="5" x="396.1269" y="56.0713">*</text><text fill="#000000" font-family="sans-serif" font-size="13" lengthAdjust="spacing" textLength="7" x="563.2344" y="153.5704">1</text></g><!--MD5=[30449874c6533aadb21e9eca7fdc56e9]
link Building to BuildingCode--><g id="link_Building_BuildingCode"><path codeLine="16" d="M376.5,97.33 C376.5,97.33 376.5,151.87 376.5,151.87 " fill="none" id="Building-to-BuildingCode" style="stroke:#181818;stroke-width:1.0;"/><polygon fill="#181818" points="376.5,156.87,380.5,147.87,376.5,151.87,372.5,147.87,376.5,156.87" style="stroke:#181818;stroke-width:1.0;"/><text fill="#000000" font-family="sans-serif" font-size="13" lengthAdjust="spacing" textLength="7" x="373.8063" y="118.3788">1</text><text fill="#000000" font-family="sans-serif" font-size="13" lengthAdjust="spacing" textLength="7" x="360.2813" y="146.0954">1</text></g><!--MD5=[a48ddfb3f2263d876985d4ecc2b6d078]
@startuml

skinparam linetype ortho


rectangle #36827F{
class Building  << Root >> << Entity >>
class BuildingDescription  << (v,#A4C2E5) ValueObject >>
class BuildingName  << (v,#A4C2E5) ValueObject >>
class BuildingCode  << (v,orange) ValueObject >> << unique >>
class BuildingSize  << (v,#A4C2E5) ValueObject >>
}

Building "*"- ->"0..1" BuildingDescription
Building "1"- ->"1" BuildingName
Building "*"- ->"1" BuildingSize
Building "1"- ->"1" BuildingCode

@enduml

PlantUML version 1.2022.7(Mon Aug 22 18:01:30 WEST 2022)
(GPL source distribution)
Java Runtime: Java(TM) SE Runtime Environment
JVM: Java HotSpot(TM) 64-Bit Server VM
Default Encoding: UTF-8
Language: en
Country: US
--></g></svg>