<?xml version="1.0" encoding="us-ascii" standalone="no"?><svg xmlns="http://www.w3.org/2000/svg" xmlns:xlink="http://www.w3.org/1999/xlink" contentStyleType="text/css" height="249px" preserveAspectRatio="none" style="width:409px;height:249px;background:#FFFFFF;" version="1.1" viewBox="0 0 409 249" width="409px" zoomAndPan="magnify"><defs/><g><rect fill="#FFFFFF" height="54.582" style="stroke:#181818;stroke-width:1.0;" width="10" x="368" y="93.6211"/><line style="stroke:#181818;stroke-width:0.5;stroke-dasharray:5.0,5.0;" x1="64" x2="64" y1="83.6211" y2="166.2031"/><line style="stroke:#181818;stroke-width:0.5;stroke-dasharray:5.0,5.0;" x1="373" x2="373" y1="83.6211" y2="166.2031"/><text fill="#000000" font-family="sans-serif" font-size="14" lengthAdjust="spacing" textLength="112" x="5" y="80.1074">Campus Manager</text><ellipse cx="64" cy="13.5" fill="#E2E2F0" rx="8" ry="8" style="stroke:#181818;stroke-width:0.5;"/><path d="M64,21.5 L64,48.5 M51,29.5 L77,29.5 M64,48.5 L51,63.5 M64,48.5 L77,63.5 " fill="none" style="stroke:#181818;stroke-width:0.5;"/><text fill="#000000" font-family="sans-serif" font-size="14" lengthAdjust="spacing" textLength="112" x="5" y="180.3105">Campus Manager</text><ellipse cx="64" cy="192.3242" fill="#E2E2F0" rx="8" ry="8" style="stroke:#181818;stroke-width:0.5;"/><path d="M64,200.3242 L64,227.3242 M51,208.3242 L77,208.3242 M64,227.3242 L51,242.3242 M64,227.3242 L77,242.3242 " fill="none" style="stroke:#181818;stroke-width:0.5;"/><rect fill="#E2E2F0" height="32.6211" rx="2.5" ry="2.5" style="stroke:#181818;stroke-width:0.5;" width="60" x="343" y="50"/><text fill="#000000" font-family="sans-serif" font-size="14" lengthAdjust="spacing" textLength="46" x="350" y="72.1074">System</text><rect fill="#E2E2F0" height="32.6211" rx="2.5" ry="2.5" style="stroke:#181818;stroke-width:0.5;" width="60" x="343" y="165.2031"/><text fill="#000000" font-family="sans-serif" font-size="14" lengthAdjust="spacing" textLength="46" x="350" y="187.3105">System</text><rect fill="#FFFFFF" height="54.582" style="stroke:#181818;stroke-width:1.0;" width="10" x="368" y="93.6211"/><polygon fill="#181818" points="356,112.9121,366,116.9121,356,120.9121,360,116.9121" style="stroke:#181818;stroke-width:1.0;"/><line style="stroke:#181818;stroke-width:1.0;" x1="64" x2="362" y1="116.9121" y2="116.9121"/><text fill="#000000" font-family="sans-serif" font-size="13" font-weight="bold" lengthAdjust="spacing" textLength="7" x="71" y="111.6494">1</text><text fill="#000000" font-family="sans-serif" font-size="13" lengthAdjust="spacing" textLength="269" x="82" y="111.6494">List floors with passageways to other buildings</text><polygon fill="#181818" points="75,144.2031,65,148.2031,75,152.2031,71,148.2031" style="stroke:#181818;stroke-width:1.0;"/><line style="stroke:#181818;stroke-width:1.0;stroke-dasharray:2.0,2.0;" x1="69" x2="372" y1="148.2031" y2="148.2031"/><text fill="#000000" font-family="sans-serif" font-size="13" font-weight="bold" lengthAdjust="spacing" textLength="7" x="81" y="142.9404">2</text><text fill="#000000" font-family="sans-serif" font-size="13" lengthAdjust="spacing" textLength="70" x="92" y="142.9404">List of floors</text><!--SRC=[NOqn3eCm34NtdC9YwPIoeweBQvbw0XCCH4hYD7QAk7sBnDAENq_l_SkgcgLhsnmmQOtXwZYsGgzAoP6TF2u5ep5ObLED8nM3Jhb0qsFCLM30X0kL1b2W7umvi7-Z4ZntKOgc7y3Upz71mul279YBmEPrXOmYty26ku0oiAvKOAm-J3ujSjWtQtzrdi-2cUZ_xGC0]--></g></svg>