<?xml version="1.0" encoding="us-ascii" standalone="no"?><svg xmlns="http://www.w3.org/2000/svg" xmlns:xlink="http://www.w3.org/1999/xlink" contentStyleType="text/css" height="237px" preserveAspectRatio="none" style="width:329px;height:237px;background:#FFFFFF;" version="1.1" viewBox="0 0 329 237" width="329px" zoomAndPan="magnify"><defs/><g><rect fill="#FFFFFF" height="28.5234" style="stroke:#181818;stroke-width:1.0;" width="10" x="288.5" y="111.1641"/><line style="stroke:#181818;stroke-width:0.5;stroke-dasharray:5.0,5.0;" x1="22" x2="22" y1="80.6406" y2="157.6875"/><line style="stroke:#181818;stroke-width:0.5;stroke-dasharray:5.0,5.0;" x1="293.5" x2="293.5" y1="80.6406" y2="157.6875"/><text fill="#000000" font-family="sans-serif" font-size="14" lengthAdjust="spacing" textLength="29" x="5" y="77.6738">User</text><ellipse cx="22.5" cy="13.5" fill="#E2E2F0" rx="8" ry="8" style="stroke:#181818;stroke-width:0.5;"/><path d="M22.5,21.5 L22.5,48.5 M9.5,29.5 L35.5,29.5 M22.5,48.5 L9.5,63.5 M22.5,48.5 L35.5,63.5 " fill="none" style="stroke:#181818;stroke-width:0.5;"/><text fill="#000000" font-family="sans-serif" font-size="14" lengthAdjust="spacing" textLength="29" x="5" y="169.3613">User</text><ellipse cx="22.5" cy="180.8281" fill="#E2E2F0" rx="8" ry="8" style="stroke:#181818;stroke-width:0.5;"/><path d="M22.5,188.8281 L22.5,215.8281 M9.5,196.8281 L35.5,196.8281 M22.5,215.8281 L9.5,230.8281 M22.5,215.8281 L35.5,230.8281 " fill="none" style="stroke:#181818;stroke-width:0.5;"/><rect fill="#E2E2F0" height="29.6406" rx="2.5" ry="2.5" style="stroke:#181818;stroke-width:0.5;" width="60" x="263.5" y="50"/><text fill="#000000" font-family="sans-serif" font-size="14" lengthAdjust="spacing" textLength="46" x="270.5" y="69.6738">System</text><rect fill="#E2E2F0" height="29.6406" rx="2.5" ry="2.5" style="stroke:#181818;stroke-width:0.5;" width="60" x="263.5" y="156.6875"/><text fill="#000000" font-family="sans-serif" font-size="14" lengthAdjust="spacing" textLength="46" x="270.5" y="176.3613">System</text><rect fill="#FFFFFF" height="28.5234" style="stroke:#181818;stroke-width:1.0;" width="10" x="288.5" y="111.1641"/><polygon fill="#181818" points="276.5,107.1641,286.5,111.1641,276.5,115.1641,280.5,111.1641" style="stroke:#181818;stroke-width:1.0;"/><line style="stroke:#181818;stroke-width:1.0;" x1="22.5" x2="282.5" y1="111.1641" y2="111.1641"/><text fill="#000000" font-family="sans-serif" font-size="13" font-weight="bold" lengthAdjust="spacing" textLength="7" x="29.5" y="106.4092">1</text><text fill="#000000" font-family="sans-serif" font-size="13" lengthAdjust="spacing" textLength="236" x="40.5" y="106.4092">Starts the process to copy personal data</text><polygon fill="#181818" points="33.5,135.6875,23.5,139.6875,33.5,143.6875,29.5,139.6875" style="stroke:#181818;stroke-width:1.0;"/><line style="stroke:#181818;stroke-width:1.0;stroke-dasharray:2.0,2.0;" x1="27.5" x2="292.5" y1="139.6875" y2="139.6875"/><text fill="#000000" font-family="sans-serif" font-size="13" font-weight="bold" lengthAdjust="spacing" textLength="7" x="39.5" y="134.9326">2</text><text fill="#000000" font-family="sans-serif" font-size="13" lengthAdjust="spacing" textLength="169" x="50.5" y="134.9326">Send a copy of personal data</text><!--SRC=[NSmn3i8m38NXFQUmkZ25xXrOEcUgE8193AtKnC5sa7fxYihKwRtb-o-pMTMXx-kAnLfUhv5ph_HkL2BvjE1BC3k7pRYq_21n68q5khkIT80AOt1k3E1lC6rgb0UO3CKKR2Qemf5q_moHwmQLHBdW2WaDVwdbWqP_wOu1lxV6i7Ue9C03ylDa4vtr5m00]--></g></svg>