<?xml version="1.0" encoding="us-ascii" standalone="no"?><svg xmlns="http://www.w3.org/2000/svg" xmlns:xlink="http://www.w3.org/1999/xlink" contentStyleType="text/css" height="103px" preserveAspectRatio="none" style="width:307px;height:103px;background:#FFFFFF;" version="1.1" viewBox="0 0 307 103" width="307px" zoomAndPan="magnify"><defs/><g><!--cluster RobDroneGo--><g id="cluster_RobDroneGo"><path d="M108,6 L200,6 A3.75,3.75 0 0 1 202.5,8.5 L209.5,27.6406 L298,27.6406 A2.5,2.5 0 0 1 300.5,30.1406 L300.5,91.5 A2.5,2.5 0 0 1 298,94 L108,94 A2.5,2.5 0 0 1 105.5,91.5 L105.5,8.5 A2.5,2.5 0 0 1 108,6 " fill="none" style="stroke:#000000;stroke-width:1.5;"/><line style="stroke:#000000;stroke-width:1.5;" x1="105.5" x2="209.5" y1="27.6406" y2="27.6406"/><text fill="#000000" font-family="sans-serif" font-size="14" font-weight="bold" lengthAdjust="spacing" textLength="91" x="109.5" y="20.6738">RobDroneGo</text></g><g id="elem_UC18"><ellipse cx="202.9406" cy="59.1881" fill="#F1F1F1" rx="81.4406" ry="18.6881" style="stroke:#181818;stroke-width:0.5;"/><text fill="#000000" font-family="sans-serif" font-size="14" lengthAdjust="spacing" textLength="124" x="140.9406" y="62.0416">Copy personal data</text></g><!--entity FM--><g id="elem_FM"><ellipse cx="33" cy="37" fill="#F1F1F1" rx="16" ry="16" style="stroke:#181818;stroke-width:1.5;"/><path d="M33,57 C37,57 40,57 44,53 C52,53 60,61 60,69 L60,73 C60,77 56,81 52,81 L14,81 C10,81 6,77 6,73 L6,69 C6,61 14,53 22,53 C26,57 29,57 33,57 " fill="#F1F1F1" style="stroke:#181818;stroke-width:1.5;"/><text fill="#000000" font-family="sans-serif" font-size="14" lengthAdjust="spacing" textLength="45" x="10.5" y="95.1738">UI User</text></g><!--link FM to UC18--><g id="link_FM_UC18"><path d="M61.74,59 C76.86,59 96.49,59 116.24,59 " fill="none" id="FM-to-UC18" style="stroke:#181818;stroke-width:1.0;"/><polygon fill="#181818" points="121.26,59,112.26,55,116.26,59,112.26,63,121.26,59" style="stroke:#181818;stroke-width:1.0;"/></g><!--SRC=[9Sin3e9044RXVaxnXvx2pie6Wx6WqN20SHbn0-niPfOOOhox2PRlIzuipuAYi3Y-2ePe4ahKHEHJJ9cD5t0eQlUopG9-Y-iYHBkXwg_eNQm2EzgEY3A7YKS1RleucoQvAF0X0bQNm2we6iqRifXhuXa35zxtlZaSYRv4ROUwFltx1m00]--></g></svg>