<?xml version="1.0" encoding="UTF-8" standalone="no"?><svg xmlns="http://www.w3.org/2000/svg" xmlns:xlink="http://www.w3.org/1999/xlink" contentStyleType="text/css" height="506px" preserveAspectRatio="none" style="width:1292px;height:506px;background:#FFFFFF;" version="1.1" viewBox="0 0 1292 506" width="1292px" zoomAndPan="magnify"><defs/><g><g id="cluster_##2"><rect fill="#36827F" height="240" rx="2.5" ry="2.5" style="stroke:#181818;stroke-width:1.0;" width="635" x="7" y="126"/></g><g id="cluster_##9"><rect fill="#FF3B1B" height="366.5" rx="2.5" ry="2.5" style="stroke:#181818;stroke-width:1.0;" width="279" x="1007" y="133.5"/></g><g id="cluster_##15"><rect fill="#D499B9" height="351.5" rx="2.5" ry="2.5" style="stroke:#181818;stroke-width:1.0;" width="317" x="666" y="7"/></g><!--MD5=[8560f289a30852a9f75d64e53f926853]
class Building--><g id="elem_Building"><rect codeLine="10" fill="#F1F1F1" height="73.7969" id="Building" rx="2.5" ry="2.5" style="stroke:#181818;stroke-width:0.5;" width="82" x="382" y="142"/><ellipse cx="397" cy="170.8984" fill="#ADD1B2" rx="11" ry="11" style="stroke:#181818;stroke-width:1.0;"/><path d="M399.7656,166.7734 Q399.9219,166.5547 400.1094,166.4453 Q400.2969,166.3359 400.5156,166.3359 Q400.8906,166.3359 401.125,166.6016 Q401.3594,166.8516 401.3594,167.4609 L401.3594,168.9141 Q401.3594,169.5234 401.125,169.7891 Q400.8906,170.0547 400.5156,170.0547 Q400.1719,170.0547 399.9688,169.8516 Q399.7656,169.6641 399.6563,169.1484 Q399.6094,168.7891 399.4219,168.6016 Q399.0938,168.2266 398.4844,168.0078 Q397.875,167.7891 397.25,167.7891 Q396.4844,167.7891 395.8438,168.1172 Q395.2188,168.4453 394.7188,169.1953 Q394.2344,169.9453 394.2344,170.9766 L394.2344,172.0703 Q394.2344,173.3047 395.125,174.1328 Q396.0156,174.9453 397.6094,174.9453 Q398.5469,174.9453 399.2031,174.6953 Q399.5938,174.5391 400.0156,174.1016 Q400.2813,173.8359 400.4219,173.7578 Q400.5781,173.6797 400.7813,173.6797 Q401.1094,173.6797 401.3594,173.9453 Q401.625,174.1953 401.625,174.5391 Q401.625,174.8828 401.2813,175.2891 Q400.7813,175.8672 399.9844,176.1953 Q398.9063,176.6484 397.6094,176.6484 Q396.0938,176.6484 394.8906,176.0234 Q393.9063,175.5234 393.2188,174.4609 Q392.5313,173.3828 392.5313,172.1016 L392.5313,170.9453 Q392.5313,169.6172 393.1406,168.4766 Q393.7656,167.3203 394.8594,166.7109 Q395.9531,166.0859 397.1875,166.0859 Q397.9219,166.0859 398.5625,166.2578 Q399.2188,166.4141 399.7656,166.7734 Z " fill="#000000"/><text fill="#000000" font-family="sans-serif" font-size="12" font-style="italic" lengthAdjust="spacing" textLength="40" x="416" y="159.457">«Root»</text><text fill="#000000" font-family="sans-serif" font-size="12" font-style="italic" lengthAdjust="spacing" textLength="44" x="414" y="174.5508">«Entity»</text><text fill="#000000" font-family="sans-serif" font-size="14" lengthAdjust="spacing" textLength="50" x="411" y="191.7207">Building</text><line style="stroke:#181818;stroke-width:0.5;" x1="383" x2="463" y1="199.7969" y2="199.7969"/><line style="stroke:#181818;stroke-width:0.5;" x1="383" x2="463" y1="207.7969" y2="207.7969"/></g><!--MD5=[c0b459e78c8de4b6fd0153dde2bd0f96]
class BuildingDescription--><g id="elem_BuildingDescription"><rect codeLine="11" fill="#F1F1F1" height="58.7031" id="BuildingDescription" rx="2.5" ry="2.5" style="stroke:#181818;stroke-width:0.5;" width="153" x="23.5" y="283.5"/><ellipse cx="38.5" cy="304.8516" fill="#A4C2E5" rx="11" ry="11" style="stroke:#181818;stroke-width:1.0;"/><path d="M39.1094,307.7891 L40.9531,304.0234 Q40.2656,304.0234 40.0781,303.8984 Q39.6563,303.6484 39.6563,303.1641 Q39.6563,302.7891 39.9219,302.5547 Q40.1875,302.3203 40.7969,302.3203 L43.125,302.3203 Q43.75,302.3203 44,302.5547 Q44.2656,302.7891 44.2656,303.1641 Q44.2656,303.5391 44,303.7891 Q43.75,304.0234 43.125,304.0234 L42.8438,304.0234 L40,309.8516 L38.2188,309.8516 L35.375,304.0234 L35.1406,304.0234 Q34.5156,304.0234 34.25,303.7891 Q34,303.5391 34,303.1641 Q34,302.7891 34.25,302.5547 Q34.5156,302.3203 35.1406,302.3203 L37.4219,302.3203 Q38.0313,302.3203 38.2813,302.5547 Q38.5469,302.7891 38.5469,303.1641 Q38.5469,303.6484 38.1563,303.8984 Q37.9531,304.0234 37.2656,304.0234 L39.1094,307.7891 Z " fill="#000000"/><text fill="#000000" font-family="sans-serif" font-size="12" font-style="italic" lengthAdjust="spacing" textLength="82" x="72" y="300.957">«ValueObject»</text><text fill="#000000" font-family="sans-serif" font-size="14" lengthAdjust="spacing" textLength="121" x="52.5" y="318.127">BuildingDescription</text><line style="stroke:#181818;stroke-width:0.5;" x1="24.5" x2="175.5" y1="326.2031" y2="326.2031"/><line style="stroke:#181818;stroke-width:0.5;" x1="24.5" x2="175.5" y1="334.2031" y2="334.2031"/></g><!--MD5=[454d980de7ec19c426bfaad009ef01a6]
class BuildingName--><g id="elem_BuildingName"><rect codeLine="12" fill="#F1F1F1" height="58.7031" id="BuildingName" rx="2.5" ry="2.5" style="stroke:#181818;stroke-width:0.5;" width="118" x="212" y="283.5"/><ellipse cx="227" cy="304.8516" fill="#A4C2E5" rx="11" ry="11" style="stroke:#181818;stroke-width:1.0;"/><path d="M227.6094,307.7891 L229.4531,304.0234 Q228.7656,304.0234 228.5781,303.8984 Q228.1563,303.6484 228.1563,303.1641 Q228.1563,302.7891 228.4219,302.5547 Q228.6875,302.3203 229.2969,302.3203 L231.625,302.3203 Q232.25,302.3203 232.5,302.5547 Q232.7656,302.7891 232.7656,303.1641 Q232.7656,303.5391 232.5,303.7891 Q232.25,304.0234 231.625,304.0234 L231.3438,304.0234 L228.5,309.8516 L226.7188,309.8516 L223.875,304.0234 L223.6406,304.0234 Q223.0156,304.0234 222.75,303.7891 Q222.5,303.5391 222.5,303.1641 Q222.5,302.7891 222.75,302.5547 Q223.0156,302.3203 223.6406,302.3203 L225.9219,302.3203 Q226.5313,302.3203 226.7813,302.5547 Q227.0469,302.7891 227.0469,303.1641 Q227.0469,303.6484 226.6563,303.8984 Q226.4531,304.0234 225.7656,304.0234 L227.6094,307.7891 Z " fill="#000000"/><text fill="#000000" font-family="sans-serif" font-size="12" font-style="italic" lengthAdjust="spacing" textLength="82" x="243" y="300.957">«ValueObject»</text><text fill="#000000" font-family="sans-serif" font-size="14" lengthAdjust="spacing" textLength="86" x="241" y="318.127">BuildingName</text><line style="stroke:#181818;stroke-width:0.5;" x1="213" x2="329" y1="326.2031" y2="326.2031"/><line style="stroke:#181818;stroke-width:0.5;" x1="213" x2="329" y1="334.2031" y2="334.2031"/></g><!--MD5=[0887aee07bf8783a414287ff6a6b8165]
class BuildingCode--><g id="elem_BuildingCode"><rect codeLine="13" fill="#F1F1F1" height="73.7969" id="BuildingCode" rx="2.5" ry="2.5" style="stroke:#181818;stroke-width:0.5;" width="116" x="365" y="276"/><ellipse cx="380" cy="304.8984" fill="#FFA500" rx="11" ry="11" style="stroke:#181818;stroke-width:1.0;"/><path d="M380.6094,307.8359 L382.4531,304.0703 Q381.7656,304.0703 381.5781,303.9453 Q381.1563,303.6953 381.1563,303.2109 Q381.1563,302.8359 381.4219,302.6016 Q381.6875,302.3672 382.2969,302.3672 L384.625,302.3672 Q385.25,302.3672 385.5,302.6016 Q385.7656,302.8359 385.7656,303.2109 Q385.7656,303.5859 385.5,303.8359 Q385.25,304.0703 384.625,304.0703 L384.3438,304.0703 L381.5,309.8984 L379.7188,309.8984 L376.875,304.0703 L376.6406,304.0703 Q376.0156,304.0703 375.75,303.8359 Q375.5,303.5859 375.5,303.2109 Q375.5,302.8359 375.75,302.6016 Q376.0156,302.3672 376.6406,302.3672 L378.9219,302.3672 Q379.5313,302.3672 379.7813,302.6016 Q380.0469,302.8359 380.0469,303.2109 Q380.0469,303.6953 379.6563,303.9453 Q379.4531,304.0703 378.7656,304.0703 L380.6094,307.8359 Z " fill="#000000"/><text fill="#000000" font-family="sans-serif" font-size="12" font-style="italic" lengthAdjust="spacing" textLength="82" x="395" y="293.457">«ValueObject»</text><text fill="#000000" font-family="sans-serif" font-size="12" font-style="italic" lengthAdjust="spacing" textLength="52" x="410" y="308.5508">«unique»</text><text fill="#000000" font-family="sans-serif" font-size="14" lengthAdjust="spacing" textLength="84" x="394" y="325.7207">BuildingCode</text><line style="stroke:#181818;stroke-width:0.5;" x1="366" x2="480" y1="333.7969" y2="333.7969"/><line style="stroke:#181818;stroke-width:0.5;" x1="366" x2="480" y1="341.7969" y2="341.7969"/></g><!--MD5=[41117c0a9b32e7155a3e04d41b096064]
class BuildingSize--><g id="elem_BuildingSize"><rect codeLine="14" fill="#F1F1F1" height="58.7031" id="BuildingSize" rx="2.5" ry="2.5" style="stroke:#181818;stroke-width:0.5;" width="110" x="516" y="283.5"/><ellipse cx="531" cy="304.8516" fill="#A4C2E5" rx="11" ry="11" style="stroke:#181818;stroke-width:1.0;"/><path d="M531.6094,307.7891 L533.4531,304.0234 Q532.7656,304.0234 532.5781,303.8984 Q532.1563,303.6484 532.1563,303.1641 Q532.1563,302.7891 532.4219,302.5547 Q532.6875,302.3203 533.2969,302.3203 L535.625,302.3203 Q536.25,302.3203 536.5,302.5547 Q536.7656,302.7891 536.7656,303.1641 Q536.7656,303.5391 536.5,303.7891 Q536.25,304.0234 535.625,304.0234 L535.3438,304.0234 L532.5,309.8516 L530.7188,309.8516 L527.875,304.0234 L527.6406,304.0234 Q527.0156,304.0234 526.75,303.7891 Q526.5,303.5391 526.5,303.1641 Q526.5,302.7891 526.75,302.5547 Q527.0156,302.3203 527.6406,302.3203 L529.9219,302.3203 Q530.5313,302.3203 530.7813,302.5547 Q531.0469,302.7891 531.0469,303.1641 Q531.0469,303.6484 530.6563,303.8984 Q530.4531,304.0234 529.7656,304.0234 L531.6094,307.7891 Z " fill="#000000"/><text fill="#000000" font-family="sans-serif" font-size="12" font-style="italic" lengthAdjust="spacing" textLength="82" x="543" y="300.957">«ValueObject»</text><text fill="#000000" font-family="sans-serif" font-size="14" lengthAdjust="spacing" textLength="76" x="546" y="318.127">BuildingSize</text><line style="stroke:#181818;stroke-width:0.5;" x1="517" x2="625" y1="326.2031" y2="326.2031"/><line style="stroke:#181818;stroke-width:0.5;" x1="517" x2="625" y1="334.2031" y2="334.2031"/></g><!--MD5=[d218c48b946d362ff1ecd879cabebcad]
class Room--><g id="elem_Room"><rect codeLine="18" fill="#F1F1F1" height="73.7969" id="Room" rx="2.5" ry="2.5" style="stroke:#181818;stroke-width:0.5;" width="72" x="1023" y="276"/><ellipse cx="1038" cy="304.8984" fill="#ADD1B2" rx="11" ry="11" style="stroke:#181818;stroke-width:1.0;"/><path d="M1040.7656,300.7734 Q1040.9219,300.5547 1041.1094,300.4453 Q1041.2969,300.3359 1041.5156,300.3359 Q1041.8906,300.3359 1042.125,300.6016 Q1042.3594,300.8516 1042.3594,301.4609 L1042.3594,302.9141 Q1042.3594,303.5234 1042.125,303.7891 Q1041.8906,304.0547 1041.5156,304.0547 Q1041.1719,304.0547 1040.9688,303.8516 Q1040.7656,303.6641 1040.6563,303.1484 Q1040.6094,302.7891 1040.4219,302.6016 Q1040.0938,302.2266 1039.4844,302.0078 Q1038.875,301.7891 1038.25,301.7891 Q1037.4844,301.7891 1036.8438,302.1172 Q1036.2188,302.4453 1035.7188,303.1953 Q1035.2344,303.9453 1035.2344,304.9766 L1035.2344,306.0703 Q1035.2344,307.3047 1036.125,308.1328 Q1037.0156,308.9453 1038.6094,308.9453 Q1039.5469,308.9453 1040.2031,308.6953 Q1040.5938,308.5391 1041.0156,308.1016 Q1041.2813,307.8359 1041.4219,307.7578 Q1041.5781,307.6797 1041.7813,307.6797 Q1042.1094,307.6797 1042.3594,307.9453 Q1042.625,308.1953 1042.625,308.5391 Q1042.625,308.8828 1042.2813,309.2891 Q1041.7813,309.8672 1040.9844,310.1953 Q1039.9063,310.6484 1038.6094,310.6484 Q1037.0938,310.6484 1035.8906,310.0234 Q1034.9063,309.5234 1034.2188,308.4609 Q1033.5313,307.3828 1033.5313,306.1016 L1033.5313,304.9453 Q1033.5313,303.6172 1034.1406,302.4766 Q1034.7656,301.3203 1035.8594,300.7109 Q1036.9531,300.0859 1038.1875,300.0859 Q1038.9219,300.0859 1039.5625,300.2578 Q1040.2188,300.4141 1040.7656,300.7734 Z " fill="#000000"/><text fill="#000000" font-family="sans-serif" font-size="12" font-style="italic" lengthAdjust="spacing" textLength="40" x="1052" y="293.457">«Root»</text><text fill="#000000" font-family="sans-serif" font-size="12" font-style="italic" lengthAdjust="spacing" textLength="44" x="1050" y="308.5508">«Entity»</text><text fill="#000000" font-family="sans-serif" font-size="14" lengthAdjust="spacing" textLength="37" x="1053.5" y="325.7207">Room</text><line style="stroke:#181818;stroke-width:0.5;" x1="1024" x2="1094" y1="333.7969" y2="333.7969"/><line style="stroke:#181818;stroke-width:0.5;" x1="1024" x2="1094" y1="341.7969" y2="341.7969"/></g><!--MD5=[b4bfad73b08c8f15addfbfdeea39636e]
class RoomName--><g id="elem_RoomName"><rect codeLine="19" fill="#F1F1F1" height="73.7969" id="RoomName" rx="2.5" ry="2.5" style="stroke:#181818;stroke-width:0.5;" width="110" x="1023" y="410"/><ellipse cx="1038" cy="438.8984" fill="#FFA500" rx="11" ry="11" style="stroke:#181818;stroke-width:1.0;"/><path d="M1038.6094,441.8359 L1040.4531,438.0703 Q1039.7656,438.0703 1039.5781,437.9453 Q1039.1563,437.6953 1039.1563,437.2109 Q1039.1563,436.8359 1039.4219,436.6016 Q1039.6875,436.3672 1040.2969,436.3672 L1042.625,436.3672 Q1043.25,436.3672 1043.5,436.6016 Q1043.7656,436.8359 1043.7656,437.2109 Q1043.7656,437.5859 1043.5,437.8359 Q1043.25,438.0703 1042.625,438.0703 L1042.3438,438.0703 L1039.5,443.8984 L1037.7188,443.8984 L1034.875,438.0703 L1034.6406,438.0703 Q1034.0156,438.0703 1033.75,437.8359 Q1033.5,437.5859 1033.5,437.2109 Q1033.5,436.8359 1033.75,436.6016 Q1034.0156,436.3672 1034.6406,436.3672 L1036.9219,436.3672 Q1037.5313,436.3672 1037.7813,436.6016 Q1038.0469,436.8359 1038.0469,437.2109 Q1038.0469,437.6953 1037.6563,437.9453 Q1037.4531,438.0703 1036.7656,438.0703 L1038.6094,441.8359 Z " fill="#000000"/><text fill="#000000" font-family="sans-serif" font-size="12" font-style="italic" lengthAdjust="spacing" textLength="82" x="1050" y="427.457">«ValueObject»</text><text fill="#000000" font-family="sans-serif" font-size="12" font-style="italic" lengthAdjust="spacing" textLength="52" x="1065" y="442.5508">«unique»</text><text fill="#000000" font-family="sans-serif" font-size="14" lengthAdjust="spacing" textLength="73" x="1054.5" y="459.7207">RoomName</text><line style="stroke:#181818;stroke-width:0.5;" x1="1024" x2="1132" y1="467.7969" y2="467.7969"/><line style="stroke:#181818;stroke-width:0.5;" x1="1024" x2="1132" y1="475.7969" y2="475.7969"/></g><!--MD5=[25b6d634f2fd9a48bca3a52444418ad1]
class RoomDescription--><g id="elem_RoomDescription"><rect codeLine="20" fill="#F1F1F1" height="58.7031" id="RoomDescription" rx="2.5" ry="2.5" style="stroke:#181818;stroke-width:0.5;" width="140" x="1130" y="283.5"/><ellipse cx="1145" cy="304.8516" fill="#A4C2E5" rx="11" ry="11" style="stroke:#181818;stroke-width:1.0;"/><path d="M1145.6094,307.7891 L1147.4531,304.0234 Q1146.7656,304.0234 1146.5781,303.8984 Q1146.1563,303.6484 1146.1563,303.1641 Q1146.1563,302.7891 1146.4219,302.5547 Q1146.6875,302.3203 1147.2969,302.3203 L1149.625,302.3203 Q1150.25,302.3203 1150.5,302.5547 Q1150.7656,302.7891 1150.7656,303.1641 Q1150.7656,303.5391 1150.5,303.7891 Q1150.25,304.0234 1149.625,304.0234 L1149.3438,304.0234 L1146.5,309.8516 L1144.7188,309.8516 L1141.875,304.0234 L1141.6406,304.0234 Q1141.0156,304.0234 1140.75,303.7891 Q1140.5,303.5391 1140.5,303.1641 Q1140.5,302.7891 1140.75,302.5547 Q1141.0156,302.3203 1141.6406,302.3203 L1143.9219,302.3203 Q1144.5313,302.3203 1144.7813,302.5547 Q1145.0469,302.7891 1145.0469,303.1641 Q1145.0469,303.6484 1144.6563,303.8984 Q1144.4531,304.0234 1143.7656,304.0234 L1145.6094,307.7891 Z " fill="#000000"/><text fill="#000000" font-family="sans-serif" font-size="12" font-style="italic" lengthAdjust="spacing" textLength="82" x="1172" y="300.957">«ValueObject»</text><text fill="#000000" font-family="sans-serif" font-size="14" lengthAdjust="spacing" textLength="108" x="1159" y="318.127">RoomDescription</text><line style="stroke:#181818;stroke-width:0.5;" x1="1131" x2="1269" y1="326.2031" y2="326.2031"/><line style="stroke:#181818;stroke-width:0.5;" x1="1131" x2="1269" y1="334.2031" y2="334.2031"/></g><!--MD5=[ea420d35c18f469482e294cb2458608e]
class RoomCategory--><g id="elem_RoomCategory"><rect codeLine="21" fill="#F1F1F1" height="58.7031" id="RoomCategory" rx="2.5" ry="2.5" style="stroke:#181818;stroke-width:0.5;" width="127" x="1023.5" y="149.5"/><ellipse cx="1038.5" cy="170.8516" fill="#A4C2E5" rx="11" ry="11" style="stroke:#181818;stroke-width:1.0;"/><path d="M1039.1094,173.7891 L1040.9531,170.0234 Q1040.2656,170.0234 1040.0781,169.8984 Q1039.6563,169.6484 1039.6563,169.1641 Q1039.6563,168.7891 1039.9219,168.5547 Q1040.1875,168.3203 1040.7969,168.3203 L1043.125,168.3203 Q1043.75,168.3203 1044,168.5547 Q1044.2656,168.7891 1044.2656,169.1641 Q1044.2656,169.5391 1044,169.7891 Q1043.75,170.0234 1043.125,170.0234 L1042.8438,170.0234 L1040,175.8516 L1038.2188,175.8516 L1035.375,170.0234 L1035.1406,170.0234 Q1034.5156,170.0234 1034.25,169.7891 Q1034,169.5391 1034,169.1641 Q1034,168.7891 1034.25,168.5547 Q1034.5156,168.3203 1035.1406,168.3203 L1037.4219,168.3203 Q1038.0313,168.3203 1038.2813,168.5547 Q1038.5469,168.7891 1038.5469,169.1641 Q1038.5469,169.6484 1038.1563,169.8984 Q1037.9531,170.0234 1037.2656,170.0234 L1039.1094,173.7891 Z " fill="#000000"/><text fill="#000000" font-family="sans-serif" font-size="12" font-style="italic" lengthAdjust="spacing" textLength="82" x="1059" y="166.957">«ValueObject»</text><text fill="#000000" font-family="sans-serif" font-size="14" lengthAdjust="spacing" textLength="95" x="1052.5" y="184.127">RoomCategory</text><line style="stroke:#181818;stroke-width:0.5;" x1="1024.5" x2="1149.5" y1="192.2031" y2="192.2031"/><line style="stroke:#181818;stroke-width:0.5;" x1="1024.5" x2="1149.5" y1="200.2031" y2="200.2031"/></g><!--MD5=[b098efa4dd65edfeebe973e4edec7c36]
class Floor--><g id="elem_Floor"><rect codeLine="26" fill="#F1F1F1" height="73.7969" id="Floor" rx="2.5" ry="2.5" style="stroke:#181818;stroke-width:0.5;" width="72" x="726" y="142"/><ellipse cx="741" cy="170.8984" fill="#ADD1B2" rx="11" ry="11" style="stroke:#181818;stroke-width:1.0;"/><path d="M743.7656,166.7734 Q743.9219,166.5547 744.1094,166.4453 Q744.2969,166.3359 744.5156,166.3359 Q744.8906,166.3359 745.125,166.6016 Q745.3594,166.8516 745.3594,167.4609 L745.3594,168.9141 Q745.3594,169.5234 745.125,169.7891 Q744.8906,170.0547 744.5156,170.0547 Q744.1719,170.0547 743.9688,169.8516 Q743.7656,169.6641 743.6563,169.1484 Q743.6094,168.7891 743.4219,168.6016 Q743.0938,168.2266 742.4844,168.0078 Q741.875,167.7891 741.25,167.7891 Q740.4844,167.7891 739.8438,168.1172 Q739.2188,168.4453 738.7188,169.1953 Q738.2344,169.9453 738.2344,170.9766 L738.2344,172.0703 Q738.2344,173.3047 739.125,174.1328 Q740.0156,174.9453 741.6094,174.9453 Q742.5469,174.9453 743.2031,174.6953 Q743.5938,174.5391 744.0156,174.1016 Q744.2813,173.8359 744.4219,173.7578 Q744.5781,173.6797 744.7813,173.6797 Q745.1094,173.6797 745.3594,173.9453 Q745.625,174.1953 745.625,174.5391 Q745.625,174.8828 745.2813,175.2891 Q744.7813,175.8672 743.9844,176.1953 Q742.9063,176.6484 741.6094,176.6484 Q740.0938,176.6484 738.8906,176.0234 Q737.9063,175.5234 737.2188,174.4609 Q736.5313,173.3828 736.5313,172.1016 L736.5313,170.9453 Q736.5313,169.6172 737.1406,168.4766 Q737.7656,167.3203 738.8594,166.7109 Q739.9531,166.0859 741.1875,166.0859 Q741.9219,166.0859 742.5625,166.2578 Q743.2188,166.4141 743.7656,166.7734 Z " fill="#000000"/><text fill="#000000" font-family="sans-serif" font-size="12" font-style="italic" lengthAdjust="spacing" textLength="40" x="755" y="159.457">«Root»</text><text fill="#000000" font-family="sans-serif" font-size="12" font-style="italic" lengthAdjust="spacing" textLength="44" x="753" y="174.5508">«Entity»</text><text fill="#000000" font-family="sans-serif" font-size="14" lengthAdjust="spacing" textLength="33" x="758.5" y="191.7207">Floor</text><line style="stroke:#181818;stroke-width:0.5;" x1="727" x2="797" y1="199.7969" y2="199.7969"/><line style="stroke:#181818;stroke-width:0.5;" x1="727" x2="797" y1="207.7969" y2="207.7969"/></g><!--MD5=[5edebea568145119ba5fc7a2a48342e5]
class FloorId--><g id="elem_FloorId"><rect codeLine="27" fill="#F1F1F1" height="73.7969" id="FloorId" rx="2.5" ry="2.5" style="stroke:#181818;stroke-width:0.5;" width="110" x="833" y="142"/><ellipse cx="848" cy="170.8984" fill="#FFA500" rx="11" ry="11" style="stroke:#181818;stroke-width:1.0;"/><path d="M848.6094,173.8359 L850.4531,170.0703 Q849.7656,170.0703 849.5781,169.9453 Q849.1563,169.6953 849.1563,169.2109 Q849.1563,168.8359 849.4219,168.6016 Q849.6875,168.3672 850.2969,168.3672 L852.625,168.3672 Q853.25,168.3672 853.5,168.6016 Q853.7656,168.8359 853.7656,169.2109 Q853.7656,169.5859 853.5,169.8359 Q853.25,170.0703 852.625,170.0703 L852.3438,170.0703 L849.5,175.8984 L847.7188,175.8984 L844.875,170.0703 L844.6406,170.0703 Q844.0156,170.0703 843.75,169.8359 Q843.5,169.5859 843.5,169.2109 Q843.5,168.8359 843.75,168.6016 Q844.0156,168.3672 844.6406,168.3672 L846.9219,168.3672 Q847.5313,168.3672 847.7813,168.6016 Q848.0469,168.8359 848.0469,169.2109 Q848.0469,169.6953 847.6563,169.9453 Q847.4531,170.0703 846.7656,170.0703 L848.6094,173.8359 Z " fill="#000000"/><text fill="#000000" font-family="sans-serif" font-size="12" font-style="italic" lengthAdjust="spacing" textLength="82" x="860" y="159.457">«ValueObject»</text><text fill="#000000" font-family="sans-serif" font-size="12" font-style="italic" lengthAdjust="spacing" textLength="52" x="875" y="174.5508">«unique»</text><text fill="#000000" font-family="sans-serif" font-size="14" lengthAdjust="spacing" textLength="44" x="879" y="191.7207">FloorId</text><line style="stroke:#181818;stroke-width:0.5;" x1="834" x2="942" y1="199.7969" y2="199.7969"/><line style="stroke:#181818;stroke-width:0.5;" x1="834" x2="942" y1="207.7969" y2="207.7969"/></g><!--MD5=[29dff31a8712e2b8af2d5bbde5d24905]
class FloorDescription--><g id="elem_FloorDescription"><rect codeLine="28" fill="#F1F1F1" height="58.7031" id="FloorDescription" rx="2.5" ry="2.5" style="stroke:#181818;stroke-width:0.5;" width="136" x="831" y="23"/><ellipse cx="846" cy="44.3516" fill="#A4C2E5" rx="11" ry="11" style="stroke:#181818;stroke-width:1.0;"/><path d="M846.6094,47.2891 L848.4531,43.5234 Q847.7656,43.5234 847.5781,43.3984 Q847.1563,43.1484 847.1563,42.6641 Q847.1563,42.2891 847.4219,42.0547 Q847.6875,41.8203 848.2969,41.8203 L850.625,41.8203 Q851.25,41.8203 851.5,42.0547 Q851.7656,42.2891 851.7656,42.6641 Q851.7656,43.0391 851.5,43.2891 Q851.25,43.5234 850.625,43.5234 L850.3438,43.5234 L847.5,49.3516 L845.7188,49.3516 L842.875,43.5234 L842.6406,43.5234 Q842.0156,43.5234 841.75,43.2891 Q841.5,43.0391 841.5,42.6641 Q841.5,42.2891 841.75,42.0547 Q842.0156,41.8203 842.6406,41.8203 L844.9219,41.8203 Q845.5313,41.8203 845.7813,42.0547 Q846.0469,42.2891 846.0469,42.6641 Q846.0469,43.1484 845.6563,43.3984 Q845.4531,43.5234 844.7656,43.5234 L846.6094,47.2891 Z " fill="#000000"/><text fill="#000000" font-family="sans-serif" font-size="12" font-style="italic" lengthAdjust="spacing" textLength="82" x="871" y="40.457">«ValueObject»</text><text fill="#000000" font-family="sans-serif" font-size="14" lengthAdjust="spacing" textLength="104" x="860" y="57.627">FloorDescription</text><line style="stroke:#181818;stroke-width:0.5;" x1="832" x2="966" y1="65.7031" y2="65.7031"/><line style="stroke:#181818;stroke-width:0.5;" x1="832" x2="966" y1="73.7031" y2="73.7031"/></g><!--MD5=[f0b6ff306d626678ada6234da29b66ba]
class FloorMap--><g id="elem_FloorMap"><rect codeLine="29" fill="#F1F1F1" height="58.7031" id="FloorMap" rx="2.5" ry="2.5" style="stroke:#181818;stroke-width:0.5;" width="92" x="807" y="283.5"/><ellipse cx="822" cy="304.8516" fill="#ADD1B2" rx="11" ry="11" style="stroke:#181818;stroke-width:1.0;"/><path d="M824.7656,300.7266 Q824.9219,300.5078 825.1094,300.3984 Q825.2969,300.2891 825.5156,300.2891 Q825.8906,300.2891 826.125,300.5547 Q826.3594,300.8047 826.3594,301.4141 L826.3594,302.8672 Q826.3594,303.4766 826.125,303.7422 Q825.8906,304.0078 825.5156,304.0078 Q825.1719,304.0078 824.9688,303.8047 Q824.7656,303.6172 824.6563,303.1016 Q824.6094,302.7422 824.4219,302.5547 Q824.0938,302.1797 823.4844,301.9609 Q822.875,301.7422 822.25,301.7422 Q821.4844,301.7422 820.8438,302.0703 Q820.2188,302.3984 819.7188,303.1484 Q819.2344,303.8984 819.2344,304.9297 L819.2344,306.0234 Q819.2344,307.2578 820.125,308.0859 Q821.0156,308.8984 822.6094,308.8984 Q823.5469,308.8984 824.2031,308.6484 Q824.5938,308.4922 825.0156,308.0547 Q825.2813,307.7891 825.4219,307.7109 Q825.5781,307.6328 825.7813,307.6328 Q826.1094,307.6328 826.3594,307.8984 Q826.625,308.1484 826.625,308.4922 Q826.625,308.8359 826.2813,309.2422 Q825.7813,309.8203 824.9844,310.1484 Q823.9063,310.6016 822.6094,310.6016 Q821.0938,310.6016 819.8906,309.9766 Q818.9063,309.4766 818.2188,308.4141 Q817.5313,307.3359 817.5313,306.0547 L817.5313,304.8984 Q817.5313,303.5703 818.1406,302.4297 Q818.7656,301.2734 819.8594,300.6641 Q820.9531,300.0391 822.1875,300.0391 Q822.9219,300.0391 823.5625,300.2109 Q824.2188,300.3672 824.7656,300.7266 Z " fill="#000000"/><text fill="#000000" font-family="sans-serif" font-size="12" font-style="italic" lengthAdjust="spacing" textLength="44" x="844" y="300.957">«Entity»</text><text fill="#000000" font-family="sans-serif" font-size="14" lengthAdjust="spacing" textLength="60" x="836" y="318.127">FloorMap</text><line style="stroke:#181818;stroke-width:0.5;" x1="808" x2="898" y1="326.2031" y2="326.2031"/><line style="stroke:#181818;stroke-width:0.5;" x1="808" x2="898" y1="334.2031" y2="334.2031"/></g><!--MD5=[940c1653322ced0a3252fe0b7ecc9473]
class FloorNumber--><g id="elem_FloorNumber"><rect codeLine="30" fill="#F1F1F1" height="58.7031" id="FloorNumber" rx="2.5" ry="2.5" style="stroke:#181818;stroke-width:0.5;" width="114" x="682" y="23"/><ellipse cx="697" cy="44.3516" fill="#A4C2E5" rx="11" ry="11" style="stroke:#181818;stroke-width:1.0;"/><path d="M697.6094,47.2891 L699.4531,43.5234 Q698.7656,43.5234 698.5781,43.3984 Q698.1563,43.1484 698.1563,42.6641 Q698.1563,42.2891 698.4219,42.0547 Q698.6875,41.8203 699.2969,41.8203 L701.625,41.8203 Q702.25,41.8203 702.5,42.0547 Q702.7656,42.2891 702.7656,42.6641 Q702.7656,43.0391 702.5,43.2891 Q702.25,43.5234 701.625,43.5234 L701.3438,43.5234 L698.5,49.3516 L696.7188,49.3516 L693.875,43.5234 L693.6406,43.5234 Q693.0156,43.5234 692.75,43.2891 Q692.5,43.0391 692.5,42.6641 Q692.5,42.2891 692.75,42.0547 Q693.0156,41.8203 693.6406,41.8203 L695.9219,41.8203 Q696.5313,41.8203 696.7813,42.0547 Q697.0469,42.2891 697.0469,42.6641 Q697.0469,43.1484 696.6563,43.3984 Q696.4531,43.5234 695.7656,43.5234 L697.6094,47.2891 Z " fill="#000000"/><text fill="#000000" font-family="sans-serif" font-size="12" font-style="italic" lengthAdjust="spacing" textLength="82" x="711" y="40.457">«ValueObject»</text><text fill="#000000" font-family="sans-serif" font-size="14" lengthAdjust="spacing" textLength="82" x="711" y="57.627">FloorNumber</text><line style="stroke:#181818;stroke-width:0.5;" x1="683" x2="795" y1="65.7031" y2="65.7031"/><line style="stroke:#181818;stroke-width:0.5;" x1="683" x2="795" y1="73.7031" y2="73.7031"/></g><!--MD5=[c5fead04db50ad272312b70da3db85d3]
link Building to Floor--><g id="link_Building_Floor"><path codeLine="38" d="M464.23,167 C464.23,167 720.95,167 720.95,167 " fill="none" id="Building-to-Floor" style="stroke:#181818;stroke-width:1.0;"/><polygon fill="#181818" points="725.95,167,716.95,163,720.95,167,716.95,171,725.95,167" style="stroke:#181818;stroke-width:1.0;"/><text fill="#000000" font-family="sans-serif" font-size="13" lengthAdjust="spacing" textLength="7" x="471.918" y="161.1053">1</text><text fill="#000000" font-family="sans-serif" font-size="13" lengthAdjust="spacing" textLength="5" x="712.9991" y="160.4273">*</text></g><!--MD5=[c7c2c2b6fa1af21c048badd80363f7c7]
link Building to BuildingDescription--><g id="link_Building_BuildingDescription"><path codeLine="39" d="M381.76,167 C294.69,167 100,167 100,167 C100,167 100,278.45 100,278.45 " fill="none" id="Building-to-BuildingDescription" style="stroke:#181818;stroke-width:1.0;"/><polygon fill="#181818" points="100,283.45,104,274.45,100,278.45,96,274.45,100,283.45" style="stroke:#181818;stroke-width:1.0;"/><text fill="#000000" font-family="sans-serif" font-size="13" lengthAdjust="spacing" textLength="5" x="368.9688" y="160.982">*</text><text fill="#000000" font-family="sans-serif" font-size="13" lengthAdjust="spacing" textLength="22" x="75.5938" y="272.802">0..1</text></g><!--MD5=[53e22fe04d307f496c435aecb681f20c]
link Building to BuildingName--><g id="link_Building_BuildingName"><path codeLine="40" d="M381.87,192 C336.85,192 271,192 271,192 C271,192 271,278.4 271,278.4 " fill="none" id="Building-to-BuildingName" style="stroke:#181818;stroke-width:1.0;"/><polygon fill="#181818" points="271,283.4,275,274.4,271,278.4,267,274.4,271,283.4" style="stroke:#181818;stroke-width:1.0;"/><text fill="#000000" font-family="sans-serif" font-size="13" lengthAdjust="spacing" textLength="7" x="366.9203" y="190.4351">1</text><text fill="#000000" font-family="sans-serif" font-size="13" lengthAdjust="spacing" textLength="22" x="246.5938" y="272.741">0..1</text></g><!--MD5=[8fdfc15c9e5b52285bc3674604186e5e]
link Building to BuildingSize--><g id="link_Building_BuildingSize"><path codeLine="41" d="M464.23,192 C508.02,192 571,192 571,192 C571,192 571,278.4 571,278.4 " fill="none" id="Building-to-BuildingSize" style="stroke:#181818;stroke-width:1.0;"/><polygon fill="#181818" points="571,283.4,575,274.4,571,278.4,567,274.4,571,283.4" style="stroke:#181818;stroke-width:1.0;"/><text fill="#000000" font-family="sans-serif" font-size="13" lengthAdjust="spacing" textLength="5" x="472.0194" y="190.4351">*</text><text fill="#000000" font-family="sans-serif" font-size="13" lengthAdjust="spacing" textLength="7" x="563.2344" y="272.741">1</text></g><!--MD5=[30449874c6533aadb21e9eca7fdc56e9]
link Building to BuildingCode--><g id="link_Building_BuildingCode"><path codeLine="42" d="M423,216.33 C423,216.33 423,270.87 423,270.87 " fill="none" id="Building-to-BuildingCode" style="stroke:#181818;stroke-width:1.0;"/><polygon fill="#181818" points="423,275.87,427,266.87,423,270.87,419,266.87,423,275.87" style="stroke:#181818;stroke-width:1.0;"/><text fill="#000000" font-family="sans-serif" font-size="13" lengthAdjust="spacing" textLength="7" x="415.4203" y="237.3788">1</text><text fill="#000000" font-family="sans-serif" font-size="13" lengthAdjust="spacing" textLength="7" x="415.3547" y="265.0954">1</text></g><!--MD5=[aab667148c96bf2615dd2533617eaefb]
link Room to RoomName--><g id="link_Room_RoomName"><path codeLine="44" d="M1059,350.33 C1059,350.33 1059,404.87 1059,404.87 " fill="none" id="Room-to-RoomName" style="stroke:#181818;stroke-width:1.0;"/><polygon fill="#181818" points="1059,409.87,1063,400.87,1059,404.87,1055,400.87,1059,409.87" style="stroke:#181818;stroke-width:1.0;"/><text fill="#000000" font-family="sans-serif" font-size="13" lengthAdjust="spacing" textLength="7" x="1051.4203" y="371.3788">1</text><text fill="#000000" font-family="sans-serif" font-size="13" lengthAdjust="spacing" textLength="7" x="1047.8516" y="399.0954">1</text></g><!--MD5=[257c26a8403f50eff2fca8591e12cb47]
reverse link RoomCategory to Room--><g id="link_RoomCategory_Room"><path codeLine="45" d="M1059.25,213.74 C1059.25,213.74 1059.25,275.67 1059.25,275.67 " fill="none" id="RoomCategory-backto-Room" style="stroke:#181818;stroke-width:1.0;"/><polygon fill="#181818" points="1059.25,208.74,1055.25,217.74,1059.25,213.74,1063.25,217.74,1059.25,208.74" style="stroke:#181818;stroke-width:1.0;"/><text fill="#000000" font-family="sans-serif" font-size="13" lengthAdjust="spacing" textLength="7" x="1046.0977" y="229.729">1</text><text fill="#000000" font-family="sans-serif" font-size="13" lengthAdjust="spacing" textLength="7" x="1051.6711" y="265.1401">1</text></g><!--MD5=[31686be365777beede2ecf411a464579]
link Room to RoomDescription--><g id="link_Room_RoomDescription"><path codeLine="46" d="M1095.31,313 C1095.31,313 1124.85,313 1124.85,313 " fill="none" id="Room-to-RoomDescription" style="stroke:#181818;stroke-width:1.0;"/><polygon fill="#181818" points="1129.85,313,1120.85,309,1124.85,313,1120.85,317,1129.85,313" style="stroke:#181818;stroke-width:1.0;"/><text fill="#000000" font-family="sans-serif" font-size="13" lengthAdjust="spacing" textLength="7" x="1102.8988" y="309.023">1</text><text fill="#000000" font-family="sans-serif" font-size="13" lengthAdjust="spacing" textLength="7" x="1114.7945" y="309.6556">1</text></g><!--MD5=[10f73107f1f7bf18c199813bcaa6ad20]
link Floor to FloorMap--><g id="link_Floor_FloorMap"><path codeLine="48" d="M798.19,198 C811.32,198 823,198 823,198 C823,198 823,278.38 823,278.38 " fill="none" id="Floor-to-FloorMap" style="stroke:#181818;stroke-width:1.0;"/><polygon fill="#181818" points="823,283.38,827,274.38,823,278.38,819,274.38,823,283.38" style="stroke:#181818;stroke-width:1.0;"/><text fill="#000000" font-family="sans-serif" font-size="13" lengthAdjust="spacing" textLength="7" x="806.004" y="197.7153">1</text><text fill="#000000" font-family="sans-serif" font-size="13" lengthAdjust="spacing" textLength="7" x="808.6719" y="272.7167">1</text></g><!--MD5=[d9140494396273f224bd9761dcadbb1f]
reverse link FloorNumber to Floor--><g id="link_FloorNumber_Floor"><path codeLine="49" d="M761,87.16 C761,87.16 761,141.82 761,141.82 " fill="none" id="FloorNumber-backto-Floor" style="stroke:#181818;stroke-width:1.0;"/><polygon fill="#181818" points="761,82.16,757,91.16,761,87.16,765,91.16,761,82.16" style="stroke:#181818;stroke-width:1.0;"/><text fill="#000000" font-family="sans-serif" font-size="13" lengthAdjust="spacing" textLength="7" x="757.6422" y="103.1333">1</text><text fill="#000000" font-family="sans-serif" font-size="13" lengthAdjust="spacing" textLength="5" x="755.3547" y="131.0362">*</text></g><!--MD5=[00c7acac3f15d4e21c48fe2089f469ae]
reverse link FloorDescription to Floor--><g id="link_FloorDescription_Floor"><path codeLine="50" d="M825.8,53 C825.8,53 815,53 815,53 C815,53 815,161 815,161 C815,161 807.55,161 798.23,161 " fill="none" id="FloorDescription-backto-Floor" style="stroke:#181818;stroke-width:1.0;"/><polygon fill="#181818" points="830.8,53,821.8,49,825.8,53,821.8,57,830.8,53" style="stroke:#181818;stroke-width:1.0;"/><text fill="#000000" font-family="sans-serif" font-size="13" lengthAdjust="spacing" textLength="7" x="815.9578" y="49.7103">1</text><text fill="#000000" font-family="sans-serif" font-size="13" lengthAdjust="spacing" textLength="5" x="806.2181" y="153.1898">*</text></g><!--MD5=[60adfa322f31affb196616297bb3ccd7]
link Floor to FloorId--><g id="link_Floor_FloorId"><path codeLine="51" d="M798.11,179 C798.11,179 827.62,179 827.62,179 " fill="none" id="Floor-to-FloorId" style="stroke:#181818;stroke-width:1.0;"/><polygon fill="#181818" points="832.62,179,823.62,175,827.62,179,823.62,183,832.62,179" style="stroke:#181818;stroke-width:1.0;"/><text fill="#000000" font-family="sans-serif" font-size="13" lengthAdjust="spacing" textLength="7" x="805.9082" y="174.9747">1</text><text fill="#000000" font-family="sans-serif" font-size="13" lengthAdjust="spacing" textLength="7" x="818.076" y="175.5057">1</text></g><!--MD5=[b23986c00f7705e8c413e72749b44d63]
link FloorMap to Room--><g id="link_FloorMap_Room"><path codeLine="53" d="M899.23,313 C899.23,313 1017.84,313 1017.84,313 " fill="none" id="FloorMap-to-Room" style="stroke:#181818;stroke-width:1.0;"/><polygon fill="#181818" points="1022.84,313,1013.84,309,1017.84,313,1013.84,317,1022.84,313" style="stroke:#181818;stroke-width:1.0;"/><text fill="#000000" font-family="sans-serif" font-size="13" lengthAdjust="spacing" textLength="7" x="906.8449" y="309.3198">1</text><text fill="#000000" font-family="sans-serif" font-size="13" lengthAdjust="spacing" textLength="5" x="1009.8664" y="308.9023">*</text></g><!--MD5=[e862ae29b1fc24edea5078152a3524cd]
@startuml domain

skinparam linetype ortho






rectangle #36827F{
class Building  << Root >> << Entity >>
class BuildingDescription  << (v,#A4C2E5) ValueObject >>
class BuildingName  << (v,#A4C2E5) ValueObject >>
class BuildingCode  << (v,orange) ValueObject >> << unique >>
class BuildingSize  << (v,#A4C2E5) ValueObject >>
}
'========================================================
rectangle #FF3B1B{
class Room << Root >> << Entity >>
class RoomName << (v,orange) ValueObject >> << unique >>
class RoomDescription  << (v,#A4C2E5) ValueObject >>
class RoomCategory  << (v,#A4C2E5) ValueObject >>

}
'========================================================
rectangle #D499B9{
class Floor  << Root >> << Entity >>
class FloorId  << (v,orange) ValueObject >> << unique >>
class FloorDescription  << (v,#A4C2E5) ValueObject >>
class FloorMap  << Entity >>
class FloorNumber << (v,#A4C2E5) ValueObject >>
}

'========================================================




Building "1"->"*" Floor
Building "*"- ->"0..1" BuildingDescription
Building "1"- ->"0..1" BuildingName
Building "*"- ->"1" BuildingSize
Building "1"- ->"1" BuildingCode

Room "1"-d->"1" RoomName
Room "1"-u->"1" RoomCategory
Room "1"->"1" RoomDescription

Floor "1"-d->"1" FloorMap
Floor "*"-u->"1" FloorNumber
Floor "*"-u->"1" FloorDescription
Floor "1" -> "1" FloorId

FloorMap "1"->"*" Room

@enduml

@startuml domain

skinparam linetype ortho






rectangle #36827F{
class Building  << Root >> << Entity >>
class BuildingDescription  << (v,#A4C2E5) ValueObject >>
class BuildingName  << (v,#A4C2E5) ValueObject >>
class BuildingCode  << (v,orange) ValueObject >> << unique >>
class BuildingSize  << (v,#A4C2E5) ValueObject >>
}
rectangle #FF3B1B{
class Room << Root >> << Entity >>
class RoomName << (v,orange) ValueObject >> << unique >>
class RoomDescription  << (v,#A4C2E5) ValueObject >>
class RoomCategory  << (v,#A4C2E5) ValueObject >>

}
rectangle #D499B9{
class Floor  << Root >> << Entity >>
class FloorId  << (v,orange) ValueObject >> << unique >>
class FloorDescription  << (v,#A4C2E5) ValueObject >>
class FloorMap  << Entity >>
class FloorNumber << (v,#A4C2E5) ValueObject >>
}





Building "1"->"*" Floor
Building "*"- ->"0..1" BuildingDescription
Building "1"- ->"0..1" BuildingName
Building "*"- ->"1" BuildingSize
Building "1"- ->"1" BuildingCode

Room "1"-d->"1" RoomName
Room "1"-u->"1" RoomCategory
Room "1"->"1" RoomDescription

Floor "1"-d->"1" FloorMap
Floor "*"-u->"1" FloorNumber
Floor "*"-u->"1" FloorDescription
Floor "1" -> "1" FloorId

FloorMap "1"->"*" Room

@enduml

PlantUML version 1.2022.7(Mon Aug 22 18:01:30 WEST 2022)
(GPL source distribution)
Java Runtime: Java(TM) SE Runtime Environment
JVM: Java HotSpot(TM) 64-Bit Server VM
Default Encoding: UTF-8
Language: pt
Country: PT
--></g></svg>