<?xml version="1.0" encoding="UTF-8" standalone="no"?><svg xmlns="http://www.w3.org/2000/svg" xmlns:xlink="http://www.w3.org/1999/xlink" contentStyleType="text/css" height="111px" preserveAspectRatio="none" style="width:347px;height:111px;background:#FFFFFF;" version="1.1" viewBox="0 0 347 111" width="347px" zoomAndPan="magnify"><defs/><g><!--MD5=[1478444cbd0d707d5292787239839939]
cluster RobDroneGo--><g id="cluster_RobDroneGo"><path d="M108,6 L200,6 A3.75,3.75 0 0 1 202.5,8.5 L209.5,29.6094 L338,29.6094 A2.5,2.5 0 0 1 340.5,32.1094 L340.5,101.5 A2.5,2.5 0 0 1 338,104 L108,104 A2.5,2.5 0 0 1 105.5,101.5 L105.5,8.5 A2.5,2.5 0 0 1 108,6 " fill="none" style="stroke:#000000;stroke-width:1.5;"/><line style="stroke:#000000;stroke-width:1.5;" x1="105.5" x2="209.5" y1="29.6094" y2="29.6094"/><text fill="#000000" font-family="sans-serif" font-size="14" font-weight="bold" lengthAdjust="spacing" textLength="91" x="109.5" y="22.5332">RobDroneGo</text></g><g id="elem_UC18"><ellipse cx="222.8975" cy="65.1795" fill="#F1F1F1" rx="101.3975" ry="22.6795" style="stroke:#181818;stroke-width:0.5;"/><text fill="#000000" font-family="sans-serif" font-size="14" lengthAdjust="spacing" textLength="164" x="140.8975" y="68.908">Register as a system user</text></g><!--MD5=[a89ee74bb4979dbed373b93afc1c36e4]
entity FM--><g id="elem_FM"><ellipse cx="33" cy="42" fill="#F1F1F1" rx="16" ry="16" style="stroke:#181818;stroke-width:1.5;"/><path d="M33,62 C37,62 40,62 44,58 C52,58 60,66 60,74 L60,78 C60,82 56,86 52,86 L14,86 C10,86 6,82 6,78 L6,74 C6,66 14,58 22,58 C26,62 29,62 33,62 " fill="#F1F1F1" style="stroke:#181818;stroke-width:1.5;"/><text fill="#000000" font-family="sans-serif" font-size="14" lengthAdjust="spacing" textLength="45" x="10.5" y="102.0332">UI User</text></g><!--MD5=[1bd1887c584c9336e9527dad2a977629]
link FM to UC18--><g id="link_FM_UC18"><path d="M61.74,65 C76.62,65 96,65 116.12,65 " fill="none" id="FM-to-UC18" style="stroke:#181818;stroke-width:1.0;"/><polygon fill="#181818" points="121.25,65,112.25,61,116.25,65,112.25,69,121.25,65" style="stroke:#181818;stroke-width:1.0;"/></g><!--MD5=[d7e1830ab707d0bd7e21969635dbcc35]
@startuml
left to right direction

skinparam actorStyle awesome

actor "UI User" as FM


package  RobDroneGo  {

  usecase "Register as a system user" as UC18

}

FM - -> UC18

@enduml

PlantUML version 1.2022.7(Mon Aug 22 18:01:30 WEST 2022)
(GPL source distribution)
Java Runtime: Java(TM) SE Runtime Environment
JVM: Java HotSpot(TM) 64-Bit Server VM
Default Encoding: UTF-8
Language: en
Country: US
--></g></svg>