<?xml version="1.0" encoding="us-ascii" standalone="no"?><svg xmlns="http://www.w3.org/2000/svg" xmlns:xlink="http://www.w3.org/1999/xlink" contentStyleType="text/css" height="249px" preserveAspectRatio="none" style="width:342px;height:249px;background:#FFFFFF;" version="1.1" viewBox="0 0 342 249" width="342px" zoomAndPan="magnify"><defs/><g><line style="stroke:#181818;stroke-width:0.5;stroke-dasharray:5.0,5.0;" x1="22" x2="22" y1="83.6211" y2="166.2031"/><line style="stroke:#181818;stroke-width:0.5;stroke-dasharray:5.0,5.0;" x1="306.5" x2="306.5" y1="83.6211" y2="166.2031"/><text fill="#000000" font-family="sans-serif" font-size="14" lengthAdjust="spacing" textLength="29" x="5" y="80.1074">User</text><ellipse cx="22.5" cy="13.5" fill="#E2E2F0" rx="8" ry="8" style="stroke:#181818;stroke-width:0.5;"/><path d="M22.5,21.5 L22.5,48.5 M9.5,29.5 L35.5,29.5 M22.5,48.5 L9.5,63.5 M22.5,48.5 L35.5,63.5 " fill="none" style="stroke:#181818;stroke-width:0.5;"/><text fill="#000000" font-family="sans-serif" font-size="14" lengthAdjust="spacing" textLength="29" x="5" y="180.3105">User</text><ellipse cx="22.5" cy="192.3242" fill="#E2E2F0" rx="8" ry="8" style="stroke:#181818;stroke-width:0.5;"/><path d="M22.5,200.3242 L22.5,227.3242 M9.5,208.3242 L35.5,208.3242 M22.5,227.3242 L9.5,242.3242 M22.5,227.3242 L35.5,242.3242 " fill="none" style="stroke:#181818;stroke-width:0.5;"/><rect fill="#E2E2F0" height="32.6211" rx="2.5" ry="2.5" style="stroke:#181818;stroke-width:0.5;" width="60" x="276.5" y="50"/><text fill="#000000" font-family="sans-serif" font-size="14" lengthAdjust="spacing" textLength="46" x="283.5" y="72.1074">System</text><rect fill="#E2E2F0" height="32.6211" rx="2.5" ry="2.5" style="stroke:#181818;stroke-width:0.5;" width="60" x="276.5" y="165.2031"/><text fill="#000000" font-family="sans-serif" font-size="14" lengthAdjust="spacing" textLength="46" x="283.5" y="187.3105">System</text><polygon fill="#181818" points="294.5,112.9121,304.5,116.9121,294.5,120.9121,298.5,116.9121" style="stroke:#181818;stroke-width:1.0;"/><line style="stroke:#181818;stroke-width:1.0;" x1="22.5" x2="300.5" y1="116.9121" y2="116.9121"/><text fill="#000000" font-family="sans-serif" font-size="13" font-weight="bold" lengthAdjust="spacing" textLength="7" x="29.5" y="111.6494">1</text><text fill="#000000" font-family="sans-serif" font-size="13" lengthAdjust="spacing" textLength="249" x="40.5" y="111.6494">Starts the process to list all pending tasks.</text><polygon fill="#181818" points="33.5,144.2031,23.5,148.2031,33.5,152.2031,29.5,148.2031" style="stroke:#181818;stroke-width:1.0;"/><line style="stroke:#181818;stroke-width:1.0;stroke-dasharray:2.0,2.0;" x1="27.5" x2="305.5" y1="148.2031" y2="148.2031"/><text fill="#000000" font-family="sans-serif" font-size="13" font-weight="bold" lengthAdjust="spacing" textLength="7" x="39.5" y="142.9404">2</text><text fill="#000000" font-family="sans-serif" font-size="13" lengthAdjust="spacing" textLength="185" x="50.5" y="142.9404">Shows the list of pending tasks.</text><!--SRC=[NSin3e9044RXVa_nXtuzW34qr5GR3p3Y81kN7J8pX7XxHGeJkrUyZrQNkiutra23YwAv6ci3CdHz25sFs2Azp7a-8pcf6tnYB2e3swS59Pk3Ii72zPxh0qxsjDDkBp7-y2JRORz0nly_l040]--></g></svg>