<?xml version="1.0" encoding="us-ascii" standalone="no"?><svg xmlns="http://www.w3.org/2000/svg" xmlns:xlink="http://www.w3.org/1999/xlink" contentStyleType="text/css" height="108px" preserveAspectRatio="none" style="width:313px;height:108px;background:#FFFFFF;" version="1.1" viewBox="0 0 313 108" width="313px" zoomAndPan="magnify"><defs/><g><!--cluster RobDroneGo--><g id="cluster_RobDroneGo"><path d="M108,6.0137 L200,6.0137 A3.75,3.75 0 0 1 202.5,8.5137 L209.5,30.6348 L304,30.6348 A2.5,2.5 0 0 1 306.5,33.1348 L306.5,96.5137 A2.5,2.5 0 0 1 304,99.0137 L108,99.0137 A2.5,2.5 0 0 1 105.5,96.5137 L105.5,8.5137 A2.5,2.5 0 0 1 108,6.0137 " fill="none" style="stroke:#000000;stroke-width:1.5;"/><line style="stroke:#000000;stroke-width:1.5;" x1="105.5" x2="209.5" y1="30.6348" y2="30.6348"/><text fill="#000000" font-family="sans-serif" font-size="14" font-weight="bold" lengthAdjust="spacing" textLength="91" x="109.5" y="23.1211">RobDroneGo</text></g><g id="elem_UC45"><ellipse cx="205.9261" cy="62.7989" fill="#F1F1F1" rx="84.4261" ry="19.2852" style="stroke:#181818;stroke-width:0.5;"/><text fill="#000000" font-family="sans-serif" font-size="14" lengthAdjust="spacing" textLength="120" x="142.9261" y="67.6026">List Pending Tasks</text></g><!--entity FM--><g id="elem_FM"><ellipse cx="33" cy="39.5137" fill="#F1F1F1" rx="16" ry="16" style="stroke:#181818;stroke-width:1.5;"/><path d="M33,59.5137 C37,59.5137 40,59.5137 44,55.5137 C52,55.5137 60,63.5137 60,71.5137 L60,75.5137 C60,79.5137 56,83.5137 52,83.5137 L14,83.5137 C10,83.5137 6,79.5137 6,75.5137 L6,71.5137 C6,63.5137 14,55.5137 22,55.5137 C26,59.5137 29,59.5137 33,59.5137 " fill="#F1F1F1" style="stroke:#181818;stroke-width:1.5;"/><text fill="#000000" font-family="sans-serif" font-size="14" lengthAdjust="spacing" textLength="45" x="8.5" y="100.1211">UI User</text></g><!--link FM to UC45--><g id="link_FM_UC45"><path d="M61.85,63.0137 C78.23,63.0137 93.88,63.0137 115.37,63.0137 " fill="none" id="FM-to-UC45" style="stroke:#181818;stroke-width:1.0;"/><polygon fill="#181818" points="121.37,63.0137,112.37,59.0137,116.37,63.0137,112.37,67.0137,121.37,63.0137" style="stroke:#181818;stroke-width:1.0;"/></g><!--SRC=[9Okn2i9040Nx_Of7-dJQsYWHmO14ym7hPOr7ajjmko8Y_hiIkvc16UNcS4ME_TtHnIp1eoOY6sAQEVC43gxvxAzHm4yndOHeQIZQ0rgJ7u0DLKr4CuU1Um4QlUwo9jahy2O27YQ1JL0SepbEahgOUbpO1blsThjQ4ts8gXfbkVdx5m00]--></g></svg>