<?xml version="1.0" encoding="us-ascii" standalone="no"?><svg xmlns="http://www.w3.org/2000/svg" xmlns:xlink="http://www.w3.org/1999/xlink" contentStyleType="text/css" height="100px" preserveAspectRatio="none" style="width:279px;height:100px;background:#FFFFFF;" version="1.1" viewBox="0 0 279 100" width="279px" zoomAndPan="magnify"><defs/><g><!--cluster RobDroneGo--><g id="cluster_RobDroneGo"><path d="M108,6 L200,6 A3.75,3.75 0 0 1 202.5,8.5 L209.5,27.6406 L270,27.6406 A2.5,2.5 0 0 1 272.5,30.1406 L272.5,85.5 A2.5,2.5 0 0 1 270,88 L108,88 A2.5,2.5 0 0 1 105.5,85.5 L105.5,8.5 A2.5,2.5 0 0 1 108,6 " fill="none" style="stroke:#000000;stroke-width:1.5;"/><line style="stroke:#000000;stroke-width:1.5;" x1="105.5" x2="209.5" y1="27.6406" y2="27.6406"/><text fill="#000000" font-family="sans-serif" font-size="14" font-weight="bold" lengthAdjust="spacing" textLength="91" x="109.5" y="20.6738">RobDroneGo</text></g><g id="elem_UC18"><ellipse cx="188.8217" cy="55.8643" fill="#F1F1F1" rx="67.3217" ry="15.8643" style="stroke:#181818;stroke-width:0.5;"/><text fill="#000000" font-family="sans-serif" font-size="14" lengthAdjust="spacing" textLength="90" x="142.1729" y="59.1479">Create a Task</text></g><!--entity FM--><g id="elem_FM"><ellipse cx="33" cy="34" fill="#F1F1F1" rx="16" ry="16" style="stroke:#181818;stroke-width:1.5;"/><path d="M33,54 C37,54 40,54 44,50 C52,50 60,58 60,66 L60,70 C60,74 56,78 52,78 L14,78 C10,78 6,74 6,70 L6,66 C6,58 14,50 22,50 C26,54 29,54 33,54 " fill="#F1F1F1" style="stroke:#181818;stroke-width:1.5;"/><text fill="#000000" font-family="sans-serif" font-size="14" lengthAdjust="spacing" textLength="45" x="8.5" y="92.1738">UI User</text></g><!--link FM to UC18--><g id="link_FM_UC18"><path d="M61.53,56 C76.79,56 96.55,56 115.9,56 " fill="none" id="FM-to-UC18" style="stroke:#181818;stroke-width:1.0;"/><polygon fill="#181818" points="121.34,56,112.34,52,116.34,56,112.34,60,121.34,56" style="stroke:#181818;stroke-width:1.0;"/></g><!--SRC=[9Omn3i9030HxlsALFWKT5KrG44KQu1vW3XDEbyJHsGWXnD-9GhSpqkmWTuShIkeVZbig4ZtfH6GvJJCN7i7HjPpzFGZu9QQZ4AqELJWYc2m3R6Wx8fevPku5EEbrNtIIWm8V8k1f4ja4LLE4VVd2XIslPMWsMw8lKTkXhdT__W40]--></g></svg>